<?xml version="1.0" standalone="no"?>
<!DOCTYPE svg PUBLIC "-//W3C//DTD SVG 1.1//EN" "http://www.w3.org/Graphics/SVG/1.1/DTD/svg11.dtd" >
<svg xmlns="http://www.w3.org/2000/svg" xmlns:xlink="http://www.w3.org/1999/xlink" version="1.1">
<metadata>
Created by FontForge 20150318 at Tue Mar 24 19:41:36 2015
 By uniteet7
Published by Die Gestalten Verlag GmbH &#38; Co. KG, 2008
Copyright (c) by Binnenland, 2006, Designed by Mika Mischler / 2002-2006 All rights reserved. This software may not be reproduced, used, displayed, modified, disclosed or transferred without the express written approval of (Binnenland).
</metadata>
<defs>
<font id="TSTARPRO-BoldItalic" horiz-adv-x="545" >
  <font-face 
    font-family="TSTAR PRO"
    font-weight="700"
    font-style="italic"
    font-stretch="normal"
    units-per-em="1000"
    panose-1="2 0 8 6 3 0 0 2 0 4"
    ascent="774"
    descent="-226"
    x-height="524"
    cap-height="713"
    bbox="-71 -226 1058.1 987"
    underline-thickness="51"
    underline-position="-89"
    unicode-range="U+0020-FB02"
  />
<missing-glyph horiz-adv-x="1000" 
 />
    <glyph glyph-name=".notdef" horiz-adv-x="1000" 
 />
    <glyph glyph-name=".null" horiz-adv-x="0" 
 />
    <glyph glyph-name="nonmarkingreturn" horiz-adv-x="333" 
 />
    <glyph glyph-name="space" unicode=" " horiz-adv-x="220" 
 />
    <glyph glyph-name="exclam" unicode="!" horiz-adv-x="272" 
d="M185 188h-95l102 525h95zM161 0h-120l23 120h120z" />
    <glyph glyph-name="quotedbl" unicode="&#x22;" horiz-adv-x="378" 
d="M211 514h-94l35 179h94zM343 514h-93l35 179h93z" />
    <glyph glyph-name="numbersign" unicode="#" horiz-adv-x="658" 
d="M627 406h-108l-37 -103h96l-17 -86h-108l-71 -198h-88l67 198h-100l-72 -198h-89l69 198h-85l17 86h99l37 103h-86l16 85h97l68 182h90l-64 -182h100l68 182h88l-66 -182h95zM429 406h-101l-38 -103h102z" />
    <glyph glyph-name="dollar" unicode="$" horiz-adv-x="524" 
d="M479 188q-15 -75 -69.5 -127t-137.5 -66l-17 -90h-93l17 89q-75 12 -110 65.5t-20 128.5h97q-20 -101 94 -101q56 0 95 28.5t48 74.5q12 61 -43 97q-46 30 -147 85q-39 21 -57 65t-8 97q14 72 63.5 120.5t127.5 60.5l17 90h93l-17 -90q69 -14 103 -65.5t20 -123.5h-98
q19 98 -91 98q-45 0 -79.5 -24.5t-43.5 -67.5q-9 -52 40 -80q11 -6 63.5 -35t76.5 -44q99 -60 76 -185z" />
    <glyph glyph-name="percent" unicode="%" horiz-adv-x="845" 
d="M763 143q-12 -61 -57 -97.5t-107 -36.5q-63 0 -93.5 36.5t-18.5 97.5l18 97q13 62 58 99t107 37q63 0 93.5 -36.5t17.5 -99.5zM685 695l-361 -695h-97l362 695h96zM405 454q-12 -61 -57 -98t-107 -37q-63 0 -93 36.5t-18 98.5l19 98q12 61 56.5 98t106.5 37
q63 0 93.5 -37t18.5 -98zM671 143l18 97q11 45 -37 45q-46 0 -55 -45l-18 -97q-9 -44 37 -44t55 44zM314 454l19 98q9 43 -39 43q-45 0 -53 -43l-19 -98q-8 -44 36 -44q48 0 56 44z" />
    <glyph glyph-name="ampersand" unicode="&#x26;" horiz-adv-x="652" 
d="M575 173l-75 -75l-26 28q-38 -68 -98 -101.5t-131 -33.5q-40 0 -74 11.5t-62 35t-39 65.5t0 97q23 117 152 186l-3.5 3.5l-4 4t-3.5 4.5l-1 1q-59 62 -43 141q18 91 83.5 134.5t144.5 43.5q87 0 134.5 -57t29.5 -150h-96q11 54 -11 83.5t-76 29.5q-97 0 -114 -86
q-2 -10 -2.5 -18t1.5 -15.5t4 -12.5t7.5 -12t8.5 -10.5t11 -11.5q45 -45 142 -143.5t141 -141.5zM264 86q48 0 88 25.5t53 84.5q-23 25 -67 69l-58 58q-17 -7 -29 -14q-72 -41 -85 -110q-23 -113 98 -113z" />
    <glyph glyph-name="quotesingle" unicode="'" horiz-adv-x="247" 
d="M212 515h-95l35 178h95z" />
    <glyph glyph-name="parenleft" unicode="(" horiz-adv-x="309" 
d="M195 -21l-72 -69q-53 62 -62 89q-12 38 -1 95l98 500q11 61 37 94q20 28 96 90l45 -68q-52 -48 -63 -64q-16 -24 -22 -57l-96 -490q-6 -36 0 -59q8 -23 40 -61z" />
    <glyph glyph-name="parenright" unicode=")" horiz-adv-x="311" 
d="M219 94q-11 -58 -37 -95q-15 -21 -95 -89l-49 71q49 36 66 59q16 23 22 59l96 490q6 32 0 57q-7 20 -40 63l73 67q53 -63 61 -88q12 -38 1 -94z" />
    <glyph glyph-name="asterisk" unicode="*" horiz-adv-x="587" 
d="M499 466l-58 -73l-74 51l-15 -99h-85l21 98l-92 -50l-28 72l93 46l-75 47l56 73l73 -50l17 98h85l-24 -100l94 52l28 -74l-92 -45z" />
    <glyph glyph-name="plus" unicode="+" horiz-adv-x="560" 
d="M509 236h-165l-33 -170h-91l33 170h-164l17 90h164l31 159h91l-31 -159h165z" />
    <glyph glyph-name="comma" unicode="," horiz-adv-x="322" 
d="M269 124l-197 -239h-73l134 239h136z" />
    <glyph glyph-name="hyphen" unicode="-" horiz-adv-x="459" 
d="M401 236h-307l18 90h307z" />
    <glyph glyph-name="period" unicode="." horiz-adv-x="272" 
d="M193 0h-128l25 128h128z" />
    <glyph glyph-name="slash" unicode="/" horiz-adv-x="507" 
d="M542 747l-415 -797h-95l416 797h94z" />
    <glyph glyph-name="zero" unicode="0" horiz-adv-x="514" 
d="M448 182q-6 -29 -18 -57t-36.5 -61t-70.5 -53t-106 -20q-45 0 -77.5 14t-47.5 35.5t-24 47.5t-6.5 50.5t4.5 44.5l67 347q6 29 18 56.5t37 60t70 52.5t105 20q40 0 70.5 -13.5t47 -35t27 -47.5t10.5 -50t-2 -44zM355 184l67 344q11 57 -12 77t-66 20q-98 0 -116 -97
l-67 -344q-20 -98 79 -98q95 0 115 98z" />
    <glyph glyph-name="one" unicode="1" horiz-adv-x="518" 
d="M411 0h-371l18 94h137l102 524l-102 -8l18 92l197 16l-121 -624h140z" />
    <glyph glyph-name="two" unicode="2" horiz-adv-x="509" 
d="M421 0h-403l30 154q16 88 122 162q31 21 100.5 58t104.5 62q41 30 52 85q10 53 -10 78.5t-77 25.5q-23 0 -45 -7t-47.5 -34.5t-35.5 -73.5h-94q6 32 21 64t41.5 67t73 56.5t104.5 21.5q89 0 135 -54.5t29 -142.5q-19 -98 -97 -155q-35 -25 -108.5 -64t-107.5 -62
q-59 -43 -68 -92l-11 -55h309z" />
    <glyph glyph-name="three" unicode="3" horiz-adv-x="512" 
d="M528 627l-165 -195q38 -9 63.5 -31.5t34.5 -47.5t12.5 -52t-2.5 -45l-14 -70q-4 -22 -13 -45.5t-28 -51t-44.5 -48.5t-65 -35.5t-87.5 -14.5q-46 0 -80 13t-51 33t-27.5 46t-9 51.5t4.5 48.5h94q-19 -97 86 -97q40 0 77 22t48 78l14 68q6 29 -1.5 49.5t-24.5 29t-32 12
t-31 3.5h-50l17 87l158 184h-243l18 94h359z" />
    <glyph glyph-name="four" unicode="4" horiz-adv-x="522" 
d="M425 0h-96l38 194h-302l17 87l243 432h99l-238 -424h199l50 256h96z" />
    <glyph glyph-name="five" unicode="5" horiz-adv-x="510" 
d="M462 190q-17 -87 -85 -143t-159 -56q-86 0 -135 53t-34 136h95q-18 -94 92 -94q46 0 84.5 27.5t47.5 75.5l12 64q9 46 -11 76t-78 30h-179l16 82l73 272h329l-18 -94h-240q-7 -25 -22 -79.5t-24 -87.5h85q82 0 131.5 -55t32.5 -142z" />
    <glyph glyph-name="six" unicode="6" horiz-adv-x="512" 
d="M456 180q-4 -21 -13 -43t-27.5 -49.5t-44 -48t-66 -34.5t-89.5 -14q-44 0 -77.5 13.5t-50 34.5t-27 47t-9.5 50t3 43l68 348q5 27 20.5 57t43 61t73 51.5t101.5 20.5q55 0 91 -23t47 -55.5t15 -69t-4 -63.5h-94q5 38 2 60.5t-17.5 35.5t-28 17t-29.5 4q-25 0 -47.5 -6
t-47 -29.5t-32.5 -62.5l-19 -101q56 36 115 36q45 0 78.5 -13.5t50 -34.5t27 -47t9 -50.5t-3.5 -45.5zM361 183l16 85q20 98 -88 98q-22 0 -44 -6t-46.5 -29.5t-32.5 -62.5l-16 -85q-6 -29 0 -50t20.5 -30.5t30 -13.5t34.5 -4q16 0 32.5 3.5t36.5 13t35.5 30.5t21.5 51z" />
    <glyph glyph-name="seven" unicode="7" horiz-adv-x="510" 
d="M553 633l-351 -633h-98l345 619h-319l18 94h420z" />
    <glyph glyph-name="eight" unicode="8" horiz-adv-x="520" 
d="M478 203q-5 -26 -14.5 -52t-29.5 -56t-47 -52t-69.5 -37t-94.5 -15q-45 0 -79.5 14.5t-53 38t-30 52t-11.5 56t3 51.5q8 42 39.5 89t82.5 74q-33 25 -47.5 68.5t-6.5 84.5q7 33 21 64t41 63.5t74 52t109 19.5q43 0 76.5 -13.5t51.5 -35t30 -48t12 -53t-3 -49.5
q-7 -40 -40 -84.5t-79 -68.5q45 -26 59 -72.5t6 -90.5zM382 203q10 53 -17.5 84t-77.5 31q-51 0 -90 -31t-49 -84q-13 -67 17 -92t77 -25q24 0 49 7t53.5 35.5t37.5 74.5zM436 519q11 60 -17.5 82.5t-72.5 22.5q-16 0 -33.5 -4t-38.5 -14.5t-37 -32.5t-22 -54
q-10 -49 15.5 -78t74.5 -29t85 29t46 78z" />
    <glyph glyph-name="nine" unicode="9" horiz-adv-x="512" 
d="M456 182q-4 -22 -12.5 -44.5t-27.5 -50t-44 -48t-65 -34.5t-89 -14q-44 0 -76.5 15t-48 38.5t-24.5 52.5t-7 56t5 50h96q-14 -68 9 -92.5t66 -24.5q103 0 123 98l20 102q-62 -36 -115 -36q-45 0 -78 14t-49.5 35.5t-26.5 47.5t-9 50.5t3 44.5l17 87q5 28 19 56.5t40 60.5
t72.5 52t106.5 20q45 0 78.5 -13.5t50 -34.5t27.5 -46.5t10 -49.5t-3 -43zM411 443l17 84q18 97 -86 97q-23 0 -45 -5.5t-47.5 -29t-32.5 -62.5l-17 -84q-20 -99 88 -99q16 0 32 3.5t35.5 13t34.5 31t21 51.5z" />
    <glyph glyph-name="colon" unicode=":" horiz-adv-x="272" 
d="M179 0h-128l24 128h128zM237 302h-128l25 128h128z" />
    <glyph glyph-name="semicolon" unicode=";" horiz-adv-x="287" 
d="M225 124l-196 -239h-73l133 239h136zM252 302h-128l25 128h128z" />
    <glyph glyph-name="less" unicode="&#x3c;" 
d="M437 0h-124l-212 263l311 262h142l-322 -271z" />
    <glyph glyph-name="equal" unicode="=" horiz-adv-x="594" 
d="M518 333h-370l18 90h370zM484 158h-370l18 90h370z" />
    <glyph glyph-name="greater" unicode="&#x3e;" horiz-adv-x="547" 
d="M496 262l-316 -262h-145l329 276l-199 249h120z" />
    <glyph glyph-name="question" unicode="?" horiz-adv-x="443" 
d="M488 521q-13 -70 -69 -121q-20 -18 -63.5 -49.5t-62.5 -48.5q-25 -23 -34 -67l-9 -47h-95l9 44q15 77 71 129q17 16 60.5 46t63.5 50q26 25 35 63q10 53 -9.5 79.5t-75.5 26.5q-22 0 -44 -7t-49 -35.5t-38 -75.5h-94q5 25 15 50t29.5 55t45 52.5t65.5 37.5t88 15
q89 0 133.5 -54.5t27.5 -142.5zM228 0h-119l23 120h119z" />
    <glyph glyph-name="at" unicode="@" horiz-adv-x="645" 
d="M521 18h-90l5 25q-9 -9 -29 -17t-37 -8q-61 0 -93.5 35.5t-19.5 102.5l35 182q13 66 61.5 102t108.5 36q33 0 48 -21l12 62q12 59 -18 84.5t-85 25.5q-49 0 -93 -27t-55 -85l-102 -525q-6 -29 3.5 -50t28.5 -31t37.5 -14.5t37.5 -4.5l-18 -95q-51 0 -88.5 13.5t-56.5 35
t-31 47t-11 50.5t3 46l104 532q6 29 20 58.5t42 63.5t79 55.5t118 21.5q50 0 88 -15t56 -37.5t30 -50t10.5 -52.5t-3.5 -45zM453 160l34 177q10 49 -44 49q-51 0 -61 -52l-34 -174q-5 -27 4 -39t36 -12q55 0 65 51z" />
    <glyph glyph-name="A" unicode="A" horiz-adv-x="557" 
d="M501 0h-97l-12 194h-215l-89 -194h-101l323 713h140zM385 290l-20 318l-147 -318h167z" />
    <glyph glyph-name="B" unicode="B" horiz-adv-x="554" 
d="M496 194q-5 -23 -12.5 -45t-25.5 -50.5t-42.5 -49t-64.5 -35t-90 -14.5h-220l138 713h215q47 0 80.5 -14t49.5 -34.5t23.5 -48t7 -50t-5.5 -44.5l-2 -12q-7 -35 -31 -76t-64 -66q37 -24 46 -68t2 -82zM449 512l2 9q11 58 -11 76.5t-66 18.5h-116l-39 -201h122
q20 0 38.5 5.5t40.5 29t29 62.5zM400 196l4 21q12 60 -10.5 81t-67.5 21h-126l-43 -222h121q17 0 33 3.5t35 13t33.5 30.5t20.5 52z" />
    <glyph glyph-name="C" unicode="C" horiz-adv-x="528" 
d="M481 188q-6 -29 -20.5 -59t-41.5 -63t-75 -54t-109 -21q-46 0 -80.5 14.5t-51.5 36.5t-28 49t-10 52.5t3 45.5l65 336q5 28 19 57.5t41 62t75 53t110 20.5q45 0 79.5 -14t52 -36t28.5 -48t10.5 -51t-2.5 -45h-98q20 99 -89 99q-24 0 -47 -6t-49 -30t-34 -64l-65 -334
q-20 -101 91 -101q23 0 45.5 6t48.5 30t34 64h98z" />
    <glyph glyph-name="D" unicode="D" horiz-adv-x="554" 
d="M491 196q-5 -23 -12.5 -45t-25.5 -51t-41.5 -50t-63 -35.5t-88.5 -14.5h-219l139 714h215q47 0 81 -14t49.5 -36.5t25 -49t7.5 -51t-4 -44.5zM395 197l62 319q11 59 -13 80t-68 21h-118l-102 -521h120q16 0 32 4t34.5 13.5t32.5 31t20 52.5z" />
    <glyph glyph-name="E" unicode="E" horiz-adv-x="518" 
d="M437 0h-396l138 713h396l-18 -97h-299l-38 -192h277l-18 -96h-277l-45 -232h299z" />
    <glyph glyph-name="F" unicode="F" horiz-adv-x="508" 
d="M557 616h-299l-38 -193h277l-19 -96h-277l-63 -327h-97l138 713h396z" />
    <glyph glyph-name="G" unicode="G" 
d="M481 188q-6 -29 -21 -59t-42 -63t-75 -54t-109 -21q-46 0 -80.5 14.5t-51.5 36.5t-27.5 49t-9.5 52.5t3 45.5l65 336q5 28 19 57.5t41 62t75 53t110 20.5q45 0 79.5 -13.5t52 -34.5t29 -47.5t10.5 -51.5t-3 -47h-98q18 98 -89 98q-17 0 -34 -3.5t-38 -13t-36.5 -31
t-21.5 -51.5l-65 -334q-20 -100 91 -100q23 0 45.5 6t48.5 30t34 64l23 117h-122l18 97h220z" />
    <glyph glyph-name="H" unicode="H" horiz-adv-x="578" 
d="M467 0h-98l63 325h-231l-63 -325h-97l138 713h97l-56 -291h231l56 291h98z" />
    <glyph glyph-name="I" unicode="I" horiz-adv-x="250" 
d="M179 713h98l-138 -713h-98z" />
    <glyph glyph-name="J" unicode="J" horiz-adv-x="461" 
d="M392 187q-38 -196 -225 -196q-87 0 -126.5 53.5t-22.5 142.5h97q-12 -58 8.5 -78.5t62.5 -20.5q90 0 108 93l85 435h-206l19 97h302z" />
    <glyph glyph-name="K" unicode="K" horiz-adv-x="534" 
d="M474 0h-107l-121 308l-62 -70l-46 -238h-97l138 713h97l-58 -302l273 302h117l-293 -330z" />
    <glyph glyph-name="L" unicode="L" horiz-adv-x="482" 
d="M436 0h-395l138 713h97l-119 -617h298z" />
    <glyph glyph-name="M" unicode="M" horiz-adv-x="664" 
d="M139 0h-98l138 713h108l77 -347l209 347h118l-138 -713h-98l97 501l-175 -289h-78l-63 290z" />
    <glyph glyph-name="N" unicode="N" horiz-adv-x="569" 
d="M458 0h-103l-119 509l-98 -509h-97l138 713h101l120 -514l100 514h96z" />
    <glyph glyph-name="O" unicode="O" 
d="M481 188q-6 -29 -20.5 -59t-41.5 -63t-75 -54t-109 -21q-46 0 -80.5 14.5t-51.5 36.5t-28 49t-10 52.5t3 45.5l65 336q5 28 19 57.5t41 62t75 53t110 20.5q45 0 79.5 -14t52 -36t28.5 -48t10.5 -51t-2.5 -45zM383 189l65 334q20 100 -89 100q-24 0 -47 -6t-49 -30
t-34 -64l-65 -334q-20 -101 91 -101q16 0 32.5 4t37 13.5t36.5 31t22 52.5z" />
    <glyph glyph-name="P" unicode="P" horiz-adv-x="529" 
d="M544 468q-6 -31 -18.5 -59.5t-37 -62t-70 -54t-105.5 -20.5h-122l-53 -272h-97l138 713h215q47 0 81 -14t50 -36.5t25.5 -49t7.5 -51t-4 -44.5zM448 469l9 47q20 100 -83 100h-116l-49 -248h118q101 0 121 101z" />
    <glyph glyph-name="Q" unicode="Q" 
d="M175 -102l19 98q-38 10 -66 33.5t-39.5 51.5t-17 57.5t0.5 50.5l66 336q4 22 13 44.5t28 50.5t44.5 48.5t67 35t91.5 14.5q56 0 95 -21.5t53.5 -51.5t21 -63.5t-1.5 -57.5l-65 -336q-5 -28 -15.5 -54t-32 -57.5t-61 -54t-91.5 -28.5l-18 -96h-92zM387 189l65 334
q20 100 -88 100q-17 0 -34 -3.5t-38 -13.5t-37 -31t-22 -52l-65 -334q-15 -80 45 -94l25 126h92l-25 -127q68 18 82 95z" />
    <glyph glyph-name="R" unicode="R" horiz-adv-x="561" 
d="M478 0h-110l-80 291h-94l-56 -291h-97l138 713h215q47 0 81.5 -14t50.5 -36t26 -48.5t8 -51t-4 -44.5l-7 -33q-28 -145 -155 -184zM452 487l5 29q20 100 -83 100h-116l-45 -229h118q101 0 121 100z" />
    <glyph glyph-name="S" unicode="S" horiz-adv-x="524" 
d="M479 188q-18 -87 -88.5 -142.5t-168.5 -55.5q-95 0 -142.5 56t-30.5 142h97q-20 -101 94 -101q56 0 95 28.5t48 74.5q12 61 -43 97q-46 30 -147 85q-39 21 -57 65t-8 97q16 83 79.5 134t157.5 51q92 0 139.5 -54.5t30.5 -138.5h-98q10 47 -13.5 72.5t-77.5 25.5
q-45 0 -79.5 -24.5t-42.5 -67.5q-11 -52 39 -80q11 -6 63.5 -35t76.5 -44q99 -60 76 -185z" />
    <glyph glyph-name="T" unicode="T" horiz-adv-x="478" 
d="M540 615h-169l-119 -615h-97l119 615h-168l19 98h434z" />
    <glyph glyph-name="U" unicode="U" 
d="M481 188q-6 -31 -20 -60.5t-40.5 -63t-74 -53.5t-109.5 -20q-47 0 -82.5 14t-52.5 36t-28 48.5t-9.5 52.5t3.5 47l102 524h97l-102 -524q-20 -101 90 -101q16 0 33 4t37.5 13.5t36.5 31t22 52.5l102 524h97z" />
    <glyph glyph-name="V" unicode="V" horiz-adv-x="540" 
d="M521 713h100l-315 -713h-140l-41 713h97l29 -616z" />
    <glyph glyph-name="W" unicode="W" horiz-adv-x="791" 
d="M872 713l-287 -713h-109l-20 491l-212 -491h-109l-10 713h100l2 -529l226 528h85l20 -526l207 527h107z" />
    <glyph glyph-name="X" unicode="X" horiz-adv-x="523" 
d="M462 0h-104l-78 257l-179 -257h-122l258 366l-111 347h103l79 -259l180 259h118l-258 -360z" />
    <glyph glyph-name="Y" unicode="Y" horiz-adv-x="516" 
d="M597 713l-275 -455l-50 -258h-98l50 260l-99 453h101l67 -327l194 327h110z" />
    <glyph glyph-name="Z" unicode="Z" horiz-adv-x="460" 
d="M399 0h-407l15 83l382 533h-264l18 97h379l-15 -81l-381 -536h292z" />
    <glyph glyph-name="bracketleft" unicode="[" horiz-adv-x="323" 
d="M199 -77h-171l161 828h171l-18 -89h-81l-126 -650h81z" />
    <glyph glyph-name="backslash" unicode="\" horiz-adv-x="506" 
d="M386 -52h-93l-107 796h94z" />
    <glyph glyph-name="bracketright" unicode="]" horiz-adv-x="323" 
d="M199 -77h-171l17 89h81l126 650h-81l18 89h171z" />
    <glyph glyph-name="asciicircum" unicode="^" horiz-adv-x="523" 
d="M472 397h-96l-53 153l-111 -153h-111l201 275h79z" />
    <glyph glyph-name="underscore" unicode="_" horiz-adv-x="512" 
d="M501 -150h-527l16 85h527z" />
    <glyph glyph-name="grave" unicode="`" horiz-adv-x="351" 
d="M308 541h-82l-72 178h102z" />
    <glyph glyph-name="a" unicode="a" horiz-adv-x="519" 
d="M491 359l-70 -359h-96l8 40q-46 -49 -131 -49q-71 0 -115.5 45t-28.5 130q14 73 72 113.5t135 40.5h122l7 36q9 47 -8 65t-65 18q-84 0 -110 -76h-95q24 86 87 127.5t136 41.5q78 0 123.5 -42t28.5 -131zM361 182l9 47h-121q-84 0 -97 -63q-16 -85 80 -85q43 0 81.5 28.5
t47.5 72.5z" />
    <glyph glyph-name="b" unicode="b" horiz-adv-x="532" 
d="M467 183q-18 -89 -78.5 -141t-153.5 -52q-27 0 -54 13t-38 31l-7 -34h-95l139 713h95l-44 -224q43 43 110 43q89 0 131.5 -51.5t25.5 -139.5zM373 183l31 158q2 23 3 45t-20 37.5t-64 15.5q-48 0 -79.5 -25.5t-40.5 -72.5l-31 -158q-3 -24 -3.5 -45.5t20.5 -37t65 -15.5
q47 0 78.5 26t40.5 72z" />
    <glyph glyph-name="c" unicode="c" horiz-adv-x="509" 
d="M343 532q82 0 125 -48t36 -133h-97q1 41 -15.5 64.5t-67.5 23.5q-49 0 -81.5 -26t-41.5 -72l-30 -158q-3 -24 -2.5 -45.5t22.5 -37t65 -15.5q84 0 116 87h98q-28 -87 -87 -134.5t-146 -47.5q-90 0 -134 52.5t-27 140.5l30 158q17 88 79.5 139.5t157.5 51.5z" />
    <glyph glyph-name="d" unicode="d" horiz-adv-x="535" 
d="M194 341l-31 -158q-19 -98 81 -98t120 98l31 158q9 46 -13 72t-69 26q-56 0 -84 -29t-35 -69zM67 183l31 158q18 90 78 140.5t155 50.5q30 0 56.5 -13t35.5 -30l44 224h96l-139 -713h-96l7 32q-16 -16 -48.5 -29t-61.5 -13q-88 0 -131.5 53t-26.5 140z" />
    <glyph glyph-name="e" unicode="e" horiz-adv-x="525" 
d="M504 341l-22 -113h-303l-8 -45q-3 -24 -2.5 -45.5t22.5 -37t65 -15.5q84 0 116 87h98q-28 -87 -87 -134.5t-146 -47.5q-90 0 -134 52.5t-27 140.5l30 158q17 88 79.5 139.5t157.5 51.5q90 0 134 -51.5t27 -139.5zM405 322l3 19q20 98 -84 98q-49 0 -81.5 -26t-41.5 -72
l-3 -19h207z" />
    <glyph glyph-name="f" unicode="f" horiz-adv-x="333" 
d="M364 429h-118l-83 -429h-95l83 429h-86l19 95h86l7 35q29 154 175 154h57l-18 -94h-65q-43 0 -52 -48l-9 -47h118z" />
    <glyph glyph-name="g" unicode="g" horiz-adv-x="533" 
d="M338 -39l14 71q-18 -17 -48 -29.5t-59 -12.5q-90 0 -133 52.5t-26 140.5l31 158q17 89 78 140t155 51q29 0 55 -12t36 -28l7 33h96l-110 -564q-36 -187 -231 -187q-69 0 -112 38.5t-44 105.5h99q7 -27 23 -41t51 -14q99 0 118 98zM381 183l31 158q18 98 -80 98
q-47 0 -79 -26t-41 -72l-31 -158q-3 -24 -3.5 -45.5t21 -37t64.5 -15.5q46 0 77.5 26t40.5 72z" />
    <glyph glyph-name="h" unicode="h" horiz-adv-x="539" 
d="M432 0h-94l66 341q3 23 5.5 45t-16.5 37.5t-62 15.5q-46 0 -83 -27t-45 -69l-67 -343h-95l138 713h95l-42 -218q50 37 117 37q91 0 129 -50t20 -141z" />
    <glyph glyph-name="i" unicode="i" horiz-adv-x="263" 
d="M144 0h-94l102 525h94zM267 592h-111l24 126h111z" />
    <glyph glyph-name="j" unicode="j" horiz-adv-x="251" 
d="M245 525l-119 -609q-28 -142 -157 -142h-40l18 94h35q40 0 48 43l120 614h95zM266 592h-110l24 126h110z" />
    <glyph glyph-name="k" unicode="k" horiz-adv-x="521" 
d="M447 0h-103l-102 227l-74 -66l-32 -161h-95l138 713h95l-79 -411l246 223h132l-262 -234z" />
    <glyph glyph-name="l" unicode="l" horiz-adv-x="260" 
d="M64 141l111 572h95l-111 -576q-9 -43 32 -43h35l-18 -94h-40q-53 0 -85 35.5t-19 105.5z" />
    <glyph glyph-name="m" unicode="m" horiz-adv-x="738" 
d="M713 376l-73 -376h-94l71 369q10 28 0 49t-47 21q-93 0 -114 -109l-64 -330h-94l71 366q3 19 3 35.5t-12 27t-36 10.5q-95 0 -115 -110l-64 -329h-95l102 526h95l-5 -25q49 31 105 31q70 0 99 -54q63 54 146 54q76 0 104 -47t17 -109z" />
    <glyph glyph-name="n" unicode="n" horiz-adv-x="539" 
d="M441 0h-94l66 341q3 19 4.5 28t-0.5 25t-9 24t-24.5 14.5t-43.5 6.5q-46 0 -83.5 -27t-45.5 -69l-66 -343h-95l102 524h95l-6 -29q54 37 117 37q90 0 128 -50.5t21 -140.5z" />
    <glyph glyph-name="o" unicode="o" horiz-adv-x="530" 
d="M474 183q-18 -88 -80.5 -140.5t-156.5 -52.5q-90 0 -134 52.5t-27 140.5l30 158q17 88 79.5 139.5t157.5 51.5q90 0 134 -51.5t27 -139.5zM378 183l30 158q20 98 -84 98q-49 0 -81.5 -26t-41.5 -72l-30 -158q-3 -24 -2.5 -45.5t22.5 -37t65 -15.5q48 0 80.5 26t41.5 72z
" />
    <glyph glyph-name="p" unicode="p" horiz-adv-x="533" 
d="M487 183q-18 -91 -77.5 -142t-154.5 -51q-28 0 -55 13.5t-38 29.5l-50 -259h-95l146 751h95l-7 -34q46 41 109 41q88 0 131.5 -52t26.5 -139zM393 183l31 158q19 98 -82 98q-56 0 -84.5 -29t-35.5 -69l-31 -158q-9 -46 13 -72t69 -26q100 0 120 98z" />
    <glyph glyph-name="q" unicode="q" horiz-adv-x="533" 
d="M212 341l-31 -158q-3 -24 -3.5 -45.5t21 -37t64.5 -15.5q46 0 77.5 26t40.5 72l31 158q18 98 -80 98q-47 0 -79 -26t-41 -72zM86 183l31 158q17 89 78 140t155 51q58 0 93 -32l5 25h96l-146 -751h-96l50 259q-18 -17 -48 -30t-59 -13q-90 0 -133 52.5t-26 140.5z" />
    <glyph glyph-name="r" unicode="r" horiz-adv-x="328" 
d="M358 429h-53q-29 0 -57.5 -24t-38.5 -75l-64 -330h-95l102 524h95l-9 -47q32 47 99 47h40z" />
    <glyph glyph-name="s" unicode="s" horiz-adv-x="489" 
d="M447 160q-33 -168 -230 -168q-84 0 -129 48t-33 132h95q-5 -44 15 -64.5t70 -20.5q104 0 118 73q7 37 -41 52q-4 1 -119 33q-50 13 -75 46.5t-16 83.5q30 156 216 156q81 0 125.5 -44.5t36.5 -123.5h-97q1 38 -17.5 56.5t-67.5 18.5q-90 0 -102 -63q-6 -32 38 -45
q9 -3 56.5 -15.5t70.5 -20.5q47 -16 71.5 -50t14.5 -84z" />
    <glyph glyph-name="t" unicode="t" horiz-adv-x="360" 
d="M65 429l19 95h95l36 189h95l-36 -189h109l-19 -95h-109l-56 -292q-9 -43 32 -43h70l-18 -94h-74q-54 0 -86 35.5t-19 105.5l56 288h-95z" />
    <glyph glyph-name="u" unicode="u" horiz-adv-x="542" 
d="M440 0h-96l7 34q-47 -43 -110 -43q-90 0 -133 52t-26 140l66 342h95l-66 -342q-3 -24 -3.5 -45.5t21 -36.5t64.5 -15q46 0 79 25t41 67l67 347h96z" />
    <glyph glyph-name="v" unicode="v" horiz-adv-x="460" 
d="M93 525h96l33 -411l194 411h103l-250 -525h-130z" />
    <glyph glyph-name="w" unicode="w" horiz-adv-x="690" 
d="M729 525l-225 -525h-104l-12 342l-150 -342h-103l-22 525h97l10 -360l157 360h84l15 -360l152 360h101z" />
    <glyph glyph-name="x" unicode="x" horiz-adv-x="480" 
d="M429 0h-100l-77 183l-151 -183h-116l221 269l-112 256h100l80 -183l148 183h118l-223 -266z" />
    <glyph glyph-name="y" unicode="y" horiz-adv-x="454" 
d="M182 0h-33l-45 525h100l30 -410l188 410h102l-286 -622q-37 -81 -76.5 -105t-115.5 -24h-45l18 94h57q46 0 66 43z" />
    <glyph glyph-name="z" unicode="z" horiz-adv-x="447" 
d="M384 0h-373l16 80l303 349h-228l19 95h345l-16 -80l-305 -350h257z" />
    <glyph glyph-name="braceleft" unicode="{" horiz-adv-x="322" 
d="M200 -65h-44q-65 0 -89.5 31t-12.5 95l110 566q12 64 48.5 94.5t101.5 30.5h44l-17 -89h-40q-27 0 -35 -9t-14 -38l-107 -548q-7 -23 -2.5 -33t34.5 -10h40z" />
    <glyph glyph-name="bar" unicode="|" horiz-adv-x="242" 
d="M122 -52h-90l155 798h90z" />
    <glyph glyph-name="braceright" unicode="}" horiz-adv-x="325" 
d="M227 60q-13 -65 -47.5 -95.5t-104.5 -30.5h-46l18 90h47q26 0 32.5 7.5t11.5 34.5l107 552q5 23 -1 33.5t-31 10.5h-42l17 89h46q53 0 80.5 -21.5t27.5 -60.5q0 -15 -5 -43z" />
    <glyph glyph-name="asciitilde" unicode="~" horiz-adv-x="555" 
d="M449 334l58 -53q-61 -49 -86 -62t-62 -13q-24 0 -62.5 21.5t-70.5 21.5q-23 0 -73 -42l-53 53q58 49 83 62.5t61 13.5q24 0 63 -22t71 -22q20 0 71 42z" />
    <glyph glyph-name="exclamdown" unicode="&#xa1;" horiz-adv-x="272" 
d="M138 352h95l-102 -525h-95zM163 540h120l-24 -120h-120z" />
    <glyph glyph-name="cent" unicode="&#xa2;" horiz-adv-x="509" 
d="M407 351q1 41 -15.5 64.5t-67.5 23.5v-1l-1 1q-48 0 -80.5 -26t-41.5 -72l-30 -158q-3 -24 -2.5 -45.5t22.5 -37t65 -15.5q40 0 70.5 23t44.5 64h98q-48 -155 -186 -178l-26 -131h-90l26 131q-69 12 -100.5 62t-16.5 127l30 158q15 77 63.5 125.5t127.5 61.5v1l26 132h90
l-26 -132l-1 -1q61 -13 92.5 -59t25.5 -118h-97z" />
    <glyph glyph-name="sterling" unicode="&#xa3;" horiz-adv-x="510" 
d="M531 529h-94q18 95 -81 95q-37 0 -68.5 -21t-41.5 -73l-22 -114h200l-19 -93h-200l-44 -229h284l-18 -94h-380l62 323h-35l19 93h35l22 113q16 85 74.5 136.5t149.5 51.5q85 0 129 -52.5t28 -135.5z" />
    <glyph glyph-name="yen" unicode="&#xa5;" horiz-adv-x="540" 
d="M436 101h-134l-20 -101h-92l20 101h-136l17 88h136q3 18 6 34t4 21h-136l17 87h103l-81 382h97l67 -330l197 330h105l-231 -382h105l-17 -87h-134l-10 -55h134z" />
    <glyph glyph-name="brokenbar" unicode="&#xa6;" horiz-adv-x="242" 
d="M211 393h-95l64 326h95zM130 -26h-95l63 327h95z" />
    <glyph glyph-name="section" unicode="&#xa7;" horiz-adv-x="554" 
d="M122 375q10 56 44 91q-15 30 -6 74q16 81 74 119.5t144 38.5q87 0 131.5 -45.5t28.5 -126.5h-93q8 38 -11.5 58t-76.5 20q-93 0 -106 -64q-7 -37 32 -44q20 -4 42.5 -9t50 -11.5t42.5 -9.5q50 -12 75 -49t14 -91q-10 -55 -43 -92q14 -26 4 -74q-33 -168 -231 -168
q-88 0 -133 46t-30 126h95q-8 -38 13 -57.5t74 -19.5q106 0 120 73q4 18 -6.5 31t-26.5 18q-75 20 -139 32q-45 8 -68.5 45t-13.5 89zM245 331l135 -31q9 -2 22 -8q10 14 13 34q7 36 -34 49q-9 2 -24 5.5t-48.5 11.5t-78.5 18q-14 -16 -17 -35q-4 -19 2 -29.5t30 -14.5z" />
    <glyph glyph-name="dieresis" unicode="&#xa8;" horiz-adv-x="459" 
d="M432 574h-111l25 127h111zM236 574h-111l25 127h111z" />
    <glyph glyph-name="copyright" unicode="&#xa9;" horiz-adv-x="849" 
d="M556 255q-25 -122 -148 -122q-35 0 -58 13.5t-30 33t-9.5 40t2.5 35.5l34 177q25 120 144 120q36 0 59.5 -13.5t31 -32.5t10.5 -40t-2 -35h-87q4 22 -2.5 28.5t-25.5 6.5q-35 0 -42 -36l-34 -174q-4 -22 2.5 -29.5t25.5 -7.5q35 0 42 36h87zM806 344
q-28 -147 -147 -248.5t-269 -101.5q-145 0 -227 102.5t-54 247.5q29 147 147.5 248t269.5 101q145 0 227 -102t53 -247zM716 344q21 109 -37.5 184t-170.5 75q-107 0 -197.5 -75.5t-111.5 -183.5q-21 -109 37.5 -184t171.5 -75q106 0 196.5 75.5t111.5 183.5z" />
    <glyph glyph-name="ordfeminine" unicode="&#xaa;" horiz-adv-x="413" 
d="M403 580l-47 -240h-71l5 24q-32 -30 -81 -30q-53 0 -82 29.5t-18 89.5q10 50 48 77.5t91 27.5h80l4 20q5 29 -5.5 39.5t-41.5 10.5q-51 0 -67 -50h-72q18 61 59.5 91t92.5 30q53 0 85 -29t20 -90zM309 463l6 28h-79q-49 0 -57 -38q-5 -29 6.5 -39t43.5 -10q27 0 51 16.5
t29 42.5z" />
    <glyph glyph-name="guillemotleft" unicode="&#xab;" horiz-adv-x="493" 
d="M226 46l-175 217l259 218l-26 -136l-110 -93l74 -92zM410 46l-175 217l259 218l-26 -136l-110 -93l74 -92z" />
    <glyph glyph-name="logicalnot" unicode="&#xac;" horiz-adv-x="560" 
d="M491 161h-94l31 157h-322l17 92h416z" />
    <glyph glyph-name="uni00AD" unicode="&#xad;" horiz-adv-x="581" 
d="M521 236h-427l18 90h427z" />
    <glyph glyph-name="registered" unicode="&#xae;" horiz-adv-x="849" 
d="M604 402q-18 -89 -92 -112l47 -155h-96l-45 147h-3l-29 -147h-85l80 408h130q36 0 59.5 -13.5t30.5 -32t10 -39t-2 -34.5zM519 402l4 20q4 21 -3 28.5t-26 7.5h-45l-18 -92h46q35 0 42 36zM806 344q-28 -147 -147 -248.5t-269 -101.5q-145 0 -227 102.5t-54 247.5
q29 147 147.5 248t269.5 101q145 0 227 -102t53 -247zM716 344q21 109 -37.5 184t-170.5 75q-107 0 -197.5 -75.5t-111.5 -183.5q-21 -109 37.5 -184t171.5 -75q106 0 196.5 75.5t111.5 183.5z" />
    <glyph glyph-name="macron" unicode="&#xaf;" horiz-adv-x="466" 
d="M439 559h-314l18 91h314z" />
    <glyph glyph-name="degree" unicode="&#xb0;" horiz-adv-x="334" 
d="M349 589q-10 -53 -51.5 -89t-99.5 -36q-51 0 -80 37t-19 88q10 53 50.5 89t97.5 36q53 0 82.5 -36.5t19.5 -88.5zM282 589q5 26 -6.5 42t-41.5 16q-23 0 -44 -17t-25 -41q-5 -25 6.5 -41t40.5 -16q24 0 45 17t25 40z" />
    <glyph glyph-name="plusminus" unicode="&#xb1;" horiz-adv-x="563" 
d="M514 237h-164l-21 -99h-90l21 99h-165l17 89h165l29 149h90l-29 -149h164zM467 0h-419l18 89h419z" />
    <glyph glyph-name="twosuperior" unicode="&#xb2;" horiz-adv-x="370" 
d="M363 603q-9 -51 -54 -84q-23 -16 -56 -32q-74 -38 -79 -68l-2 -7h153l-14 -72h-225l16 82q10 52 68 90q4 2 39.5 21t57.5 36t25 33q8 40 -34 40q-18 0 -32.5 -15.5t-19.5 -43.5h-72q12 60 47.5 95.5t90.5 35.5q45 0 72.5 -31.5t18.5 -79.5z" />
    <glyph glyph-name="threesuperior" unicode="&#xb3;" horiz-adv-x="368" 
d="M365 649l-72 -83q56 -24 43 -98l-5 -23q-5 -24 -15.5 -46t-41 -43t-75.5 -21q-32 0 -53 13.5t-28 33.5t-9.5 42.5t2.5 41.5h71q-6 -35 2 -47t28 -12q41 0 48 38l5 22q4 21 -7.5 29t-26.5 8h-38l10 52l69 82h-113l14 71h204z" />
    <glyph glyph-name="acute" unicode="&#xb4;" horiz-adv-x="350" 
d="M352 719l-143 -178h-95l121 178h117z" />
    <glyph glyph-name="mu" unicode="&#xb5;" 
d="M119 -177h-95l137 702h95l-67 -342q-3 -24 -3.5 -45.5t21 -36.5t65.5 -15q45 0 78.5 25t41.5 67l68 347h94l-102 -525h-94l6 34q-15 -14 -24 -21t-32 -14.5t-54 -7.5q-30 0 -56.5 12t-38.5 26z" />
    <glyph glyph-name="paragraph" unicode="&#xb6;" horiz-adv-x="555" 
d="M445 0h-94l117 606h-50l-117 -606h-94l71 365q-75 4 -111 50t-23 112q34 172 219 172h217z" />
    <glyph glyph-name="periodcentered" unicode="&#xb7;" horiz-adv-x="276" 
d="M213 203h-124l25 125h124z" />
    <glyph glyph-name="cedilla" unicode="&#xb8;" horiz-adv-x="326" 
d="M259 6l-102 -175h-106l116 175h92z" />
    <glyph glyph-name="onesuperior" unicode="&#xb9;" horiz-adv-x="353" 
d="M295 340h-209l14 71h68l44 226l-51 -5l14 71l122 10l-59 -302h71z" />
    <glyph glyph-name="ordmasculine" unicode="&#xba;" horiz-adv-x="415" 
d="M382 463q-11 -62 -52.5 -96.5t-108.5 -34.5q-62 0 -91.5 35t-18.5 96l21 104q11 61 52.5 96t107.5 35q62 0 92 -35.5t19 -95.5zM310 463l21 104q2 15 2.5 28t-13 22.5t-42.5 9.5q-65 0 -76 -60l-21 -104q-1 -15 -2 -28.5t13 -23t43 -9.5t49.5 16.5t25.5 44.5z" />
    <glyph glyph-name="guillemotright" unicode="&#xbb;" horiz-adv-x="493" 
d="M307 264l-258 -216l26 136l111 92l-75 92l22 114zM492 264l-258 -216l26 136l111 92l-75 92l22 114z" />
    <glyph glyph-name="onequarter" unicode="&#xbc;" horiz-adv-x="712" 
d="M312 340h-209l14 71h68l44 226l-51 -5l14 71l124 10l-59 -302h69zM644 756l-421 -807h-76l422 807h75zM605 0h-71l19 94h-146l10 56l125 221h71l-115 -206h68l25 125h71z" />
    <glyph glyph-name="onehalf" unicode="&#xbd;" horiz-adv-x="743" 
d="M312 340h-209l14 71h68l44 226l-51 -4l14 70l123 10l-59 -302h70zM687 263q-9 -51 -54 -84q-23 -16 -56 -32q-74 -38 -79 -68l-2 -7h153l-14 -72h-225l16 82q11 53 68 90q4 2 39.5 21t57.5 36t25 33q8 40 -34 40q-18 0 -32.5 -15.5t-19.5 -43.5h-72q11 59 47 95t91 36
q45 0 72.5 -31.5t18.5 -79.5zM643 756l-420 -807h-77l422 807h75z" />
    <glyph glyph-name="threequarters" unicode="&#xbe;" horiz-adv-x="722" 
d="M615 0h-71l19 94h-147l10 56l125 221h72l-115 -206h68l25 125h71zM381 649l-72 -83q31 -13 40.5 -40.5t3.5 -57.5l-4 -23q-8 -40 -39 -75t-95 -35q-42 0 -65 23t-24 52t2 56h71q-7 -35 1 -47t28 -12q41 0 49 38l4 22q4 21 -7.5 29t-26.5 8h-38l10 52l69 82h-112l14 71
h203zM653 756l-420 -807h-77l423 807h74z" />
    <glyph glyph-name="questiondown" unicode="&#xbf;" horiz-adv-x="423" 
d="M6 10q13 70 68 121q20 18 63 49.5t63 48.5q26 23 34 67l9 47h95l-8 -44q-15 -77 -71 -129q-17 -16 -61 -46t-64 -50q-27 -27 -34 -63q-10 -54 9 -80t75 -26q22 0 44 7t49 35.5t38 75.5h94q-6 -32 -21 -64.5t-42 -67t-74 -56.5t-106 -22q-88 0 -132.5 54.5t-27.5 142.5z
M266 531h119l-23 -120h-119z" />
    <glyph glyph-name="Agrave" unicode="&#xc0;" horiz-adv-x="557" 
d="M501 0h-97l-12 194h-215l-89 -194h-101l323 713h140zM385 290l-20 318l-147 -318h167zM451 781h-82l-72 178h102z" />
    <glyph glyph-name="Aacute" unicode="&#xc1;" horiz-adv-x="557" 
d="M501 0h-97l-12 194h-215l-89 -194h-101l323 713h140zM385 290l-20 318l-147 -318h167zM575 959l-143 -178h-95l121 178h117z" />
    <glyph glyph-name="Acircumflex" unicode="&#xc2;" horiz-adv-x="557" 
d="M501 0h-97l-12 194h-215l-89 -194h-101l323 713h140zM385 290l-20 318l-147 -318h167zM545 793h-94l-49 69l-75 -69h-106l158 158h72z" />
    <glyph glyph-name="Atilde" unicode="&#xc3;" horiz-adv-x="557" 
d="M501 0h-97l-12 194h-215l-89 -194h-101l323 713h140zM385 290l-20 318l-147 -318h167zM510 906l49 -61q-50 -40 -74 -52t-51 -12q-20 0 -50.5 20.5t-58.5 20.5q-17 0 -60 -35l-49 59q49 41 73 53t52 12q20 0 50.5 -20.5t58.5 -20.5q16 0 60 36z" />
    <glyph glyph-name="Adieresis" unicode="&#xc4;" horiz-adv-x="557" 
d="M501 0h-97l-12 194h-215l-89 -194h-101l323 713h140zM385 290l-20 318l-147 -318h167zM546 793h-111l25 127h111zM350 793h-111l25 127h111z" />
    <glyph glyph-name="Aring" unicode="&#xc5;" horiz-adv-x="557" 
d="M501 0h-97l-12 194h-215l-89 -194h-101l323 713h140zM385 290l-20 318l-147 -318h167zM522 873q-9 -47 -46 -80.5t-90 -33.5q-46 0 -72.5 34t-18.5 80q10 49 46.5 81.5t88.5 32.5q48 0 75 -33t17 -81zM458 873q9 49 -40 49q-20 0 -37 -14.5t-21 -34.5q-9 -48 39 -48
q20 0 37.5 14t21.5 34z" />
    <glyph glyph-name="AE" unicode="&#xc6;" horiz-adv-x="785" 
d="M704 0h-396l38 194h-167l-89 -194h-103l323 713h532l-18 -97h-299l-38 -192h275l-18 -96h-275l-45 -232h299zM371 616l-150 -325h143l64 325h-57z" />
    <glyph glyph-name="Ccedilla" unicode="&#xc7;" horiz-adv-x="523" 
d="M476 188q-6 -29 -20.5 -59t-41.5 -63t-75 -54t-109 -21q-46 0 -80.5 14.5t-51.5 36.5t-28 49t-10 52.5t3 45.5l65 336q5 28 19 57.5t41 62t75 53t110 20.5q45 0 79.5 -14t52 -36t28.5 -48t10.5 -51t-2.5 -45h-98q20 99 -89 99q-24 0 -47 -6t-49 -30t-34 -64l-65 -334
q-20 -101 91 -101q23 0 45.5 6t48.5 30t34 64h98zM291 -43l-102 -175h-106l116 175h92z" />
    <glyph glyph-name="Egrave" unicode="&#xc8;" horiz-adv-x="518" 
d="M437 0h-396l138 713h396l-18 -97h-299l-38 -192h277l-18 -96h-277l-45 -232h299zM461 781h-82l-72 178h102z" />
    <glyph glyph-name="Eacute" unicode="&#xc9;" horiz-adv-x="518" 
d="M437 0h-396l138 713h396l-18 -97h-299l-38 -192h277l-18 -96h-277l-45 -232h299zM549 959l-143 -178h-95l121 178h117z" />
    <glyph glyph-name="Ecircumflex" unicode="&#xca;" horiz-adv-x="518" 
d="M437 0h-396l138 713h396l-18 -97h-299l-38 -192h277l-18 -96h-277l-45 -232h299zM551 793h-94l-49 69l-75 -69h-106l158 158h72z" />
    <glyph glyph-name="Edieresis" unicode="&#xcb;" horiz-adv-x="518" 
d="M437 0h-396l138 713h396l-18 -97h-299l-38 -192h277l-18 -96h-277l-45 -232h299zM539 793h-111l25 127h111zM343 793h-111l25 127h111z" />
    <glyph glyph-name="Igrave" unicode="&#xcc;" horiz-adv-x="251" 
d="M179 713h98l-138 -713h-98zM285 781h-82l-72 178h102z" />
    <glyph glyph-name="Iacute" unicode="&#xcd;" horiz-adv-x="250" 
d="M179 713h98l-138 -713h-98zM434 959l-143 -178h-95l121 178h117z" />
    <glyph glyph-name="Icircumflex" unicode="&#xce;" horiz-adv-x="250" 
d="M179 713h98l-138 -713h-98zM398 793h-94l-49 69l-75 -69h-106l158 158h72z" />
    <glyph glyph-name="Idieresis" unicode="&#xcf;" horiz-adv-x="250" 
d="M179 713h98l-138 -713h-98zM390 793h-111l25 127h111zM194 793h-111l25 127h111z" />
    <glyph glyph-name="Eth" unicode="&#xd0;" horiz-adv-x="641" 
d="M572 196q-5 -23 -12.5 -45t-25.5 -51t-41.5 -50t-63 -35.5t-88.5 -14.5h-219l63 326h-85l18 90h85l58 298h215q47 0 81 -14t49.5 -36.5t25 -49t7.5 -51t-4 -44.5zM407 326h-125l-45 -230h120q16 0 32 4t34.5 13.5t32.5 31t20 52.5l62 319q11 59 -13 80t-68 21h-118
l-39 -201h125z" />
    <glyph glyph-name="Ntilde" unicode="&#xd1;" horiz-adv-x="569" 
d="M458 0h-103l-119 509l-98 -509h-97l138 713h101l120 -514l100 514h96zM526 906l49 -61q-50 -40 -74 -52t-51 -12q-20 0 -50.5 20.5t-58.5 20.5q-17 0 -60 -35l-49 59q49 41 73 53t52 12q20 0 50.5 -20.5t58.5 -20.5q16 0 60 36z" />
    <glyph glyph-name="Ograve" unicode="&#xd2;" 
d="M481 188q-6 -29 -20.5 -59t-41.5 -63t-75 -54t-109 -21q-46 0 -80.5 14.5t-51.5 36.5t-28 49t-10 52.5t3 45.5l65 336q5 28 19 57.5t41 62t75 53t110 20.5q45 0 79.5 -14t52 -36t28.5 -48t10.5 -51t-2.5 -45zM383 189l65 334q20 100 -89 100q-24 0 -47 -6t-49 -30
t-34 -64l-65 -334q-20 -101 91 -101q16 0 32.5 4t37 13.5t36.5 31t22 52.5zM452 781h-82l-72 178h102z" />
    <glyph glyph-name="Oacute" unicode="&#xd3;" 
d="M481 188q-6 -29 -20.5 -59t-41.5 -63t-75 -54t-109 -21q-46 0 -80.5 14.5t-51.5 36.5t-28 49t-10 52.5t3 45.5l65 336q5 28 19 57.5t41 62t75 53t110 20.5q45 0 79.5 -14t52 -36t28.5 -48t10.5 -51t-2.5 -45zM383 189l65 334q20 100 -89 100q-24 0 -47 -6t-49 -30
t-34 -64l-65 -334q-20 -101 91 -101q16 0 32.5 4t37 13.5t36.5 31t22 52.5zM537 959l-143 -178h-95l121 178h117z" />
    <glyph glyph-name="Ocircumflex" unicode="&#xd4;" 
d="M481 188q-6 -29 -20.5 -59t-41.5 -63t-75 -54t-109 -21q-46 0 -80.5 14.5t-51.5 36.5t-28 49t-10 52.5t3 45.5l65 336q5 28 19 57.5t41 62t75 53t110 20.5q45 0 79.5 -14t52 -36t28.5 -48t10.5 -51t-2.5 -45zM383 189l65 334q20 100 -89 100q-24 0 -47 -6t-49 -30
t-34 -64l-65 -334q-20 -101 91 -101q16 0 32.5 4t37 13.5t36.5 31t22 52.5zM556 793h-94l-49 69l-75 -69h-106l158 158h72z" />
    <glyph glyph-name="Otilde" unicode="&#xd5;" 
d="M481 188q-6 -29 -20.5 -59t-41.5 -63t-75 -54t-109 -21q-46 0 -80.5 14.5t-51.5 36.5t-28 49t-10 52.5t3 45.5l65 336q5 28 19 57.5t41 62t75 53t110 20.5q45 0 79.5 -14t52 -36t28.5 -48t10.5 -51t-2.5 -45zM383 189l65 334q20 100 -89 100q-24 0 -47 -6t-49 -30
t-34 -64l-65 -334q-20 -101 91 -101q16 0 32.5 4t37 13.5t36.5 31t22 52.5zM521 905l49 -61q-50 -40 -74 -52t-51 -12q-20 0 -50.5 20.5t-58.5 20.5q-17 0 -60 -35l-49 59q49 41 73 53t52 12q20 0 50.5 -20.5t58.5 -20.5q16 0 60 36z" />
    <glyph glyph-name="Odieresis" unicode="&#xd6;" 
d="M481 188q-6 -29 -20.5 -59t-41.5 -63t-75 -54t-109 -21q-46 0 -80.5 14.5t-51.5 36.5t-28 49t-10 52.5t3 45.5l65 336q5 28 19 57.5t41 62t75 53t110 20.5q45 0 79.5 -14t52 -36t28.5 -48t10.5 -51t-2.5 -45zM383 189l65 334q20 100 -89 100q-24 0 -47 -6t-49 -30
t-34 -64l-65 -334q-20 -101 91 -101q16 0 32.5 4t37 13.5t36.5 31t22 52.5zM543 793h-111l25 127h111zM347 793h-111l25 127h111z" />
    <glyph glyph-name="multiply" unicode="&#xd7;" horiz-adv-x="582" 
d="M478 143l-74 -60l-101 123l-146 -123l-51 61l149 124l-100 124l74 62l99 -124l148 124l50 -62l-148 -124z" />
    <glyph glyph-name="Oslash" unicode="&#xd8;" 
d="M480 188q-5 -29 -19.5 -59t-41.5 -63t-75 -54t-109 -21q-35 0 -63 9l-28 -50h-98l52 97q-21 31 -29 72t-2 70l66 336q4 22 13 44.5t28 50.5t44.5 48.5t67 35t91.5 14.5q36 0 66 -8l31 57h96l-56 -106q21 -28 29.5 -68t2.5 -69zM160 170l111 212q24 47 70.5 135t53.5 101
q-22 5 -36 5q-17 0 -34 -3.5t-38 -13.5t-37 -31t-22 -52zM382 189l65 334l3 9q-1 1 0 3q-43 -85 -123 -236.5t-109 -207.5q13 -3 37 -3q16 0 32.5 4t37 13.5t36 31t21.5 52.5z" />
    <glyph glyph-name="Ugrave" unicode="&#xd9;" 
d="M481 188q-6 -31 -20 -60.5t-40.5 -63t-74 -53.5t-109.5 -20q-47 0 -82.5 14t-52.5 36t-28 48.5t-9.5 52.5t3.5 47l102 524h97l-102 -524q-20 -101 90 -101q16 0 33 4t37.5 13.5t36.5 31t22 52.5l102 524h97zM457 781h-82l-72 178h102z" />
    <glyph glyph-name="Uacute" unicode="&#xda;" 
d="M481 188q-6 -31 -20 -60.5t-40.5 -63t-74 -53.5t-109.5 -20q-47 0 -82.5 14t-52.5 36t-28 48.5t-9.5 52.5t3.5 47l102 524h97l-102 -524q-20 -101 90 -101q16 0 33 4t37.5 13.5t36.5 31t22 52.5l102 524h97zM534 959l-143 -178h-95l121 178h117z" />
    <glyph glyph-name="Ucircumflex" unicode="&#xdb;" 
d="M481 188q-6 -31 -20 -60.5t-40.5 -63t-74 -53.5t-109.5 -20q-47 0 -82.5 14t-52.5 36t-28 48.5t-9.5 52.5t3.5 47l102 524h97l-102 -524q-20 -101 90 -101q16 0 33 4t37.5 13.5t36.5 31t22 52.5l102 524h97zM548 793h-94l-49 69l-75 -69h-106l158 158h72z" />
    <glyph glyph-name="Udieresis" unicode="&#xdc;" 
d="M481 188q-6 -31 -20 -60.5t-40.5 -63t-74 -53.5t-109.5 -20q-47 0 -82.5 14t-52.5 36t-28 48.5t-9.5 52.5t3.5 47l102 524h97l-102 -524q-20 -101 90 -101q16 0 33 4t37.5 13.5t36.5 31t22 52.5l102 524h97zM548 793h-111l25 127h111zM352 793h-111l25 127h111z" />
    <glyph glyph-name="Yacute" unicode="&#xdd;" horiz-adv-x="516" 
d="M597 713l-275 -455l-50 -258h-98l50 260l-99 453h101l67 -327l194 327h110zM522 959l-143 -178h-95l121 178h117z" />
    <glyph glyph-name="Thorn" unicode="&#xde;" horiz-adv-x="568" 
d="M179 713h96l-29 -151h138q90 0 132.5 -55.5t25.5 -146.5q-18 -95 -79.5 -150t-157.5 -55h-138l-30 -155h-96zM365 466h-138l-41 -215h138q43 0 77.5 24.5t46.5 84.5q21 106 -83 106z" />
    <glyph glyph-name="germandbls" unicode="&#xdf;" horiz-adv-x="552" 
d="M209 94h69q23 0 44.5 6.5t44.5 31t31 64.5l9 48q11 59 -12 81t-59 22h-44l18 93h43q68 0 84 82q11 59 -12 80t-66 21q-16 0 -32 -3.5t-35.5 -13.5t-34 -31.5t-20.5 -52.5l-101 -522h-95l102 525q4 23 12 44.5t25.5 49.5t42 48.5t64.5 35t90 14.5q46 0 79.5 -14t49 -36
t25 -48t7 -51l-4.5 -45q-6 -35 -30.5 -72t-53.5 -52q40 -21 51 -67.5t4 -84.5l-10 -51q-5 -24 -12.5 -46t-25.5 -50.5t-42 -49.5t-63.5 -35.5t-88.5 -14.5h-71z" />
    <glyph glyph-name="agrave" unicode="&#xe0;" horiz-adv-x="519" 
d="M491 359l-70 -359h-96l8 40q-46 -49 -131 -49q-71 0 -115.5 45t-28.5 130q14 73 72 113.5t135 40.5h122l7 36q9 47 -8 65t-65 18q-84 0 -110 -76h-95q24 86 87 127.5t136 41.5q78 0 123.5 -42t28.5 -131zM361 182l9 47h-121q-84 0 -97 -63q-16 -85 80 -85q43 0 81.5 28.5
t47.5 72.5zM408 594h-82l-72 178h102z" />
    <glyph glyph-name="aacute" unicode="&#xe1;" horiz-adv-x="519" 
d="M491 359l-70 -359h-96l8 40q-46 -49 -131 -49q-71 0 -115.5 45t-28.5 130q14 73 72 113.5t135 40.5h122l7 36q9 47 -8 65t-65 18q-84 0 -110 -76h-95q24 86 87 127.5t136 41.5q78 0 123.5 -42t28.5 -131zM361 182l9 47h-121q-84 0 -97 -63q-16 -85 80 -85q43 0 81.5 28.5
t47.5 72.5zM499 772l-143 -178h-95l121 178h117z" />
    <glyph glyph-name="acircumflex" unicode="&#xe2;" horiz-adv-x="519" 
d="M491 359l-70 -359h-96l8 40q-46 -49 -131 -49q-71 0 -115.5 45t-28.5 130q14 73 72 113.5t135 40.5h122l7 36q9 47 -8 65t-65 18q-84 0 -110 -76h-95q24 86 87 127.5t136 41.5q78 0 123.5 -42t28.5 -131zM361 182l9 47h-121q-84 0 -97 -63q-16 -85 80 -85q43 0 81.5 28.5
t47.5 72.5zM512 594h-94l-49 69l-75 -69h-106l158 158h72z" />
    <glyph glyph-name="atilde" unicode="&#xe3;" horiz-adv-x="519" 
d="M491 359l-70 -359h-96l8 40q-46 -49 -131 -49q-71 0 -115.5 45t-28.5 130q14 73 72 113.5t135 40.5h122l7 36q9 47 -8 65t-65 18q-84 0 -110 -76h-95q24 86 87 127.5t136 41.5q78 0 123.5 -42t28.5 -131zM361 182l9 47h-121q-84 0 -97 -63q-16 -85 80 -85q43 0 81.5 28.5
t47.5 72.5zM487 740l49 -61q-50 -40 -74 -52t-51 -12q-20 0 -50.5 20.5t-58.5 20.5q-17 0 -60 -35l-49 59q49 41 73 53t52 12q20 0 50.5 -20.5t58.5 -20.5q16 0 60 36z" />
    <glyph glyph-name="adieresis" unicode="&#xe4;" horiz-adv-x="519" 
d="M491 359l-70 -359h-96l8 40q-46 -49 -131 -49q-71 0 -115.5 45t-28.5 130q14 73 72 113.5t135 40.5h122l7 36q9 47 -8 65t-65 18q-84 0 -110 -76h-95q24 86 87 127.5t136 41.5q78 0 123.5 -42t28.5 -131zM361 182l9 47h-121q-84 0 -97 -63q-16 -85 80 -85q43 0 81.5 28.5
t47.5 72.5zM512 631h-111l25 127h111zM316 631h-111l25 127h111z" />
    <glyph glyph-name="aring" unicode="&#xe5;" horiz-adv-x="519" 
d="M491 359l-70 -359h-96l8 40q-46 -49 -131 -49q-71 0 -115.5 45t-28.5 130q14 73 72 113.5t135 40.5h122l7 36q9 47 -8 65t-65 18q-84 0 -110 -76h-95q24 86 87 127.5t136 41.5q78 0 123.5 -42t28.5 -131zM361 182l9 47h-121q-84 0 -97 -63q-16 -85 80 -85q43 0 81.5 28.5
t47.5 72.5zM480 699q-9 -47 -46 -80.5t-90 -33.5q-46 0 -72.5 34t-18.5 80q10 49 46.5 81.5t88.5 32.5q48 0 75 -33t17 -81zM416 699q9 49 -40 49q-20 0 -37 -14.5t-21 -34.5q-9 -48 39 -48q20 0 37.5 14t21.5 34z" />
    <glyph glyph-name="ae" unicode="&#xe6;" horiz-adv-x="811" 
d="M785 341l-22 -113h-297l-8 -45q-3 -24 -3.5 -45.5t21 -36.5t64.5 -15q82 0 115 86h96q-27 -86 -85.5 -133.5t-144.5 -47.5q-44 0 -82.5 21t-54.5 54q-73 -75 -182 -75q-75 0 -117.5 44.5t-26.5 130.5q15 75 68.5 115t134.5 40h129l7 36q9 47 -10 64.5t-69 17.5
q-78 0 -104 -76h-96q24 87 86 128t133 41q42 0 78 -16.5t53 -46.5q67 63 159 63q90 0 132.5 -51.5t25.5 -139.5zM362 181l10 49h-126q-79 0 -92 -64q-9 -45 10 -62.5t68 -17.5q53 0 88 29t42 66zM687 321l3 20q3 23 3.5 45t-21 37.5t-64.5 15.5q-47 0 -78 -24.5t-41 -68.5
l-4 -25h202z" />
    <glyph glyph-name="ccedilla" unicode="&#xe7;" horiz-adv-x="509" 
d="M343 532q82 0 125 -48t36 -133h-97q1 41 -15.5 64.5t-67.5 23.5q-49 0 -81.5 -26t-41.5 -72l-30 -158q-3 -24 -2.5 -45.5t22.5 -37t65 -15.5q84 0 116 87h98q-28 -87 -87 -134.5t-146 -47.5q-90 0 -134 52.5t-27 140.5l30 158q17 88 79.5 139.5t157.5 51.5zM282 -43
l-102 -175h-106l116 175h92z" />
    <glyph glyph-name="egrave" unicode="&#xe8;" horiz-adv-x="525" 
d="M504 341l-22 -113h-303l-8 -45q-3 -24 -2.5 -45.5t22.5 -37t65 -15.5q84 0 116 87h98q-28 -87 -87 -134.5t-146 -47.5q-90 0 -134 52.5t-27 140.5l30 158q17 88 79.5 139.5t157.5 51.5q90 0 134 -51.5t27 -139.5zM405 322l3 19q20 98 -84 98q-49 0 -81.5 -26t-41.5 -72
l-3 -19h207zM420 594h-82l-72 178h102z" />
    <glyph glyph-name="eacute" unicode="&#xe9;" horiz-adv-x="525" 
d="M504 341l-22 -113h-303l-8 -45q-3 -24 -2.5 -45.5t22.5 -37t65 -15.5q84 0 116 87h98q-28 -87 -87 -134.5t-146 -47.5q-90 0 -134 52.5t-27 140.5l30 158q17 88 79.5 139.5t157.5 51.5q90 0 134 -51.5t27 -139.5zM405 322l3 19q20 98 -84 98q-49 0 -81.5 -26t-41.5 -72
l-3 -19h207zM498 772l-143 -178h-95l121 178h117z" />
    <glyph glyph-name="ecircumflex" unicode="&#xea;" horiz-adv-x="525" 
d="M504 341l-22 -113h-303l-8 -45q-3 -24 -2.5 -45.5t22.5 -37t65 -15.5q84 0 116 87h98q-28 -87 -87 -134.5t-146 -47.5q-90 0 -134 52.5t-27 140.5l30 158q17 88 79.5 139.5t157.5 51.5q90 0 134 -51.5t27 -139.5zM405 322l3 19q20 98 -84 98q-49 0 -81.5 -26t-41.5 -72
l-3 -19h207zM511 594h-94l-49 69l-75 -69h-106l158 158h72z" />
    <glyph glyph-name="edieresis" unicode="&#xeb;" horiz-adv-x="525" 
d="M504 341l-22 -113h-303l-8 -45q-3 -24 -2.5 -45.5t22.5 -37t65 -15.5q84 0 116 87h98q-28 -87 -87 -134.5t-146 -47.5q-90 0 -134 52.5t-27 140.5l30 158q17 88 79.5 139.5t157.5 51.5q90 0 134 -51.5t27 -139.5zM405 322l3 19q20 98 -84 98q-49 0 -81.5 -26t-41.5 -72
l-3 -19h207zM512 631h-111l25 127h111zM316 631h-111l25 127h111z" />
    <glyph glyph-name="igrave" unicode="&#xec;" horiz-adv-x="246" 
d="M144 0h-94l102 525h94zM247 594h-82l-72 178h102z" />
    <glyph glyph-name="iacute" unicode="&#xed;" horiz-adv-x="244" 
d="M143 0h-94l102 525h94zM404 772l-143 -178h-95l121 178h117z" />
    <glyph glyph-name="icircumflex" unicode="&#xee;" horiz-adv-x="248" 
d="M145 0h-94l102 525h94zM364 594h-94l-49 69l-75 -69h-106l158 158h72z" />
    <glyph glyph-name="idieresis" unicode="&#xef;" horiz-adv-x="244" 
d="M143 0h-94l102 525h94zM363 631h-111l25 127h111zM167 631h-111l25 127h111z" />
    <glyph glyph-name="eth" unicode="&#xf0;" horiz-adv-x="481" 
d="M635 693l-102 -86q10 -41 3 -79l-68 -350q-5 -28 -19 -56t-39.5 -59.5t-71.5 -51t-104 -19.5q-45 0 -79 13.5t-51 35t-27.5 47t-9.5 49.5t2 43l16 78q4 22 12.5 44.5t27 49.5t43.5 48t64.5 35t86.5 14q69 0 107 -33q12 62 19 98q3 13 2 21l-58 -49l-48 58l82 68
q-31 19 -87 19l17 87q98 0 143 -45l91 78zM381 182l14 75q21 105 -89 105q-24 0 -48 -6.5t-51 -32t-35 -66.5l-14 -75q-20 -103 93 -103q17 0 34 4t37.5 14t36.5 32t22 53z" />
    <glyph glyph-name="ntilde" unicode="&#xf1;" horiz-adv-x="539" 
d="M441 0h-94l66 341q3 19 4.5 28t-0.5 25t-9 24t-24.5 14.5t-43.5 6.5q-46 0 -83.5 -27t-45.5 -69l-66 -343h-95l102 524h95l-6 -29q54 37 117 37q90 0 128 -50.5t21 -140.5zM486 739l49 -61q-50 -40 -74 -52t-51 -12q-20 0 -50.5 20.5t-58.5 20.5q-17 0 -60 -35l-49 59
q49 41 73 53t52 12q20 0 50.5 -20.5t58.5 -20.5q16 0 60 36z" />
    <glyph glyph-name="ograve" unicode="&#xf2;" horiz-adv-x="530" 
d="M474 183q-18 -88 -80.5 -140.5t-156.5 -52.5q-90 0 -134 52.5t-27 140.5l30 158q17 88 79.5 139.5t157.5 51.5q90 0 134 -51.5t27 -139.5zM378 183l30 158q20 98 -84 98q-49 0 -81.5 -26t-41.5 -72l-30 -158q-3 -24 -2.5 -45.5t22.5 -37t65 -15.5q48 0 80.5 26t41.5 72z
M420 594h-82l-72 178h102z" />
    <glyph glyph-name="oacute" unicode="&#xf3;" horiz-adv-x="530" 
d="M474 183q-18 -88 -80.5 -140.5t-156.5 -52.5q-90 0 -134 52.5t-27 140.5l30 158q17 88 79.5 139.5t157.5 51.5q90 0 134 -51.5t27 -139.5zM378 183l30 158q20 98 -84 98q-49 0 -81.5 -26t-41.5 -72l-30 -158q-3 -24 -2.5 -45.5t22.5 -37t65 -15.5q48 0 80.5 26t41.5 72z
M509 772l-143 -178h-95l121 178h117z" />
    <glyph glyph-name="ocircumflex" unicode="&#xf4;" horiz-adv-x="530" 
d="M474 183q-18 -88 -80.5 -140.5t-156.5 -52.5q-90 0 -134 52.5t-27 140.5l30 158q17 88 79.5 139.5t157.5 51.5q90 0 134 -51.5t27 -139.5zM378 183l30 158q20 98 -84 98q-49 0 -81.5 -26t-41.5 -72l-30 -158q-3 -24 -2.5 -45.5t22.5 -37t65 -15.5q48 0 80.5 26t41.5 72z
M509 594h-94l-49 69l-75 -69h-106l158 158h72z" />
    <glyph glyph-name="otilde" unicode="&#xf5;" horiz-adv-x="530" 
d="M474 183q-18 -88 -80.5 -140.5t-156.5 -52.5q-90 0 -134 52.5t-27 140.5l30 158q17 88 79.5 139.5t157.5 51.5q90 0 134 -51.5t27 -139.5zM378 183l30 158q20 98 -84 98q-49 0 -81.5 -26t-41.5 -72l-30 -158q-3 -24 -2.5 -45.5t22.5 -37t65 -15.5q48 0 80.5 26t41.5 72z
M484 740l49 -61q-50 -40 -74 -52t-51 -12q-20 0 -50.5 20.5t-58.5 20.5q-17 0 -60 -35l-49 59q49 41 73 53t52 12q20 0 50.5 -20.5t58.5 -20.5q16 0 60 36z" />
    <glyph glyph-name="odieresis" unicode="&#xf6;" horiz-adv-x="530" 
d="M474 183q-18 -88 -80.5 -140.5t-156.5 -52.5q-90 0 -134 52.5t-27 140.5l30 158q17 88 79.5 139.5t157.5 51.5q90 0 134 -51.5t27 -139.5zM378 183l30 158q20 98 -84 98q-49 0 -81.5 -26t-41.5 -72l-30 -158q-3 -24 -2.5 -45.5t22.5 -37t65 -15.5q48 0 80.5 26t41.5 72z
M508 631h-111l25 127h111zM312 631h-111l25 127h111z" />
    <glyph glyph-name="divide" unicode="&#xf7;" horiz-adv-x="535" 
d="M307 0h-129l24 128h129zM365 302h-129l25 128h129zM467 171h-382l18 91h382z" />
    <glyph glyph-name="oslash" unicode="&#xf8;" horiz-adv-x="530" 
d="M475 183q-18 -88 -80.5 -140.5t-156.5 -52.5q-26 0 -37 2l-72 -140h-97l90 172q-29 26 -41.5 68t-3.5 91l30 158q17 88 79.5 139.5t157.5 51.5q26 0 40 -1l62 118h97l-81 -155q64 -49 43 -153zM172 183q-5 -29 3 -57l163 313h-12q-49 0 -81.5 -26t-42.5 -72zM379 183
l30 158q7 32 2 53q-127 -240 -162 -309h8q48 0 80.5 26t41.5 72z" />
    <glyph glyph-name="ugrave" unicode="&#xf9;" horiz-adv-x="542" 
d="M440 0h-96l7 34q-47 -43 -110 -43q-90 0 -133 52t-26 140l66 342h95l-66 -342q-3 -24 -3.5 -45.5t21 -36.5t64.5 -15q46 0 79 25t41 67l67 347h96zM423 594h-82l-72 178h102z" />
    <glyph glyph-name="uacute" unicode="&#xfa;" horiz-adv-x="542" 
d="M440 0h-96l7 34q-47 -43 -110 -43q-90 0 -133 52t-26 140l66 342h95l-66 -342q-3 -24 -3.5 -45.5t21 -36.5t64.5 -15q46 0 79 25t41 67l67 347h96zM516 772l-143 -178h-95l121 178h117z" />
    <glyph glyph-name="ucircumflex" unicode="&#xfb;" horiz-adv-x="542" 
d="M440 0h-96l7 34q-47 -43 -110 -43q-90 0 -133 52t-26 140l66 342h95l-66 -342q-3 -24 -3.5 -45.5t21 -36.5t64.5 -15q46 0 79 25t41 67l67 347h96zM507 594h-94l-49 69l-75 -69h-106l158 158h72z" />
    <glyph glyph-name="udieresis" unicode="&#xfc;" horiz-adv-x="542" 
d="M440 0h-96l7 34q-47 -43 -110 -43q-90 0 -133 52t-26 140l66 342h95l-66 -342q-3 -24 -3.5 -45.5t21 -36.5t64.5 -15q46 0 79 25t41 67l67 347h96zM510 631h-111l25 127h111zM314 631h-111l25 127h111z" />
    <glyph glyph-name="yacute" unicode="&#xfd;" horiz-adv-x="454" 
d="M182 0h-33l-45 525h100l30 -410l188 410h102l-286 -622q-37 -81 -76.5 -105t-115.5 -24h-45l18 94h57q46 0 66 43zM479 772l-143 -178h-95l121 178h117z" />
    <glyph glyph-name="thorn" unicode="&#xfe;" horiz-adv-x="532" 
d="M478 183q-17 -89 -77.5 -141t-153.5 -52q-27 0 -54 12.5t-39 31.5l-50 -260h-95l179 919h95l-40 -204q19 19 50 31t59 12q78 0 126 -53t31 -138zM384 183l31 158q8 40 -8.5 69t-72.5 29q-42 0 -76.5 -26.5t-43.5 -71.5l-31 -158q-7 -39 12 -68.5t70 -29.5q47 0 79 26
t40 72z" />
    <glyph glyph-name="ydieresis" unicode="&#xff;" horiz-adv-x="454" 
d="M182 0h-33l-45 525h100l30 -410l188 410h102l-286 -622q-37 -81 -76.5 -105t-115.5 -24h-45l18 94h57q46 0 66 43zM475 631h-111l25 127h111zM279 631h-111l25 127h111z" />
    <glyph glyph-name="Amacron" unicode="&#x100;" horiz-adv-x="557" 
d="M501 0h-97l-12 194h-215l-89 -194h-101l323 713h140zM385 290l-20 318l-147 -318h167zM553 793h-314l18 91h314z" />
    <glyph glyph-name="amacron" unicode="&#x101;" horiz-adv-x="519" 
d="M491 359l-70 -359h-96l8 40q-46 -49 -131 -49q-71 0 -115.5 45t-28.5 130q14 73 72 113.5t135 40.5h122l7 36q9 47 -8 65t-65 18q-84 0 -110 -76h-95q24 86 87 127.5t136 41.5q78 0 123.5 -42t28.5 -131zM361 182l9 47h-121q-84 0 -97 -63q-16 -85 80 -85q43 0 81.5 28.5
t47.5 72.5zM508 624h-314l18 91h314z" />
    <glyph glyph-name="Abreve" unicode="&#x102;" horiz-adv-x="583" 
d="M527 0h-97l-12 194h-215l-89 -194h-101l323 713h140zM411 290l-20 318l-147 -318h167zM608 939q-22 -84 -72.5 -121t-128.5 -37q-66 0 -107 40.5t-35 117.5h86q-1 -39 14.5 -59.5t56.5 -20.5q76 0 98 80h88z" />
    <glyph glyph-name="abreve" unicode="&#x103;" horiz-adv-x="519" 
d="M491 359l-70 -359h-96l8 40q-46 -49 -131 -49q-71 0 -115.5 45t-28.5 130q14 73 72 113.5t135 40.5h122l7 36q9 47 -8 65t-65 18q-84 0 -110 -76h-95q24 86 87 127.5t136 41.5q78 0 123.5 -42t28.5 -131zM361 182l9 47h-121q-84 0 -97 -63q-16 -85 80 -85q43 0 81.5 28.5
t47.5 72.5zM544 763q-22 -84 -72.5 -121t-128.5 -37q-66 0 -107 40.5t-35 117.5h86q-1 -39 14.5 -59.5t56.5 -20.5q76 0 98 80h88z" />
    <glyph glyph-name="Aogonek" unicode="&#x104;" horiz-adv-x="603" 
d="M527 0h-97l-12 194h-215l-89 -194h-101l323 713h140zM411 290l-20 318l-147 -318h167zM602 -219h-107l-59 175h93z" />
    <glyph glyph-name="aogonek" unicode="&#x105;" horiz-adv-x="523" 
d="M491 359l-70 -359h-96l8 40q-46 -49 -131 -49q-71 0 -115.5 45t-28.5 130q14 73 72 113.5t135 40.5h122l7 36q9 47 -8 65t-65 18q-84 0 -110 -76h-95q24 86 87 127.5t136 41.5q78 0 123.5 -42t28.5 -131zM361 182l9 47h-121q-84 0 -97 -63q-16 -85 80 -85q43 0 81.5 28.5
t47.5 72.5zM483 -218h-107l-59 175h93z" />
    <glyph glyph-name="Cacute" unicode="&#x106;" horiz-adv-x="523" 
d="M476 188q-6 -29 -20.5 -59t-41.5 -63t-75 -54t-109 -21q-46 0 -80.5 14.5t-51.5 36.5t-28 49t-10 52.5t3 45.5l65 336q5 28 19 57.5t41 62t75 53t110 20.5q45 0 79.5 -14t52 -36t28.5 -48t10.5 -51t-2.5 -45h-98q20 99 -89 99q-24 0 -47 -6t-49 -30t-34 -64l-65 -334
q-20 -101 91 -101q23 0 45.5 6t48.5 30t34 64h98zM540 959l-143 -178h-95l121 178h117z" />
    <glyph glyph-name="cacute" unicode="&#x107;" horiz-adv-x="509" 
d="M343 532q82 0 125 -48t36 -133h-97q1 41 -15.5 64.5t-67.5 23.5q-49 0 -81.5 -26t-41.5 -72l-30 -158q-3 -24 -2.5 -45.5t22.5 -37t65 -15.5q84 0 116 87h98q-28 -87 -87 -134.5t-146 -47.5q-90 0 -134 52.5t-27 140.5l30 158q17 88 79.5 139.5t157.5 51.5zM497 772
l-143 -178h-95l121 178h117z" />
    <glyph glyph-name="Ccircumflex" unicode="&#x108;" horiz-adv-x="523" 
d="M476 188q-6 -29 -20.5 -59t-41.5 -63t-75 -54t-109 -21q-46 0 -80.5 14.5t-51.5 36.5t-28 49t-10 52.5t3 45.5l65 336q5 28 19 57.5t41 62t75 53t110 20.5q45 0 79.5 -14t52 -36t28.5 -48t10.5 -51t-2.5 -45h-98q20 99 -89 99q-24 0 -47 -6t-49 -30t-34 -64l-65 -334
q-20 -101 91 -101q23 0 45.5 6t48.5 30t34 64h98zM555 793h-94l-49 69l-75 -69h-106l158 158h72z" />
    <glyph glyph-name="ccircumflex" unicode="&#x109;" horiz-adv-x="509" 
d="M343 532q82 0 125 -48t36 -133h-97q1 41 -15.5 64.5t-67.5 23.5q-49 0 -81.5 -26t-41.5 -72l-30 -158q-3 -24 -2.5 -45.5t22.5 -37t65 -15.5q84 0 116 87h98q-28 -87 -87 -134.5t-146 -47.5q-90 0 -134 52.5t-27 140.5l30 158q17 88 79.5 139.5t157.5 51.5zM507 594h-94
l-49 69l-75 -69h-106l158 158h72z" />
    <glyph glyph-name="Cdotaccent" unicode="&#x10a;" horiz-adv-x="523" 
d="M476 188q-6 -29 -20.5 -59t-41.5 -63t-75 -54t-109 -21q-46 0 -80.5 14.5t-51.5 36.5t-28 49t-10 52.5t3 45.5l65 336q5 28 19 57.5t41 62t75 53t110 20.5q45 0 79.5 -14t52 -36t28.5 -48t10.5 -51t-2.5 -45h-98q20 99 -89 99q-24 0 -47 -6t-49 -30t-34 -64l-65 -334
q-20 -101 91 -101q23 0 45.5 6t48.5 30t34 64h98zM443 793h-112l21 107h112z" />
    <glyph glyph-name="cdotaccent" unicode="&#x10b;" horiz-adv-x="509" 
d="M343 532q82 0 125 -48t36 -133h-97q1 41 -15.5 64.5t-67.5 23.5q-49 0 -81.5 -26t-41.5 -72l-30 -158q-3 -24 -2.5 -45.5t22.5 -37t65 -15.5q84 0 116 87h98q-28 -87 -87 -134.5t-146 -47.5q-90 0 -134 52.5t-27 140.5l30 158q17 88 79.5 139.5t157.5 51.5zM410 631h-112
l21 107h112z" />
    <glyph glyph-name="Ccaron" unicode="&#x10c;" horiz-adv-x="523" 
d="M476 188q-6 -29 -20.5 -59t-41.5 -63t-75 -54t-109 -21q-46 0 -80.5 14.5t-51.5 36.5t-28 49t-10 52.5t3 45.5l65 336q5 28 19 57.5t41 62t75 53t110 20.5q45 0 79.5 -14t52 -36t28.5 -48t10.5 -51t-2.5 -45h-98q20 99 -89 99q-24 0 -47 -6t-49 -30t-34 -64l-65 -334
q-20 -101 91 -101q23 0 45.5 6t48.5 30t34 64h98zM252 951h95l49 -73l74 73h106l-156 -158h-72z" />
    <glyph glyph-name="ccaron" unicode="&#x10d;" horiz-adv-x="509" 
d="M343 532q82 0 125 -48t36 -133h-97q1 41 -15.5 64.5t-67.5 23.5q-49 0 -81.5 -26t-41.5 -72l-30 -158q-3 -24 -2.5 -45.5t22.5 -37t65 -15.5q84 0 116 87h98q-28 -87 -87 -134.5t-146 -47.5q-90 0 -134 52.5t-27 140.5l30 158q17 88 79.5 139.5t157.5 51.5zM210 752h95
l49 -73l74 73h106l-156 -158h-72z" />
    <glyph glyph-name="Dcaron" unicode="&#x10e;" horiz-adv-x="554" 
d="M491 196q-5 -23 -12.5 -45t-25.5 -51t-41.5 -50t-63 -35.5t-88.5 -14.5h-219l139 714h215q47 0 81 -14t49.5 -36.5t25 -49t7.5 -51t-4 -44.5zM395 197l62 319q11 59 -13 80t-68 21h-118l-102 -521h120q16 0 32 4t34.5 13.5t32.5 31t20 52.5zM252 951h95l49 -73l74 73h106
l-156 -158h-72z" />
    <glyph glyph-name="dcaron" unicode="&#x10f;" horiz-adv-x="625" 
d="M194 341l-31 -158q-19 -98 81 -98t120 98l31 158q9 46 -13 72t-69 26q-56 0 -84 -29t-35 -69zM67 183l31 158q18 90 78 140.5t155 50.5q30 0 56.5 -13t35.5 -30l44 224h96l-139 -713h-96l7 32q-16 -16 -48.5 -29t-61.5 -13q-88 0 -131.5 53t-26.5 140zM825 713l-143 -178
h-95l121 178h117z" />
    <glyph glyph-name="Dcroat" unicode="&#x110;" horiz-adv-x="551" 
d="M488 196q-5 -23 -12.5 -45t-25.5 -51t-41.5 -50t-63.5 -35.5t-89 -14.5h-219l61 316h-54l18 92h54l60 306h216q47 0 81 -14t49.5 -36.5t25 -49t7.5 -51t-4 -44.5zM391 197l62 319q20 101 -80 101h-119l-41 -209h171l-18 -92h-171l-43 -220h120q16 0 32 4t34.5 13.5
t32.5 31t20 52.5z" />
    <glyph glyph-name="dcroat" unicode="&#x111;" horiz-adv-x="527" 
d="M297 561l18 90h141l8 42h95l-8 -42h70l-18 -90h-70l-109 -561h-95l4 18q-49 -28 -107 -28q-88 0 -131.5 53t-26.5 140l31 158q18 90 78 140.5t155 50.5q60 0 96 -26l10 55h-141zM194 341l-31 -158q-19 -98 82 -98q100 0 120 98l31 158q19 98 -82 98q-56 0 -84.5 -29
t-35.5 -69z" />
    <glyph glyph-name="Emacron" unicode="&#x112;" horiz-adv-x="518" 
d="M437 0h-396l138 713h396l-18 -97h-299l-38 -192h277l-18 -96h-277l-45 -232h299zM542 793h-314l18 91h314z" />
    <glyph glyph-name="emacron" unicode="&#x113;" horiz-adv-x="525" 
d="M504 341l-22 -113h-303l-8 -45q-3 -24 -2.5 -45.5t22.5 -37t65 -15.5q84 0 116 87h98q-28 -87 -87 -134.5t-146 -47.5q-90 0 -134 52.5t-27 140.5l30 158q17 88 79.5 139.5t157.5 51.5q90 0 134 -51.5t27 -139.5zM405 322l3 19q20 98 -84 98q-49 0 -81.5 -26t-41.5 -72
l-3 -19h207zM505 624h-314l18 91h314z" />
    <glyph glyph-name="Ebreve" unicode="&#x114;" horiz-adv-x="518" 
d="M437 0h-396l138 713h396l-18 -97h-299l-38 -192h277l-18 -96h-277l-45 -232h299zM581 940q-22 -84 -72.5 -121t-128.5 -37q-66 0 -107 40.5t-35 117.5h86q-1 -39 14.5 -59.5t56.5 -20.5q76 0 98 80h88z" />
    <glyph glyph-name="ebreve" unicode="&#x115;" horiz-adv-x="525" 
d="M504 341l-22 -113h-303l-8 -45q-3 -24 -2.5 -45.5t22.5 -37t65 -15.5q84 0 116 87h98q-28 -87 -87 -134.5t-146 -47.5q-90 0 -134 52.5t-27 140.5l30 158q17 88 79.5 139.5t157.5 51.5q90 0 134 -51.5t27 -139.5zM405 322l3 19q20 98 -84 98q-49 0 -81.5 -26t-41.5 -72
l-3 -19h207zM543 762q-22 -84 -72.5 -121t-128.5 -37q-66 0 -107 40.5t-35 117.5h86q-1 -39 14.5 -59.5t56.5 -20.5q76 0 98 80h88z" />
    <glyph glyph-name="Edotaccent" unicode="&#x116;" horiz-adv-x="518" 
d="M437 0h-396l138 713h396l-18 -97h-299l-38 -192h277l-18 -96h-277l-45 -232h299zM453 793h-112l21 107h112z" />
    <glyph glyph-name="edotaccent" unicode="&#x117;" horiz-adv-x="525" 
d="M504 341l-22 -113h-303l-8 -45q-3 -24 -2.5 -45.5t22.5 -37t65 -15.5q84 0 116 87h98q-28 -87 -87 -134.5t-146 -47.5q-90 0 -134 52.5t-27 140.5l30 158q17 88 79.5 139.5t157.5 51.5q90 0 134 -51.5t27 -139.5zM405 322l3 19q20 98 -84 98q-49 0 -81.5 -26t-41.5 -72
l-3 -19h207zM415 631h-112l21 107h112z" />
    <glyph glyph-name="Eogonek" unicode="&#x118;" horiz-adv-x="518" 
d="M437 0h-396l138 713h396l-18 -97h-299l-38 -192h277l-18 -96h-277l-45 -232h299zM368 -218h-107l-59 175h93z" />
    <glyph glyph-name="eogonek" unicode="&#x119;" horiz-adv-x="525" 
d="M504 341l-22 -113h-303l-8 -45q-3 -24 -2.5 -45.5t22.5 -37t65 -15.5q84 0 116 87h98q-28 -87 -87 -134.5t-146 -47.5q-90 0 -134 52.5t-27 140.5l30 158q17 88 79.5 139.5t157.5 51.5q90 0 134 -51.5t27 -139.5zM405 322l3 19q20 98 -84 98q-49 0 -81.5 -26t-41.5 -72
l-3 -19h207zM346 -219h-107l-59 175h93z" />
    <glyph glyph-name="Ecaron" unicode="&#x11a;" horiz-adv-x="518" 
d="M437 0h-396l138 713h396l-18 -97h-299l-38 -192h277l-18 -96h-277l-45 -232h299zM256 951h95l49 -73l74 73h106l-156 -158h-72z" />
    <glyph glyph-name="ecaron" unicode="&#x11b;" horiz-adv-x="525" 
d="M504 341l-22 -113h-303l-8 -45q-3 -24 -2.5 -45.5t22.5 -37t65 -15.5q84 0 116 87h98q-28 -87 -87 -134.5t-146 -47.5q-90 0 -134 52.5t-27 140.5l30 158q17 88 79.5 139.5t157.5 51.5q90 0 134 -51.5t27 -139.5zM405 322l3 19q20 98 -84 98q-49 0 -81.5 -26t-41.5 -72
l-3 -19h207zM222 752h95l49 -73l74 73h106l-156 -158h-72z" />
    <glyph glyph-name="Gcircumflex" unicode="&#x11c;" 
d="M481 188q-6 -29 -21 -59t-42 -63t-75 -54t-109 -21q-46 0 -80.5 14.5t-51.5 36.5t-27.5 49t-9.5 52.5t3 45.5l65 336q5 28 19 57.5t41 62t75 53t110 20.5q45 0 79.5 -13.5t52 -34.5t29 -47.5t10.5 -51.5t-3 -47h-98q18 98 -89 98q-17 0 -34 -3.5t-38 -13t-36.5 -31
t-21.5 -51.5l-65 -334q-20 -100 91 -100q23 0 45.5 6t48.5 30t34 64l23 117h-122l18 97h220zM547 793h-94l-49 69l-75 -69h-106l158 158h72z" />
    <glyph glyph-name="gcircumflex" unicode="&#x11d;" horiz-adv-x="533" 
d="M338 -39l14 71q-18 -17 -48 -29.5t-59 -12.5q-90 0 -133 52.5t-26 140.5l31 158q17 89 78 140t155 51q29 0 55 -12t36 -28l7 33h96l-110 -564q-36 -187 -231 -187q-69 0 -112 38.5t-44 105.5h99q7 -27 23 -41t51 -14q99 0 118 98zM381 183l31 158q18 98 -80 98
q-47 0 -79 -26t-41 -72l-31 -158q-3 -24 -3.5 -45.5t21 -37t64.5 -15.5q46 0 77.5 26t40.5 72zM533 594h-94l-49 69l-75 -69h-106l158 158h72z" />
    <glyph glyph-name="Gbreve" unicode="&#x11e;" 
d="M481 188q-6 -29 -21 -59t-42 -63t-75 -54t-109 -21q-46 0 -80.5 14.5t-51.5 36.5t-27.5 49t-9.5 52.5t3 45.5l65 336q5 28 19 57.5t41 62t75 53t110 20.5q45 0 79.5 -13.5t52 -34.5t29 -47.5t10.5 -51.5t-3 -47h-98q18 98 -89 98q-17 0 -34 -3.5t-38 -13t-36.5 -31
t-21.5 -51.5l-65 -334q-20 -100 91 -100q23 0 45.5 6t48.5 30t34 64l23 117h-122l18 97h220zM589 939q-22 -84 -72.5 -121t-128.5 -37q-66 0 -107 40.5t-35 117.5h86q-1 -39 14.5 -59.5t56.5 -20.5q76 0 98 80h88z" />
    <glyph glyph-name="gbreve" unicode="&#x11f;" horiz-adv-x="533" 
d="M338 -39l14 71q-18 -17 -48 -29.5t-59 -12.5q-90 0 -133 52.5t-26 140.5l31 158q17 89 78 140t155 51q29 0 55 -12t36 -28l7 33h96l-110 -564q-36 -187 -231 -187q-69 0 -112 38.5t-44 105.5h99q7 -27 23 -41t51 -14q99 0 118 98zM381 183l31 158q18 98 -80 98
q-47 0 -79 -26t-41 -72l-31 -158q-3 -24 -3.5 -45.5t21 -37t64.5 -15.5q46 0 77.5 26t40.5 72zM565 763q-22 -84 -72.5 -121t-128.5 -37q-66 0 -107 40.5t-35 117.5h86q-1 -39 14.5 -59.5t56.5 -20.5q76 0 98 80h88z" />
    <glyph glyph-name="Gdotaccent" unicode="&#x120;" 
d="M481 188q-6 -29 -21 -59t-42 -63t-75 -54t-109 -21q-46 0 -80.5 14.5t-51.5 36.5t-27.5 49t-9.5 52.5t3 45.5l65 336q5 28 19 57.5t41 62t75 53t110 20.5q45 0 79.5 -13.5t52 -34.5t29 -47.5t10.5 -51.5t-3 -47h-98q18 98 -89 98q-17 0 -34 -3.5t-38 -13t-36.5 -31
t-21.5 -51.5l-65 -334q-20 -100 91 -100q23 0 45.5 6t48.5 30t34 64l23 117h-122l18 97h220zM454 793h-112l21 107h112z" />
    <glyph glyph-name="gdotaccent" unicode="&#x121;" horiz-adv-x="533" 
d="M338 -39l14 71q-18 -17 -48 -29.5t-59 -12.5q-90 0 -133 52.5t-26 140.5l31 158q17 89 78 140t155 51q29 0 55 -12t36 -28l7 33h96l-110 -564q-36 -187 -231 -187q-69 0 -112 38.5t-44 105.5h99q7 -27 23 -41t51 -14q99 0 118 98zM381 183l31 158q18 98 -80 98
q-47 0 -79 -26t-41 -72l-31 -158q-3 -24 -3.5 -45.5t21 -37t64.5 -15.5q46 0 77.5 26t40.5 72zM432 631h-112l21 107h112z" />
    <glyph glyph-name="Gcommaaccent" unicode="&#x122;" 
d="M481 188q-6 -29 -21 -59t-42 -63t-75 -54t-109 -21q-46 0 -80.5 14.5t-51.5 36.5t-27.5 49t-9.5 52.5t3 45.5l65 336q5 28 19 57.5t41 62t75 53t110 20.5q45 0 79.5 -13.5t52 -34.5t29 -47.5t10.5 -51.5t-3 -47h-98q18 98 -89 98q-17 0 -34 -3.5t-38 -13t-36.5 -31
t-21.5 -51.5l-65 -334q-20 -100 91 -100q23 0 45.5 6t48.5 30t34 64l23 117h-122l18 97h220zM280 -43l-102 -175h-106l116 175h92z" />
    <glyph glyph-name="gcommaaccent" unicode="&#x123;" horiz-adv-x="533" 
d="M338 -39l14 71q-18 -17 -48 -29.5t-59 -12.5q-90 0 -133 52.5t-26 140.5l31 158q17 89 78 140t155 51q29 0 55 -12t36 -28l7 33h96l-110 -564q-36 -187 -231 -187q-69 0 -112 38.5t-44 105.5h99q7 -27 23 -41t51 -14q99 0 118 98zM381 183l31 158q18 98 -80 98
q-47 0 -79 -26t-41 -72l-31 -158q-3 -24 -3.5 -45.5t21 -37t64.5 -15.5q46 0 77.5 26t40.5 72zM531 773l-143 -178h-95l121 178h117z" />
    <glyph glyph-name="Hcircumflex" unicode="&#x124;" horiz-adv-x="578" 
d="M467 0h-98l63 325h-231l-63 -325h-97l138 713h97l-56 -291h231l56 291h98zM563 793h-94l-49 69l-75 -69h-106l158 158h72z" />
    <glyph glyph-name="hcircumflex" unicode="&#x125;" horiz-adv-x="532" 
d="M431 0h-94l66 341q3 23 5.5 45t-16.5 37.5t-62 15.5q-46 0 -83 -27t-45 -69l-67 -343h-95l138 713h95l-42 -218q50 37 117 37q91 0 129 -50t20 -141zM554 793h-94l-49 69l-75 -69h-106l158 158h72z" />
    <glyph glyph-name="Hbar" unicode="&#x126;" horiz-adv-x="575" 
d="M468 0h-97l63 325h-232l-63 -325h-97l110 565h-51l18 93h51l10 55h97l-10 -55h232l10 55h97l-10 -55h47l-18 -93h-47zM221 422h232l28 143h-232z" />
    <glyph glyph-name="hbar" unicode="&#x127;" horiz-adv-x="527" 
d="M385 551h-148l-10 -52q50 33 116 33q90 0 128.5 -50.5t21.5 -140.5l-66 -341h-96l66 341q3 23 5.5 45t-16 37.5t-61.5 15.5q-46 0 -83 -27t-45 -69l-67 -343h-95l107 551h-63l17 90h63l11 52h95l-11 -52h148z" />
    <glyph glyph-name="Itilde" unicode="&#x128;" horiz-adv-x="251" 
d="M179 713h98l-138 -713h-98zM370 906l49 -61q-50 -40 -74 -52t-51 -12q-20 0 -50.5 20.5t-58.5 20.5q-17 0 -60 -35l-49 59q49 41 73 53t52 12q20 0 50.5 -20.5t58.5 -20.5q16 0 60 36z" />
    <glyph glyph-name="itilde" unicode="&#x129;" horiz-adv-x="246" 
d="M144 0h-94l102 525h94zM337 740l49 -61q-50 -40 -74 -52t-51 -12q-20 0 -50.5 20.5t-58.5 20.5q-17 0 -60 -35l-49 59q49 41 73 53t52 12q20 0 50.5 -20.5t58.5 -20.5q16 0 60 36z" />
    <glyph glyph-name="uni012A" unicode="&#x12a;" horiz-adv-x="250" 
d="M179 713h98l-138 -713h-98zM394 793h-314l18 91h314z" />
    <glyph glyph-name="imacron" unicode="&#x12b;" horiz-adv-x="245" 
d="M143 0h-94l102 525h94zM370 651h-314l18 91h314z" />
    <glyph glyph-name="Ibreve" unicode="&#x12c;" horiz-adv-x="250" 
d="M179 713h98l-138 -713h-98zM438 939q-22 -84 -72.5 -121t-128.5 -37q-66 0 -107 40.5t-35 117.5h86q-1 -39 14.5 -59.5t56.5 -20.5q76 0 98 80h88z" />
    <glyph glyph-name="uni012D" unicode="&#x12d;" horiz-adv-x="245" 
d="M403 762q-22 -84 -72.5 -121t-128.5 -37q-66 0 -107 40.5t-35 117.5h86q-1 -39 14.5 -59.5t56.5 -20.5q76 0 98 80h88zM144 0h-94l102 525h94z" />
    <glyph glyph-name="Iogonek" unicode="&#x12e;" horiz-adv-x="251" 
d="M179 713h98l-138 -713h-98zM204 -218h-107l-59 175h93z" />
    <glyph glyph-name="iogonek" unicode="&#x12f;" horiz-adv-x="247" 
d="M136 0h-94l102 525h94zM259 592h-111l24 126h111zM205 -218h-107l-59 175h93z" />
    <glyph glyph-name="Idotaccent" unicode="&#x130;" horiz-adv-x="251" 
d="M180 713h98l-138 -713h-98zM301 793h-112l21 107h112z" />
    <glyph glyph-name="dotlessi" unicode="&#x131;" horiz-adv-x="246" 
d="M144 0h-94l102 525h94z" />
    <glyph glyph-name="IJ" unicode="&#x132;" horiz-adv-x="667" 
d="M178 713h98l-138 -713h-98zM598 187q-38 -196 -225 -196q-87 0 -126.5 53.5t-22.5 142.5h97q-12 -58 8.5 -78.5t62.5 -20.5q90 0 108 93l85 435h-206l19 97h302z" />
    <glyph glyph-name="ij" unicode="&#x133;" horiz-adv-x="498" 
d="M143 0h-94l102 525h94zM266 592h-111l24 126h111zM492 525l-119 -609q-28 -142 -157 -142h-40l18 94h35q40 0 48 43l120 614h95zM513 592h-110l24 126h110z" />
    <glyph glyph-name="Jcircumflex" unicode="&#x134;" horiz-adv-x="461" 
d="M392 187q-38 -196 -225 -196q-87 0 -126.5 53.5t-22.5 142.5h97q-12 -58 8.5 -78.5t62.5 -20.5q90 0 108 93l85 435h-206l19 97h302zM500 793h-94l-49 69l-75 -69h-106l158 158h72z" />
    <glyph glyph-name="jcircumflex" unicode="&#x135;" horiz-adv-x="293" 
d="M171 -64q-14 -73 -57 -107.5t-102 -34.5h-38l18 94h34q41 0 50 43l115 594h94zM397 594h-94l-49 69l-75 -69h-106l158 158h72z" />
    <glyph glyph-name="Kcommaaccent" unicode="&#x136;" horiz-adv-x="549" 
d="M474 0h-107l-121 308l-62 -70l-46 -238h-97l138 713h97l-58 -302l273 302h117l-293 -330zM548 -218h-107l-59 175h93z" />
    <glyph glyph-name="kcommaaccent" unicode="&#x137;" 
d="M447 0h-103l-102 227l-74 -66l-32 -161h-95l138 713h95l-79 -411l246 223h132l-262 -234zM529 -219h-107l-59 175h93z" />
    <glyph glyph-name="Lacute" unicode="&#x139;" horiz-adv-x="482" 
d="M436 0h-395l138 713h97l-119 -617h298zM433 959l-143 -178h-95l121 178h117z" />
    <glyph glyph-name="lacute" unicode="&#x13a;" horiz-adv-x="260" 
d="M64 141l111 572h95l-111 -576q-9 -43 32 -43h35l-18 -94h-40q-53 0 -85 35.5t-19 105.5zM435 959l-143 -178h-95l121 178h117z" />
    <glyph glyph-name="Lcommaaccent" unicode="&#x13b;" horiz-adv-x="482" 
d="M436 0h-395l138 713h97l-119 -617h298zM291 -43l-102 -175h-106l116 175h92z" />
    <glyph glyph-name="lcommaaccent" unicode="&#x13c;" horiz-adv-x="264" 
d="M68 141l111 572h95l-111 -576q-9 -43 32 -43h35l-18 -94h-40q-53 0 -85 35.5t-19 105.5zM194 -43l-102 -175h-106l116 175h92z" />
    <glyph glyph-name="Lcaron" unicode="&#x13d;" horiz-adv-x="507" 
d="M436 0h-395l138 713h97l-119 -617h298zM544 713l-143 -178h-95l121 178h117z" />
    <glyph glyph-name="lcaron" unicode="&#x13e;" horiz-adv-x="328" 
d="M64 141l111 572h95l-111 -576q-9 -43 32 -43h35l-18 -94h-40q-53 0 -85 35.5t-19 105.5zM528 713l-143 -178h-95l121 178h117z" />
    <glyph glyph-name="Ldot" unicode="&#x13f;" horiz-adv-x="482" 
d="M436 0h-395l138 713h97l-119 -617h298zM382 203h-124l25 125h124z" />
    <glyph glyph-name="ldot" unicode="&#x140;" horiz-adv-x="433" 
d="M64 141l111 572h95l-111 -576q-9 -43 32 -43h35l-18 -94h-40q-53 0 -85 35.5t-19 105.5zM394 203h-124l25 125h124z" />
    <glyph glyph-name="Lslash" unicode="&#x141;" horiz-adv-x="476" 
d="M430 0h-393l47 242h-53l18 93h53l73 378h97l-73 -378h290l-18 -93h-290l-28 -146h296z" />
    <glyph glyph-name="lslash" unicode="&#x142;" horiz-adv-x="239" 
d="M53 141l20 104h-102l18 90h102l70 359h95l-70 -359h107l-18 -90h-107l-21 -108q-8 -43 33 -43h35l-18 -94h-39q-53 0 -85.5 35.5t-19.5 105.5z" />
    <glyph glyph-name="Nacute" unicode="&#x143;" horiz-adv-x="569" 
d="M458 0h-103l-119 509l-98 -509h-97l138 713h101l120 -514l100 514h96zM559 959l-143 -178h-95l121 178h117z" />
    <glyph glyph-name="nacute" unicode="&#x144;" horiz-adv-x="539" 
d="M441 0h-94l66 341q3 19 4.5 28t-0.5 25t-9 24t-24.5 14.5t-43.5 6.5q-46 0 -83.5 -27t-45.5 -69l-66 -343h-95l102 524h95l-6 -29q54 37 117 37q90 0 128 -50.5t21 -140.5zM509 772l-143 -178h-95l121 178h117z" />
    <glyph glyph-name="Ncommaaccent" unicode="&#x145;" horiz-adv-x="608" 
d="M458 0h-103l-119 509l-98 -509h-97l138 713h101l120 -514l100 514h96zM531 -218h-107l-59 175h93z" />
    <glyph glyph-name="ncommaaccent" unicode="&#x146;" horiz-adv-x="554" 
d="M441 0h-94l66 341q3 19 4.5 28t-0.5 25t-9 24t-24.5 14.5t-43.5 6.5q-46 0 -83.5 -27t-45.5 -69l-66 -343h-95l102 524h95l-6 -29q54 37 117 37q90 0 128 -50.5t21 -140.5zM506 -219h-107l-59 175h93z" />
    <glyph glyph-name="Ncaron" unicode="&#x147;" horiz-adv-x="569" 
d="M458 0h-103l-119 509l-98 -509h-97l138 713h101l120 -514l100 514h96zM274 951h95l49 -73l74 73h106l-156 -158h-72z" />
    <glyph glyph-name="ncaron" unicode="&#x148;" horiz-adv-x="538" 
d="M441 0h-94l66 341q3 19 4.5 28t-0.5 25t-9 24t-24.5 14.5t-43.5 6.5q-46 0 -83.5 -27t-45.5 -69l-66 -343h-95l102 524h95l-6 -29q54 37 117 37q90 0 128 -50.5t21 -140.5zM222 752h95l49 -73l74 73h106l-156 -158h-72z" />
    <glyph glyph-name="napostrophe" unicode="&#x149;" horiz-adv-x="666" 
d="M571 0h-94l66 341q3 19 4.5 28t-0.5 25t-9 24t-24.5 14.5t-43.5 6.5q-46 0 -83.5 -27t-45.5 -69l-66 -343h-95l102 524h95l-6 -29q54 37 117 37q90 0 128 -50.5t21 -140.5zM369 753l-192 -234h-69l131 234h130z" />
    <glyph glyph-name="Eng" unicode="&#x14a;" horiz-adv-x="569" 
d="M88 -43h98q0 -42 19 -57t55 -15q90 0 108 93l4 22h-13l-115 495l-96 -495h-97l139 713h107l116 -503l98 503h96l-142 -729q-38 -196 -225 -196q-79 0 -118.5 46t-33.5 123zM186 -43h-98h98z" />
    <glyph glyph-name="eng" unicode="&#x14b;" horiz-adv-x="533" 
d="M438 -64q-28 -142 -158 -142h-38l18 94h34q41 0 49 43l80 410q3 19 4.5 28t-0.5 25t-9 24t-24.5 14.5t-43.5 6.5q-46 0 -83.5 -27t-45.5 -69l-66 -343h-95l102 524h95l-5 -24q50 32 116 32q90 0 128 -50.5t21 -140.5z" />
    <glyph glyph-name="Omacron" unicode="&#x14c;" 
d="M481 188q-6 -29 -20.5 -59t-41.5 -63t-75 -54t-109 -21q-46 0 -80.5 14.5t-51.5 36.5t-28 49t-10 52.5t3 45.5l65 336q5 28 19 57.5t41 62t75 53t110 20.5q45 0 79.5 -14t52 -36t28.5 -48t10.5 -51t-2.5 -45zM383 189l65 334q20 100 -89 100q-24 0 -47 -6t-49 -30
t-34 -64l-65 -334q-20 -101 91 -101q16 0 32.5 4t37 13.5t36.5 31t22 52.5zM550 793h-314l18 91h314z" />
    <glyph glyph-name="omacron" unicode="&#x14d;" horiz-adv-x="530" 
d="M474 183q-18 -88 -80.5 -140.5t-156.5 -52.5q-90 0 -134 52.5t-27 140.5l30 158q17 88 79.5 139.5t157.5 51.5q90 0 134 -51.5t27 -139.5zM378 183l30 158q20 98 -84 98q-49 0 -81.5 -26t-41.5 -72l-30 -158q-3 -24 -2.5 -45.5t22.5 -37t65 -15.5q48 0 80.5 26t41.5 72z
M511 624h-314l18 91h314z" />
    <glyph glyph-name="Obreve" unicode="&#x14e;" 
d="M481 188q-6 -29 -20.5 -59t-41.5 -63t-75 -54t-109 -21q-46 0 -80.5 14.5t-51.5 36.5t-28 49t-10 52.5t3 45.5l65 336q5 28 19 57.5t41 62t75 53t110 20.5q45 0 79.5 -14t52 -36t28.5 -48t10.5 -51t-2.5 -45zM383 189l65 334q20 100 -89 100q-24 0 -47 -6t-49 -30
t-34 -64l-65 -334q-20 -101 91 -101q16 0 32.5 4t37 13.5t36.5 31t22 52.5zM593 939q-22 -84 -72.5 -121t-128.5 -37q-66 0 -107 40.5t-35 117.5h86q-1 -39 14.5 -59.5t56.5 -20.5q76 0 98 80h88z" />
    <glyph glyph-name="obreve" unicode="&#x14f;" horiz-adv-x="530" 
d="M474 183q-18 -88 -80.5 -140.5t-156.5 -52.5q-90 0 -134 52.5t-27 140.5l30 158q17 88 79.5 139.5t157.5 51.5q90 0 134 -51.5t27 -139.5zM378 183l30 158q20 98 -84 98q-49 0 -81.5 -26t-41.5 -72l-30 -158q-3 -24 -2.5 -45.5t22.5 -37t65 -15.5q48 0 80.5 26t41.5 72z
M549 763q-22 -84 -72.5 -121t-128.5 -37q-66 0 -107 40.5t-35 117.5h86q-1 -39 14.5 -59.5t56.5 -20.5q76 0 98 80h88z" />
    <glyph glyph-name="Ohungarumlaut" unicode="&#x150;" horiz-adv-x="554" 
d="M481 188q-6 -29 -20.5 -59t-41.5 -63t-75 -54t-109 -21q-46 0 -80.5 14.5t-51.5 36.5t-28 49t-10 52.5t3 45.5l65 336q5 28 19 57.5t41 62t75 53t110 20.5q45 0 79.5 -14t52 -36t28.5 -48t10.5 -51t-2.5 -45zM383 189l65 334q20 100 -89 100q-24 0 -47 -6t-49 -30
t-34 -64l-65 -334q-20 -101 91 -101q16 0 32.5 4t37 13.5t36.5 31t22 52.5zM642 958l-162 -177h-103l140 177h125zM492 958l-159 -177h-103l138 177h124z" />
    <glyph glyph-name="ohungarumlaut" unicode="&#x151;" horiz-adv-x="536" 
d="M474 183q-18 -88 -80.5 -140.5t-156.5 -52.5q-90 0 -134 52.5t-27 140.5l30 158q17 88 79.5 139.5t157.5 51.5q90 0 134 -51.5t27 -139.5zM378 183l30 158q20 98 -84 98q-49 0 -81.5 -26t-41.5 -72l-30 -158q-3 -24 -2.5 -45.5t22.5 -37t65 -15.5q48 0 80.5 26t41.5 72z
M598 771l-162 -177h-103l140 177h125zM448 771l-159 -177h-103l138 177h124z" />
    <glyph glyph-name="OE" unicode="&#x152;" horiz-adv-x="824" 
d="M743 0h-396l3 17q-55 -26 -115 -26q-45 0 -79.5 14.5t-51.5 36.5t-28.5 49t-10.5 52.5t3 45.5l65 336q5 28 19.5 57.5t41.5 62t75 53t109 20.5q62 0 104 -26l4 21h396l-19 -97h-299l-37 -192h277l-19 -96h-277l-45 -232h299zM255 88q16 0 33 3.5t37 12.5t35.5 29.5
t21.5 48.5l67 341q20 100 -90 100q-16 0 -33 -3.5t-37.5 -13.5t-36 -31t-21.5 -52l-65 -334q-20 -101 89 -101z" />
    <glyph glyph-name="oe" unicode="&#x153;" horiz-adv-x="821" 
d="M476 228l-10 -52q-8 -40 8 -65.5t76 -25.5q39 0 69 23t46 64h96q-27 -86 -85.5 -134t-144.5 -48q-98 0 -138 58q-61 -58 -158 -58q-91 0 -133.5 52t-25.5 141l30 158q18 89 78.5 140t156.5 51q91 0 136 -59q65 59 160 59q90 0 132.5 -51.5t25.5 -139.5l-22 -113h-297z
M405 347q3 17 1 33t-8.5 29.5t-25.5 21.5t-50 8q-48 0 -80 -26t-41 -72l-30 -158q-3 -24 -3.5 -45.5t21 -37t65.5 -15.5q47 0 78 25t40 69zM697 321l3 20q3 23 3 45t-21 37.5t-64 15.5q-47 0 -78 -24.5t-41 -68.5l-4 -25h202z" />
    <glyph glyph-name="Racute" unicode="&#x154;" horiz-adv-x="559" 
d="M478 0h-110l-80 291h-94l-56 -291h-97l138 713h215q47 0 81.5 -14t50.5 -36t26 -48.5t8 -51t-4 -44.5l-7 -33q-28 -145 -155 -184zM452 487l5 29q20 100 -83 100h-116l-45 -229h118q101 0 121 100zM538 959l-143 -178h-95l121 178h117z" />
    <glyph glyph-name="racute" unicode="&#x155;" horiz-adv-x="328" 
d="M358 429h-53q-29 0 -57.5 -24t-38.5 -75l-64 -330h-95l102 524h95l-9 -47q32 47 99 47h40zM399 772l-143 -178h-95l121 178h117z" />
    <glyph glyph-name="Rcommaaccent" unicode="&#x156;" horiz-adv-x="559" 
d="M478 0h-110l-80 291h-94l-56 -291h-97l138 713h215q47 0 81.5 -14t50.5 -36t26 -48.5t8 -51t-4 -44.5l-7 -33q-28 -145 -155 -184zM452 487l5 29q20 100 -83 100h-116l-45 -229h118q101 0 121 100zM302 -42l-102 -175h-106l116 175h92z" />
    <glyph glyph-name="rcommaaccent" unicode="&#x157;" horiz-adv-x="347" 
d="M373 429h-53q-29 0 -57.5 -24t-38.5 -75l-64 -330h-95l102 524h95l-9 -47q32 47 99 47h40zM162 -42l-102 -175h-106l116 175h92z" />
    <glyph glyph-name="Rcaron" unicode="&#x158;" horiz-adv-x="559" 
d="M478 0h-110l-80 291h-94l-56 -291h-97l138 713h215q47 0 81.5 -14t50.5 -36t26 -48.5t8 -51t-4 -44.5l-7 -33q-28 -145 -155 -184zM452 487l5 29q20 100 -83 100h-116l-45 -229h118q101 0 121 100zM249 951h95l49 -73l74 73h106l-156 -158h-72z" />
    <glyph glyph-name="rcaron" unicode="&#x159;" horiz-adv-x="371" 
d="M370 429h-53q-29 0 -57.5 -24t-38.5 -75l-64 -330h-95l102 524h95l-9 -47q32 47 99 47h40zM149 752h95l49 -73l74 73h106l-156 -158h-72z" />
    <glyph glyph-name="Sacute" unicode="&#x15a;" horiz-adv-x="524" 
d="M479 188q-18 -87 -88.5 -142.5t-168.5 -55.5q-95 0 -142.5 56t-30.5 142h97q-20 -101 94 -101q56 0 95 28.5t48 74.5q12 61 -43 97q-46 30 -147 85q-39 21 -57 65t-8 97q16 83 79.5 134t157.5 51q92 0 139.5 -54.5t30.5 -138.5h-98q10 47 -13.5 72.5t-77.5 25.5
q-45 0 -79.5 -24.5t-42.5 -67.5q-11 -52 39 -80q11 -6 63.5 -35t76.5 -44q99 -60 76 -185zM542 959l-143 -178h-95l121 178h117z" />
    <glyph glyph-name="sacute" unicode="&#x15b;" horiz-adv-x="489" 
d="M447 160q-33 -168 -230 -168q-84 0 -129 48t-33 132h95q-5 -44 15 -64.5t70 -20.5q104 0 118 73q7 37 -41 52q-4 1 -119 33q-50 13 -75 46.5t-16 83.5q30 156 216 156q81 0 125.5 -44.5t36.5 -123.5h-97q1 38 -17.5 56.5t-67.5 18.5q-90 0 -102 -63q-6 -32 38 -45
q9 -3 56.5 -15.5t70.5 -20.5q47 -16 71.5 -50t14.5 -84zM493 772l-143 -178h-95l121 178h117z" />
    <glyph glyph-name="Scircumflex" unicode="&#x15c;" horiz-adv-x="524" 
d="M479 188q-18 -87 -88.5 -142.5t-168.5 -55.5q-95 0 -142.5 56t-30.5 142h97q-20 -101 94 -101q56 0 95 28.5t48 74.5q12 61 -43 97q-46 30 -147 85q-39 21 -57 65t-8 97q16 83 79.5 134t157.5 51q92 0 139.5 -54.5t30.5 -138.5h-98q10 47 -13.5 72.5t-77.5 25.5
q-45 0 -79.5 -24.5t-42.5 -67.5q-11 -52 39 -80q11 -6 63.5 -35t76.5 -44q99 -60 76 -185zM552 793h-94l-49 69l-75 -69h-106l158 158h72z" />
    <glyph glyph-name="scircumflex" unicode="&#x15d;" horiz-adv-x="489" 
d="M447 160q-33 -168 -230 -168q-84 0 -129 48t-33 132h95q-5 -44 15 -64.5t70 -20.5q104 0 118 73q7 37 -41 52q-4 1 -119 33q-50 13 -75 46.5t-16 83.5q30 156 216 156q81 0 125.5 -44.5t36.5 -123.5h-97q1 38 -17.5 56.5t-67.5 18.5q-90 0 -102 -63q-6 -32 38 -45
q9 -3 56.5 -15.5t70.5 -20.5q47 -16 71.5 -50t14.5 -84zM494 594h-94l-49 69l-75 -69h-106l158 158h72z" />
    <glyph glyph-name="Scedilla" unicode="&#x15e;" horiz-adv-x="524" 
d="M479 188q-18 -87 -88.5 -142.5t-168.5 -55.5q-95 0 -142.5 56t-30.5 142h97q-20 -101 94 -101q56 0 95 28.5t48 74.5q12 61 -43 97q-46 30 -147 85q-39 21 -57 65t-8 97q16 83 79.5 134t157.5 51q92 0 139.5 -54.5t30.5 -138.5h-98q10 47 -13.5 72.5t-77.5 25.5
q-45 0 -79.5 -24.5t-42.5 -67.5q-11 -52 39 -80q11 -6 63.5 -35t76.5 -44q99 -60 76 -185zM273 -43l-102 -175h-106l116 175h92z" />
    <glyph glyph-name="scedilla" unicode="&#x15f;" horiz-adv-x="489" 
d="M447 160q-33 -168 -230 -168q-84 0 -129 48t-33 132h95q-5 -44 15 -64.5t70 -20.5q104 0 118 73q7 37 -41 52q-4 1 -119 33q-50 13 -75 46.5t-16 83.5q30 156 216 156q81 0 125.5 -44.5t36.5 -123.5h-97q1 38 -17.5 56.5t-67.5 18.5q-90 0 -102 -63q-6 -32 38 -45
q9 -3 56.5 -15.5t70.5 -20.5q47 -16 71.5 -50t14.5 -84zM265 -42l-102 -175h-106l116 175h92z" />
    <glyph glyph-name="Scaron" unicode="&#x160;" horiz-adv-x="524" 
d="M479 188q-18 -87 -88.5 -142.5t-168.5 -55.5q-95 0 -142.5 56t-30.5 142h97q-20 -101 94 -101q56 0 95 28.5t48 74.5q12 61 -43 97q-46 30 -147 85q-39 21 -57 65t-8 97q16 83 79.5 134t157.5 51q92 0 139.5 -54.5t30.5 -138.5h-98q10 47 -13.5 72.5t-77.5 25.5
q-45 0 -79.5 -24.5t-42.5 -67.5q-11 -52 39 -80q11 -6 63.5 -35t76.5 -44q99 -60 76 -185zM250 951h95l49 -73l74 73h106l-156 -158h-72z" />
    <glyph glyph-name="scaron" unicode="&#x161;" horiz-adv-x="489" 
d="M447 160q-33 -168 -230 -168q-84 0 -129 48t-33 132h95q-5 -44 15 -64.5t70 -20.5q104 0 118 73q7 37 -41 52q-4 1 -119 33q-50 13 -75 46.5t-16 83.5q30 156 216 156q81 0 125.5 -44.5t36.5 -123.5h-97q1 38 -17.5 56.5t-67.5 18.5q-90 0 -102 -63q-6 -32 38 -45
q9 -3 56.5 -15.5t70.5 -20.5q47 -16 71.5 -50t14.5 -84zM194 752h95l49 -73l74 73h106l-156 -158h-72z" />
    <glyph glyph-name="Tcommaaccent" unicode="&#x162;" horiz-adv-x="478" 
d="M540 615h-169l-119 -615h-97l119 615h-168l19 98h434zM248 -42l-102 -175h-106l116 175h92z" />
    <glyph glyph-name="tcommaaccent" unicode="&#x163;" horiz-adv-x="360" 
d="M65 429l19 95h95l36 189h95l-36 -189h109l-19 -95h-109l-56 -292q-9 -43 32 -43h70l-18 -94h-74q-54 0 -86 35.5t-19 105.5l56 288h-95zM229 -42l-102 -175h-106l116 175h92z" />
    <glyph glyph-name="Tcaron" unicode="&#x164;" horiz-adv-x="478" 
d="M540 615h-169l-119 -615h-97l119 615h-168l19 98h434zM227 951h95l49 -73l74 73h106l-156 -158h-72z" />
    <glyph glyph-name="tcaron" unicode="&#x165;" horiz-adv-x="413" 
d="M65 429l19 95h95l36 189h95l-36 -189h109l-19 -95h-109l-56 -292q-9 -43 32 -43h70l-18 -94h-74q-54 0 -86 35.5t-19 105.5l56 288h-95zM633 713l-143 -178h-95l121 178h117z" />
    <glyph glyph-name="Tbar" unicode="&#x166;" horiz-adv-x="478" 
d="M540 615h-169l-54 -280h111l-18 -93h-111l-47 -242h-97l47 242h-107l18 93h107l54 280h-168l19 98h434z" />
    <glyph glyph-name="tbar" unicode="&#x167;" horiz-adv-x="334" 
d="M47 429l19 95h95l33 169h95l-33 -169h110l-19 -95h-110l-20 -103h114l-17 -90h-114l-19 -99q-5 -25 1.5 -34t31.5 -9h69l-18 -94h-74q-59 0 -89 34.5t-16 106.5l19 95h-96l17 90h96l20 103h-95z" />
    <glyph glyph-name="Utilde" unicode="&#x168;" 
d="M481 188q-6 -31 -20 -60.5t-40.5 -63t-74 -53.5t-109.5 -20q-47 0 -82.5 14t-52.5 36t-28 48.5t-9.5 52.5t3.5 47l102 524h97l-102 -524q-20 -101 90 -101q16 0 33 4t37.5 13.5t36.5 31t22 52.5l102 524h97zM521 906l49 -61q-50 -40 -74 -52t-51 -12q-20 0 -50.5 20.5
t-58.5 20.5q-17 0 -60 -35l-49 59q49 41 73 53t52 12q20 0 50.5 -20.5t58.5 -20.5q16 0 60 36z" />
    <glyph glyph-name="utilde" unicode="&#x169;" horiz-adv-x="541" 
d="M439 0h-96l7 34q-47 -43 -110 -43q-90 0 -133 52t-26 140l66 342h95l-66 -342q-3 -24 -3.5 -45.5t21 -36.5t64.5 -15q46 0 79 25t41 67l67 347h96zM482 740l49 -61q-50 -40 -74 -52t-51 -12q-20 0 -50.5 20.5t-58.5 20.5q-17 0 -60 -35l-49 59q49 41 73 53t52 12
q20 0 50.5 -20.5t58.5 -20.5q16 0 60 36z" />
    <glyph glyph-name="Umacron" unicode="&#x16a;" 
d="M481 188q-6 -31 -20 -60.5t-40.5 -63t-74 -53.5t-109.5 -20q-47 0 -82.5 14t-52.5 36t-28 48.5t-9.5 52.5t3.5 47l102 524h97l-102 -524q-20 -101 90 -101q16 0 33 4t37.5 13.5t36.5 31t22 52.5l102 524h97zM547 793h-314l18 91h314z" />
    <glyph glyph-name="umacron" unicode="&#x16b;" horiz-adv-x="541" 
d="M439 0h-96l7 34q-47 -43 -110 -43q-90 0 -133 52t-26 140l66 342h95l-66 -342q-3 -24 -3.5 -45.5t21 -36.5t64.5 -15q46 0 79 25t41 67l67 347h96zM514 624h-314l18 91h314z" />
    <glyph glyph-name="Ubreve" unicode="&#x16c;" 
d="M481 188q-6 -31 -20 -60.5t-40.5 -63t-74 -53.5t-109.5 -20q-47 0 -82.5 14t-52.5 36t-28 48.5t-9.5 52.5t3.5 47l102 524h97l-102 -524q-20 -101 90 -101q16 0 33 4t37.5 13.5t36.5 31t22 52.5l102 524h97zM590 939q-22 -84 -72.5 -121t-128.5 -37q-66 0 -107 40.5
t-35 117.5h86q-1 -39 14.5 -59.5t56.5 -20.5q76 0 98 80h88z" />
    <glyph glyph-name="ubreve" unicode="&#x16d;" horiz-adv-x="541" 
d="M439 0h-96l7 34q-47 -43 -110 -43q-90 0 -133 52t-26 140l66 342h95l-66 -342q-3 -24 -3.5 -45.5t21 -36.5t64.5 -15q46 0 79 25t41 67l67 347h96zM554 762q-22 -84 -72.5 -121t-128.5 -37q-66 0 -107 40.5t-35 117.5h86q-1 -39 14.5 -59.5t56.5 -20.5q76 0 98 80h88z
" />
    <glyph glyph-name="Uring" unicode="&#x16e;" 
d="M481 188q-6 -31 -20 -60.5t-40.5 -63t-74 -53.5t-109.5 -20q-47 0 -82.5 14t-52.5 36t-28 48.5t-9.5 52.5t3.5 47l102 524h97l-102 -524q-20 -101 90 -101q16 0 33 4t37.5 13.5t36.5 31t22 52.5l102 524h97zM519 871q-9 -47 -46 -80.5t-90 -33.5q-46 0 -72.5 34t-18.5 80
q10 49 46.5 81.5t88.5 32.5q48 0 75 -33t17 -81zM455 871q9 49 -40 49q-20 0 -37 -14.5t-21 -34.5q-9 -48 39 -48q20 0 37.5 14t21.5 34z" />
    <glyph glyph-name="uring" unicode="&#x16f;" horiz-adv-x="541" 
d="M439 0h-96l7 34q-47 -43 -110 -43q-90 0 -133 52t-26 140l66 342h95l-66 -342q-3 -24 -3.5 -45.5t21 -36.5t64.5 -15q46 0 79 25t41 67l67 347h96zM488 700q-9 -47 -46 -80.5t-90 -33.5q-46 0 -72.5 34t-18.5 80q10 49 46.5 81.5t88.5 32.5q48 0 75 -33t17 -81zM424 700
q9 49 -40 49q-20 0 -37 -14.5t-21 -34.5q-9 -48 39 -48q20 0 37.5 14t21.5 34z" />
    <glyph glyph-name="Uhungarumlaut" unicode="&#x170;" 
d="M481 188q-6 -31 -20 -60.5t-40.5 -63t-74 -53.5t-109.5 -20q-47 0 -82.5 14t-52.5 36t-28 48.5t-9.5 52.5t3.5 47l102 524h97l-102 -524q-20 -101 90 -101q16 0 33 4t37.5 13.5t36.5 31t22 52.5l102 524h97zM638 958l-162 -177h-103l140 177h125zM488 958l-159 -177h-103
l138 177h124z" />
    <glyph glyph-name="uhungarumlaut" unicode="&#x171;" horiz-adv-x="541" 
d="M439 0h-96l7 34q-47 -43 -110 -43q-90 0 -133 52t-26 140l66 342h95l-66 -342q-3 -24 -3.5 -45.5t21 -36.5t64.5 -15q46 0 79 25t41 67l67 347h96zM598 771l-162 -177h-103l140 177h125zM448 771l-159 -177h-103l138 177h124z" />
    <glyph glyph-name="Uogonek" unicode="&#x172;" horiz-adv-x="555" 
d="M481 188q-6 -31 -20 -60.5t-40.5 -63t-74 -53.5t-109.5 -20q-47 0 -82.5 14t-52.5 36t-28 48.5t-9.5 52.5t3.5 47l102 524h97l-102 -524q-20 -101 90 -101q16 0 33 4t37.5 13.5t36.5 31t22 52.5l102 524h97zM350 -218h-107l-59 175h93z" />
    <glyph glyph-name="uogonek" unicode="&#x173;" horiz-adv-x="541" 
d="M439 0h-96l7 34q-47 -43 -110 -43q-90 0 -133 52t-26 140l66 342h95l-66 -342q-3 -24 -3.5 -45.5t21 -36.5t64.5 -15q46 0 79 25t41 67l67 347h96zM504 -218h-107l-59 175h93z" />
    <glyph glyph-name="Wcircumflex" unicode="&#x174;" horiz-adv-x="791" 
d="M872 713l-287 -713h-109l-20 491l-212 -491h-109l-10 713h100l2 -529l226 528h85l20 -526l207 527h107zM665 793h-94l-49 69l-75 -69h-106l158 158h72z" />
    <glyph glyph-name="wcircumflex" unicode="&#x175;" horiz-adv-x="690" 
d="M729 525l-225 -525h-104l-12 342l-150 -342h-103l-22 525h97l10 -360l157 360h84l15 -360l152 360h101zM579 594h-94l-49 69l-75 -69h-106l158 158h72z" />
    <glyph glyph-name="Ycircumflex" unicode="&#x176;" horiz-adv-x="516" 
d="M597 713l-275 -455l-50 -258h-98l50 260l-99 453h101l67 -327l194 327h110zM522 793h-94l-49 69l-75 -69h-106l158 158h72z" />
    <glyph glyph-name="ycircumflex" unicode="&#x177;" horiz-adv-x="454" 
d="M182 0h-33l-45 525h100l30 -410l188 410h102l-286 -622q-37 -81 -76.5 -105t-115.5 -24h-45l18 94h57q46 0 66 43zM475 594h-94l-49 69l-75 -69h-106l158 158h72z" />
    <glyph glyph-name="Ydieresis" unicode="&#x178;" horiz-adv-x="516" 
d="M597 713l-275 -455l-50 -258h-98l50 260l-99 453h101l67 -327l194 327h110zM523 793h-111l25 127h111zM327 793h-111l25 127h111z" />
    <glyph glyph-name="Zacute" unicode="&#x179;" horiz-adv-x="450" 
d="M394 0h-407l15 83l382 533h-264l18 97h379l-15 -81l-381 -536h292zM494 959l-143 -178h-95l121 178h117z" />
    <glyph glyph-name="zacute" unicode="&#x17a;" horiz-adv-x="447" 
d="M384 0h-373l16 80l303 349h-228l19 95h345l-16 -80l-305 -350h257zM465 772l-143 -178h-95l121 178h117z" />
    <glyph glyph-name="Zdotaccent" unicode="&#x17b;" horiz-adv-x="450" 
d="M394 0h-407l15 83l382 533h-264l18 97h379l-15 -81l-381 -536h292zM394 793h-112l21 107h112z" />
    <glyph glyph-name="zdotaccent" unicode="&#x17c;" horiz-adv-x="447" 
d="M384 0h-373l16 80l303 349h-228l19 95h345l-16 -80l-305 -350h257zM368 631h-112l21 107h112z" />
    <glyph glyph-name="Zcaron" unicode="&#x17d;" horiz-adv-x="450" 
d="M394 0h-407l15 83l382 533h-264l18 97h379l-15 -81l-381 -536h292zM209 951h95l49 -73l74 73h106l-156 -158h-72z" />
    <glyph glyph-name="zcaron" unicode="&#x17e;" horiz-adv-x="447" 
d="M384 0h-373l16 80l303 349h-228l19 95h345l-16 -80l-305 -350h257zM172 752h95l49 -73l74 73h106l-156 -158h-72z" />
    <glyph glyph-name="longs" unicode="&#x17f;" horiz-adv-x="334" 
d="M271 552l-107 -552h-95l83 429h-87l19 95h87l3 16q29 154 176 154h57l-19 -94h-66q-42 0 -51 -48z" />
    <glyph glyph-name="florin" unicode="&#x192;" horiz-adv-x="331" 
d="M160 -64q-26 -142 -159 -142h-37l18 94h33q41 0 49 43l97 498h-86l19 95h86l3 16q29 154 176 154h57l-19 -94h-65q-43 0 -52 -48l-5 -28h118l-19 -95h-118z" />
    <glyph glyph-name="Scommaaccent" unicode="&#x218;" horiz-adv-x="524" 
d="M479 188q-18 -87 -88.5 -142.5t-168.5 -55.5q-95 0 -142.5 56t-30.5 142h97q-20 -101 94 -101q56 0 95 28.5t48 74.5q12 61 -43 97q-46 30 -147 85q-39 21 -57 65t-8 97q16 83 79.5 134t157.5 51q92 0 139.5 -54.5t30.5 -138.5h-98q10 47 -13.5 72.5t-77.5 25.5
q-45 0 -79.5 -24.5t-42.5 -67.5q-11 -52 39 -80q11 -6 63.5 -35t76.5 -44q99 -60 76 -185zM271 -45l-102 -175h-106l116 175h92z" />
    <glyph glyph-name="scommaaccent" unicode="&#x219;" horiz-adv-x="489" 
d="M447 160q-33 -168 -230 -168q-84 0 -129 48t-33 132h95q-5 -44 15 -64.5t70 -20.5q104 0 118 73q7 37 -41 52q-4 1 -119 33q-50 13 -75 46.5t-16 83.5q30 156 216 156q81 0 125.5 -44.5t36.5 -123.5h-97q1 38 -17.5 56.5t-67.5 18.5q-90 0 -102 -63q-6 -32 38 -45
q9 -3 56.5 -15.5t70.5 -20.5q47 -16 71.5 -50t14.5 -84zM259 -44l-102 -175h-106l116 175h92z" />
    <glyph glyph-name="circumflex" unicode="&#x2c6;" horiz-adv-x="476" 
d="M445 551h-94l-49 69l-75 -69h-106l158 158h72z" />
    <glyph glyph-name="caron" unicode="&#x2c7;" horiz-adv-x="476" 
d="M152 710h95l49 -73l74 73h106l-156 -158h-72z" />
    <glyph glyph-name="breve" unicode="&#x2d8;" horiz-adv-x="495" 
d="M494 701q-22 -84 -72.5 -121t-128.5 -37q-66 0 -107 40.5t-35 117.5h86q-1 -39 14.5 -59.5t56.5 -20.5q76 0 98 80h88z" />
    <glyph glyph-name="dotaccent" unicode="&#x2d9;" horiz-adv-x="264" 
d="M238 577h-112l21 107h112z" />
    <glyph glyph-name="ring" unicode="&#x2da;" horiz-adv-x="380" 
d="M366 646q-9 -47 -46 -80.5t-90 -33.5q-46 0 -72.5 34t-18.5 80q10 49 46.5 81.5t88.5 32.5q48 0 75 -33t17 -81zM302 646q9 49 -40 49q-20 0 -37 -14.5t-21 -34.5q-9 -48 39 -48q20 0 37.5 14t21.5 34z" />
    <glyph glyph-name="ogonek" unicode="&#x2db;" horiz-adv-x="342" 
d="M251 -169h-107l-59 175h93z" />
    <glyph glyph-name="tilde" unicode="&#x2dc;" horiz-adv-x="496" 
d="M430 678l49 -61q-50 -40 -74 -52t-51 -12q-20 0 -50.5 20.5t-58.5 20.5q-17 0 -60 -35l-49 59q49 41 73 53t52 12q20 0 50.5 -20.5t58.5 -20.5q16 0 60 36z" />
    <glyph glyph-name="hungarumlaut" unicode="&#x2dd;" horiz-adv-x="530" 
d="M532 719l-162 -177h-103l140 177h125zM382 719l-159 -177h-103l138 177h124z" />
    <glyph glyph-name="pi" unicode="&#x3c0;" horiz-adv-x="632" 
d="M448 0h-94l85 441h-126l-85 -441h-94l85 441h-88l18 89h488l-18 -89h-86z" />
    <glyph glyph-name="endash" unicode="&#x2013;" horiz-adv-x="579" 
d="M521 236h-427l18 90h427z" />
    <glyph glyph-name="emdash" unicode="&#x2014;" horiz-adv-x="813" 
d="M755 236h-661l18 90h661z" />
    <glyph glyph-name="quoteleft" unicode="&#x2018;" horiz-adv-x="259" 
d="M326 753l-132 -234h-129l191 234h70z" />
    <glyph glyph-name="quoteright" unicode="&#x2019;" horiz-adv-x="259" 
d="M326 753l-192 -234h-69l131 234h130z" />
    <glyph glyph-name="quotesinglbase" unicode="&#x201a;" horiz-adv-x="253" 
d="M273 124l-196 -239h-74l134 239h136z" />
    <glyph glyph-name="quotedblleft" unicode="&#x201c;" horiz-adv-x="439" 
d="M501 788l-136 -239h-137l198 239h75zM338 788l-135 -239h-136l197 239h74z" />
    <glyph glyph-name="quotedblright" unicode="&#x201d;" horiz-adv-x="438" 
d="M500 788l-196 -239h-76l136 239h136zM338 788l-197 -239h-74l135 239h136z" />
    <glyph glyph-name="quotedblbase" unicode="&#x201e;" horiz-adv-x="438" 
d="M299 124h136l-195 -239h-76zM273 124l-196 -239h-74l134 239h136z" />
    <glyph glyph-name="dagger" unicode="&#x2020;" horiz-adv-x="450" 
d="M223 -53h-88l97 497h-108l17 89h108l42 214h88l-42 -214h110l-17 -89h-110z" />
    <glyph glyph-name="daggerdbl" unicode="&#x2021;" horiz-adv-x="450" 
d="M223 -53h-88l42 214h-108l17 89h108l38 195h-108l18 89h108l41 213h88l-41 -213h110l-18 -89h-110l-38 -195h110l-17 -89h-110z" />
    <glyph glyph-name="bullet" unicode="&#x2022;" horiz-adv-x="385" 
d="M342 344q-10 -48 -50 -82t-89 -34t-76.5 34t-17.5 82q9 49 50 83.5t90 34.5q48 0 75 -34.5t18 -83.5z" />
    <glyph glyph-name="ellipsis" unicode="&#x2026;" horiz-adv-x="659" 
d="M580 0h-114l25 124h114zM379 0h-113l25 124h113zM180 0h-115l25 124h115z" />
    <glyph glyph-name="perthousand" unicode="&#x2030;" horiz-adv-x="1124" 
d="M394 452q-26 -129 -157 -129q-60 0 -88 35t-16 94l17 92q12 60 51 93.5t104 33.5q60 0 88.5 -34.5t17.5 -92.5zM304 452l17 92q7 13 1.5 25t-34.5 12q-41 0 -49 -37l-17 -92q-7 -14 -1 -27t34 -13q41 0 49 40zM730 120q-12 -61 -51 -95.5t-105 -34.5q-60 0 -88 35.5
t-17 94.5l18 92q12 59 51 93t104 34q60 0 88.5 -35t17.5 -92zM639 120l18 92q6 12 1 24t-34 12q-41 0 -47 -36l-18 -92q-6 -14 -1 -27t33 -13q40 0 48 40zM1037 120q-25 -130 -155 -130q-60 0 -88.5 35t-17.5 95l18 92q12 59 51.5 93t104.5 34q60 0 88 -34.5t17 -92.5z
M948 120l18 92q6 12 0 24t-34 12q-42 0 -48 -36l-18 -92q-6 -14 -0.5 -27t33.5 -13q41 0 49 40zM703 747l-415 -797h-98l417 797h96z" />
    <glyph glyph-name="guilsinglleft" unicode="&#x2039;" horiz-adv-x="309" 
d="M226 47l-175 216l259 218l-25 -134l-110 -93l74 -92z" />
    <glyph glyph-name="guilsinglright" unicode="&#x203a;" horiz-adv-x="308" 
d="M307 263l-258 -216l25 135l111 92l-75 93l23 114z" />
    <glyph glyph-name="fraction" unicode="&#x2044;" horiz-adv-x="578" 
d="M603 694l-459 -694h-102l460 694h101z" />
    <glyph glyph-name="Euro" unicode="&#x20ac;" horiz-adv-x="550" 
d="M423 718q44 0 76.5 -14.5t48 -37.5t24.5 -51t7.5 -55t-3.5 -50h-95q10 67 -12.5 90.5t-64.5 23.5q-16 0 -32 -3.5t-34.5 -13.5t-33 -31.5t-20.5 -52.5l-10 -49h182l-17 -91h-182l-10 -48h182l-17 -91h-182l-11 -55q-20 -103 81 -103q35 0 70.5 24.5t51.5 87.5h95
q-9 -37 -23.5 -68t-41 -65t-71.5 -54t-104 -20q-46 0 -79 14.5t-49 36t-23.5 49.5t-7 51.5t4.5 45.5l11 56h-79l17 91h79l10 48h-79l17 91h79l10 51q5 23 12.5 45t25.5 50t42 48.5t64.5 35t90.5 14.5z" />
    <glyph glyph-name="trademark" unicode="&#x2122;" horiz-adv-x="717" 
d="M651 302h-85l40 208l-57 -116h-42l-12 116l-40 -208h-85l76 391h94l14 -162l77 162h96zM407 607h-88l-59 -305h-86l59 305h-88l17 86h262z" />
    <glyph glyph-name="Omega" unicode="&#x2126;" horiz-adv-x="537" 
d="M249 0l15 80q101 14 120 106l66 339q21 105 -94 105q-25 0 -49 -6t-51.5 -31.5t-35.5 -67.5l-66 -339q-10 -52 11.5 -76t66.5 -30l-15 -80h-225l15 82h67q-21 51 -10 104l66 341q5 28 19.5 56.5t41 61.5t74 53.5t108.5 20.5q46 0 80 -14t51 -36t28.5 -48t10.5 -50.5
t-3 -44.5l-66 -341q-12 -57 -33 -84q-7 -10 -17 -19h68l-16 -82h-227z" />
    <glyph glyph-name="partialdiff" unicode="&#x2202;" horiz-adv-x="533" 
d="M374 183l14 74q20 100 -85 100q-23 0 -46 -6t-49 -30t-34 -64l-14 -74q-11 -57 17 -78t73 -21q22 0 44 6t47 30t33 63zM534 525l-67 -347q-5 -28 -19 -56.5t-40 -59.5t-72 -51t-105 -20q-46 0 -80 14t-50.5 35t-27.5 47t-10 50t3 43l15 78q6 29 19.5 57.5t39.5 61
t71.5 52.5t104.5 20q64 0 102 -36l22 110q6 30 -2 51.5t-25.5 31t-34.5 13t-36 3.5l18 93q48 0 84 -13.5t53.5 -35t29 -47.5t10.5 -50t-3 -44z" />
    <glyph glyph-name="Delta" unicode="&#x2206;" horiz-adv-x="539" 
d="M483 0h-496l336 713h98zM389 86l-40 497l-234 -497h274z" />
    <glyph glyph-name="product" unicode="&#x220f;" horiz-adv-x="560" 
d="M454 0h-94l117 602h-228l-117 -602h-94l135 694h416z" />
    <glyph glyph-name="summation" unicode="&#x2211;" horiz-adv-x="557" 
d="M578 630h-292l191 -237l-13 -68l-288 -242h296l-16 -83h-425l15 81l340 287l-230 282l13 63h425z" />
    <glyph glyph-name="minus" unicode="&#x2212;" horiz-adv-x="562" 
d="M489 236h-380l18 90h380z" />
    <glyph glyph-name="radical" unicode="&#x221a;" horiz-adv-x="613" 
d="M110 318h94l33 -415l373 792h102l-427 -902h-130z" />
    <glyph glyph-name="infinity" unicode="&#x221e;" horiz-adv-x="838" 
d="M437 178l-8 17l-14 -17q-78 -95 -174 -95q-78 0 -118.5 55.5t-23.5 141.5q17 87 75.5 141t142.5 54q48 0 83.5 -26.5t53.5 -67.5l8 -17l14 16q40 45 80.5 70t94.5 25q78 0 118 -55t24 -140q-18 -88 -76 -142.5t-142 -54.5q-48 0 -84 27t-54 68zM539 326l-40 -46l22 -47
q8 -17 12 -24.5t12 -17t18.5 -13t25.5 -3.5q43 0 73.5 30t39.5 75q20 103 -72 103q-42 0 -91 -57zM302 383q-42 0 -72.5 -29.5t-39.5 -73.5q-20 -105 71 -105q41 0 92 58l41 47l-23 46q-20 39 -32 47q-15 10 -37 10z" />
    <glyph glyph-name="integral" unicode="&#x222b;" horiz-adv-x="301" 
d="M145 -65q-28 -142 -158 -142h-38l18 93h33q42 0 50 44l119 611q29 153 175 153h56l-18 -92h-64q-17 0 -32.5 -11.5t-20.5 -37.5z" />
    <glyph glyph-name="approxequal" unicode="&#x2248;" horiz-adv-x="555" 
d="M467 431l58 -53q-61 -49 -86 -62t-62 -13q-24 0 -62.5 21.5t-70.5 21.5q-23 0 -73 -42l-53 53q58 49 83 62.5t61 13.5q24 0 63 -22t71 -22q20 0 71 42zM442 294l58 -53q-61 -49 -86 -62t-62 -13q-24 0 -62.5 21.5t-70.5 21.5q-23 0 -73 -42l-53 53q58 49 83 62.5t61 13.5
q24 0 63 -22t71 -22q20 0 71 42z" />
    <glyph glyph-name="notequal" unicode="&#x2260;" horiz-adv-x="577" 
d="M489 167h-203l-149 -229h-101l149 229h-84l18 91h127l43 64h-158l18 91h201l146 219h100l-144 -219h85l-18 -91h-128l-43 -64h159z" />
    <glyph glyph-name="lessequal" unicode="&#x2264;" horiz-adv-x="490" 
d="M403 123h-123l-200 251l312 261h143l-325 -272zM410 0h-382l17 91h382z" />
    <glyph glyph-name="greaterequal" unicode="&#x2265;" horiz-adv-x="491" 
d="M493 374l-300 -251h-144l313 264l-199 248h119zM400 0h-382l17 91h382z" />
    <glyph glyph-name="lozenge" unicode="&#x25ca;" horiz-adv-x="539" 
d="M100 354l225 359h94l88 -359l-226 -354h-94zM194 354l59 -255l160 255l-59 259z" />
    <glyph glyph-name="fi" unicode="&#xfb01;" horiz-adv-x="601" 
d="M483 0h-95l83 429h-226l-83 -429h-95l83 429h-86l18 95h86l7 35q15 75 56 114.5t120 39.5h56l-18 -94h-65q-42 0 -51 -48l-10 -47h321zM605 592h-110l24 126h110z" />
    <glyph glyph-name="fl" unicode="&#xfb02;" horiz-adv-x="597" 
d="M406 141l56 288h-217l-83 -429h-95l83 429h-86l19 95h86l7 35q29 154 175 154h57l-18 -94h-65q-43 0 -52 -48l-9 -47h217l36 189h94l-111 -576q-9 -43 33 -43h35l-18 -94h-39q-59 0 -89 34.5t-16 106.5z" />
    </font>
</defs>
</svg>
