<?xml version="1.0" standalone="no"?>
<!DOCTYPE svg PUBLIC "-//W3C//DTD SVG 1.1//EN" "http://www.w3.org/Graphics/SVG/1.1/DTD/svg11.dtd" >
<svg xmlns="http://www.w3.org/2000/svg" xmlns:xlink="http://www.w3.org/1999/xlink" version="1.1">
<metadata>
Created by FontForge 20150318 at Tue Mar 24 19:42:10 2015
 By uniteet7
Published by Die Gestalten Verlag GmbH &#38; Co. KG, 2008
Copyright (c) by Binnenland, 2006, Designed by Mika Mischler / 2002-2006 All rights reserved. This software may not be reproduced, used, displayed, modified, disclosed or transferred without the express written approval of (Binnenland).
</metadata>
<defs>
<font id="TSTARPRO-Light" horiz-adv-x="541" >
  <font-face 
    font-family="TSTAR PRO Light"
    font-weight="300"
    font-stretch="normal"
    units-per-em="1000"
    panose-1="2 0 8 6 3 0 0 2 0 4"
    ascent="774"
    descent="-226"
    x-height="523"
    cap-height="713"
    bbox="-49 -233 995 948"
    underline-thickness="51"
    underline-position="-89"
    unicode-range="U+0020-FB02"
  />
<missing-glyph horiz-adv-x="1000" 
 />
    <glyph glyph-name=".notdef" horiz-adv-x="1000" 
 />
    <glyph glyph-name=".null" horiz-adv-x="0" 
 />
    <glyph glyph-name="nonmarkingreturn" horiz-adv-x="333" 
 />
    <glyph glyph-name="space" unicode=" " horiz-adv-x="220" 
 />
    <glyph glyph-name="exclam" unicode="!" horiz-adv-x="245" 
d="M144 211h-41v500h41v-500zM158 0h-71v70h71v-70z" />
    <glyph glyph-name="quotedbl" unicode="&#x22;" horiz-adv-x="342" 
d="M128 577h-41v135h41v-135zM255 577h-41v135h41v-135z" />
    <glyph glyph-name="numbersign" unicode="#" horiz-adv-x="677" 
d="M590 455h-116l-29 -178h111v-33h-116l-36 -223h-33l33 223h-179l-37 -223h-36l36 223h-101v33h106l29 178h-101v32h106l32 203h36l-31 -203h179l34 203h36l-34 -203h111v-32zM437 455h-177l-30 -178h179z" />
    <glyph glyph-name="dollar" unicode="$" horiz-adv-x="516" 
d="M235 -72v63q-82 5 -129.5 55t-47.5 126h41q0 -66 41 -103t113 -37q74 0 118.5 38t44.5 104q0 89 -82 135q-65 37 -178 95q-41 21 -65.5 60t-24.5 87q0 70 47 117t122 52v68h41v-68q77 -7 124 -55.5t47 -122.5h-40q0 65 -43 102t-111 37q-63 0 -104.5 -36.5t-41.5 -96.5
q0 -71 77 -111q92 -48 169 -90q105 -57 105 -175q0 -75 -52 -124.5t-130 -56.5v-63h-41z" />
    <glyph glyph-name="percent" unicode="%" horiz-adv-x="802" 
d="M330 477q0 -55 -33 -87.5t-89 -32.5t-88.5 32t-32.5 88v109q0 54 33 86.5t88 32.5q57 0 89.5 -32t32.5 -87v-109zM715 129q0 -55 -33 -87.5t-89 -32.5t-88.5 32t-32.5 88v109q0 54 33 86.5t88 32.5q56 0 89 -32t33 -87v-109zM678 129v109q0 81 -85 81q-40 0 -62 -21
t-22 -60v-109q0 -82 84 -82q85 0 85 82zM292 477l1 109q0 81 -85 81q-40 0 -62 -21t-22 -60v-109q0 -82 84 -82t84 82zM533 714l-231 -714h-41l233 714h39z" />
    <glyph glyph-name="ampersand" unicode="&#x26;" horiz-adv-x="647" 
d="M484 549h-40q0 60 -42.5 95.5t-109.5 35.5q-58 0 -101 -29.5t-43 -95.5q0 -26 13 -49t23 -33t32 -28l344 -295l-25 -30l-48 41q-6 -57 -38.5 -97t-75 -56.5t-90.5 -16.5q-82 0 -144 49.5t-62 146.5q0 112 108 176l39 24l-47 41q-69 60 -69 129q0 82 58 122.5t126 40.5
q82 0 137 -47.5t55 -123.5zM283 31q63 0 114 39.5t51 115.5v8l-194 166l-46 -28q-41 -25 -65.5 -63.5t-24.5 -82.5q0 -76 51 -115.5t114 -39.5z" />
    <glyph glyph-name="quotesingle" unicode="'" horiz-adv-x="214" 
d="M127 577h-40v135h40v-135z" />
    <glyph glyph-name="parenleft" unicode="(" horiz-adv-x="276" 
d="M189 -56l-27 -30q-44 44 -57 69q-18 34 -18 89v562q0 55 18 89q15 28 56 69q19 -19 28 -29q-31 -29 -45 -56q-16 -32 -16 -79v-549q0 -48 16 -80q18 -33 45 -55z" />
    <glyph glyph-name="parenright" unicode=")" horiz-adv-x="276" 
d="M189 72q0 -55 -18 -89q-15 -28 -56 -69q-5 6 -14 15.5t-14 14.5q34 34 45 55q16 32 16 80v549q0 47 -16 79q-12 23 -44 55q16 18 27 29q43 -43 56 -68q18 -34 18 -89v-562z" />
    <glyph glyph-name="asterisk" unicode="*" horiz-adv-x="561" 
d="M422 479l-13 -27l-117 69l4 -134h-30l3 134l-115 -69q-3 5 -7 13l-7 14l117 63l-118 63q3 5 17 26l113 -69l-3 135h30l-4 -135l117 69q3 -5 7 -14t6 -12l-116 -63z" />
    <glyph glyph-name="plus" unicode="+" horiz-adv-x="568" 
d="M486 255h-185v-191h-37v191h-183v37h183v178h37v-178h185v-37z" />
    <glyph glyph-name="comma" unicode="," horiz-adv-x="267" 
d="M180 74l-127 -203h-21q41 115 75 203h73z" />
    <glyph glyph-name="hyphen" unicode="-" horiz-adv-x="453" 
d="M366 246h-279v37h279v-37z" />
    <glyph glyph-name="period" unicode="." horiz-adv-x="245" 
d="M162 0h-79v79h79v-79z" />
    <glyph glyph-name="slash" unicode="/" horiz-adv-x="486" 
d="M399 772l-269 -827h-43l271 827h41z" />
    <glyph glyph-name="zero" unicode="0" horiz-adv-x="520" 
d="M443 172q0 -28 -8 -56t-27 -58t-58.5 -48.5t-93.5 -18.5q-53 0 -91 18.5t-56 48.5t-25.5 58t-7.5 57v368q0 21 4 43t16.5 47t32 44t53.5 32t78 13q53 0 91.5 -18.5t57 -48t26.5 -57.5t8 -56v-368zM402 173v366q0 42 -15 71.5t-38.5 43.5t-45 20t-43.5 6t-43.5 -6
t-45.5 -20t-39 -43.5t-15 -71.5v-366q0 -42 15 -71.5t38.5 -44t45 -20.5t43.5 -6q21 0 43.5 6t46 20.5t38.5 44.5t15 71z" />
    <glyph glyph-name="one" unicode="1" horiz-adv-x="522" 
d="M439 0h-353v40h156v630l-114 -10v40l155 13v-673h156v-40z" />
    <glyph glyph-name="two" unicode="2" horiz-adv-x="516" 
d="M452 0h-388v124q0 89 94 161q28 22 94 63t95 65q64 53 64 118q0 70 -40.5 109.5t-112.5 39.5q-22 0 -44 -5t-47.5 -17.5t-42.5 -40.5t-19 -67h-41q1 28 11.5 55.5t32 54.5t60.5 43.5t90 16.5q86 0 139.5 -52t53.5 -136t-75 -146q-31 -25 -99.5 -68.5t-98.5 -67.5
q-73 -59 -73 -122v-88h347v-40z" />
    <glyph glyph-name="three" unicode="3" horiz-adv-x="520" 
d="M438 672l-166 -264q75 -4 128 -49t53 -126v-56q0 -26 -9 -55.5t-29 -60t-59.5 -50.5t-92.5 -20q-54 0 -94.5 17.5t-61.5 46t-31 58.5t-10 61h40q0 -42 16.5 -72.5t42.5 -44.5t49 -20t45 -6t45.5 6t49.5 20.5t42.5 45.5t16.5 74v54q0 42 -16.5 71.5t-43 43t-49 18.5
t-45.5 5h-28v40l163 264h-294v40h338v-41z" />
    <glyph glyph-name="four" unicode="4" horiz-adv-x="518" 
d="M445 0h-41v211h-331v60l164 442h42l-169 -461h294v280h41v-532z" />
    <glyph glyph-name="five" unicode="5" horiz-adv-x="518" 
d="M457 181q0 -82 -58.5 -136t-140.5 -54q-83 0 -140.5 50.5t-57.5 132.5h41q0 -63 43 -103t114 -40q64 0 111 41t47 108v49q0 63 -41 107t-115 44h-168v60q3 43 10 134.5t10 137.5h306v-40h-269l-18 -252h131q79 0 137 -52.5t58 -136.5v-50z" />
    <glyph glyph-name="six" unicode="6" horiz-adv-x="518" 
d="M451 170q0 -25 -9.5 -53t-29.5 -57.5t-60.5 -49t-94.5 -19.5q-53 0 -92.5 18.5t-59.5 47.5t-29.5 58t-9.5 56v368q0 26 9.5 54.5t30 58t61 49t94.5 19.5q50 0 87.5 -18.5t56.5 -47.5t27.5 -55.5t8.5 -50.5h-41q0 38 -15 65.5t-39 41t-46 19.5t-43 6t-44.5 -7t-48.5 -21.5
t-41 -44.5t-16 -70v-166q53 68 154 68q53 0 92.5 -19.5t59.5 -49.5t29 -58.5t9 -54.5v-87zM410 173v83q0 43 -16 73.5t-42.5 44.5t-49.5 19.5t-45 5.5t-44.5 -5.5t-48 -19.5t-41.5 -44.5t-16 -73.5v-83q0 -41 16 -71t41 -44t48.5 -20.5t44.5 -6.5q22 0 45.5 6.5t49 20.5
t42 44t16.5 71z" />
    <glyph glyph-name="seven" unicode="7" horiz-adv-x="518" 
d="M462 670l-245 -670h-41l246 673h-366v40h406v-43z" />
    <glyph glyph-name="eight" unicode="8" horiz-adv-x="517" 
d="M459 189q0 -31 -9 -62t-30 -63.5t-62.5 -52.5t-98.5 -20q-55 0 -97 20.5t-63 52.5t-31 63.5t-10 61.5q0 125 107 176q-51 26 -74.5 75t-23.5 94q0 30 9 60t29 59.5t60 48t94 18.5t93.5 -18.5t60 -48t30 -59.5t9.5 -60q0 -44 -25 -93t-78 -75q110 -51 110 -177zM420 189
q0 74 -46 115.5t-115 41.5q-70 0 -114.5 -41.5t-44.5 -115.5q0 -47 17 -81t44 -49.5t50.5 -21.5t47.5 -6q23 0 47 6t51.5 21.5t45 49t17.5 81.5zM411 534q0 44 -16 75t-42 45t-48.5 19.5t-45.5 5.5q-22 0 -44.5 -5.5t-48.5 -19.5t-42 -45t-16 -75q0 -69 41.5 -108t109.5 -39
q69 0 110.5 39t41.5 108z" />
    <glyph glyph-name="nine" unicode="9" horiz-adv-x="519" 
d="M452 172q0 -31 -9.5 -60.5t-30.5 -57.5t-61.5 -45.5t-94.5 -17.5q-41 0 -73 12t-51.5 30t-32 41.5t-17.5 45.5t-5 43h41q0 -39 14.5 -67t38.5 -41t45.5 -18.5t42.5 -5.5q17 0 35 3t39.5 12.5t38 24.5t28 41.5t11.5 61.5v170q-23 -37 -65 -57.5t-89 -20.5
q-53 0 -92.5 19.5t-59.5 50t-29.5 59t-9.5 54.5v92q0 25 9.5 53t29.5 57.5t60.5 49t94.5 19.5q53 0 92.5 -18.5t60 -47.5t30 -58t9.5 -56v-368zM411 450v88q0 34 -11 60t-27.5 41.5t-38 25t-39.5 13t-35 3.5q-22 0 -45.5 -6t-49 -20.5t-42 -45t-16.5 -71.5v-88
q0 -41 16.5 -71.5t42 -45t49 -20.5t45.5 -6q21 0 44.5 7t49 21.5t41.5 44.5t16 70z" />
    <glyph glyph-name="colon" unicode=":" horiz-adv-x="245" 
d="M162 0h-79v79h79v-79zM162 341h-79v80h79v-80z" />
    <glyph glyph-name="semicolon" unicode=";" horiz-adv-x="237" 
d="M152 74l-127 -203h-21q41 115 75 203h73zM156 341h-79v80h79v-80z" />
    <glyph glyph-name="less" unicode="&#x3c;" horiz-adv-x="491" 
d="M405 0h-56l-262 263l259 260h57l-258 -260z" />
    <glyph glyph-name="equal" unicode="=" horiz-adv-x="599" 
d="M476 353h-353v37h353v-37zM476 201h-353v37h353v-37z" />
    <glyph glyph-name="greater" unicode="&#x3e;" horiz-adv-x="493" 
d="M406 263l-263 -263h-56l260 263l-258 260h57z" />
    <glyph glyph-name="question" unicode="?" horiz-adv-x="450" 
d="M418 531q-1 -68 -56 -124q-16 -17 -50.5 -42t-46.5 -36q-44 -37 -44 -107v-18h-41v15q0 87 60 139q13 11 45.5 35t48.5 40q44 42 44 96q0 73 -40 112.5t-112 39.5q-22 0 -44 -5t-47.5 -18t-43 -41t-20.5 -67h-39q1 26 11.5 53.5t31.5 55t60 44.5t91 17q85 0 138.5 -52.5
t53.5 -136.5zM236 0h-69v70h69v-70z" />
    <glyph glyph-name="at" unicode="@" horiz-adv-x="613" 
d="M500 0h-41v60q-36 -44 -98 -42q-54 0 -90.5 32.5t-36.5 92.5v203q0 60 38 92t92 32q65 0 95 -44v112q0 42 -16.5 72t-42 44t-48.5 20t-45 6t-45 -6t-49 -20t-42.5 -44.5t-16.5 -73.5v-580q0 -40 14.5 -69t38 -44t45.5 -22t45 -8v-43q-51 2 -89.5 22t-57.5 50t-28 58
t-9 53v588q0 25 9.5 53t29.5 57.5t60.5 49t94.5 19.5q53 0 93 -19t60.5 -49t30 -58.5t9.5 -53.5v-540zM459 145v200q0 44 -29.5 66t-67.5 22q-39 0 -65 -23t-26 -68v-196q0 -45 25.5 -68t64.5 -23q40 0 69 22.5t29 67.5z" />
    <glyph glyph-name="A" unicode="A" horiz-adv-x="542" 
d="M510 0h-41l-55 212h-287l-56 -212h-39l186 713h102zM403 252l-110 422h-46l-110 -422h266z" />
    <glyph glyph-name="B" unicode="B" horiz-adv-x="554" 
d="M482 180q0 -26 -8 -53.5t-27 -58t-58 -49.5t-93 -19h-209v713h204q44 0 77 -13t52 -31.5t30.5 -44t15 -46t3.5 -40.5v-12q0 -126 -92 -158q33 -8 55.5 -28.5t32.5 -47t13.5 -47t3.5 -40.5v-25zM441 183v21q0 144 -139 144h-174v-308h169q23 0 44.5 5.5t45.5 19.5t39 44.5
t15 73.5zM428 528v9q0 136 -137 136h-163v-285h169q131 0 131 140z" />
    <glyph glyph-name="C" unicode="C" horiz-adv-x="522" 
d="M271 680q-22 0 -45 -6t-49 -19.5t-42.5 -43.5t-16.5 -72v-366q0 -42 16.5 -71.5t42.5 -43.5t49 -19.5t45 -5.5t45 6t48 20t41 43.5t16 69.5h41q0 -28 -9.5 -57t-30 -58t-61 -47.5t-94.5 -18.5q-53 0 -92.5 18.5t-59.5 48t-29 58.5t-9 57v368q0 20 5 42.5t19 47.5t35 44
t56 32t79 13q53 0 92.5 -19t59.5 -48t29.5 -57.5t9.5 -55.5h-40q0 41 -15.5 70.5t-41 43.5t-48.5 20t-46 6z" />
    <glyph glyph-name="D" unicode="D" horiz-adv-x="551" 
d="M474 183q0 -27 -7.5 -55t-25.5 -58.5t-56 -50t-91 -19.5h-207v714h203q44 0 78 -13.5t53.5 -33t32 -45t16.5 -46.5t4 -41v-352zM433 184v348q0 43 -14.5 73t-38.5 44t-46 19.5t-44 5.5h-162v-634h164q22 0 44 6.5t45 21t37.5 44.5t14.5 72z" />
    <glyph glyph-name="E" unicode="E" horiz-adv-x="512" 
d="M455 0h-368v713h368v-40h-327v-275h302v-40h-302v-318h327v-40z" />
    <glyph glyph-name="F" unicode="F" horiz-adv-x="502" 
d="M455 673h-327v-276h302v-40h-302v-357h-41v713h368v-40z" />
    <glyph glyph-name="G" unicode="G" 
d="M464 172q0 -27 -9.5 -56t-30.5 -58.5t-62 -48t-95 -18.5q-43 0 -77 12.5t-54.5 32t-34.5 45t-19 48t-5 44.5v368q0 27 9.5 55t29.5 57.5t60.5 48t94.5 18.5q53 0 92.5 -19t59.5 -48t29.5 -57.5t9.5 -55.5h-40q0 41 -16 70.5t-41.5 43.5t-48.5 20t-45 6t-45 -6t-49 -20
t-42.5 -44t-16.5 -71v-366q0 -41 16.5 -71t42 -44.5t48.5 -20.5t45 -6t45.5 6t49 20.5t42 44.5t16.5 71v161h-156v40h197v-202z" />
    <glyph glyph-name="H" unicode="H" horiz-adv-x="575" 
d="M488 0h-41v357h-319v-357h-41v713h41v-316h319v316h41v-713z" />
    <glyph glyph-name="I" unicode="I" horiz-adv-x="215" 
d="M87 713h41v-713h-41v713z" />
    <glyph glyph-name="J" unicode="J" horiz-adv-x="455" 
d="M373 171q0 -85 -46.5 -132.5t-128.5 -47.5q-80 0 -125.5 48.5t-45.5 131.5h41q0 -78 39.5 -109t91.5 -31q33 0 60.5 9.5t50 41.5t22.5 84v507h-227v40h268v-542z" />
    <glyph glyph-name="K" unicode="K" horiz-adv-x="507" 
d="M475 0h-51l-212 360l-84 -120v-240h-41v713h41v-399l281 399h49l-222 -315z" />
    <glyph glyph-name="L" unicode="L" horiz-adv-x="476" 
d="M454 0h-367v713h41v-672h326v-41z" />
    <glyph glyph-name="M" unicode="M" horiz-adv-x="644" 
d="M128 0h-41v713h67l168 -427l168 427h67v-713h-41v671l-174 -439h-40l-174 438v-670z" />
    <glyph glyph-name="N" unicode="N" horiz-adv-x="566" 
d="M479 0h-68l-283 665v-665h-41v713h65l286 -673v673h41v-713z" />
    <glyph glyph-name="O" unicode="O" 
d="M464 172q0 -27 -9.5 -56t-30.5 -58.5t-62 -48t-95 -18.5q-43 0 -77 12.5t-54.5 32t-34.5 45t-19 48t-5 44.5v368q0 27 9.5 55t29.5 57.5t60.5 48t94.5 18.5q53 0 93 -18.5t60.5 -48t30 -58t9.5 -55.5v-368zM423 173v366q0 41 -16.5 71t-42 44t-48.5 20t-45 6t-45 -6
t-49 -20t-42.5 -44t-16.5 -71v-366q0 -41 16.5 -71.5t42 -44.5t48.5 -20t45 -6t45.5 6t49 20.5t42 44.5t16.5 71z" />
    <glyph glyph-name="P" unicode="P" horiz-adv-x="527" 
d="M475 479q0 -21 -4 -42.5t-16.5 -47.5t-31.5 -45.5t-52 -33t-76 -13.5h-167v-297h-41v713h204q44 0 78 -13.5t53.5 -33t32 -45t16.5 -46.5t4 -41v-55zM434 480v52q0 43 -14.5 73t-38.5 43.5t-45.5 19t-44.5 5.5h-163v-336h165q22 0 43.5 5.5t45 19.5t38 44.5t14.5 73.5z
" />
    <glyph glyph-name="Q" unicode="Q" 
d="M464 172q0 -25 -9 -52.5t-28 -56t-55 -48t-83 -23.5v-104h-36v103q-48 4 -84.5 24t-55 48.5t-27.5 56t-9 53.5v368q0 27 9.5 55t29.5 57.5t60.5 48t94.5 18.5q53 0 93 -18.5t60.5 -48t30 -58t9.5 -55.5v-368zM423 174v365q0 41 -16.5 70.5t-42 44t-48.5 20.5t-45 6
t-45.5 -6t-49 -20.5t-42 -44t-16.5 -70.5v-365q0 -69 40.5 -103t94.5 -39v146h36v-146q52 5 93 39.5t41 102.5z" />
    <glyph glyph-name="R" unicode="R" horiz-adv-x="534" 
d="M473 0h-48l-139 317h-158v-317h-41v713h204q44 0 78 -13t53.5 -32.5t32 -45t16.5 -46.5t4 -41v-36q0 -23 -6.5 -47.5t-21 -52t-45 -49.5t-72.5 -31zM434 500v32q0 34 -10.5 60t-25.5 41t-35.5 24.5t-37.5 12.5t-34 3h-163v-316h165q22 0 44 6.5t45 21t37.5 44.5t14.5 71z
" />
    <glyph glyph-name="S" unicode="S" horiz-adv-x="516" 
d="M458 172q0 -80 -59 -131t-145 -51q-90 0 -143 51t-53 131h41q0 -66 41 -103t113 -37q74 0 119 38t45 104q0 89 -83 135q-65 37 -178 95q-41 21 -65.5 60t-24.5 87q0 74 52.5 122t134.5 48q87 0 140.5 -49t53.5 -130h-40q0 66 -43 102.5t-111 36.5q-63 0 -104.5 -36.5
t-41.5 -96.5q0 -71 77 -111l169 -90q105 -57 105 -175z" />
    <glyph glyph-name="T" unicode="T" horiz-adv-x="474" 
d="M441 673h-183v-673h-41v673h-184v40h408v-40z" />
    <glyph glyph-name="U" unicode="U" 
d="M464 172q0 -27 -9.5 -56t-30.5 -58.5t-62 -48t-95 -18.5q-43 0 -77 12.5t-54.5 32t-34.5 45t-19 48t-5 44.5v540h41v-540q0 -40 15.5 -69.5t40.5 -44.5t48.5 -21.5t45.5 -6.5q23 0 47.5 6.5t50 21.5t41.5 44.5t16 69.5v540h41v-541z" />
    <glyph glyph-name="V" unicode="V" horiz-adv-x="525" 
d="M447 713h45l-182 -713h-97l-180 713h45l165 -673h38q27 111 82.5 336.5t83.5 336.5z" />
    <glyph glyph-name="W" unicode="W" horiz-adv-x="779" 
d="M746 712l-149 -712h-57l-150 622l-152 -622h-57l-148 712h44l132 -670l160 670h41l159 -670l133 670h44z" />
    <glyph glyph-name="X" unicode="X" horiz-adv-x="482" 
d="M449 0h-47l-161 317l-161 -317h-47l182 356l-181 357h47l159 -319l161 319h47l-183 -357z" />
    <glyph glyph-name="Y" unicode="Y" horiz-adv-x="482" 
d="M449 713l-187 -457v-256h-41v256l-188 457h45l163 -408l163 408h45z" />
    <glyph glyph-name="Z" unicode="Z" horiz-adv-x="456" 
d="M419 0h-382v44l324 629h-308v40h350v-41l-324 -631h340v-41z" />
    <glyph glyph-name="bracketleft" unicode="[" horiz-adv-x="301" 
d="M214 -87h-127v865h127v-34h-91v-796h91v-35z" />
    <glyph glyph-name="backslash" unicode="\" horiz-adv-x="484" 
d="M397 -58h-40l-270 827h41z" />
    <glyph glyph-name="bracketright" unicode="]" horiz-adv-x="301" 
d="M214 -87h-127v34h91v796h-91v35h127v-865z" />
    <glyph glyph-name="asciicircum" unicode="^" horiz-adv-x="481" 
d="M394 445h-41l-112 209l-112 -209h-42l132 244h45z" />
    <glyph glyph-name="underscore" unicode="_" horiz-adv-x="533" 
d="M530 -168h-527v37h527v-37z" />
    <glyph glyph-name="grave" unicode="`" horiz-adv-x="289" 
d="M202 606h-34l-81 136h49z" />
    <glyph glyph-name="a" unicode="a" horiz-adv-x="524" 
d="M441 369v-369h-41v68q-56 -77 -166 -77q-73 0 -122 40.5t-49 121.5q0 67 43.5 105.5t117.5 38.5h176v70q0 126 -137 126q-59 0 -97.5 -28t-41.5 -85h-42q5 79 58 116t123 37q75 0 126.5 -39.5t51.5 -124.5zM400 173v84h-177q-119 0 -119 -104q0 -122 141 -122
q61 0 108 39t47 103z" />
    <glyph glyph-name="b" unicode="b" horiz-adv-x="536" 
d="M459 173q0 -84 -50 -133.5t-135 -49.5q-103 0 -146 69v-59h-41v712h41v-247q51 68 146 68q86 0 135.5 -49t49.5 -134v-177zM418 173v177q0 60 -32 101.5t-112 41.5q-68 0 -107 -38.5t-39 -104.5v-177q0 -26 6.5 -48.5t21.5 -45t45 -36t73 -13.5q68 0 106 38t38 105z" />
    <glyph glyph-name="c" unicode="c" horiz-adv-x="510" 
d="M452 361h-42q-3 55 -36 93.5t-109 38.5q-69 0 -108 -38t-39 -105v-177q0 -59 33 -101t114 -42q63 0 102 36t44 96h41q-3 -80 -53.5 -126t-133.5 -46q-87 0 -137.5 49t-50.5 134v177q0 83 51 133t137 50q85 0 134.5 -45.5t52.5 -126.5z" />
    <glyph glyph-name="d" unicode="d" horiz-adv-x="538" 
d="M77 173v177q0 85 50.5 134t136.5 49q42 0 82 -18t64 -52v249h41v-712h-41v59q-46 -69 -146 -69q-85 0 -136 49.5t-51 133.5zM118 350v-177q0 -67 39 -105t107 -38q80 0 113 43.5t33 99.5v177q0 64 -39 103.5t-107 39.5q-42 0 -72.5 -13t-45.5 -35t-21.5 -45t-6.5 -50z
" />
    <glyph glyph-name="e" unicode="e" horiz-adv-x="524" 
d="M452 350v-95h-334v-82q0 -58 34.5 -100.5t112.5 -42.5q65 0 104.5 35t41.5 97h41q-3 -80 -53.5 -126t-133.5 -46q-87 0 -137.5 49t-50.5 134v177q0 83 51 133t137 50t136.5 -49t50.5 -134zM411 295v55q0 27 -6.5 50t-21.5 45t-45.5 35t-72.5 13q-69 0 -108 -38t-39 -105
v-55h293z" />
    <glyph glyph-name="f" unicode="f" horiz-adv-x="328" 
d="M300 482h-134v-482h-41v482h-97v40h97v51q0 66 33 103t99 37h30v-40h-40q-32 0 -56.5 -21t-24.5 -66v-64h134v-40z" />
    <glyph glyph-name="g" unicode="g" horiz-adv-x="538" 
d="M410 -54v112q-47 -68 -145 -68q-87 0 -137.5 49t-50.5 134v177q0 83 51 133t137 50q44 0 84 -16.5t61 -50.5v57h41v-577q0 -96 -52 -136.5t-134 -40.5q-78 0 -128.5 43t-51.5 116h40q1 -57 39 -88t101 -31q29 0 51 4.5t45.5 17.5t36 42t12.5 73zM410 173v177
q0 27 -6.5 50t-21 45t-45 35t-72.5 13q-69 0 -108 -38t-39 -105v-177q0 -59 33 -101t114 -42q67 0 106 39t39 104z" />
    <glyph glyph-name="h" unicode="h" horiz-adv-x="545" 
d="M462 0h-41v350q0 143 -136 143q-66 0 -111.5 -40t-45.5 -101v-352h-41v712h41v-257q55 78 157 78q85 0 131 -48.5t46 -134.5v-350z" />
    <glyph glyph-name="i" unicode="i" horiz-adv-x="234" 
d="M138 0h-41v523h41v-523zM147 645h-60v76h60v-76z" />
    <glyph glyph-name="j" unicode="j" horiz-adv-x="275" 
d="M179 -106q0 -125 -132 -125h-40v40h51q34 0 57 20t23 62v632h41v-629zM188 645h-59v76h59v-76z" />
    <glyph glyph-name="k" unicode="k" horiz-adv-x="455" 
d="M422 0h-47l-159 278l-88 -109v-169h-41v712h41v-481l235 291h52l-172 -213z" />
    <glyph glyph-name="l" unicode="l" horiz-adv-x="238" 
d="M83 129v584h41v-590q0 -43 22 -62.5t58 -19.5h6v-40h-11q-52 0 -84 31.5t-32 96.5z" />
    <glyph glyph-name="m" unicode="m" horiz-adv-x="765" 
d="M682 389v-389h-41v383q0 44 -23.5 77t-76.5 33q-70 0 -105 -41t-35 -116v-336h-39v380q0 43 -24.5 78t-72.5 35q-137 0 -137 -158v-335h-41v524h41v-61q44 70 137 70q41 0 76 -25.5t47 -63.5q47 89 153 89q69 0 105 -44t36 -100z" />
    <glyph glyph-name="n" unicode="n" horiz-adv-x="545" 
d="M462 0h-41v350q0 28 -4.5 49.5t-17.5 44.5t-42 36t-72 13q-66 0 -111.5 -40t-45.5 -101v-352h-41v522h41v-67q53 78 157 78q85 0 131 -48.5t46 -134.5v-350z" />
    <glyph glyph-name="o" unicode="o" horiz-adv-x="529" 
d="M452 173q0 -84 -51 -133.5t-136 -49.5q-87 0 -137.5 49t-50.5 134v177q0 83 51 133t137 50t136.5 -49t50.5 -134v-177zM411 173v177q0 27 -6.5 50t-21.5 45t-45.5 35t-72.5 13q-69 0 -108 -38t-39 -105v-177q0 -59 33 -101t114 -42q68 0 107 38t39 105z" />
    <glyph glyph-name="p" unicode="p" horiz-adv-x="538" 
d="M461 173q0 -85 -50.5 -134t-137.5 -49q-99 0 -145 72v-293h-41v754h41v-57q50 67 145 67q86 0 137 -50t51 -133v-177zM420 173v177q0 67 -39 105t-108 38q-42 0 -72.5 -13.5t-45 -36t-21 -45.5t-6.5 -48v-177q0 -62 39 -102.5t106 -40.5q81 0 114 42t33 101z" />
    <glyph glyph-name="q" unicode="q" horiz-adv-x="538" 
d="M118 350v-177q0 -59 33 -101t114 -42q67 0 106 40.5t39 102.5v177q0 25 -6.5 48t-21 45.5t-45 36t-72.5 13.5q-69 0 -108 -38t-39 -105zM77 173v177q0 83 51 133t137 50q95 0 145 -67v57h41v-754h-41v293q-46 -72 -145 -72q-87 0 -137.5 49t-50.5 134z" />
    <glyph glyph-name="r" unicode="r" horiz-adv-x="312" 
d="M274 482h-27q-46 0 -82.5 -35.5t-36.5 -107.5v-339h-41v522h41v-67q40 67 120 67h26v-40z" />
    <glyph glyph-name="s" unicode="s" horiz-adv-x="495" 
d="M437 146q0 -80 -53.5 -117t-137.5 -37t-136 43t-52 117h41q0 -58 40 -89t107 -31q150 0 150 114q0 64 -80 86q-65 18 -143 34q-51 10 -79.5 43.5t-28.5 80.5q0 72 50.5 107t126.5 35q81 0 132 -40.5t55 -111.5h-42q-3 53 -40 82.5t-107 29.5q-134 0 -134 -102
q0 -71 81 -87q94 -19 143 -33q107 -30 107 -124z" />
    <glyph glyph-name="t" unicode="t" horiz-adv-x="353" 
d="M135 128v354h-107v40h107v190h41v-190h124v-40h-124v-360q0 -43 22 -62.5t58 -19.5h44v-40h-49q-52 0 -84 31.5t-32 96.5z" />
    <glyph glyph-name="u" unicode="u" horiz-adv-x="547" 
d="M460 0h-41v58q-53 -67 -148 -67q-87 0 -137.5 48.5t-50.5 133.5v350h41v-350q0 -58 34 -100t113 -42q63 0 105.5 38t42.5 98v356h41v-523z" />
    <glyph glyph-name="v" unicode="v" horiz-adv-x="448" 
d="M204 40h40l134 483h42l-148 -523h-96l-148 523h42z" />
    <glyph glyph-name="w" unicode="w" horiz-adv-x="672" 
d="M624 523l-122 -523h-54l-112 458l-112 -458h-53l-123 523h41l109 -486l118 486h40l119 -486q61 270 108 486h41z" />
    <glyph glyph-name="x" unicode="x" horiz-adv-x="435" 
d="M407 0h-46l-142 228l-145 -228h-46l165 261l-165 262h46l144 -230l143 230h46l-167 -262z" />
    <glyph glyph-name="y" unicode="y" horiz-adv-x="445" 
d="M236 0h-59l-149 523h43l134 -483h40l129 483h43l-172 -633q-20 -74 -54 -97.5t-99 -23.5h-18v40h32q41 0 64 17t35 63z" />
    <glyph glyph-name="z" unicode="z" horiz-adv-x="461" 
d="M413 0h-365v45l300 438h-289v40h331v-42l-300 -440h323v-41z" />
    <glyph glyph-name="braceleft" unicode="{" horiz-adv-x="299" 
d="M212 -72h-16q-62 0 -85.5 23.5t-23.5 84.5v634q0 61 23.5 85t85.5 24h16v-34h-11q-51 0 -64 -18t-13 -69v-614q0 -50 14 -66t63 -16h11v-34z" />
    <glyph glyph-name="bar" unicode="|" horiz-adv-x="211" 
d="M124 -59h-37v830h37v-830z" />
    <glyph glyph-name="braceright" unicode="}" horiz-adv-x="303" 
d="M216 35q0 -61 -23 -84.5t-87 -23.5h-19v32h14q50 0 64 16.5t14 66.5v619q0 50 -14 66t-64 16h-14v35h19q63 0 86.5 -24t23.5 -85v-634z" />
    <glyph glyph-name="asciitilde" unicode="~" horiz-adv-x="506" 
d="M327 261q27 0 65 33l27 -22q-52 -44 -90 -44q-28 0 -80.5 25t-66.5 25q-30 0 -70 -31l-25 22q51 43 94 43q28 0 76.5 -25.5t69.5 -25.5z" />
    <glyph glyph-name="exclamdown" unicode="&#xa1;" horiz-adv-x="245" 
d="M101 330h41v-500h-41v500zM87 541h71v-71h-71v71z" />
    <glyph glyph-name="cent" unicode="&#xa2;" horiz-adv-x="510" 
d="M247 -10v1q-79 5 -124.5 53t-45.5 129v177q0 79 46 128t124 54v150h37v-150q76 -5 120.5 -50t47.5 -121h-42q-3 55 -36 93.5t-109 38.5q-69 0 -108 -38t-39 -105v-177q0 -59 33 -101t114 -42q63 0 102 36t44 96h41q-3 -75 -48 -120.5t-121 -50.5l1 -1v-145h-37v145z" />
    <glyph glyph-name="sterling" unicode="&#xa3;" horiz-adv-x="519" 
d="M461 539h-39q0 41 -15 70.5t-38.5 44t-46.5 21t-46 6.5q-54 0 -96 -31.5t-42 -104.5v-143h228v-40h-228v-322h322v-40h-361v362h-41v40h41v137q0 80 48 129.5t130 49.5q80 0 132 -50t52 -129z" />
    <glyph glyph-name="yen" unicode="&#xa5;" horiz-adv-x="512" 
d="M421 102h-146v-102h-39v102h-143v37h143v114h-143v37h128l-173 423h45l163 -407l163 407h45l-174 -423h131v-37h-146v-114h146v-37z" />
    <glyph glyph-name="brokenbar" unicode="&#xa6;" horiz-adv-x="204" 
d="M121 -29h-36v301h36v-301zM121 441h-36v300h36v-300z" />
    <glyph glyph-name="section" unicode="&#xa7;" horiz-adv-x="560" 
d="M94 388q0 57 41 101q-34 37 -34 84q0 73 50.5 108.5t126.5 35.5q84 0 135.5 -42t51.5 -118h-39q0 57 -38.5 89.5t-111.5 32.5q-57 0 -97 -24.5t-40 -81.5q0 -29 19.5 -51.5t52.5 -29.5q73 -16 157 -35q45 -11 75 -44.5t30 -78.5q0 -61 -37 -104q30 -40 30 -82
q0 -80 -53.5 -118t-137.5 -38t-136 43t-52 117h40q0 -58 40 -88t108 -30q151 0 151 114q0 68 -74 87q-22 5 -163 35q-42 9 -68.5 41t-26.5 77zM361 271h1q21 -5 41 -17q30 32 30 80q0 68 -73 86q-47 11 -164 36q-14 3 -28 9q-36 -28 -36 -77q0 -30 19 -52.5t52 -29.5
q30 -6 88 -19t70 -16z" />
    <glyph glyph-name="dieresis" unicode="&#xa8;" horiz-adv-x="453" 
d="M366 644h-59v77h59v-77zM146 644h-59v77h59v-77z" />
    <glyph glyph-name="copyright" unicode="&#xa9;" horiz-adv-x="885" 
d="M538 253q0 -15 -4.5 -31t-15 -33.5t-32.5 -28.5t-53 -11q-39 0 -64 20t-31.5 41t-6.5 43v199q0 36 23.5 69t80.5 33q30 0 52 -11t32 -28.5t14.5 -33t4.5 -30.5h-32q0 70 -71 70q-17 0 -31.5 -4.5t-27.5 -21.5t-13 -45v-196q0 -41 22 -56.5t50 -15.5q27 0 49 15.5t22 55.5
h32zM798 353q0 -149 -104 -254t-252 -105t-251.5 105t-103.5 254t103.5 255t251.5 106t252 -106t104 -255zM764 353q0 135 -94.5 231t-227.5 96t-227 -96t-94 -231t94 -230t227 -95q134 0 228 95t94 230z" />
    <glyph glyph-name="ordfeminine" unicode="&#xaa;" horiz-adv-x="425" 
d="M342 607v-249h-35v39q-36 -45 -100 -45q-55 0 -89.5 28t-34.5 84q0 47 30 73.5t81 26.5h113v42q0 80 -87 80q-37 0 -62 -18.5t-27 -56.5h-35q3 57 39.5 83.5t84.5 26.5q51 0 86.5 -27.5t35.5 -86.5zM307 477v53h-114q-75 0 -75 -66q0 -77 90 -77q39 0 69 24.5t30 65.5z
" />
    <glyph glyph-name="guillemotleft" unicode="&#xab;" horiz-adv-x="489" 
d="M205 96l-168 167l168 168v-53l-116 -115l116 -115v-52zM412 96l-168 167l168 168v-53l-117 -115l117 -115v-52z" />
    <glyph glyph-name="logicalnot" unicode="&#xac;" horiz-adv-x="571" 
d="M488 182h-41v177h-364v41h405v-218z" />
    <glyph glyph-name="uni00AD" unicode="&#xad;" horiz-adv-x="537" 
d="M450 255h-363v37h363v-37z" />
    <glyph glyph-name="registered" unicode="&#xae;" horiz-adv-x="885" 
d="M560 418q0 -19 -5.5 -37t-27.5 -38.5t-59 -26.5q11 -23 39.5 -78.5t42.5 -85.5h-33l-81 164h-61v-164h-30v392h113q56 0 79 -33t23 -68v-25zM530 418v23q0 41 -22 56.5t-50 15.5h-83v-167h84q27 0 49 15.5t22 56.5zM798 353q0 -149 -104 -254t-252 -105t-251.5 105
t-103.5 254t103.5 255t251.5 106t252 -106t104 -255zM764 353q0 135 -94.5 231t-227.5 96t-227 -96t-94 -231t94 -230t227 -95q134 0 228 95t94 230z" />
    <glyph glyph-name="macron" unicode="&#xaf;" horiz-adv-x="462" 
d="M375 628h-288v36h288v-36z" />
    <glyph glyph-name="degree" unicode="&#xb0;" horiz-adv-x="345" 
d="M292 593q0 -49 -35 -84.5t-85 -35.5q-49 0 -84 35t-35 85t35 85t84 35q50 0 85 -35t35 -85zM257 593q0 36 -24.5 60.5t-60.5 24.5q-35 0 -60 -24.5t-25 -60.5q0 -35 25 -59.5t60 -24.5q36 0 60.5 24.5t24.5 59.5z" />
    <glyph glyph-name="plusminus" unicode="&#xb1;" horiz-adv-x="571" 
d="M488 255h-185v-191h-37v191h-183v37h183v178h37v-178h185v-37zM488 0h-404v37h404v-37z" />
    <glyph glyph-name="twosuperior" unicode="&#xb2;" horiz-adv-x="369" 
d="M286 360h-203v68q0 45 48 83q3 3 91 62q28 22 28 52t-17.5 47.5t-48.5 17.5q-13 0 -26 -4t-26.5 -19t-14.5 -40h-34q1 35 26 66t75 31q45 0 73 -27t28 -71q0 -46 -39 -77q-14 -13 -47.5 -33t-48.5 -33q-33 -27 -33 -53v-35h169v-35z" />
    <glyph glyph-name="threesuperior" unicode="&#xb3;" horiz-adv-x="369" 
d="M279 692l-76 -119q35 -6 59 -29.5t24 -62.5v-27q0 -33 -24 -65.5t-76 -32.5q-54 0 -78.5 32t-24.5 72h35q0 -38 21.5 -53.5t44.5 -15.5t45 14t22 49v26q0 33 -21.5 46t-45.5 13h-21v29l73 118h-136v35h179v-29z" />
    <glyph glyph-name="acute" unicode="&#xb4;" horiz-adv-x="290" 
d="M203 742l-82 -136h-34l66 136h50z" />
    <glyph glyph-name="mu" unicode="&#xb5;" horiz-adv-x="551" 
d="M464 0h-41v58q-53 -67 -148 -67q-97 0 -147 58v-239h-41v713h41v-360q3 -55 37.5 -93.5t109.5 -38.5q63 0 105.5 38t42.5 98v356h41v-523z" />
    <glyph glyph-name="paragraph" unicode="&#xb6;" horiz-adv-x="561" 
d="M474 0h-38v688h-127v-688h-38v408q-82 0 -133 43t-51 107q0 80 45.5 120.5t130.5 40.5h211v-719z" />
    <glyph glyph-name="periodcentered" unicode="&#xb7;" horiz-adv-x="249" 
d="M162 228h-75v75h75v-75z" />
    <glyph glyph-name="cedilla" unicode="&#xb8;" horiz-adv-x="272" 
d="M185 -50l-52 -130h-46l61 130h37z" />
    <glyph glyph-name="onesuperior" unicode="&#xb9;" horiz-adv-x="353" 
d="M270 361h-187v35h76v290l-56 -5v34l92 9v-328h75v-35z" />
    <glyph glyph-name="ordmasculine" unicode="&#xba;" horiz-adv-x="426" 
d="M343 472q0 -58 -35.5 -92.5t-94.5 -34.5q-60 0 -95 34t-35 93v119q0 57 36 92t94 35q60 0 95 -34.5t35 -92.5v-119zM307 472v119q0 92 -94 92q-44 0 -69.5 -24.5t-25.5 -67.5v-119q0 -39 21 -66t74 -27q44 0 69 24.5t25 68.5z" />
    <glyph glyph-name="guillemotright" unicode="&#xbb;" horiz-adv-x="488" 
d="M451 264l-167 -167v52l115 115l-115 115v53zM244 264l-167 -167v52l116 115l-116 115v53z" />
    <glyph glyph-name="onequarter" unicode="&#xbc;" horiz-adv-x="711" 
d="M628 0h-35v103h-160v39l81 220h38l-83 -224h124v135h35v-273zM270 361h-187v35h76v290l-56 -5v34l92 9v-328h75v-35zM514 774l-269 -827h-41l271 827h39z" />
    <glyph glyph-name="onehalf" unicode="&#xbd;" horiz-adv-x="754" 
d="M270 361h-187v35h76v290l-56 -5v34l92 9v-328h75v-35zM671 0h-203v68q0 45 48 83q3 3 91 62q28 22 28 52t-17.5 47.5t-48.5 17.5q-13 0 -26 -4t-26.5 -19t-14.5 -40h-34q1 35 26 66t75 31q45 0 73 -27t28 -71q0 -46 -39 -77q-14 -13 -47.5 -33t-48.5 -33q-33 -27 -33 -53
v-35h169v-35zM514 774l-269 -827h-41l271 827h39z" />
    <glyph glyph-name="threequarters" unicode="&#xbe;" horiz-adv-x="723" 
d="M279 692l-76 -119q35 -6 59 -29.5t24 -62.5v-27q0 -33 -24 -65.5t-76 -32.5q-54 0 -78.5 32t-24.5 72h35q0 -38 21.5 -53.5t44.5 -15.5t45 14t22 49v26q0 33 -21.5 46t-45.5 13h-21v29l73 118h-136v35h179v-29zM640 0h-35v103h-160v39l81 220h38l-83 -224h124v135h35
v-273zM526 774l-269 -827h-41l271 827h39z" />
    <glyph glyph-name="questiondown" unicode="&#xbf;" horiz-adv-x="430" 
d="M32 -2q1 68 56 124q16 17 50.5 42t46.5 36q44 37 44 107v18h41v-15q0 -87 -60 -139q-13 -11 -45.5 -35t-48.5 -40q-44 -42 -44 -96q0 -73 40 -112.5t112 -39.5q22 0 44 5t47.5 18t43 41t20.5 67h39q-1 -26 -11.5 -53.5t-31.5 -55t-60 -44.5t-91 -17q-85 0 -138.5 52.5
t-53.5 136.5zM214 529h69v-70h-69v70z" />
    <glyph glyph-name="Agrave" unicode="&#xc0;" horiz-adv-x="542" 
d="M510 0h-41l-55 212h-287l-56 -212h-39l186 713h102zM403 252l-110 422h-46l-110 -422h266zM308 781h-34l-81 136h49z" />
    <glyph glyph-name="Aacute" unicode="&#xc1;" horiz-adv-x="542" 
d="M510 0h-41l-55 212h-287l-56 -212h-39l186 713h102zM403 252l-110 422h-46l-110 -422h266zM344 917l-82 -136h-34l66 136h50z" />
    <glyph glyph-name="Acircumflex" unicode="&#xc2;" horiz-adv-x="542" 
d="M510 0h-41l-55 212h-287l-56 -212h-39l186 713h102zM403 252l-110 422h-46l-110 -422h266zM386 793h-36l-79 84l-79 -84h-37l90 112h50z" />
    <glyph glyph-name="Atilde" unicode="&#xc3;" horiz-adv-x="542" 
d="M510 0h-41l-55 212h-287l-56 -212h-39l186 713h102zM403 252l-110 422h-46l-110 -422h266zM335 814q25 0 59 33l24 -22q-48 -44 -81 -44q-24 0 -72.5 25t-61.5 25q-27 0 -63 -31l-22 22q45 43 84 43q26 0 70.5 -25.5t62.5 -25.5z" />
    <glyph glyph-name="Adieresis" unicode="&#xc4;" horiz-adv-x="542" 
d="M510 0h-41l-55 212h-287l-56 -212h-39l186 713h102zM403 252l-110 422h-46l-110 -422h266zM412 793h-59v77h59v-77zM192 793h-59v77h59v-77z" />
    <glyph glyph-name="Aring" unicode="&#xc5;" horiz-adv-x="542" 
d="M510 0h-41l-55 212h-287l-56 -212h-39l186 713h102zM403 252l-110 422h-46l-110 -422h266zM365 853q0 -39 -28.5 -67t-67.5 -28q-38 0 -66 28.5t-28 66.5q0 39 28 67t66 28q40 0 68 -27.5t28 -67.5zM332 853q0 26 -18.5 44.5t-44.5 18.5q-25 0 -42.5 -18.5t-17.5 -44.5
q0 -25 17.5 -43t42.5 -18q26 0 44.5 18t18.5 43z" />
    <glyph glyph-name="AE" unicode="&#xc6;" horiz-adv-x="798" 
d="M741 0h-368v212h-246l-56 -212h-39l186 713h523v-41h-326v-274h301v-40h-301v-318h326v-40zM247 672l-110 -420h236v420h-126z" />
    <glyph glyph-name="Ccedilla" unicode="&#xc7;" horiz-adv-x="517" 
d="M266 680q-22 0 -45 -6t-49 -19.5t-42.5 -43.5t-16.5 -72v-366q0 -42 16.5 -71.5t42.5 -43.5t49 -19.5t45 -5.5t45 6t48 20t41 43.5t16 69.5h41q0 -28 -9.5 -57t-30 -58t-61 -47.5t-94.5 -18.5q-53 0 -92.5 18.5t-59.5 48t-29 58.5t-9 57v368q0 20 5 42.5t19 47.5t35 44
t56 32t79 13q53 0 92.5 -19t59.5 -48t29.5 -57.5t9.5 -55.5h-40q0 41 -15.5 70.5t-41 43.5t-48.5 20t-46 6zM285 -50l-52 -130h-46l61 130h37z" />
    <glyph glyph-name="Egrave" unicode="&#xc8;" horiz-adv-x="512" 
d="M455 0h-368v713h368v-40h-327v-275h302v-40h-302v-318h327v-40zM308 781h-34l-81 136h49z" />
    <glyph glyph-name="Eacute" unicode="&#xc9;" horiz-adv-x="512" 
d="M455 0h-368v713h368v-40h-327v-275h302v-40h-302v-318h327v-40zM337 917l-82 -136h-34l66 136h50z" />
    <glyph glyph-name="Ecircumflex" unicode="&#xca;" horiz-adv-x="512" 
d="M455 0h-368v713h368v-40h-327v-275h302v-40h-302v-318h327v-40zM383 793h-36l-79 84l-79 -84h-37l90 112h50z" />
    <glyph glyph-name="Edieresis" unicode="&#xcb;" horiz-adv-x="512" 
d="M455 0h-368v713h368v-40h-327v-275h302v-40h-302v-318h327v-40zM411 793h-59v77h59v-77zM191 793h-59v77h59v-77z" />
    <glyph glyph-name="Igrave" unicode="&#xcc;" horiz-adv-x="217" 
d="M88 713h41v-713h-41v713zM128 781h-34l-81 136h49z" />
    <glyph glyph-name="Iacute" unicode="&#xcd;" horiz-adv-x="217" 
d="M88 713h41v-713h-41v713zM206 917l-82 -136h-34l66 136h50z" />
    <glyph glyph-name="Icircumflex" unicode="&#xce;" horiz-adv-x="213" 
d="M86 713h41v-713h-41v713zM222 793h-36l-79 84l-79 -84h-37l90 112h50z" />
    <glyph glyph-name="Idieresis" unicode="&#xcf;" horiz-adv-x="216" 
d="M88 713h41v-713h-41v713zM248 793h-59v77h59v-77zM28 793h-59v77h59v-77z" />
    <glyph glyph-name="Eth" unicode="&#xd0;" horiz-adv-x="614" 
d="M531 183q0 -27 -7.5 -55t-25.5 -58.5t-56 -50t-91 -19.5h-207v343h-61v37h61v334h203q44 0 78 -13.5t53.5 -33t32 -45t16.5 -46.5t4 -41v-352zM362 343h-177v-303h164q22 0 44 6.5t45 21t37.5 44.5t14.5 72v348q0 43 -14.5 73t-38.5 44t-46 19.5t-44 5.5h-162v-294h177
v-37z" />
    <glyph glyph-name="Ntilde" unicode="&#xd1;" horiz-adv-x="566" 
d="M479 0h-68l-283 665v-665h-41v713h65l286 -673v673h41v-713zM346 814q25 0 59 33l24 -22q-48 -44 -81 -44q-24 0 -72.5 25t-61.5 25q-27 0 -63 -31l-22 22q45 43 84 43q26 0 70.5 -25.5t62.5 -25.5z" />
    <glyph glyph-name="Ograve" unicode="&#xd2;" 
d="M464 172q0 -27 -9.5 -56t-30.5 -58.5t-62 -48t-95 -18.5q-43 0 -77 12.5t-54.5 32t-34.5 45t-19 48t-5 44.5v368q0 27 9.5 55t29.5 57.5t60.5 48t94.5 18.5q53 0 93 -18.5t60.5 -48t30 -58t9.5 -55.5v-368zM423 173v366q0 41 -16.5 71t-42 44t-48.5 20t-45 6t-45 -6
t-49 -20t-42.5 -44t-16.5 -71v-366q0 -41 16.5 -71.5t42 -44.5t48.5 -20t45 -6t45.5 6t49 20.5t42 44.5t16.5 71zM307 781h-34l-81 136h49z" />
    <glyph glyph-name="Oacute" unicode="&#xd3;" 
d="M464 172q0 -27 -9.5 -56t-30.5 -58.5t-62 -48t-95 -18.5q-43 0 -77 12.5t-54.5 32t-34.5 45t-19 48t-5 44.5v368q0 27 9.5 55t29.5 57.5t60.5 48t94.5 18.5q53 0 93 -18.5t60.5 -48t30 -58t9.5 -55.5v-368zM423 173v366q0 41 -16.5 71t-42 44t-48.5 20t-45 6t-45 -6
t-49 -20t-42.5 -44t-16.5 -71v-366q0 -41 16.5 -71.5t42 -44.5t48.5 -20t45 -6t45.5 6t49 20.5t42 44.5t16.5 71zM335 917l-82 -136h-34l66 136h50z" />
    <glyph glyph-name="Ocircumflex" unicode="&#xd4;" 
d="M464 172q0 -27 -9.5 -56t-30.5 -58.5t-62 -48t-95 -18.5q-43 0 -77 12.5t-54.5 32t-34.5 45t-19 48t-5 44.5v368q0 27 9.5 55t29.5 57.5t60.5 48t94.5 18.5q53 0 93 -18.5t60.5 -48t30 -58t9.5 -55.5v-368zM423 173v366q0 41 -16.5 71t-42 44t-48.5 20t-45 6t-45 -6
t-49 -20t-42.5 -44t-16.5 -71v-366q0 -41 16.5 -71.5t42 -44.5t48.5 -20t45 -6t45.5 6t49 20.5t42 44.5t16.5 71zM386 793h-36l-79 84l-79 -84h-37l90 112h50z" />
    <glyph glyph-name="Otilde" unicode="&#xd5;" 
d="M464 172q0 -27 -9.5 -56t-30.5 -58.5t-62 -48t-95 -18.5q-43 0 -77 12.5t-54.5 32t-34.5 45t-19 48t-5 44.5v368q0 27 9.5 55t29.5 57.5t60.5 48t94.5 18.5q53 0 93 -18.5t60.5 -48t30 -58t9.5 -55.5v-368zM423 173v366q0 41 -16.5 71t-42 44t-48.5 20t-45 6t-45 -6
t-49 -20t-42.5 -44t-16.5 -71v-366q0 -41 16.5 -71.5t42 -44.5t48.5 -20t45 -6t45.5 6t49 20.5t42 44.5t16.5 71zM334 814q25 0 59 33l24 -22q-48 -44 -81 -44q-24 0 -72.5 25t-61.5 25q-27 0 -63 -31l-22 22q45 43 84 43q26 0 70.5 -25.5t62.5 -25.5z" />
    <glyph glyph-name="Odieresis" unicode="&#xd6;" 
d="M464 172q0 -27 -9.5 -56t-30.5 -58.5t-62 -48t-95 -18.5q-43 0 -77 12.5t-54.5 32t-34.5 45t-19 48t-5 44.5v368q0 27 9.5 55t29.5 57.5t60.5 48t94.5 18.5q53 0 93 -18.5t60.5 -48t30 -58t9.5 -55.5v-368zM423 173v366q0 41 -16.5 71t-42 44t-48.5 20t-45 6t-45 -6
t-49 -20t-42.5 -44t-16.5 -71v-366q0 -41 16.5 -71.5t42 -44.5t48.5 -20t45 -6t45.5 6t49 20.5t42 44.5t16.5 71zM410 793h-59v77h59v-77zM190 793h-59v77h59v-77z" />
    <glyph glyph-name="multiply" unicode="&#xd7;" horiz-adv-x="560" 
d="M444 130l-25 -26l-139 139l-139 -139l-25 26l138 138l-138 139l25 26l139 -139l139 139l25 -26l-138 -139z" />
    <glyph glyph-name="Oslash" unicode="&#xd8;" 
d="M464 172q0 -27 -9.5 -56t-30.5 -58.5t-62 -48t-95 -18.5q-49 0 -90 17l-20 -63h-41l27 84q-34 27 -50 67t-16 77v368q0 27 9.5 55t29.5 57.5t60.5 48t94.5 18.5q53 0 93 -19q5 16 23 71h39l-30 -91q35 -27 51.5 -66.5t16.5 -74.5v-368zM157 72l194 590q-37 18 -80 18
q-22 0 -45 -6t-49 -20t-42.5 -44t-16.5 -71v-366q0 -65 39 -101zM423 173v366q0 63 -40 101l-192 -591q36 -18 79 -18q22 0 45.5 6t49 20.5t42 44.5t16.5 71z" />
    <glyph glyph-name="Ugrave" unicode="&#xd9;" 
d="M464 172q0 -27 -9.5 -56t-30.5 -58.5t-62 -48t-95 -18.5q-43 0 -77 12.5t-54.5 32t-34.5 45t-19 48t-5 44.5v540h41v-540q0 -40 15.5 -69.5t40.5 -44.5t48.5 -21.5t45.5 -6.5q23 0 47.5 6.5t50 21.5t41.5 44.5t16 69.5v540h41v-541zM320 781h-34l-81 136h49z" />
    <glyph glyph-name="Uacute" unicode="&#xda;" 
d="M464 172q0 -27 -9.5 -56t-30.5 -58.5t-62 -48t-95 -18.5q-43 0 -77 12.5t-54.5 32t-34.5 45t-19 48t-5 44.5v540h41v-540q0 -40 15.5 -69.5t40.5 -44.5t48.5 -21.5t45.5 -6.5q23 0 47.5 6.5t50 21.5t41.5 44.5t16 69.5v540h41v-541zM339 917l-82 -136h-34l66 136h50z" />
    <glyph glyph-name="Ucircumflex" unicode="&#xdb;" 
d="M464 172q0 -27 -9.5 -56t-30.5 -58.5t-62 -48t-95 -18.5q-43 0 -77 12.5t-54.5 32t-34.5 45t-19 48t-5 44.5v540h41v-540q0 -40 15.5 -69.5t40.5 -44.5t48.5 -21.5t45.5 -6.5q23 0 47.5 6.5t50 21.5t41.5 44.5t16 69.5v540h41v-541zM386 793h-36l-79 84l-79 -84h-37
l90 112h50z" />
    <glyph glyph-name="Udieresis" unicode="&#xdc;" 
d="M464 172q0 -27 -9.5 -56t-30.5 -58.5t-62 -48t-95 -18.5q-43 0 -77 12.5t-54.5 32t-34.5 45t-19 48t-5 44.5v540h41v-540q0 -40 15.5 -69.5t40.5 -44.5t48.5 -21.5t45.5 -6.5q23 0 47.5 6.5t50 21.5t41.5 44.5t16 69.5v540h41v-541zM413 793h-59v77h59v-77zM193 793h-59
v77h59v-77z" />
    <glyph glyph-name="Yacute" unicode="&#xdd;" horiz-adv-x="482" 
d="M449 713l-187 -457v-256h-41v256l-188 457h45l163 -408l163 408h45zM309 917l-82 -136h-34l66 136h50z" />
    <glyph glyph-name="Thorn" unicode="&#xde;" horiz-adv-x="557" 
d="M87 713h41v-163h174q84 0 133.5 -51t49.5 -136q0 -87 -49 -137.5t-134 -50.5h-174v-175h-41v713zM302 509h-174v-293h174q59 0 101 33t42 114q0 68 -38 107t-105 39z" />
    <glyph glyph-name="germandbls" unicode="&#xdf;" horiz-adv-x="549" 
d="M477 183q0 -21 -4 -43t-16.5 -48t-31.5 -45.5t-52 -33t-76 -13.5h-46v40h44q22 0 43.5 5.5t45 19.5t38 44.5t14.5 73.5v52q0 41 -13 70.5t-34 44.5t-42 21.5t-43 6.5h-16v38h15q44 0 75 30t31 91q0 43 -14 73t-37 44t-44 19.5t-43 5.5t-44 -5.5t-46 -19.5t-38.5 -44
t-14.5 -73v-537h-41v540q0 20 4 41t16.5 46.5t32 45t53.5 33t78 13.5q53 0 91 -19.5t55.5 -50t25 -58t7.5 -53.5q0 -100 -80 -139q107 -38 107 -161v-55z" />
    <glyph glyph-name="agrave" unicode="&#xe0;" horiz-adv-x="524" 
d="M441 369v-369h-41v68q-56 -77 -166 -77q-73 0 -122 40.5t-49 121.5q0 67 43.5 105.5t117.5 38.5h176v70q0 126 -137 126q-59 0 -97.5 -28t-41.5 -85h-42q5 79 58 116t123 37q75 0 126.5 -39.5t51.5 -124.5zM400 173v84h-177q-119 0 -119 -104q0 -122 141 -122
q61 0 108 39t47 103zM302 593h-34l-81 136h49z" />
    <glyph glyph-name="aacute" unicode="&#xe1;" horiz-adv-x="524" 
d="M441 369v-369h-41v68q-56 -77 -166 -77q-73 0 -122 40.5t-49 121.5q0 67 43.5 105.5t117.5 38.5h176v70q0 126 -137 126q-59 0 -97.5 -28t-41.5 -85h-42q5 79 58 116t123 37q75 0 126.5 -39.5t51.5 -124.5zM400 173v84h-177q-119 0 -119 -104q0 -122 141 -122
q61 0 108 39t47 103zM345 729l-82 -136h-34l66 136h50z" />
    <glyph glyph-name="acircumflex" unicode="&#xe2;" horiz-adv-x="524" 
d="M441 369v-369h-41v68q-56 -77 -166 -77q-73 0 -122 40.5t-49 121.5q0 67 43.5 105.5t117.5 38.5h176v70q0 126 -137 126q-59 0 -97.5 -28t-41.5 -85h-42q5 79 58 116t123 37q75 0 126.5 -39.5t51.5 -124.5zM400 173v84h-177q-119 0 -119 -104q0 -122 141 -122
q61 0 108 39t47 103zM380 593h-36l-79 84l-79 -84h-37l90 112h50z" />
    <glyph glyph-name="atilde" unicode="&#xe3;" horiz-adv-x="524" 
d="M441 369v-369h-41v68q-56 -77 -166 -77q-73 0 -122 40.5t-49 121.5q0 67 43.5 105.5t117.5 38.5h176v70q0 126 -137 126q-59 0 -97.5 -28t-41.5 -85h-42q5 79 58 116t123 37q75 0 126.5 -39.5t51.5 -124.5zM400 173v84h-177q-119 0 -119 -104q0 -122 141 -122
q61 0 108 39t47 103zM330 648q25 0 59 33l24 -22q-48 -44 -81 -44q-24 0 -72.5 25t-61.5 25q-27 0 -63 -31l-22 22q45 43 84 43q26 0 70.5 -25.5t62.5 -25.5z" />
    <glyph glyph-name="adieresis" unicode="&#xe4;" horiz-adv-x="524" 
d="M441 369v-369h-41v68q-56 -77 -166 -77q-73 0 -122 40.5t-49 121.5q0 67 43.5 105.5t117.5 38.5h176v70q0 126 -137 126q-59 0 -97.5 -28t-41.5 -85h-42q5 79 58 116t123 37q75 0 126.5 -39.5t51.5 -124.5zM400 173v84h-177q-119 0 -119 -104q0 -122 141 -122
q61 0 108 39t47 103zM405 631h-59v77h59v-77zM185 631h-59v77h59v-77z" />
    <glyph glyph-name="aring" unicode="&#xe5;" horiz-adv-x="524" 
d="M441 369v-369h-41v68q-56 -77 -166 -77q-73 0 -122 40.5t-49 121.5q0 67 43.5 105.5t117.5 38.5h176v70q0 126 -137 126q-59 0 -97.5 -28t-41.5 -85h-42q5 79 58 116t123 37q75 0 126.5 -39.5t51.5 -124.5zM400 173v84h-177q-119 0 -119 -104q0 -122 141 -122
q61 0 108 39t47 103zM363 680q0 -38 -28.5 -66.5t-67.5 -28.5q-38 0 -66 28.5t-28 66.5q0 39 28 67t66 28q40 0 68 -27.5t28 -67.5zM330 680q0 26 -18.5 44.5t-44.5 18.5q-25 0 -42.5 -18.5t-17.5 -44.5q0 -25 17.5 -43t42.5 -18q26 0 44.5 18t18.5 43z" />
    <glyph glyph-name="ae" unicode="&#xe6;" horiz-adv-x="852" 
d="M775 350v-93h-334v-84q0 -58 34.5 -100t112.5 -42q65 0 104 34.5t41 96.5h42q-3 -80 -53.5 -126t-133.5 -46q-127 0 -171 96q-56 -95 -183 -95q-73 0 -122 40.5t-49 121.5q0 67 43.5 105.5t117.5 38.5h176v70q0 126 -137 126q-59 0 -97.5 -28t-41.5 -85h-41q6 79 58 116
t122 37q118 0 161 -86q49 86 164 86q86 0 136.5 -49t50.5 -134zM400 173v84h-177q-119 0 -119 -104q0 -122 141 -122q61 0 108 39t47 103zM734 297v53q0 27 -6.5 50t-21.5 44.5t-45.5 34.5t-72.5 13q-68 0 -107 -36t-40 -100v-59h293z" />
    <glyph glyph-name="ccedilla" unicode="&#xe7;" horiz-adv-x="510" 
d="M452 361h-42q-3 55 -36 93.5t-109 38.5q-69 0 -108 -38t-39 -105v-177q0 -59 33 -101t114 -42q63 0 102 36t44 96h41q-3 -80 -53.5 -126t-133.5 -46q-87 0 -137.5 49t-50.5 134v177q0 83 51 133t137 50q85 0 134.5 -45.5t52.5 -126.5zM283 -50l-52 -130h-46l61 130h37z
" />
    <glyph glyph-name="egrave" unicode="&#xe8;" horiz-adv-x="524" 
d="M452 350v-95h-334v-82q0 -58 34.5 -100.5t112.5 -42.5q65 0 104.5 35t41.5 97h41q-3 -80 -53.5 -126t-133.5 -46q-87 0 -137.5 49t-50.5 134v177q0 83 51 133t137 50t136.5 -49t50.5 -134zM411 295v55q0 27 -6.5 50t-21.5 45t-45.5 35t-72.5 13q-69 0 -108 -38t-39 -105
v-55h293zM303 593h-34l-81 136h49z" />
    <glyph glyph-name="eacute" unicode="&#xe9;" horiz-adv-x="524" 
d="M452 350v-95h-334v-82q0 -58 34.5 -100.5t112.5 -42.5q65 0 104.5 35t41.5 97h41q-3 -80 -53.5 -126t-133.5 -46q-87 0 -137.5 49t-50.5 134v177q0 83 51 133t137 50t136.5 -49t50.5 -134zM411 295v55q0 27 -6.5 50t-21.5 45t-45.5 35t-72.5 13q-69 0 -108 -38t-39 -105
v-55h293zM344 729l-82 -136h-34l66 136h50z" />
    <glyph glyph-name="ecircumflex" unicode="&#xea;" horiz-adv-x="524" 
d="M452 350v-95h-334v-82q0 -58 34.5 -100.5t112.5 -42.5q65 0 104.5 35t41.5 97h41q-3 -80 -53.5 -126t-133.5 -46q-87 0 -137.5 49t-50.5 134v177q0 83 51 133t137 50t136.5 -49t50.5 -134zM411 295v55q0 27 -6.5 50t-21.5 45t-45.5 35t-72.5 13q-69 0 -108 -38t-39 -105
v-55h293zM382 593h-36l-79 84l-79 -84h-37l90 112h50z" />
    <glyph glyph-name="edieresis" unicode="&#xeb;" horiz-adv-x="524" 
d="M452 350v-95h-334v-82q0 -58 34.5 -100.5t112.5 -42.5q65 0 104.5 35t41.5 97h41q-3 -80 -53.5 -126t-133.5 -46q-87 0 -137.5 49t-50.5 134v177q0 83 51 133t137 50t136.5 -49t50.5 -134zM411 295v55q0 27 -6.5 50t-21.5 45t-45.5 35t-72.5 13q-69 0 -108 -38t-39 -105
v-55h293zM405 631h-59v77h59v-77zM185 631h-59v77h59v-77z" />
    <glyph glyph-name="igrave" unicode="&#xec;" horiz-adv-x="214" 
d="M127 0h-40v523h40v-523zM126 593h-34l-81 136h49z" />
    <glyph glyph-name="iacute" unicode="&#xed;" horiz-adv-x="214" 
d="M127 0h-40v523h40v-523zM204 729l-82 -136h-34l66 136h50z" />
    <glyph glyph-name="icircumflex" unicode="&#xee;" horiz-adv-x="213" 
d="M127 0h-40v523h40v-523zM224 593h-36l-79 84l-79 -84h-37l90 112h50z" />
    <glyph glyph-name="idieresis" unicode="&#xef;" horiz-adv-x="214" 
d="M127 0h-40v523h40v-523zM247 631h-59v77h59v-77zM27 631h-59v77h59v-77z" />
    <glyph glyph-name="eth" unicode="&#xf0;" horiz-adv-x="553" 
d="M534 726l-86 -89q23 -41 23 -94v-373q0 -26 -9.5 -54t-29.5 -57.5t-60 -48.5t-93 -19q-55 0 -95.5 19.5t-61 49.5t-30 58.5t-9.5 53.5v87q0 20 5 42.5t19 48.5t34.5 46t55 33.5t77.5 13.5q105 0 155 -71v169q0 37 -13 67l-90 -92l-26 26l96 97q-42 42 -114 46v41
q89 -3 145 -61l81 87zM429 175v83q0 44 -16 74.5t-41.5 44.5t-48 19.5t-44.5 5.5q-23 0 -46 -5.5t-49 -19.5t-42.5 -44.5t-16.5 -74.5v-83q0 -44 16.5 -74.5t42.5 -44t49 -19t46 -5.5t45 5.5t47.5 19t41.5 44t16 74.5z" />
    <glyph glyph-name="ntilde" unicode="&#xf1;" horiz-adv-x="545" 
d="M462 0h-41v350q0 28 -4.5 49.5t-17.5 44.5t-42 36t-72 13q-66 0 -111.5 -40t-45.5 -101v-352h-41v522h41v-67q53 78 157 78q85 0 131 -48.5t46 -134.5v-350zM334 648q25 0 59 33l24 -22q-48 -44 -81 -44q-24 0 -72.5 25t-61.5 25q-27 0 -63 -31l-22 22q45 43 84 43
q26 0 70.5 -25.5t62.5 -25.5z" />
    <glyph glyph-name="ograve" unicode="&#xf2;" horiz-adv-x="529" 
d="M452 173q0 -84 -51 -133.5t-136 -49.5q-87 0 -137.5 49t-50.5 134v177q0 83 51 133t137 50t136.5 -49t50.5 -134v-177zM411 173v177q0 27 -6.5 50t-21.5 45t-45.5 35t-72.5 13q-69 0 -108 -38t-39 -105v-177q0 -59 33 -101t114 -42q68 0 107 38t39 105zM300 593h-34
l-81 136h49z" />
    <glyph glyph-name="oacute" unicode="&#xf3;" horiz-adv-x="529" 
d="M452 173q0 -84 -51 -133.5t-136 -49.5q-87 0 -137.5 49t-50.5 134v177q0 83 51 133t137 50t136.5 -49t50.5 -134v-177zM411 173v177q0 27 -6.5 50t-21.5 45t-45.5 35t-72.5 13q-69 0 -108 -38t-39 -105v-177q0 -59 33 -101t114 -42q68 0 107 38t39 105zM341 729l-82 -136
h-34l66 136h50z" />
    <glyph glyph-name="ocircumflex" unicode="&#xf4;" horiz-adv-x="529" 
d="M452 173q0 -84 -51 -133.5t-136 -49.5q-87 0 -137.5 49t-50.5 134v177q0 83 51 133t137 50t136.5 -49t50.5 -134v-177zM411 173v177q0 27 -6.5 50t-21.5 45t-45.5 35t-72.5 13q-69 0 -108 -38t-39 -105v-177q0 -59 33 -101t114 -42q68 0 107 38t39 105zM380 593h-36
l-79 84l-79 -84h-37l90 112h50z" />
    <glyph glyph-name="otilde" unicode="&#xf5;" horiz-adv-x="529" 
d="M452 173q0 -84 -51 -133.5t-136 -49.5q-87 0 -137.5 49t-50.5 134v177q0 83 51 133t137 50t136.5 -49t50.5 -134v-177zM411 173v177q0 27 -6.5 50t-21.5 45t-45.5 35t-72.5 13q-69 0 -108 -38t-39 -105v-177q0 -59 33 -101t114 -42q68 0 107 38t39 105zM333 648
q25 0 59 33l24 -22q-48 -44 -81 -44q-24 0 -72.5 25t-61.5 25q-27 0 -63 -31l-22 22q45 43 84 43q26 0 70.5 -25.5t62.5 -25.5z" />
    <glyph glyph-name="odieresis" unicode="&#xf6;" horiz-adv-x="529" 
d="M452 173q0 -84 -51 -133.5t-136 -49.5q-87 0 -137.5 49t-50.5 134v177q0 83 51 133t137 50t136.5 -49t50.5 -134v-177zM411 173v177q0 27 -6.5 50t-21.5 45t-45.5 35t-72.5 13q-69 0 -108 -38t-39 -105v-177q0 -59 33 -101t114 -42q68 0 107 38t39 105zM405 631h-59v77
h59v-77zM185 631h-59v77h59v-77z" />
    <glyph glyph-name="divide" unicode="&#xf7;" horiz-adv-x="537" 
d="M306 0h-79v79h79v-79zM306 341h-79v80h79v-80zM450 193h-366v37h366v-37z" />
    <glyph glyph-name="oslash" unicode="&#xf8;" horiz-adv-x="523" 
d="M446 612l-57 -122q57 -55 57 -140v-177q0 -82 -50 -131t-134 -49q-45 0 -96 19q-18 -37 -47 -101h-39l55 121q-58 52 -58 141v177q0 83 50 132t135 49q48 0 97 -23q8 16 25 51.5t25 52.5h37zM114 173q0 -60 38 -109l193 412q-39 18 -83 18q-70 0 -109 -38t-39 -106v-177z
M409 173v177q0 56 -36 107l-192 -411q38 -17 81 -17q70 0 108.5 38t38.5 106z" />
    <glyph glyph-name="ugrave" unicode="&#xf9;" horiz-adv-x="547" 
d="M460 0h-41v58q-53 -67 -148 -67q-87 0 -137.5 48.5t-50.5 133.5v350h41v-350q0 -58 34 -100t113 -42q63 0 105.5 38t42.5 98v356h41v-523zM310 593h-34l-81 136h49z" />
    <glyph glyph-name="uacute" unicode="&#xfa;" horiz-adv-x="547" 
d="M460 0h-41v58q-53 -67 -148 -67q-87 0 -137.5 48.5t-50.5 133.5v350h41v-350q0 -58 34 -100t113 -42q63 0 105.5 38t42.5 98v356h41v-523zM351 729l-82 -136h-34l66 136h50z" />
    <glyph glyph-name="ucircumflex" unicode="&#xfb;" horiz-adv-x="547" 
d="M460 0h-41v58q-53 -67 -148 -67q-87 0 -137.5 48.5t-50.5 133.5v350h41v-350q0 -58 34 -100t113 -42q63 0 105.5 38t42.5 98v356h41v-523zM388 593h-36l-79 84l-79 -84h-37l90 112h50z" />
    <glyph glyph-name="udieresis" unicode="&#xfc;" horiz-adv-x="547" 
d="M460 0h-41v58q-53 -67 -148 -67q-87 0 -137.5 48.5t-50.5 133.5v350h41v-350q0 -58 34 -100t113 -42q63 0 105.5 38t42.5 98v356h41v-523zM410 631h-59v77h59v-77zM190 631h-59v77h59v-77z" />
    <glyph glyph-name="yacute" unicode="&#xfd;" horiz-adv-x="445" 
d="M236 0h-59l-149 523h43l134 -483h40l129 483h43l-172 -633q-20 -74 -54 -97.5t-99 -23.5h-18v40h32q41 0 64 17t35 63zM297 729l-82 -136h-34l66 136h50z" />
    <glyph glyph-name="thorn" unicode="&#xfe;" horiz-adv-x="536" 
d="M459 173q0 -84 -50 -133.5t-135 -49.5q-103 0 -146 69v-285h-41v938h41v-247q51 68 146 68q86 0 135.5 -49t49.5 -134v-177zM418 173v177q0 60 -32 101.5t-112 41.5q-68 0 -107 -38.5t-39 -104.5v-177q0 -26 6.5 -48.5t21.5 -45t45 -36t73 -13.5q68 0 106 38t38 105z" />
    <glyph glyph-name="ydieresis" unicode="&#xff;" horiz-adv-x="445" 
d="M236 0h-59l-149 523h43l134 -483h40l129 483h43l-172 -633q-20 -74 -54 -97.5t-99 -23.5h-18v40h32q41 0 64 17t35 63zM362 631h-59v77h59v-77zM142 631h-59v77h59v-77z" />
    <glyph glyph-name="Amacron" unicode="&#x100;" horiz-adv-x="542" 
d="M510 0h-41l-55 212h-287l-56 -212h-39l186 713h102zM403 252l-110 422h-46l-110 -422h266zM413 793h-288v36h288v-36z" />
    <glyph glyph-name="amacron" unicode="&#x101;" horiz-adv-x="524" 
d="M441 369v-369h-41v68q-56 -77 -166 -77q-73 0 -122 40.5t-49 121.5q0 67 43.5 105.5t117.5 38.5h176v70q0 126 -137 126q-59 0 -97.5 -28t-41.5 -85h-42q5 79 58 116t123 37q75 0 126.5 -39.5t51.5 -124.5zM400 173v84h-177q-119 0 -119 -104q0 -122 141 -122
q61 0 108 39t47 103zM408 623h-288v36h288v-36z" />
    <glyph glyph-name="Abreve" unicode="&#x102;" horiz-adv-x="568" 
d="M536 0h-41l-55 212h-287l-56 -212h-39l186 713h102zM429 252l-110 422h-46l-110 -422h266zM297 814q49 0 81.5 20t37.5 60h35q-8 -57 -49 -85t-105 -28q-138 0 -158 113h39q6 -40 38 -60t81 -20z" />
    <glyph glyph-name="abreve" unicode="&#x103;" horiz-adv-x="524" 
d="M441 369v-369h-41v68q-56 -77 -166 -77q-73 0 -122 40.5t-49 121.5q0 67 43.5 105.5t117.5 38.5h176v70q0 126 -137 126q-59 0 -97.5 -28t-41.5 -85h-42q5 79 58 116t123 37q75 0 126.5 -39.5t51.5 -124.5zM400 173v84h-177q-119 0 -119 -104q0 -122 141 -122
q61 0 108 39t47 103zM266 638q50 0 82 20t37 60h35q-8 -57 -49 -85t-105 -28q-138 0 -158 113h39q6 -40 38 -60t81 -20z" />
    <glyph glyph-name="Aogonek" unicode="&#x104;" horiz-adv-x="560" 
d="M536 0h-41l-55 212h-287l-56 -212h-39l186 713h102zM429 252l-110 422h-46l-110 -422h266zM631 -181h-55l-72 131h44z" />
    <glyph glyph-name="aogonek" unicode="&#x105;" horiz-adv-x="524" 
d="M441 369v-369h-41v68q-56 -77 -166 -77q-73 0 -122 40.5t-49 121.5q0 67 43.5 105.5t117.5 38.5h176v70q0 126 -137 126q-59 0 -97.5 -28t-41.5 -85h-42q5 79 58 116t123 37q75 0 126.5 -39.5t51.5 -124.5zM400 173v84h-177q-119 0 -119 -104q0 -122 141 -122
q61 0 108 39t47 103zM534 -181h-55l-72 131h44z" />
    <glyph glyph-name="Cacute" unicode="&#x106;" horiz-adv-x="517" 
d="M266 680q-22 0 -45 -6t-49 -19.5t-42.5 -43.5t-16.5 -72v-366q0 -42 16.5 -71.5t42.5 -43.5t49 -19.5t45 -5.5t45 6t48 20t41 43.5t16 69.5h41q0 -28 -9.5 -57t-30 -58t-61 -47.5t-94.5 -18.5q-53 0 -92.5 18.5t-59.5 48t-29 58.5t-9 57v368q0 20 5 42.5t19 47.5t35 44
t56 32t79 13q53 0 92.5 -19t59.5 -48t29.5 -57.5t9.5 -55.5h-40q0 41 -15.5 70.5t-41 43.5t-48.5 20t-46 6zM336 917l-82 -136h-34l66 136h50z" />
    <glyph glyph-name="cacute" unicode="&#x107;" horiz-adv-x="510" 
d="M452 361h-42q-3 55 -36 93.5t-109 38.5q-69 0 -108 -38t-39 -105v-177q0 -59 33 -101t114 -42q63 0 102 36t44 96h41q-3 -80 -53.5 -126t-133.5 -46q-87 0 -137.5 49t-50.5 134v177q0 83 51 133t137 50q85 0 134.5 -45.5t52.5 -126.5zM336 729l-82 -136h-34l66 136h50z
" />
    <glyph glyph-name="Ccircumflex" unicode="&#x108;" horiz-adv-x="517" 
d="M266 680q-22 0 -45 -6t-49 -19.5t-42.5 -43.5t-16.5 -72v-366q0 -42 16.5 -71.5t42.5 -43.5t49 -19.5t45 -5.5t45 6t48 20t41 43.5t16 69.5h41q0 -28 -9.5 -57t-30 -58t-61 -47.5t-94.5 -18.5q-53 0 -92.5 18.5t-59.5 48t-29 58.5t-9 57v368q0 20 5 42.5t19 47.5t35 44
t56 32t79 13q53 0 92.5 -19t59.5 -48t29.5 -57.5t9.5 -55.5h-40q0 41 -15.5 70.5t-41 43.5t-48.5 20t-46 6zM384 793h-36l-79 84l-79 -84h-37l90 112h50z" />
    <glyph glyph-name="ccircumflex" unicode="&#x109;" horiz-adv-x="510" 
d="M452 361h-42q-3 55 -36 93.5t-109 38.5q-69 0 -108 -38t-39 -105v-177q0 -59 33 -101t114 -42q63 0 102 36t44 96h41q-3 -80 -53.5 -126t-133.5 -46q-87 0 -137.5 49t-50.5 134v177q0 83 51 133t137 50q85 0 134.5 -45.5t52.5 -126.5zM385 593h-36l-79 84l-79 -84h-37
l90 112h50z" />
    <glyph glyph-name="Cdotaccent" unicode="&#x10a;" horiz-adv-x="517" 
d="M266 680q-22 0 -45 -6t-49 -19.5t-42.5 -43.5t-16.5 -72v-366q0 -42 16.5 -71.5t42.5 -43.5t49 -19.5t45 -5.5t45 6t48 20t41 43.5t16 69.5h41q0 -28 -9.5 -57t-30 -58t-61 -47.5t-94.5 -18.5q-53 0 -92.5 18.5t-59.5 48t-29 58.5t-9 57v368q0 20 5 42.5t19 47.5t35 44
t56 32t79 13q53 0 92.5 -19t59.5 -48t29.5 -57.5t9.5 -55.5h-40q0 41 -15.5 70.5t-41 43.5t-48.5 20t-46 6zM298 793h-61v55h61v-55z" />
    <glyph glyph-name="cdotaccent" unicode="&#x10b;" horiz-adv-x="510" 
d="M452 361h-42q-3 55 -36 93.5t-109 38.5q-69 0 -108 -38t-39 -105v-177q0 -59 33 -101t114 -42q63 0 102 36t44 96h41q-3 -80 -53.5 -126t-133.5 -46q-87 0 -137.5 49t-50.5 134v177q0 83 51 133t137 50q85 0 134.5 -45.5t52.5 -126.5zM291 631h-61v55h61v-55z" />
    <glyph glyph-name="Ccaron" unicode="&#x10c;" horiz-adv-x="515" 
d="M266 680q-22 0 -45 -6t-49 -19.5t-42.5 -43.5t-16.5 -72v-366q0 -42 16.5 -71.5t42.5 -43.5t49 -19.5t45 -5.5t45 6t48 20t41 43.5t16 69.5h41q0 -28 -9.5 -57t-30 -58t-61 -47.5t-94.5 -18.5q-53 0 -92.5 18.5t-59.5 48t-29 58.5t-9 57v368q0 20 5 42.5t19 47.5t35 44
t56 32t79 13q53 0 92.5 -19t59.5 -48t29.5 -57.5t9.5 -55.5h-40q0 41 -15.5 70.5t-41 43.5t-48.5 20t-46 6zM151 905h36l79 -84l79 84h37l-90 -112h-50z" />
    <glyph glyph-name="ccaron" unicode="&#x10d;" horiz-adv-x="510" 
d="M452 361h-42q-3 55 -36 93.5t-109 38.5q-69 0 -108 -38t-39 -105v-177q0 -59 33 -101t114 -42q63 0 102 36t44 96h41q-3 -80 -53.5 -126t-133.5 -46q-87 0 -137.5 49t-50.5 134v177q0 83 51 133t137 50q85 0 134.5 -45.5t52.5 -126.5zM154 705h36l79 -84l79 84h37
l-90 -112h-50z" />
    <glyph glyph-name="Dcaron" unicode="&#x10e;" horiz-adv-x="551" 
d="M474 183q0 -27 -7.5 -55t-25.5 -58.5t-56 -50t-91 -19.5h-207v714h203q44 0 78 -13.5t53.5 -33t32 -45t16.5 -46.5t4 -41v-352zM433 184v348q0 43 -14.5 73t-38.5 44t-46 19.5t-44 5.5h-162v-634h164q22 0 44 6.5t45 21t37.5 44.5t14.5 72zM147 905h36l79 -84l79 84h37
l-90 -112h-50z" />
    <glyph glyph-name="dcaron" unicode="&#x10f;" horiz-adv-x="572" 
d="M77 173v177q0 85 50.5 134t136.5 49q42 0 82 -18t64 -52v249h41v-712h-41v59q-46 -69 -146 -69q-85 0 -136 49.5t-51 133.5zM118 350v-177q0 -67 39 -105t107 -38q80 0 113 43.5t33 99.5v177q0 64 -39 103.5t-107 39.5q-42 0 -72.5 -13t-45.5 -35t-21.5 -45t-6.5 -50z
M632 712l-82 -136h-34l66 136h50z" />
    <glyph glyph-name="Dcroat" unicode="&#x110;" horiz-adv-x="558" 
d="M481 183q0 -27 -7.5 -55t-25.5 -58.5t-56 -50t-91 -19.5h-207v346h-65v37h65v331h203q44 0 78 -13.5t53.5 -33t32 -45t16.5 -46.5t4 -41v-352zM440 184v348q0 43 -14.5 73t-38.5 44t-46 19.5t-44 5.5h-162v-291h173v-37h-173v-306h164q22 0 44 6.5t45 21t37.5 44.5
t14.5 72z" />
    <glyph glyph-name="dcroat" unicode="&#x111;" horiz-adv-x="524" 
d="M77 173v177q0 85 50.5 134t136.5 49q42 0 82 -18t64 -52v130h-175v37h175v82h41v-82h63v-37h-63v-593h-41v59q-46 -69 -146 -69q-85 0 -136 49.5t-51 133.5zM118 350v-177q0 -67 39 -105t107 -38q80 0 113 43.5t33 99.5v177q0 64 -39 103.5t-107 39.5q-42 0 -72.5 -13
t-45.5 -35t-21.5 -45t-6.5 -50z" />
    <glyph glyph-name="Emacron" unicode="&#x112;" horiz-adv-x="512" 
d="M455 0h-368v713h368v-40h-327v-275h302v-40h-302v-318h327v-40zM418 793h-288v36h288v-36z" />
    <glyph glyph-name="emacron" unicode="&#x113;" horiz-adv-x="524" 
d="M452 350v-95h-334v-82q0 -58 34.5 -100.5t112.5 -42.5q65 0 104.5 35t41.5 97h41q-3 -80 -53.5 -126t-133.5 -46q-87 0 -137.5 49t-50.5 134v177q0 83 51 133t137 50t136.5 -49t50.5 -134zM411 295v55q0 27 -6.5 50t-21.5 45t-45.5 35t-72.5 13q-69 0 -108 -38t-39 -105
v-55h293zM409 623h-288v36h288v-36z" />
    <glyph glyph-name="Ebreve" unicode="&#x114;" horiz-adv-x="512" 
d="M455 0h-368v713h368v-40h-327v-275h302v-40h-302v-318h327v-40zM266 814q50 0 82 20t37 60h35q-8 -57 -49 -85t-105 -28q-138 0 -158 113h39q6 -40 38 -60t81 -20z" />
    <glyph glyph-name="ebreve" unicode="&#x115;" horiz-adv-x="524" 
d="M452 350v-95h-334v-82q0 -58 34.5 -100.5t112.5 -42.5q65 0 104.5 35t41.5 97h41q-3 -80 -53.5 -126t-133.5 -46q-87 0 -137.5 49t-50.5 134v177q0 83 51 133t137 50t136.5 -49t50.5 -134zM411 295v55q0 27 -6.5 50t-21.5 45t-45.5 35t-72.5 13q-69 0 -108 -38t-39 -105
v-55h293zM268 638q50 0 82 20t37 60h35q-8 -57 -49 -85t-105 -28q-138 0 -158 113h39q6 -40 38 -60t81 -20z" />
    <glyph glyph-name="Edotaccent" unicode="&#x116;" horiz-adv-x="512" 
d="M455 0h-368v713h368v-40h-327v-275h302v-40h-302v-318h327v-40zM294 793h-61v55h61v-55z" />
    <glyph glyph-name="edotaccent" unicode="&#x117;" horiz-adv-x="524" 
d="M452 350v-95h-334v-82q0 -58 34.5 -100.5t112.5 -42.5q65 0 104.5 35t41.5 97h41q-3 -80 -53.5 -126t-133.5 -46q-87 0 -137.5 49t-50.5 134v177q0 83 51 133t137 50t136.5 -49t50.5 -134zM411 295v55q0 27 -6.5 50t-21.5 45t-45.5 35t-72.5 13q-69 0 -108 -38t-39 -105
v-55h293zM296 631h-61v55h61v-55z" />
    <glyph glyph-name="Eogonek" unicode="&#x118;" horiz-adv-x="512" 
d="M455 0h-368v713h368v-40h-327v-275h302v-40h-302v-318h327v-40zM371 -181h-55l-72 131h44z" />
    <glyph glyph-name="eogonek" unicode="&#x119;" horiz-adv-x="524" 
d="M452 350v-95h-334v-82q0 -58 34.5 -100.5t112.5 -42.5q65 0 104.5 35t41.5 97h41q-3 -80 -53.5 -126t-133.5 -46q-87 0 -137.5 49t-50.5 134v177q0 83 51 133t137 50t136.5 -49t50.5 -134zM411 295v55q0 27 -6.5 50t-21.5 45t-45.5 35t-72.5 13q-69 0 -108 -38t-39 -105
v-55h293zM367 -181h-55l-72 131h44z" />
    <glyph glyph-name="Ecaron" unicode="&#x11a;" horiz-adv-x="512" 
d="M455 0h-368v713h368v-40h-327v-275h302v-40h-302v-318h327v-40zM148 905h36l79 -84l79 84h37l-90 -112h-50z" />
    <glyph glyph-name="ecaron" unicode="&#x11b;" horiz-adv-x="524" 
d="M452 350v-95h-334v-82q0 -58 34.5 -100.5t112.5 -42.5q65 0 104.5 35t41.5 97h41q-3 -80 -53.5 -126t-133.5 -46q-87 0 -137.5 49t-50.5 134v177q0 83 51 133t137 50t136.5 -49t50.5 -134zM411 295v55q0 27 -6.5 50t-21.5 45t-45.5 35t-72.5 13q-69 0 -108 -38t-39 -105
v-55h293zM150 705h36l79 -84l79 84h37l-90 -112h-50z" />
    <glyph glyph-name="Gcircumflex" unicode="&#x11c;" 
d="M464 172q0 -27 -9.5 -56t-30.5 -58.5t-62 -48t-95 -18.5q-43 0 -77 12.5t-54.5 32t-34.5 45t-19 48t-5 44.5v368q0 27 9.5 55t29.5 57.5t60.5 48t94.5 18.5q53 0 92.5 -19t59.5 -48t29.5 -57.5t9.5 -55.5h-40q0 41 -16 70.5t-41.5 43.5t-48.5 20t-45 6t-45 -6t-49 -20
t-42.5 -44t-16.5 -71v-366q0 -41 16.5 -71t42 -44.5t48.5 -20.5t45 -6t45.5 6t49 20.5t42 44.5t16.5 71v161h-156v40h197v-202zM384 793h-36l-79 84l-79 -84h-37l90 112h50z" />
    <glyph glyph-name="gcircumflex" unicode="&#x11d;" horiz-adv-x="538" 
d="M410 -54v112q-47 -68 -145 -68q-87 0 -137.5 49t-50.5 134v177q0 83 51 133t137 50q44 0 84 -16.5t61 -50.5v57h41v-577q0 -96 -52 -136.5t-134 -40.5q-78 0 -128.5 43t-51.5 116h40q1 -57 39 -88t101 -31q29 0 51 4.5t45.5 17.5t36 42t12.5 73zM410 173v177
q0 27 -6.5 50t-21 45t-45 35t-72.5 13q-69 0 -108 -38t-39 -105v-177q0 -59 33 -101t114 -42q67 0 106 39t39 104zM385 593h-36l-79 84l-79 -84h-37l90 112h50z" />
    <glyph glyph-name="Gbreve" unicode="&#x11e;" 
d="M464 172q0 -27 -9.5 -56t-30.5 -58.5t-62 -48t-95 -18.5q-43 0 -77 12.5t-54.5 32t-34.5 45t-19 48t-5 44.5v368q0 27 9.5 55t29.5 57.5t60.5 48t94.5 18.5q53 0 92.5 -19t59.5 -48t29.5 -57.5t9.5 -55.5h-40q0 41 -16 70.5t-41.5 43.5t-48.5 20t-45 6t-45 -6t-49 -20
t-42.5 -44t-16.5 -71v-366q0 -41 16.5 -71t42 -44.5t48.5 -20.5t45 -6t45.5 6t49 20.5t42 44.5t16.5 71v161h-156v40h197v-202zM270 814q50 0 82 20t37 60h35q-8 -57 -49 -85t-105 -28q-138 0 -158 113h39q6 -40 38 -60t81 -20z" />
    <glyph glyph-name="gbreve" unicode="&#x11f;" horiz-adv-x="538" 
d="M410 -54v112q-47 -68 -145 -68q-87 0 -137.5 49t-50.5 134v177q0 83 51 133t137 50q44 0 84 -16.5t61 -50.5v57h41v-577q0 -96 -52 -136.5t-134 -40.5q-78 0 -128.5 43t-51.5 116h40q1 -57 39 -88t101 -31q29 0 51 4.5t45.5 17.5t36 42t12.5 73zM410 173v177
q0 27 -6.5 50t-21 45t-45 35t-72.5 13q-69 0 -108 -38t-39 -105v-177q0 -59 33 -101t114 -42q67 0 106 39t39 104zM271 646q49 0 81.5 20t37.5 60h35q-8 -57 -49 -85t-105 -28q-138 0 -158 113h39q6 -40 38 -60t81 -20z" />
    <glyph glyph-name="Gdotaccent" unicode="&#x120;" 
d="M464 172q0 -27 -9.5 -56t-30.5 -58.5t-62 -48t-95 -18.5q-43 0 -77 12.5t-54.5 32t-34.5 45t-19 48t-5 44.5v368q0 27 9.5 55t29.5 57.5t60.5 48t94.5 18.5q53 0 92.5 -19t59.5 -48t29.5 -57.5t9.5 -55.5h-40q0 41 -16 70.5t-41.5 43.5t-48.5 20t-45 6t-45 -6t-49 -20
t-42.5 -44t-16.5 -71v-366q0 -41 16.5 -71t42 -44.5t48.5 -20.5t45 -6t45.5 6t49 20.5t42 44.5t16.5 71v161h-156v40h197v-202zM299 793h-61v55h61v-55z" />
    <glyph glyph-name="gdotaccent" unicode="&#x121;" horiz-adv-x="538" 
d="M410 -54v112q-47 -68 -145 -68q-87 0 -137.5 49t-50.5 134v177q0 83 51 133t137 50q44 0 84 -16.5t61 -50.5v57h41v-577q0 -96 -52 -136.5t-134 -40.5q-78 0 -128.5 43t-51.5 116h40q1 -57 39 -88t101 -31q29 0 51 4.5t45.5 17.5t36 42t12.5 73zM410 173v177
q0 27 -6.5 50t-21 45t-45 35t-72.5 13q-69 0 -108 -38t-39 -105v-177q0 -59 33 -101t114 -42q67 0 106 39t39 104zM300 631h-61v55h61v-55z" />
    <glyph glyph-name="Gcommaaccent" unicode="&#x122;" 
d="M464 172q0 -27 -9.5 -56t-30.5 -58.5t-62 -48t-95 -18.5q-43 0 -77 12.5t-54.5 32t-34.5 45t-19 48t-5 44.5v368q0 27 9.5 55t29.5 57.5t60.5 48t94.5 18.5q53 0 92.5 -19t59.5 -48t29.5 -57.5t9.5 -55.5h-40q0 41 -16 70.5t-41.5 43.5t-48.5 20t-45 6t-45 -6t-49 -20
t-42.5 -44t-16.5 -71v-366q0 -41 16.5 -71t42 -44.5t48.5 -20.5t45 -6t45.5 6t49 20.5t42 44.5t16.5 71v161h-156v40h197v-202zM285 -50l-52 -130h-46l61 130h37z" />
    <glyph glyph-name="gcommaaccent" unicode="&#x123;" horiz-adv-x="538" 
d="M410 -54v112q-47 -68 -145 -68q-87 0 -137.5 49t-50.5 134v177q0 83 51 133t137 50q44 0 84 -16.5t61 -50.5v57h41v-577q0 -96 -52 -136.5t-134 -40.5q-78 0 -128.5 43t-51.5 116h40q1 -57 39 -88t101 -31q29 0 51 4.5t45.5 17.5t36 42t12.5 73zM410 173v177
q0 27 -6.5 50t-21 45t-45 35t-72.5 13q-69 0 -108 -38t-39 -105v-177q0 -59 33 -101t114 -42q67 0 106 39t39 104zM340 729l-82 -136h-34l66 136h50z" />
    <glyph glyph-name="Hcircumflex" unicode="&#x124;" horiz-adv-x="575" 
d="M488 0h-41v357h-319v-357h-41v713h41v-316h319v316h41v-713zM401 793h-36l-79 84l-79 -84h-37l90 112h50z" />
    <glyph glyph-name="hcircumflex" unicode="&#x125;" horiz-adv-x="538" 
d="M461 0h-41v350q0 143 -136 143q-66 0 -111.5 -40t-45.5 -101v-352h-41v712h41v-257q55 78 157 78q85 0 131 -48.5t46 -134.5v-350zM386 793h-36l-79 84l-79 -84h-37l90 112h50z" />
    <glyph glyph-name="Hbar" unicode="&#x126;" horiz-adv-x="578" 
d="M492 0h-41v357h-319v-357h-41v594h-54v37h54v82h41v-82h319v82h41v-82h50v-37h-50v-594zM132 397h319v197h-319v-197z" />
    <glyph glyph-name="hbar" unicode="&#x127;" horiz-adv-x="527" 
d="M450 0h-41v350q0 143 -136 143q-66 0 -111.5 -40t-45.5 -101v-352h-41v593h-58v37h58v82h41v-82h180v-37h-180v-138q55 78 157 78q85 0 131 -48.5t46 -134.5v-350z" />
    <glyph glyph-name="Itilde" unicode="&#x128;" horiz-adv-x="219" 
d="M90 713h41v-713h-41v713zM177 814q25 0 59 33l24 -22q-48 -44 -81 -44q-24 0 -72.5 25t-61.5 25q-27 0 -63 -31l-22 22q45 43 84 43q26 0 70.5 -25.5t62.5 -25.5z" />
    <glyph glyph-name="itilde" unicode="&#x129;" horiz-adv-x="214" 
d="M127 0h-40v523h40v-523zM181 648q25 0 59 33l24 -22q-48 -44 -81 -44q-24 0 -72.5 25t-61.5 25q-27 0 -63 -31l-22 22q45 43 84 43q26 0 70.5 -25.5t62.5 -25.5z" />
    <glyph glyph-name="uni012A" unicode="&#x12a;" horiz-adv-x="215" 
d="M87 713h41v-713h-41v713zM250 793h-288v36h288v-36z" />
    <glyph glyph-name="imacron" unicode="&#x12b;" horiz-adv-x="214" 
d="M127 0h-40v523h40v-523zM253 621h-288v36h288v-36z" />
    <glyph glyph-name="Ibreve" unicode="&#x12c;" horiz-adv-x="215" 
d="M87 713h41v-713h-41v713zM110 814q50 0 82 20t37 60h35q-8 -57 -49 -85t-105 -28q-138 0 -158 113h39q6 -40 38 -60t81 -20z" />
    <glyph glyph-name="uni012D" unicode="&#x12d;" horiz-adv-x="214" 
d="M109 638q49 0 81.5 20t37.5 60h35q-8 -57 -49 -85t-105 -28q-138 0 -158 113h39q6 -40 38 -60t81 -20zM127 0h-40v523h40v-523z" />
    <glyph glyph-name="Iogonek" unicode="&#x12e;" horiz-adv-x="214" 
d="M86 713h41v-713h-41v713zM217 -181h-55l-72 131h44z" />
    <glyph glyph-name="iogonek" unicode="&#x12f;" horiz-adv-x="211" 
d="M124 0h-41v523h41v-523zM133 645h-60v76h60v-76zM213 -181h-55l-72 131h44z" />
    <glyph glyph-name="Idotaccent" unicode="&#x130;" horiz-adv-x="215" 
d="M87 713h41v-713h-41v713zM138 793h-61v55h61v-55z" />
    <glyph glyph-name="dotlessi" unicode="&#x131;" horiz-adv-x="214" 
d="M127 0h-40v523h40v-523z" />
    <glyph glyph-name="IJ" unicode="&#x132;" horiz-adv-x="669" 
d="M86 713h41v-713h-41v713zM587 171q0 -85 -46.5 -132.5t-128.5 -47.5q-80 0 -125.5 48.5t-45.5 131.5h41q0 -78 39.5 -109t91.5 -31q33 0 60.5 9.5t50 41.5t22.5 84v507h-227v40h268v-542z" />
    <glyph glyph-name="ij" unicode="&#x133;" horiz-adv-x="508" 
d="M137 0h-41v523h41v-523zM146 645h-60v76h60v-76zM412 -106q0 -125 -132 -125h-40v40h51q34 0 57 20t23 62v632h41v-629zM421 645h-59v76h59v-76z" />
    <glyph glyph-name="Jcircumflex" unicode="&#x134;" horiz-adv-x="455" 
d="M373 171q0 -85 -46.5 -132.5t-128.5 -47.5q-80 0 -125.5 48.5t-45.5 131.5h41q0 -78 39.5 -109t91.5 -31q33 0 60.5 9.5t50 41.5t22.5 84v507h-227v40h268v-542zM343 793h-36l-79 84l-79 -84h-37l90 112h50z" />
    <glyph glyph-name="jcircumflex" unicode="&#x135;" horiz-adv-x="266" 
d="M168 -106q0 -125 -132 -125h-40v40h51q34 0 57 20t23 62v632h41v-629zM264 606h-36l-79 84l-79 -84h-37l90 112h50z" />
    <glyph glyph-name="Kcommaaccent" unicode="&#x136;" horiz-adv-x="506" 
d="M475 0h-51l-212 360l-84 -120v-240h-41v713h41v-399l281 399h49l-222 -315zM574 -181h-55l-72 131h44z" />
    <glyph glyph-name="kcommaaccent" unicode="&#x137;" horiz-adv-x="465" 
d="M422 0h-47l-159 278l-88 -109v-169h-41v712h41v-481l235 291h52l-172 -213zM522 -181h-55l-72 131h44z" />
    <glyph glyph-name="Lacute" unicode="&#x139;" horiz-adv-x="476" 
d="M454 0h-367v713h41v-672h326v-41zM208 917l-82 -136h-34l66 136h50z" />
    <glyph glyph-name="lacute" unicode="&#x13a;" horiz-adv-x="238" 
d="M83 129v584h41v-590q0 -43 22 -62.5t58 -19.5h6v-40h-11q-52 0 -84 31.5t-32 96.5zM204 917l-82 -136h-34l66 136h50z" />
    <glyph glyph-name="Lcommaaccent" unicode="&#x13b;" horiz-adv-x="476" 
d="M454 0h-367v713h41v-672h326v-41zM289 -50l-52 -130h-46l61 130h37z" />
    <glyph glyph-name="lcommaaccent" unicode="&#x13c;" horiz-adv-x="245" 
d="M90 129v584h41v-590q0 -43 22 -62.5t58 -19.5h6v-40h-11q-52 0 -84 31.5t-32 96.5zM201 -50l-52 -130h-46l61 130h37z" />
    <glyph glyph-name="Lcaron" unicode="&#x13d;" horiz-adv-x="476" 
d="M454 0h-367v713h41v-672h326v-41zM357 713l-82 -136h-34l66 136h50z" />
    <glyph glyph-name="lcaron" unicode="&#x13e;" horiz-adv-x="269" 
d="M83 129v584h41v-590q0 -43 22 -62.5t58 -19.5h6v-40h-11q-52 0 -84 31.5t-32 96.5zM319 713l-82 -136h-34l66 136h50z" />
    <glyph glyph-name="Ldot" unicode="&#x13f;" horiz-adv-x="476" 
d="M454 0h-367v713h41v-672h326v-41zM357 228h-75v75h75v-75z" />
    <glyph glyph-name="ldot" unicode="&#x140;" horiz-adv-x="407" 
d="M87 129v584h41v-590q0 -43 22 -62.5t58 -19.5h6v-40h-11q-52 0 -84 31.5t-32 96.5zM344 228h-75v75h75v-75z" />
    <glyph glyph-name="Lslash" unicode="&#x141;" horiz-adv-x="463" 
d="M441 0h-367v244h-44v37h44v432h41v-432h278v-37h-278v-203h326v-41z" />
    <glyph glyph-name="lslash" unicode="&#x142;" horiz-adv-x="235" 
d="M79 129v115h-111v37h111v432h41v-432h127v-37h-127v-121q0 -43 22 -62.5t58 -19.5h6v-40h-11q-52 0 -84 31.5t-32 96.5z" />
    <glyph glyph-name="Nacute" unicode="&#x143;" horiz-adv-x="566" 
d="M479 0h-68l-283 665v-665h-41v713h65l286 -673v673h41v-713zM344 917l-82 -136h-34l66 136h50z" />
    <glyph glyph-name="nacute" unicode="&#x144;" horiz-adv-x="544" 
d="M462 0h-41v350q0 28 -4.5 49.5t-17.5 44.5t-42 36t-72 13q-66 0 -111.5 -40t-45.5 -101v-352h-41v522h41v-67q53 78 157 78q85 0 131 -48.5t46 -134.5v-350zM340 729l-82 -136h-34l66 136h50z" />
    <glyph glyph-name="Ncommaaccent" unicode="&#x145;" horiz-adv-x="568" 
d="M479 0h-68l-283 665v-665h-41v713h65l286 -673v673h41v-713zM564 -181h-55l-72 131h44z" />
    <glyph glyph-name="ncommaaccent" unicode="&#x146;" horiz-adv-x="536" 
d="M462 0h-41v350q0 28 -4.5 49.5t-17.5 44.5t-42 36t-72 13q-66 0 -111.5 -40t-45.5 -101v-352h-41v522h41v-67q53 78 157 78q85 0 131 -48.5t46 -134.5v-350zM555 -181h-55l-72 131h44z" />
    <glyph glyph-name="Ncaron" unicode="&#x147;" horiz-adv-x="566" 
d="M479 0h-68l-283 665v-665h-41v713h65l286 -673v673h41v-713zM170 905h36l79 -84l79 84h37l-90 -112h-50z" />
    <glyph glyph-name="ncaron" unicode="&#x148;" horiz-adv-x="544" 
d="M462 0h-41v350q0 28 -4.5 49.5t-17.5 44.5t-42 36t-72 13q-66 0 -111.5 -40t-45.5 -101v-352h-41v522h41v-67q53 78 157 78q85 0 131 -48.5t46 -134.5v-350zM157 705h36l79 -84l79 84h37l-90 -112h-50z" />
    <glyph glyph-name="napostrophe" unicode="&#x149;" horiz-adv-x="652" 
d="M572 0h-41v350q0 28 -4.5 49.5t-17.5 44.5t-42 36t-72 13q-66 0 -111.5 -40t-45.5 -101v-352h-41v522h41v-67q53 78 157 78q85 0 131 -48.5t46 -134.5v-350zM219 780l-123 -198h-16l73 198h66z" />
    <glyph glyph-name="Eng" unicode="&#x14a;" horiz-adv-x="566" 
d="M479 -51q0 -85 -46.5 -132.5t-128.5 -47.5q-80 0 -125.5 48.5t-45.5 131.5v8h41v-10q0 -77 39.5 -107.5t91.5 -30.5q33 0 60.5 9.5t50 41.5t22.5 84v56h-27l-283 665v-665h-41v713h65l286 -673v673h41v-764z" />
    <glyph glyph-name="eng" unicode="&#x14b;" horiz-adv-x="539" 
d="M462 -106q0 -125 -132 -125h-40v40h51q34 0 57 20t23 62v459q0 28 -4.5 49.5t-17.5 44.5t-42 36t-72 13q-66 0 -111.5 -40t-45.5 -101v-352h-41v522h41v-67q53 78 157 78q85 0 131 -48.5t46 -134.5v-456z" />
    <glyph glyph-name="Omacron" unicode="&#x14c;" 
d="M464 172q0 -27 -9.5 -56t-30.5 -58.5t-62 -48t-95 -18.5q-43 0 -77 12.5t-54.5 32t-34.5 45t-19 48t-5 44.5v368q0 27 9.5 55t29.5 57.5t60.5 48t94.5 18.5q53 0 93 -18.5t60.5 -48t30 -58t9.5 -55.5v-368zM423 173v366q0 41 -16.5 71t-42 44t-48.5 20t-45 6t-45 -6
t-49 -20t-42.5 -44t-16.5 -71v-366q0 -41 16.5 -71.5t42 -44.5t48.5 -20t45 -6t45.5 6t49 20.5t42 44.5t16.5 71zM409 793h-288v36h288v-36z" />
    <glyph glyph-name="omacron" unicode="&#x14d;" horiz-adv-x="529" 
d="M452 173q0 -84 -51 -133.5t-136 -49.5q-87 0 -137.5 49t-50.5 134v177q0 83 51 133t137 50t136.5 -49t50.5 -134v-177zM411 173v177q0 27 -6.5 50t-21.5 45t-45.5 35t-72.5 13q-69 0 -108 -38t-39 -105v-177q0 -59 33 -101t114 -42q68 0 107 38t39 105zM406 623h-288v36
h288v-36z" />
    <glyph glyph-name="Obreve" unicode="&#x14e;" 
d="M464 172q0 -27 -9.5 -56t-30.5 -58.5t-62 -48t-95 -18.5q-43 0 -77 12.5t-54.5 32t-34.5 45t-19 48t-5 44.5v368q0 27 9.5 55t29.5 57.5t60.5 48t94.5 18.5q53 0 93 -18.5t60.5 -48t30 -58t9.5 -55.5v-368zM423 173v366q0 41 -16.5 71t-42 44t-48.5 20t-45 6t-45 -6
t-49 -20t-42.5 -44t-16.5 -71v-366q0 -41 16.5 -71.5t42 -44.5t48.5 -20t45 -6t45.5 6t49 20.5t42 44.5t16.5 71zM270 814q50 0 82 20t37 60h35q-8 -57 -49 -85t-105 -28q-138 0 -158 113h39q6 -40 38 -60t81 -20z" />
    <glyph glyph-name="obreve" unicode="&#x14f;" horiz-adv-x="529" 
d="M452 173q0 -84 -51 -133.5t-136 -49.5q-87 0 -137.5 49t-50.5 134v177q0 83 51 133t137 50t136.5 -49t50.5 -134v-177zM411 173v177q0 27 -6.5 50t-21.5 45t-45.5 35t-72.5 13q-69 0 -108 -38t-39 -105v-177q0 -59 33 -101t114 -42q68 0 107 38t39 105zM262 638
q50 0 82 20t37 60h35q-8 -57 -49 -85t-105 -28q-138 0 -158 113h39q6 -40 38 -60t81 -20z" />
    <glyph glyph-name="Ohungarumlaut" unicode="&#x150;" 
d="M464 172q0 -27 -9.5 -56t-30.5 -58.5t-62 -48t-95 -18.5q-43 0 -77 12.5t-54.5 32t-34.5 45t-19 48t-5 44.5v368q0 27 9.5 55t29.5 57.5t60.5 48t94.5 18.5q53 0 93 -18.5t60.5 -48t30 -58t9.5 -55.5v-368zM423 173v366q0 41 -16.5 71t-42 44t-48.5 20t-45 6t-45 -6
t-49 -20t-42.5 -44t-16.5 -71v-366q0 -41 16.5 -71.5t42 -44.5t48.5 -20t45 -6t45.5 6t49 20.5t42 44.5t16.5 71zM264 916l-94 -135h-43l78 135h59zM430 916l-96 -135h-41l78 135h59z" />
    <glyph glyph-name="ohungarumlaut" unicode="&#x151;" 
d="M452 173q0 -84 -51 -133.5t-136 -49.5q-87 0 -137.5 49t-50.5 134v177q0 83 51 133t137 50t136.5 -49t50.5 -134v-177zM411 173v177q0 27 -6.5 50t-21.5 45t-45.5 35t-72.5 13q-69 0 -108 -38t-39 -105v-177q0 -59 33 -101t114 -42q68 0 107 38t39 105zM248 728l-94 -135
h-43l78 135h59zM414 728l-96 -135h-41l78 135h59z" />
    <glyph glyph-name="OE" unicode="&#x152;" horiz-adv-x="848" 
d="M791 0h-368v56q-53 -65 -156 -65q-43 0 -77 12.5t-54.5 32t-34.5 45t-19 48t-5 44.5v368q0 27 9.5 55t29.5 57.5t60.5 48t94.5 18.5q98 0 152 -65v58h368v-41h-326v-274h301v-40h-301v-318h326v-40zM423 164v383q-2 39 -18.5 67t-42 41.5t-48 19t-43.5 5.5q-22 0 -45 -6
t-49 -20t-42.5 -44t-16.5 -71v-366q0 -41 16.5 -71.5t42 -44.5t48.5 -20t45 -6q21 0 44 6t48 19.5t42 41.5t19 66z" />
    <glyph glyph-name="oe" unicode="&#x153;" horiz-adv-x="863" 
d="M452 173q0 -58 34.5 -100t112.5 -42q65 0 104 34.5t41 96.5h42q-3 -80 -53.5 -126t-133.5 -46q-123 0 -168 90q-47 -90 -166 -90q-87 0 -137.5 49t-50.5 134v177q0 83 51 133t137 50q121 0 167 -91q22 43 65.5 67t101.5 24q86 0 136.5 -49t50.5 -134v-95h-334v-82z
M411 173v177q0 27 -6.5 50t-21.5 44.5t-45.5 34.5t-72.5 13q-69 0 -108 -37.5t-39 -104.5v-177q0 -59 33 -100.5t114 -41.5q66 0 105 37t41 105zM745 295v55q0 27 -6.5 50t-21.5 44.5t-45.5 34.5t-72.5 13q-69 0 -108 -37.5t-39 -104.5v-55h293z" />
    <glyph glyph-name="Racute" unicode="&#x154;" horiz-adv-x="532" 
d="M473 0h-48l-139 317h-158v-317h-41v713h204q44 0 78 -13t53.5 -32.5t32 -45t16.5 -46.5t4 -41v-36q0 -23 -6.5 -47.5t-21 -52t-45 -49.5t-72.5 -31zM434 500v32q0 34 -10.5 60t-25.5 41t-35.5 24.5t-37.5 12.5t-34 3h-163v-316h165q22 0 44 6.5t45 21t37.5 44.5t14.5 71z
M321 917l-82 -136h-34l66 136h50z" />
    <glyph glyph-name="racute" unicode="&#x155;" horiz-adv-x="312" 
d="M274 482h-27q-46 0 -82.5 -35.5t-36.5 -107.5v-339h-41v522h41v-67q40 67 120 67h26v-40zM210 729l-82 -136h-34l66 136h50z" />
    <glyph glyph-name="Rcommaaccent" unicode="&#x156;" horiz-adv-x="532" 
d="M473 0h-48l-139 317h-158v-317h-41v713h204q44 0 78 -13t53.5 -32.5t32 -45t16.5 -46.5t4 -41v-36q0 -23 -6.5 -47.5t-21 -52t-45 -49.5t-72.5 -31zM434 500v32q0 34 -10.5 60t-25.5 41t-35.5 24.5t-37.5 12.5t-34 3h-163v-316h165q22 0 44 6.5t45 21t37.5 44.5t14.5 71z
M269 -50l-52 -130h-46l61 130h37z" />
    <glyph glyph-name="rcommaaccent" unicode="&#x157;" horiz-adv-x="315" 
d="M273 482h-27q-46 0 -82.5 -35.5t-36.5 -107.5v-339h-41v522h41v-67q40 67 120 67h26v-40zM122 -50l-52 -130h-46l61 130h37z" />
    <glyph glyph-name="Rcaron" unicode="&#x158;" horiz-adv-x="532" 
d="M473 0h-48l-139 317h-158v-317h-41v713h204q44 0 78 -13t53.5 -32.5t32 -45t16.5 -46.5t4 -41v-36q0 -23 -6.5 -47.5t-21 -52t-45 -49.5t-72.5 -31zM434 500v32q0 34 -10.5 60t-25.5 41t-35.5 24.5t-37.5 12.5t-34 3h-163v-316h165q22 0 44 6.5t45 21t37.5 44.5t14.5 71z
M141 905h36l79 -84l79 84h37l-90 -112h-50z" />
    <glyph glyph-name="rcaron" unicode="&#x159;" horiz-adv-x="300" 
d="M262 482h-27q-46 0 -82.5 -35.5t-36.5 -107.5v-339h-41v522h41v-67q40 67 120 67h26v-40zM35 705h36l79 -84l79 84h37l-90 -112h-50z" />
    <glyph glyph-name="Sacute" unicode="&#x15a;" horiz-adv-x="516" 
d="M458 172q0 -80 -59 -131t-145 -51q-90 0 -143 51t-53 131h41q0 -66 41 -103t113 -37q74 0 119 38t45 104q0 89 -83 135q-65 37 -178 95q-41 21 -65.5 60t-24.5 87q0 74 52.5 122t134.5 48q87 0 140.5 -49t53.5 -130h-40q0 66 -43 102.5t-111 36.5q-63 0 -104.5 -36.5
t-41.5 -96.5q0 -71 77 -111l169 -90q105 -57 105 -175zM324 917l-82 -136h-34l66 136h50z" />
    <glyph glyph-name="sacute" unicode="&#x15b;" horiz-adv-x="495" 
d="M437 146q0 -80 -53.5 -117t-137.5 -37t-136 43t-52 117h41q0 -58 40 -89t107 -31q150 0 150 114q0 64 -80 86q-65 18 -143 34q-51 10 -79.5 43.5t-28.5 80.5q0 72 50.5 107t126.5 35q81 0 132 -40.5t55 -111.5h-42q-3 53 -40 82.5t-107 29.5q-134 0 -134 -102
q0 -71 81 -87q94 -19 143 -33q107 -30 107 -124zM317 729l-82 -136h-34l66 136h50z" />
    <glyph glyph-name="Scircumflex" unicode="&#x15c;" horiz-adv-x="516" 
d="M458 172q0 -80 -59 -131t-145 -51q-90 0 -143 51t-53 131h41q0 -66 41 -103t113 -37q74 0 119 38t45 104q0 89 -83 135q-65 37 -178 95q-41 21 -65.5 60t-24.5 87q0 74 52.5 122t134.5 48q87 0 140.5 -49t53.5 -130h-40q0 66 -43 102.5t-111 36.5q-63 0 -104.5 -36.5
t-41.5 -96.5q0 -71 77 -111l169 -90q105 -57 105 -175zM371 793h-36l-79 84l-79 -84h-37l90 112h50z" />
    <glyph glyph-name="scircumflex" unicode="&#x15d;" horiz-adv-x="495" 
d="M437 146q0 -80 -53.5 -117t-137.5 -37t-136 43t-52 117h41q0 -58 40 -89t107 -31q150 0 150 114q0 64 -80 86q-65 18 -143 34q-51 10 -79.5 43.5t-28.5 80.5q0 72 50.5 107t126.5 35q81 0 132 -40.5t55 -111.5h-42q-3 53 -40 82.5t-107 29.5q-134 0 -134 -102
q0 -71 81 -87q94 -19 143 -33q107 -30 107 -124zM355 593h-36l-79 84l-79 -84h-37l90 112h50z" />
    <glyph glyph-name="Scedilla" unicode="&#x15e;" horiz-adv-x="516" 
d="M458 172q0 -80 -59 -131t-145 -51q-90 0 -143 51t-53 131h41q0 -66 41 -103t113 -37q74 0 119 38t45 104q0 89 -83 135q-65 37 -178 95q-41 21 -65.5 60t-24.5 87q0 74 52.5 122t134.5 48q87 0 140.5 -49t53.5 -130h-40q0 66 -43 102.5t-111 36.5q-63 0 -104.5 -36.5
t-41.5 -96.5q0 -71 77 -111l169 -90q105 -57 105 -175zM270 -50l-52 -130h-46l61 130h37z" />
    <glyph glyph-name="scedilla" unicode="&#x15f;" horiz-adv-x="495" 
d="M437 146q0 -80 -53.5 -117t-137.5 -37t-136 43t-52 117h41q0 -58 40 -89t107 -31q150 0 150 114q0 64 -80 86q-65 18 -143 34q-51 10 -79.5 43.5t-28.5 80.5q0 72 50.5 107t126.5 35q81 0 132 -40.5t55 -111.5h-42q-3 53 -40 82.5t-107 29.5q-134 0 -134 -102
q0 -71 81 -87q94 -19 143 -33q107 -30 107 -124zM264 -50l-52 -130h-46l61 130h37z" />
    <glyph glyph-name="Scaron" unicode="&#x160;" horiz-adv-x="516" 
d="M458 172q0 -80 -59 -131t-145 -51q-90 0 -143 51t-53 131h41q0 -66 41 -103t113 -37q74 0 119 38t45 104q0 89 -83 135q-65 37 -178 95q-41 21 -65.5 60t-24.5 87q0 74 52.5 122t134.5 48q87 0 140.5 -49t53.5 -130h-40q0 66 -43 102.5t-111 36.5q-63 0 -104.5 -36.5
t-41.5 -96.5q0 -71 77 -111l169 -90q105 -57 105 -175zM145 905h36l79 -84l79 84h37l-90 -112h-50z" />
    <glyph glyph-name="scaron" unicode="&#x161;" horiz-adv-x="495" 
d="M437 146q0 -80 -53.5 -117t-137.5 -37t-136 43t-52 117h41q0 -58 40 -89t107 -31q150 0 150 114q0 64 -80 86q-65 18 -143 34q-51 10 -79.5 43.5t-28.5 80.5q0 72 50.5 107t126.5 35q81 0 132 -40.5t55 -111.5h-42q-3 53 -40 82.5t-107 29.5q-134 0 -134 -102
q0 -71 81 -87q94 -19 143 -33q107 -30 107 -124zM129 705h36l79 -84l79 84h37l-90 -112h-50z" />
    <glyph glyph-name="Tcommaaccent" unicode="&#x162;" horiz-adv-x="474" 
d="M441 673h-183v-673h-41v673h-184v40h408v-40zM252 -50l-52 -130h-46l61 130h37z" />
    <glyph glyph-name="tcommaaccent" unicode="&#x163;" horiz-adv-x="353" 
d="M135 128v354h-107v40h107v190h41v-190h124v-40h-124v-360q0 -43 22 -62.5t58 -19.5h44v-40h-49q-52 0 -84 31.5t-32 96.5zM237 -50l-52 -130h-46l61 130h37z" />
    <glyph glyph-name="Tcaron" unicode="&#x164;" horiz-adv-x="474" 
d="M441 673h-183v-673h-41v673h-184v40h408v-40zM123 905h36l79 -84l79 84h37l-90 -112h-50z" />
    <glyph glyph-name="tcaron" unicode="&#x165;" horiz-adv-x="376" 
d="M135 128v354h-107v40h107v190h41v-190h124v-40h-124v-360q0 -43 22 -62.5t58 -19.5h44v-40h-49q-52 0 -84 31.5t-32 96.5zM436 712l-82 -136h-34l66 136h50z" />
    <glyph glyph-name="Tbar" unicode="&#x166;" horiz-adv-x="474" 
d="M441 673h-183v-381h116v-37h-116v-255h-41v255h-122v37h122v381h-184v40h408v-40z" />
    <glyph glyph-name="tbar" unicode="&#x167;" horiz-adv-x="330" 
d="M115 128v127h-107v37h107v190h-107v40h107v190h41v-190h124v-40h-124v-190h131v-37h-131v-133q0 -43 22 -62.5t58 -19.5h44v-40h-49q-52 0 -84 31.5t-32 96.5z" />
    <glyph glyph-name="Utilde" unicode="&#x168;" 
d="M464 172q0 -27 -9.5 -56t-30.5 -58.5t-62 -48t-95 -18.5q-43 0 -77 12.5t-54.5 32t-34.5 45t-19 48t-5 44.5v540h41v-540q0 -40 15.5 -69.5t40.5 -44.5t48.5 -21.5t45.5 -6.5q23 0 47.5 6.5t50 21.5t41.5 44.5t16 69.5v540h41v-541zM337 814q25 0 59 33l24 -22
q-48 -44 -81 -44q-24 0 -72.5 25t-61.5 25q-27 0 -63 -31l-22 22q45 43 84 43q26 0 70.5 -25.5t62.5 -25.5z" />
    <glyph glyph-name="utilde" unicode="&#x169;" horiz-adv-x="546" 
d="M459 0h-41v58q-53 -67 -148 -67q-87 0 -137.5 48.5t-50.5 133.5v350h41v-350q0 -58 34 -100t113 -42q63 0 105.5 38t42.5 98v356h41v-523zM332 648q25 0 59 33l24 -22q-48 -44 -81 -44q-24 0 -72.5 25t-61.5 25q-27 0 -63 -31l-22 22q45 43 84 43q26 0 70.5 -25.5
t62.5 -25.5z" />
    <glyph glyph-name="Umacron" unicode="&#x16a;" 
d="M464 172q0 -27 -9.5 -56t-30.5 -58.5t-62 -48t-95 -18.5q-43 0 -77 12.5t-54.5 32t-34.5 45t-19 48t-5 44.5v540h41v-540q0 -40 15.5 -69.5t40.5 -44.5t48.5 -21.5t45.5 -6.5q23 0 47.5 6.5t50 21.5t41.5 44.5t16 69.5v540h41v-541zM418 793h-288v36h288v-36z" />
    <glyph glyph-name="umacron" unicode="&#x16b;" horiz-adv-x="546" 
d="M459 0h-41v58q-53 -67 -148 -67q-87 0 -137.5 48.5t-50.5 133.5v350h41v-350q0 -58 34 -100t113 -42q63 0 105.5 38t42.5 98v356h41v-523zM408 621h-288v36h288v-36z" />
    <glyph glyph-name="Ubreve" unicode="&#x16c;" 
d="M464 172q0 -27 -9.5 -56t-30.5 -58.5t-62 -48t-95 -18.5q-43 0 -77 12.5t-54.5 32t-34.5 45t-19 48t-5 44.5v540h41v-540q0 -40 15.5 -69.5t40.5 -44.5t48.5 -21.5t45.5 -6.5q23 0 47.5 6.5t50 21.5t41.5 44.5t16 69.5v540h41v-541zM276 814q50 0 82 20t37 60h35
q-8 -57 -49 -85t-105 -28q-138 0 -158 113h39q6 -40 38 -60t81 -20z" />
    <glyph glyph-name="ubreve" unicode="&#x16d;" horiz-adv-x="546" 
d="M459 0h-41v58q-53 -67 -148 -67q-87 0 -137.5 48.5t-50.5 133.5v350h41v-350q0 -58 34 -100t113 -42q63 0 105.5 38t42.5 98v356h41v-523zM265 646q49 0 81.5 20t37.5 60h35q-8 -57 -49 -85t-105 -28q-138 0 -158 113h39q6 -40 38 -60t81 -20z" />
    <glyph glyph-name="Uring" unicode="&#x16e;" 
d="M464 172q0 -27 -9.5 -56t-30.5 -58.5t-62 -48t-95 -18.5q-43 0 -77 12.5t-54.5 32t-34.5 45t-19 48t-5 44.5v540h41v-540q0 -40 15.5 -69.5t40.5 -44.5t48.5 -21.5t45.5 -6.5q23 0 47.5 6.5t50 21.5t41.5 44.5t16 69.5v540h41v-541zM365 853q0 -39 -28.5 -67t-67.5 -28
q-38 0 -66 28.5t-28 66.5q0 39 28 67t66 28q40 0 68 -27.5t28 -67.5zM332 853q0 26 -18.5 44.5t-44.5 18.5q-25 0 -42.5 -18.5t-17.5 -44.5q0 -25 17.5 -43t42.5 -18q26 0 44.5 18t18.5 43z" />
    <glyph glyph-name="uring" unicode="&#x16f;" horiz-adv-x="546" 
d="M459 0h-41v58q-53 -67 -148 -67q-87 0 -137.5 48.5t-50.5 133.5v350h41v-350q0 -58 34 -100t113 -42q63 0 105.5 38t42.5 98v356h41v-523zM363 680q0 -38 -28.5 -66.5t-67.5 -28.5q-38 0 -66 28.5t-28 66.5q0 39 28 67t66 28q40 0 68 -27.5t28 -67.5zM330 680
q0 26 -18.5 44.5t-44.5 18.5q-25 0 -42.5 -18.5t-17.5 -44.5q0 -25 17.5 -43t42.5 -18q26 0 44.5 18t18.5 43z" />
    <glyph glyph-name="Uhungarumlaut" unicode="&#x170;" 
d="M464 172q0 -27 -9.5 -56t-30.5 -58.5t-62 -48t-95 -18.5q-43 0 -77 12.5t-54.5 32t-34.5 45t-19 48t-5 44.5v540h41v-540q0 -40 15.5 -69.5t40.5 -44.5t48.5 -21.5t45.5 -6.5q23 0 47.5 6.5t50 21.5t41.5 44.5t16 69.5v540h41v-541zM260 916l-94 -135h-43l78 135h59z
M426 916l-96 -135h-41l78 135h59z" />
    <glyph glyph-name="uhungarumlaut" unicode="&#x171;" horiz-adv-x="546" 
d="M459 0h-41v58q-53 -67 -148 -67q-87 0 -137.5 48.5t-50.5 133.5v350h41v-350q0 -58 34 -100t113 -42q63 0 105.5 38t42.5 98v356h41v-523zM255 728l-94 -135h-43l78 135h59zM421 728l-96 -135h-41l78 135h59z" />
    <glyph glyph-name="Uogonek" unicode="&#x172;" 
d="M464 172q0 -27 -9.5 -56t-30.5 -58.5t-62 -48t-95 -18.5q-43 0 -77 12.5t-54.5 32t-34.5 45t-19 48t-5 44.5v540h41v-540q0 -40 15.5 -69.5t40.5 -44.5t48.5 -21.5t45.5 -6.5q23 0 47.5 6.5t50 21.5t41.5 44.5t16 69.5v540h41v-541zM377 -181h-55l-72 131h44z" />
    <glyph glyph-name="uogonek" unicode="&#x173;" horiz-adv-x="547" 
d="M459 0h-41v58q-53 -67 -148 -67q-87 0 -137.5 48.5t-50.5 133.5v350h41v-350q0 -58 34 -100t113 -42q63 0 105.5 38t42.5 98v356h41v-523zM549 -181h-55l-72 131h44z" />
    <glyph glyph-name="Wcircumflex" unicode="&#x174;" horiz-adv-x="779" 
d="M746 712l-149 -712h-57l-150 622l-152 -622h-57l-148 712h44l132 -670l160 670h41l159 -670l133 670h44zM504 793h-36l-79 84l-79 -84h-37l90 112h50z" />
    <glyph glyph-name="wcircumflex" unicode="&#x175;" horiz-adv-x="672" 
d="M624 523l-122 -523h-54l-112 458l-112 -458h-53l-123 523h41l109 -486l118 486h40l119 -486q61 270 108 486h41zM452 593h-36l-79 84l-79 -84h-37l90 112h50z" />
    <glyph glyph-name="Ycircumflex" unicode="&#x176;" horiz-adv-x="482" 
d="M449 713l-187 -457v-256h-41v256l-188 457h45l163 -408l163 408h45zM357 793h-36l-79 84l-79 -84h-37l90 112h50z" />
    <glyph glyph-name="ycircumflex" unicode="&#x177;" horiz-adv-x="445" 
d="M236 0h-59l-149 523h43l134 -483h40l129 483h43l-172 -633q-20 -74 -54 -97.5t-99 -23.5h-18v40h32q41 0 64 17t35 63zM340 593h-36l-79 84l-79 -84h-37l90 112h50z" />
    <glyph glyph-name="Ydieresis" unicode="&#x178;" horiz-adv-x="482" 
d="M449 713l-187 -457v-256h-41v256l-188 457h45l163 -408l163 408h45zM381 793h-59v77h59v-77zM161 793h-59v77h59v-77z" />
    <glyph glyph-name="Zacute" unicode="&#x179;" horiz-adv-x="446" 
d="M414 0h-382v44l324 629h-308v40h350v-41l-324 -631h340v-41zM289 917l-82 -136h-34l66 136h50z" />
    <glyph glyph-name="zacute" unicode="&#x17a;" horiz-adv-x="461" 
d="M413 0h-365v45l300 438h-289v40h331v-42l-300 -440h323v-41zM290 729l-82 -136h-34l66 136h50z" />
    <glyph glyph-name="Zdotaccent" unicode="&#x17b;" horiz-adv-x="446" 
d="M414 0h-382v44l324 629h-308v40h350v-41l-324 -631h340v-41zM249 793h-61v55h61v-55z" />
    <glyph glyph-name="zdotaccent" unicode="&#x17c;" horiz-adv-x="461" 
d="M413 0h-365v45l300 438h-289v40h331v-42l-300 -440h323v-41zM253 631h-61v55h61v-55z" />
    <glyph glyph-name="Zcaron" unicode="&#x17d;" horiz-adv-x="446" 
d="M414 0h-382v44l324 629h-308v40h350v-41l-324 -631h340v-41zM115 905h36l79 -84l79 84h37l-90 -112h-50z" />
    <glyph glyph-name="zcaron" unicode="&#x17e;" horiz-adv-x="461" 
d="M413 0h-365v45l300 438h-289v40h331v-42l-300 -440h323v-41zM117 705h36l79 -84l79 84h37l-90 -112h-50z" />
    <glyph glyph-name="longs" unicode="&#x17f;" horiz-adv-x="325" 
d="M165 586v-586h-41v482h-97v40h97v51q0 66 33 103t99 37h30v-40h-40q-32 0 -56.5 -21t-24.5 -66z" />
    <glyph glyph-name="florin" unicode="&#x192;" horiz-adv-x="360" 
d="M199 -106q0 -125 -132 -125h-40v40h51q34 0 57 20t23 62v591h-97v40h97v51q0 66 33 103t99 37h30v-40h-40q-32 0 -56.5 -21t-24.5 -66v-64h134v-40h-134v-588z" />
    <glyph glyph-name="Scommaaccent" unicode="&#x218;" horiz-adv-x="516" 
d="M458 172q0 -80 -59 -131t-145 -51q-90 0 -143 51t-53 131h41q0 -66 41 -103t113 -37q74 0 119 38t45 104q0 89 -83 135q-65 37 -178 95q-41 21 -65.5 60t-24.5 87q0 74 52.5 122t134.5 48q87 0 140.5 -49t53.5 -130h-40q0 66 -43 102.5t-111 36.5q-63 0 -104.5 -36.5
t-41.5 -96.5q0 -71 77 -111l169 -90q105 -57 105 -175zM279 -50l-52 -130h-46l61 130h37z" />
    <glyph glyph-name="scommaaccent" unicode="&#x219;" horiz-adv-x="495" 
d="M437 146q0 -80 -53.5 -117t-137.5 -37t-136 43t-52 117h41q0 -58 40 -89t107 -31q150 0 150 114q0 64 -80 86q-65 18 -143 34q-51 10 -79.5 43.5t-28.5 80.5q0 72 50.5 107t126.5 35q81 0 132 -40.5t55 -111.5h-42q-3 53 -40 82.5t-107 29.5q-134 0 -134 -102
q0 -71 81 -87q94 -19 143 -33q107 -30 107 -124zM274 -50l-52 -130h-46l61 130h37z" />
    <glyph glyph-name="circumflex" unicode="&#x2c6;" horiz-adv-x="405" 
d="M318 618h-36l-79 84l-79 -84h-37l90 112h50z" />
    <glyph glyph-name="caron" unicode="&#x2c7;" horiz-adv-x="405" 
d="M87 730h36l79 -84l79 84h37l-90 -112h-50z" />
    <glyph glyph-name="breve" unicode="&#x2d8;" horiz-adv-x="486" 
d="M245 641q49 0 81.5 20t37.5 60h35q-8 -57 -49 -85t-105 -28q-138 0 -158 113h39q6 -40 38 -60t81 -20z" />
    <glyph glyph-name="dotaccent" unicode="&#x2d9;" horiz-adv-x="235" 
d="M148 647h-61v55h61v-55z" />
    <glyph glyph-name="ring" unicode="&#x2da;" horiz-adv-x="365" 
d="M278 691q0 -39 -28 -67t-68 -28q-38 0 -66 28.5t-28 66.5q0 39 28 67t66 28q40 0 68 -27.5t28 -67.5zM245 691q0 26 -18.5 44.5t-44.5 18.5q-25 0 -42.5 -18.5t-17.5 -44.5q0 -25 17.5 -43t42.5 -18q26 0 44.5 18t18.5 43z" />
    <glyph glyph-name="ogonek" unicode="&#x2db;" horiz-adv-x="281" 
d="M214 -181h-55l-72 131h44z" />
    <glyph glyph-name="tilde" unicode="&#x2dc;" horiz-adv-x="474" 
d="M304 651q25 0 59 33l24 -22q-48 -44 -81 -44q-24 0 -72.5 25t-61.5 25q-27 0 -63 -31l-22 22q45 43 84 43q26 0 70.5 -25.5t62.5 -25.5z" />
    <glyph glyph-name="hungarumlaut" unicode="&#x2dd;" horiz-adv-x="477" 
d="M224 742l-94 -135h-43l78 135h59zM390 742l-96 -135h-41l78 135h59z" />
    <glyph glyph-name="pi" unicode="&#x3c0;" horiz-adv-x="652" 
d="M235 0h-40v496h-112v36h486v-36h-109v-496h-40v496h-185v-496z" />
    <glyph glyph-name="endash" unicode="&#x2013;" horiz-adv-x="537" 
d="M450 255h-363v37h363v-37z" />
    <glyph glyph-name="emdash" unicode="&#x2014;" horiz-adv-x="853" 
d="M766 255h-679v37h679v-37z" />
    <glyph glyph-name="quoteleft" unicode="&#x2018;" horiz-adv-x="204" 
d="M176 780l-73 -198h-66l123 198h16z" />
    <glyph glyph-name="quoteright" unicode="&#x2019;" horiz-adv-x="204" 
d="M176 780l-123 -198h-16l73 198h66z" />
    <glyph glyph-name="quotesinglbase" unicode="&#x201a;" horiz-adv-x="224" 
d="M186 74l-127 -203h-22l76 203h73z" />
    <glyph glyph-name="quotedblleft" unicode="&#x201c;" horiz-adv-x="360" 
d="M323 818l-76 -203h-73l127 203h22zM186 818l-75 -203h-74l128 203h21z" />
    <glyph glyph-name="quotedblright" unicode="&#x201d;" horiz-adv-x="360" 
d="M323 818l-128 -203h-21l75 203h74zM186 818l-127 -203h-22l76 203h73z" />
    <glyph glyph-name="quotedblbase" unicode="&#x201e;" horiz-adv-x="360" 
d="M323 74l-128 -203h-21l75 203h74zM186 74l-127 -203h-22l76 203h73z" />
    <glyph glyph-name="dagger" unicode="&#x2020;" horiz-adv-x="445" 
d="M240 -59h-37v552h-120v37h120v241h37v-241h122v-37h-122v-552z" />
    <glyph glyph-name="daggerdbl" unicode="&#x2021;" horiz-adv-x="445" 
d="M240 -59h-37v240h-120v37h120v276h-120v37h120v240h37v-240h122v-37h-122v-276h122v-37h-122v-240z" />
    <glyph glyph-name="bullet" unicode="&#x2022;" horiz-adv-x="371" 
d="M284 354q0 -40 -29 -69.5t-70 -29.5q-40 0 -69 29t-29 70t29 70t69 29q41 0 70 -29.5t29 -69.5z" />
    <glyph glyph-name="ellipsis" unicode="&#x2026;" horiz-adv-x="678" 
d="M595 0h-63v74h63v-74zM146 0h-63v74h63v-74zM370 0h-63v74h63v-74z" />
    <glyph glyph-name="perthousand" unicode="&#x2030;" horiz-adv-x="1082" 
d="M319 474q0 -52 -31 -82.5t-84 -30.5t-83.5 30.5t-30.5 82.5v104q0 50 31 80t83 30q54 0 84.5 -29.5t30.5 -80.5v-104zM995 102q0 -52 -31 -82.5t-83 -30.5q-54 0 -84.5 30.5t-30.5 82.5v103q0 50 31 80t84 30t83.5 -29.5t30.5 -80.5v-103zM695 102q0 -52 -31 -82.5
t-83 -30.5q-54 0 -84.5 30.5t-30.5 82.5v103q0 50 31 80t84 30t83.5 -29.5t30.5 -80.5v-103zM555 772l-269 -827h-44q209 637 271 827h42zM658 102v103q0 74 -77 74q-36 0 -57 -20t-21 -54v-103q0 -31 17.5 -52.5t60.5 -21.5q37 0 57 19.5t20 54.5zM958 102v103q0 74 -77 74
q-36 0 -57 -20t-21 -54v-103q0 -31 17.5 -52.5t60.5 -21.5q37 0 57 19.5t20 54.5zM282 474v104q0 73 -78 73q-36 0 -56.5 -19.5t-20.5 -53.5v-104q0 -31 17 -52.5t60 -21.5q37 0 57.5 19.5t20.5 54.5z" />
    <glyph glyph-name="guilsinglleft" unicode="&#x2039;" horiz-adv-x="282" 
d="M205 96l-168 167l168 168v-53l-115 -115l115 -115v-52z" />
    <glyph glyph-name="guilsinglright" unicode="&#x203a;" horiz-adv-x="281" 
d="M244 263l-167 -167v52l116 115l-116 115v53z" />
    <glyph glyph-name="fraction" unicode="&#x2044;" horiz-adv-x="545" 
d="M458 706l-330 -706h-41l330 706h41z" />
    <glyph glyph-name="Euro" unicode="&#x20ac;" horiz-adv-x="552" 
d="M504 174q0 -27 -8 -55t-26.5 -58.5t-57.5 -50t-93 -19.5q-53 0 -91 19.5t-55.5 50t-25 58t-7.5 54.5v92h-87v38h87v112h-87v39h87v87q0 26 7.5 53t26 57.5t57 49.5t92.5 19q53 0 91 -19t56 -49.5t26 -58t8 -53.5h-40q0 42 -14.5 72t-38 43.5t-45 19t-43.5 5.5t-43.5 -5.5
t-45.5 -19.5t-39 -44t-15 -73v-84h202v-39h-202v-112h202v-38h-202v-91q0 -43 15 -73t39 -44t45.5 -19.5t43.5 -5.5t44 6t45 20.5t37.5 44.5t14.5 71h40z" />
    <glyph glyph-name="trademark" unicode="&#x2122;" horiz-adv-x="709" 
d="M622 338h-30v344l-73 -240h-44l-73 240v-344h-31v374h50l76 -250l76 250h49v-374zM316 682h-99v-344h-31v344h-99v30h229v-30z" />
    <glyph glyph-name="Omega" unicode="&#x2126;" horiz-adv-x="542" 
d="M305 0v35q49 8 83.5 40t34.5 98v365q0 35 -11.5 61.5t-27.5 41.5t-38 24t-39.5 11.5t-34.5 2.5t-34.5 -2.5t-39.5 -11.5t-38.5 -24t-28 -41.5t-11.5 -61.5v-365q0 -67 34.5 -99t82.5 -39v-35h-200v34h107q-66 47 -66 139v368q0 25 9.5 53t29.5 57.5t60.5 49t94.5 19.5
q53 0 93 -19.5t60 -49t29.5 -58t9.5 -54.5v-367q0 -87 -67 -138h108v-34h-200z" />
    <glyph glyph-name="partialdiff" unicode="&#x2202;" horiz-adv-x="540" 
d="M422 173v88q0 40 -16 70t-41.5 44.5t-49 21.5t-44.5 7q-22 0 -45.5 -6t-49 -20.5t-42 -45t-16.5 -71.5v-88q0 -41 16.5 -71.5t42 -45t49 -20.5t45.5 -6q17 0 35 3.5t39.5 13t38 25t27.5 41.5t11 60zM267 720q54 0 94.5 -17.5t61.5 -45.5t30.5 -57.5t9.5 -60.5v-368
q0 -25 -9.5 -53.5t-29.5 -58t-60 -49t-93 -19.5q-54 0 -94.5 19.5t-60.5 49t-29.5 57.5t-9.5 53v92q0 26 9.5 54.5t29.5 59t59.5 50t92.5 19.5q47 0 89 -20.5t65 -57.5v170q0 35 -11.5 61.5t-28 41.5t-38.5 24.5t-40.5 12.5t-36.5 3v40z" />
    <glyph glyph-name="Delta" unicode="&#x2206;" horiz-adv-x="543" 
d="M511 0h-479l216 719h46zM462 40l-189 639l-190 -639h379z" />
    <glyph glyph-name="product" unicode="&#x220f;" horiz-adv-x="567" 
d="M484 0h-41v673h-319v-673h-41v713h401v-713z" />
    <glyph glyph-name="summation" unicode="&#x2211;" horiz-adv-x="572" 
d="M495 682h-369l311 -295v-45l-311 -305h369v-37h-418v41l328 323l-328 314v41h418v-37z" />
    <glyph glyph-name="minus" unicode="&#x2212;" horiz-adv-x="568" 
d="M466 255h-364v37h364v-37z" />
    <glyph glyph-name="radical" unicode="&#x221a;" horiz-adv-x="616" 
d="M260 -197h38l254 918h41l-265 -954h-98l-147 527h41z" />
    <glyph glyph-name="infinity" unicode="&#x221e;" horiz-adv-x="873" 
d="M253 447q92 0 147 -90l36 -59l37 59q55 90 147 90q74 0 122 -52.5t48 -134.5t-48 -134.5t-122 -52.5q-92 0 -147 90l-37 59l-36 -59q-55 -90 -147 -90q-74 0 -122 52.5t-48 134.5t48 134.5t122 52.5zM617 114q60 0 96.5 41.5t36.5 104.5t-36.5 104.5t-96.5 41.5
q-66 0 -114 -77l-43 -69l43 -69q48 -77 114 -77zM256 114q66 0 114 77l43 69l-43 69q-48 77 -114 77q-60 0 -96.5 -41.5t-36.5 -104.5t36.5 -104.5t96.5 -41.5z" />
    <glyph glyph-name="integral" unicode="&#x222b;" horiz-adv-x="339" 
d="M195 -106q0 -125 -132 -125h-40v40h51q34 0 57 20t23 62v682q0 66 33 103t99 37h30v-40h-40q-32 0 -56.5 -21t-24.5 -66v-692z" />
    <glyph glyph-name="approxequal" unicode="&#x2248;" horiz-adv-x="507" 
d="M327 324q27 0 65 33l27 -22q-52 -44 -90 -44q-28 0 -80.5 25t-66.5 25q-30 0 -70 -31l-25 22q51 43 94 43q28 0 76.5 -25.5t69.5 -25.5zM328 183q27 0 65 33l27 -22q-52 -44 -90 -44q-28 0 -80.5 25t-66.5 25q-30 0 -70 -31l-25 22q51 43 94 43q27 0 75.5 -25.5
t70.5 -25.5z" />
    <glyph glyph-name="notequal" unicode="&#x2260;" horiz-adv-x="551" 
d="M464 201h-210l-125 -271h-42l126 271h-122v37h139l54 115h-193v37h211l121 259h41l-121 -259h121v-37h-138l-54 -115h192v-37z" />
    <glyph glyph-name="lessequal" unicode="&#x2264;" horiz-adv-x="474" 
d="M371 120h-56l-262 263l259 260h57l-258 -260zM414 0h-364v37h364v-37z" />
    <glyph glyph-name="greaterequal" unicode="&#x2265;" horiz-adv-x="474" 
d="M423 383l-263 -263h-56l260 263l-258 260h57zM424 -1h-364v37h364v-37z" />
    <glyph glyph-name="lozenge" unicode="&#x25ca;" horiz-adv-x="546" 
d="M77 359l171 360h50l171 -360l-171 -359h-50q-28 60 -85.5 179.5t-85.5 179.5zM122 359l151 -324l151 324l-151 325z" />
    <glyph glyph-name="fi" unicode="&#xfb01;" horiz-adv-x="549" 
d="M165 522h288v-522h-40v484h-248v-484h-41v484h-97v38h97v51q0 66 33 103t99 37h30v-40h-40q-32 0 -56.5 -21t-24.5 -66v-64zM462 645h-59v76h59v-76z" />
    <glyph glyph-name="fl" unicode="&#xfb02;" horiz-adv-x="557" 
d="M407 129v355h-242v-483h-41v483h-97v38h97v51q0 66 33 103t99 37h30v-40h-40q-32 0 -56.5 -21t-24.5 -66v-64h242v191h41v-590q0 -43 22 -62.5t58 -19.5h6v-40h-11q-52 0 -84 31.5t-32 96.5z" />
    </font>
</defs>
</svg>
