<?xml version="1.0" standalone="no"?>
<!DOCTYPE svg PUBLIC "-//W3C//DTD SVG 1.1//EN" "http://www.w3.org/Graphics/SVG/1.1/DTD/svg11.dtd" >
<svg xmlns="http://www.w3.org/2000/svg" xmlns:xlink="http://www.w3.org/1999/xlink" version="1.1">
<metadata>
Created by FontForge 20150318 at Tue Mar 24 19:42:34 2015
 By uniteet7
Published by Die Gestalten Verlag GmbH &#38; Co. KG, 2008
Copyright (c) by Binnenland, 2006, Designed by Mika Mischler / 2002-2006 All rights reserved. This software may not be reproduced, used, displayed, modified, disclosed or transferred without the express written approval of (Binnenland).
</metadata>
<defs>
<font id="TSTARPRO-MediumItalic" horiz-adv-x="543" >
  <font-face 
    font-family="TSTAR PRO Medium Italic"
    font-weight="500"
    font-style="italic"
    font-stretch="normal"
    units-per-em="1000"
    panose-1="2 0 8 6 3 0 0 2 0 4"
    ascent="774"
    descent="-226"
    x-height="525"
    cap-height="713"
    bbox="-67 -226 1029.18 972"
    underline-thickness="51"
    underline-position="-89"
    unicode-range="U+0020-FB02"
  />
<missing-glyph horiz-adv-x="1000" 
 />
    <glyph glyph-name=".notdef" horiz-adv-x="1000" 
 />
    <glyph glyph-name=".null" horiz-adv-x="0" 
 />
    <glyph glyph-name="nonmarkingreturn" horiz-adv-x="333" 
 />
    <glyph glyph-name="space" unicode=" " horiz-adv-x="220" 
 />
    <glyph glyph-name="exclam" unicode="!" horiz-adv-x="262" 
d="M167 181h-75l103 532h75zM147 0h-102l20 102h102z" />
    <glyph glyph-name="quotedbl" unicode="&#x22;" horiz-adv-x="352" 
d="M198 539h-74l32 163h74zM316 539h-74l32 163h74z" />
    <glyph glyph-name="numbersign" unicode="#" horiz-adv-x="667" 
d="M635 426h-111l-47 -132h102l-13 -67h-112l-74 -207h-69l72 207h-130l-76 -207h-69l74 207h-92l13 67h102l47 132h-92l13 65h101l69 190h70l-67 -190h130l70 190h69l-69 -190h102zM453 426h-130l-48 -132h131z" />
    <glyph glyph-name="dollar" unicode="$" horiz-adv-x="523" 
d="M472 182q-14 -75 -71 -126.5t-141 -62.5l-12 -61h-74l12 61q-77 10 -113 62t-22 124h76q-11 -54 17 -83.5t91 -29.5t107 33t55 85q13 70 -49 111q-25 17 -76 46t-74 43q-39 23 -57 64t-8 92q14 71 64 119t129 58l12 61h74l-12 -61q72 -11 108 -62t22 -123h-77
q11 55 -15.5 84t-88.5 29q-52 0 -91.5 -28.5t-48.5 -78.5q-12 -60 44 -93q94 -51 145 -82q98 -61 74 -181z" />
    <glyph glyph-name="percent" unicode="%" horiz-adv-x="829" 
d="M741 138q-12 -60 -52 -94.5t-106 -34.5q-60 0 -89 35t-18 94l20 102q12 61 52 95.5t105 34.5q61 0 90.5 -35t17.5 -95zM664 704l-365 -704h-78l367 704h76zM399 464q-12 -61 -51.5 -95.5t-105.5 -34.5q-61 0 -89.5 35t-17.5 95l20 102q12 60 52 95t106 35
q61 0 89.5 -35.5t16.5 -94.5zM669 138l20 102q2 15 3 28t-12 22t-41 9q-60 0 -71 -59l-20 -102q-2 -14 -3 -26.5t11.5 -22t40.5 -9.5q61 0 72 58zM328 464l20 102q2 14 3.5 27t-11.5 22t-41 9q-59 0 -72 -58l-20 -102q-2 -15 -3 -27.5t11.5 -21.5t40.5 -9q61 0 72 58z" />
    <glyph glyph-name="ampersand" unicode="&#x26;" horiz-adv-x="650" 
d="M567 166l-59 -60l-30 30q-33 -75 -95 -110t-138 -35q-85 0 -138.5 50t-33.5 154q11 58 49.5 106t96.5 78l15 8q-43 39 -56.5 75t-4.5 84q17 88 81 130.5t141 42.5q86 0 133 -53t30 -139h-77q11 55 -15 86t-86 31q-112 0 -131 -100q-6 -31 2 -49.5t31 -41.5zM260 67
q55 0 100.5 29t59.5 98v1l-137 140q-15 -5 -41 -19q-77 -45 -92 -122q-25 -127 110 -127z" />
    <glyph glyph-name="quotesingle" unicode="'" horiz-adv-x="236" 
d="M200 540h-76l32 162h76z" />
    <glyph glyph-name="parenleft" unicode="(" horiz-adv-x="297" 
d="M178 -41l-56 -50q-51 58 -59 84q-12 37 -1 93l102 525q11 56 37 92q21 30 87 82l40 -55l-20 -18q-22 -20 -31.5 -29t-21.5 -30t-17 -48l-99 -513q-7 -45 -2 -66.5t27 -48.5z" />
    <glyph glyph-name="parenright" unicode=")" horiz-adv-x="297" 
d="M199 86q-11 -59 -37 -93q-19 -28 -86 -82l-39 57l14 11q25 17 48 48q20 32 27 65l99 513q10 49 5 69q-8 22 -28 48l-10 12l54 50q45 -52 54 -81q12 -33 2 -92z" />
    <glyph glyph-name="asterisk" unicode="*" horiz-adv-x="578" 
d="M486 467l-39 -56l-89 63l-18 -112h-65l23 111q-14 -8 -49.5 -27t-52.5 -28l-24 55l108 54l-87 53l37 55l89 -60l19 113h65l-26 -113l102 55l27 -54l-108 -55z" />
    <glyph glyph-name="plus" unicode="+" horiz-adv-x="565" 
d="M511 247h-172l-35 -178h-72l35 178h-172l13 71h172l33 166h72l-33 -166h172z" />
    <glyph glyph-name="comma" unicode="," horiz-adv-x="303" 
d="M244 106l-187 -226h-55l128 226h114z" />
    <glyph glyph-name="hyphen" unicode="-" horiz-adv-x="457" 
d="M397 247h-297l14 71h297z" />
    <glyph glyph-name="period" unicode="." horiz-adv-x="265" 
d="M183 0h-113l22 113h113z" />
    <glyph glyph-name="slash" unicode="/" horiz-adv-x="500" 
d="M533 759l-422 -811h-76l424 811h74z" />
    <glyph glyph-name="zero" unicode="0" horiz-adv-x="521" 
d="M451 182q-6 -29 -18 -57t-37 -61t-70 -53t-105 -20q-45 0 -77.5 14t-48 35t-23 48.5t-7 50.5t4.5 44l67 348q6 29 18 56t36.5 59.5t69.5 52.5t105 20q45 0 77.5 -13.5t48 -35t24.5 -47t7 -50t-4 -43.5zM375 184l67 344q22 116 -91 116q-44 0 -84 -25t-53 -91l-67 -344
q-23 -117 92 -117q26 0 50 7t50.5 35t35.5 75z" />
    <glyph glyph-name="one" unicode="1" horiz-adv-x="525" 
d="M414 0h-370l14 75h144l109 559l-107 -8l15 73l185 15l-125 -639h149z" />
    <glyph glyph-name="two" unicode="2" horiz-adv-x="521" 
d="M530 522q-18 -88 -99 -149q-32 -24 -113 -67.5t-114 -67.5q-34 -24 -53 -47.5t-26 -59.5l-11 -55h327l-14 -76h-404l26 136q17 91 125 165q26 17 105.5 59.5t110.5 64.5q52 37 64 96q24 122 -101 122q-56 0 -99 -33t-55 -91h-77q18 89 83.5 144.5t161.5 55.5
q90 0 135 -54.5t28 -142.5z" />
    <glyph glyph-name="three" unicode="3" horiz-adv-x="521" 
d="M535 637l-184 -218q44 -7 73 -27.5t39 -46t13.5 -54t-3.5 -52.5l-11 -53q-4 -22 -13 -45.5t-28 -51t-44.5 -48.5t-65 -35.5t-87.5 -14.5q-46 0 -80 13.5t-50.5 35t-27 48.5t-9 54.5t4.5 51.5h77q-14 -72 16.5 -99.5t81.5 -27.5q28 0 55 7.5t55.5 36t37.5 75.5l10 51
q23 113 -104 113h-41l14 71l180 215h-266l15 77h357z" />
    <glyph glyph-name="four" unicode="4" horiz-adv-x="521" 
d="M420 0h-77l39 200h-312l15 78l245 435h80l-244 -437h231l51 264h77z" />
    <glyph glyph-name="five" unicode="5" horiz-adv-x="519" 
d="M518 636h-256l-53 -201h103q83 0 132 -55.5t32 -142.5l-9 -47q-17 -87 -85.5 -143t-159.5 -56q-86 0 -135 56.5t-31 147.5h77q-24 -128 103 -128q54 0 98.5 32.5t55.5 89.5l9 46q11 54 -13 89.5t-91 35.5h-178l15 76l75 276h326z" />
    <glyph glyph-name="six" unicode="6" horiz-adv-x="521" 
d="M518 519h-77q14 73 -12.5 99t-76.5 26q-28 0 -55 -7.5t-56 -35.5t-38 -74l-22 -117q61 43 134 43q45 0 78.5 -13t50.5 -34t27 -47t9 -51t-3 -46l-16 -82q-4 -21 -13 -43.5t-28 -49.5t-44 -47.5t-65.5 -34.5t-89.5 -14q-45 0 -78 13.5t-49.5 34.5t-27.5 46.5t-10 49.5
t3 43l68 351q5 28 19.5 57t41 61t73.5 52t106 20q44 0 76.5 -14t47.5 -36.5t24 -49.5t7 -53t-4 -47zM385 183l15 78q7 36 -0.5 60.5t-26 36t-37 16t-40.5 4.5q-18 0 -37 -4.5t-42 -16t-40.5 -36t-24.5 -60.5l-15 -78q-13 -66 18.5 -91.5t80.5 -25.5q27 0 53.5 7t56.5 35.5
t39 74.5z" />
    <glyph glyph-name="seven" unicode="7" horiz-adv-x="519" 
d="M559 640l-362 -640h-78l363 637h-344l14 76h421z" />
    <glyph glyph-name="eight" unicode="8" horiz-adv-x="519" 
d="M471 198q-5 -26 -14 -51t-28.5 -54t-45.5 -51t-68 -36.5t-93 -14.5q-47 0 -81.5 14.5t-52 37t-28.5 50.5t-9.5 55t3.5 50q9 46 40 92.5t85 75.5q-34 29 -48 72.5t-6 85.5q5 25 14 49t27.5 51.5t43.5 47.5t65 33.5t89 13.5q45 0 78.5 -13t51 -34t28 -47t9.5 -52t-3 -49
q-8 -42 -40.5 -87t-82.5 -72q44 -29 59.5 -76.5t6.5 -90.5zM394 198q13 62 -15 96t-91 34q-57 0 -101 -35t-56 -95q-7 -40 0 -67.5t26 -40.5t38 -18t42 -5q19 0 39.5 5t45.5 17.5t45 40.5t27 68zM451 524q13 68 -19.5 94t-82.5 26q-25 0 -52 -7.5t-57 -36.5t-39 -76
q-11 -58 14.5 -89.5t86.5 -31.5q56 0 97 32.5t52 88.5z" />
    <glyph glyph-name="nine" unicode="9" horiz-adv-x="521" 
d="M461 182q-4 -22 -12.5 -44.5t-27.5 -50t-44 -48t-65 -34.5t-89 -14q-44 0 -76 14.5t-47.5 36.5t-25 49t-8 53t3.5 47h76q-22 -124 93 -124q28 0 54 7t54.5 35t37.5 75l23 117q-64 -44 -135 -44q-45 0 -78.5 14t-50 35.5t-27 47.5t-9.5 50.5t3 44.5l16 82q5 27 19 55.5
t40.5 60.5t73 52t106.5 20q45 0 78.5 -13.5t50.5 -34t28 -46t10 -49.5t-3 -43zM436 450l16 78q22 116 -101 116q-26 0 -52.5 -7t-56 -35t-38.5 -74l-16 -78q-7 -36 0.5 -60.5t25.5 -36t36.5 -16t40.5 -4.5q19 0 38 4.5t42 16t40.5 36t24.5 60.5z" />
    <glyph glyph-name="colon" unicode=":" horiz-adv-x="265" 
d="M168 0h-113l22 113h113zM229 314h-113l22 113h113z" />
    <glyph glyph-name="semicolon" unicode=";" horiz-adv-x="268" 
d="M199 106l-186 -226h-54l127 226h113zM228 314h-113l22 113h113z" />
    <glyph glyph-name="less" unicode="&#x3c;" horiz-adv-x="525" 
d="M414 1l-97 -1l-212 264l311 262h107l-317 -268z" />
    <glyph glyph-name="equal" unicode="=" horiz-adv-x="595" 
d="M514 327h-363l13 71h363zM486 186h-363l14 71h363z" />
    <glyph glyph-name="greater" unicode="&#x3e;" horiz-adv-x="528" 
d="M473 264l-316 -264h-116l328 276l-200 250h93z" />
    <glyph glyph-name="question" unicode="?" horiz-adv-x="452" 
d="M242 182h-76l9 44q14 77 70 129q20 18 64.5 48t65.5 49q34 30 42 69q23 123 -100 123q-19 0 -37.5 -4.5t-42 -16t-42 -37.5t-27.5 -64h-77q6 30 20.5 60.5t41 63t73 53t105.5 20.5q89 0 134 -55.5t28 -141.5q-11 -61 -67 -113q-18 -16 -66 -49t-68 -52q-31 -26 -41 -79z
M222 0h-103l20 103h103z" />
    <glyph glyph-name="at" unicode="@" horiz-adv-x="613" 
d="M486 19h-75l4 22q-31 -22 -71 -22q-63 0 -96 33t-20 102l37 192q13 67 57 101t109 34q39 0 65 -22l14 70q7 35 0 60t-24.5 36.5t-36 16t-40.5 4.5q-19 0 -39 -5t-44 -16.5t-42 -37t-25 -60.5l-107 -550q-7 -35 2.5 -60t29.5 -37t40 -17.5t40 -5.5l-14 -75q-49 0 -85 13.5
t-53.5 35t-28.5 47t-10 50.5t3 46l109 558q5 27 18.5 55.5t39.5 60.5t73 52t107 20q45 0 78.5 -13.5t50 -35t27 -47t9.5 -50t-3 -43.5zM438 158l36 187q12 65 -59 65q-29 0 -51 -16.5t-28 -51.5l-36 -183q-7 -36 5.5 -52t46.5 -16q31 0 55 16.5t31 50.5z" />
    <glyph glyph-name="A" unicode="A" horiz-adv-x="550" 
d="M490 0h-75l-13 201h-241l-93 -201h-77l323 713h125zM397 276l-24 366h-13l-166 -366h203z" />
    <glyph glyph-name="B" unicode="B" horiz-adv-x="553" 
d="M490 189q-6 -29 -18 -56.5t-36.5 -60t-69.5 -52.5t-105 -20h-216l138 713h211q46 0 78.5 -13.5t48 -33.5t22.5 -47t6.5 -48t-4.5 -43l-3 -12q-7 -38 -35.5 -82.5t-75.5 -65.5q33 -13 50 -44t16 -59.5t-3 -51.5zM466 518l1 9q13 67 -13 88.5t-76 21.5h-132l-45 -232h138
q104 0 127 113zM414 191l4 21q14 68 -12.5 93t-77.5 25h-142l-49 -254h137q19 0 37.5 4.5t40.5 15.5t38.5 35.5t23.5 59.5z" />
    <glyph glyph-name="C" unicode="C" horiz-adv-x="526" 
d="M473 182q-5 -28 -19 -57t-40.5 -61.5t-73 -52.5t-106.5 -20q-45 0 -78.5 14t-50.5 35.5t-27.5 47.5t-9.5 50.5t3 44.5l67 348q5 28 19 56t40 60t73 52t107 20q45 0 78.5 -13.5t50 -35t27.5 -47t10.5 -50t-2.5 -43.5h-77q22 114 -102 114q-19 0 -38.5 -4.5t-43 -15.5
t-41.5 -35.5t-25 -59.5l-67 -346q-23 -116 103 -116q18 0 37.5 4.5t43 15.5t41 35.5t24.5 59.5h77z" />
    <glyph glyph-name="D" unicode="D" horiz-adv-x="553" 
d="M485 191q-6 -29 -18 -57t-36 -61t-68 -53t-103 -20h-215l139 714h211q46 0 79 -14t48.5 -35t24.5 -47t7 -50t-4 -43zM409 192l64 330q23 116 -93 116h-134l-110 -563h136q44 0 84 25.5t53 91.5z" />
    <glyph glyph-name="E" unicode="E" horiz-adv-x="515" 
d="M430 0h-385l138 713h385l-14 -76h-309l-43 -222h286l-15 -76h-286l-52 -264h309z" />
    <glyph glyph-name="F" unicode="F" horiz-adv-x="505" 
d="M554 637h-309l-44 -223h286l-14 -76h-286l-66 -338h-76l138 713h385z" />
    <glyph glyph-name="G" unicode="G" 
d="M473 182q-5 -28 -19.5 -57t-41 -61t-73.5 -52.5t-106 -20.5q-55 0 -93 21t-51.5 51t-19.5 63t2 57l67 348q5 28 19 56t40 60t73 52t107 20q45 0 78.5 -13t50.5 -34t28 -46.5t10 -50t-3 -45.5h-77q22 113 -102 113q-19 0 -38.5 -4.5t-43 -15t-41.5 -35t-25 -59.5l-67 -346
q-23 -115 103 -115q19 0 38 4t42.5 15t41.5 36t25 60l26 134h-147l14 76h224z" />
    <glyph glyph-name="H" unicode="H" horiz-adv-x="577" 
d="M462 0h-77l65 336h-263l-65 -336h-77l138 713h77l-58 -301h263l58 301h77z" />
    <glyph glyph-name="I" unicode="I" horiz-adv-x="237" 
d="M183 713h77l-138 -713h-77z" />
    <glyph glyph-name="J" unicode="J" horiz-adv-x="458" 
d="M383 181q-37 -190 -218 -190q-84 0 -122 51.5t-23 136.5h76q-12 -64 12 -88t72 -24q106 0 126 108l90 462h-213l15 76h289z" />
    <glyph glyph-name="K" unicode="K" horiz-adv-x="524" 
d="M462 0h-86l-127 328l-81 -91l-46 -237h-77l138 713h77l-65 -339l305 339h95l-290 -324z" />
    <glyph glyph-name="L" unicode="L" horiz-adv-x="479" 
d="M429 0h-384l138 713h76l-124 -638h308z" />
    <glyph glyph-name="M" unicode="M" horiz-adv-x="665" 
d="M122 0h-77l138 713h91l84 -385l231 385h99l-138 -713h-77l111 569l-212 -350h-65l-74 350z" />
    <glyph glyph-name="N" unicode="N" horiz-adv-x="568" 
d="M453 0h-88l-134 560l-109 -560h-77l138 713h86l136 -568l110 568h76z" />
    <glyph glyph-name="O" unicode="O" 
d="M473 182q-5 -28 -19 -57t-40.5 -61.5t-73 -52.5t-106.5 -20q-45 0 -78.5 14t-50.5 35.5t-27.5 47.5t-9.5 50.5t3 44.5l67 348q5 28 19 56t40 60t73 52t107 20q45 0 78.5 -13.5t50 -35t27.5 -47t10.5 -50t-2.5 -43.5zM397 183l67 346q22 115 -102 115q-19 0 -38.5 -4.5
t-43 -15.5t-41.5 -35.5t-25 -59.5l-67 -346q-23 -116 103 -116q19 0 38 4.5t42.5 15.5t41.5 36t25 60z" />
    <glyph glyph-name="P" unicode="P" horiz-adv-x="528" 
d="M540 472q-6 -30 -18 -57.5t-36 -60.5t-68 -53t-103 -20h-138l-55 -281h-77l138 713h211q46 0 79.5 -14t48.5 -35t24.5 -47t7.5 -50t-4 -43zM464 473l9 49q13 68 -16 91.5t-79 23.5h-132l-55 -280h134q19 0 37.5 4.5t40 15.5t38 35.5t23.5 60.5z" />
    <glyph glyph-name="Q" unicode="Q" 
d="M184 -106l20 100q-54 10 -87 46t-40.5 73t-1.5 70l68 348q5 28 19 56t40 60t73 52t107 20q45 0 78.5 -13.5t50 -35t27.5 -47t10.5 -50t-2.5 -43.5l-68 -348q-5 -27 -16.5 -53t-33.5 -57t-62 -52.5t-92 -26.5l-19 -99h-71zM401 183l68 346q22 115 -102 115
q-19 0 -38.5 -4.5t-43 -15.5t-41.5 -35.5t-25 -59.5l-68 -346q-19 -100 68 -112l26 134h71l-27 -135q39 6 70.5 33t41.5 80z" />
    <glyph glyph-name="R" unicode="R" horiz-adv-x="553" 
d="M466 0h-87l-82 301h-117l-58 -301h-77l138 713h211q46 0 79.5 -13.5t49 -35t25 -47t7.5 -49.5t-4 -43l-7 -34q-28 -148 -164 -183zM468 492l5 30q13 68 -16 91.5t-79 23.5h-132l-51 -261h134q27 0 51.5 7t51.5 35t36 74z" />
    <glyph glyph-name="S" unicode="S" horiz-adv-x="523" 
d="M472 182q-16 -84 -85.5 -138t-165.5 -54q-93 0 -139.5 54.5t-30.5 134.5h76q-11 -54 17 -83.5t91 -29.5t107 33t55 85q13 70 -49 111q-25 17 -76 46t-74 43q-39 23 -57 64t-8 92q15 80 77 130t154 50q90 0 136.5 -53t29.5 -135h-77q11 55 -15.5 84t-88.5 29
q-52 0 -91.5 -28.5t-48.5 -78.5q-12 -60 44 -93q94 -51 145 -82q98 -61 74 -181z" />
    <glyph glyph-name="T" unicode="T" horiz-adv-x="477" 
d="M540 636h-174l-124 -636h-77l124 636h-174l14 77h425z" />
    <glyph glyph-name="U" unicode="U" horiz-adv-x="544" 
d="M475 182q-6 -30 -19.5 -59t-39.5 -61t-72.5 -51.5t-106.5 -19.5q-46 0 -80.5 13.5t-51.5 35t-28 47t-9.5 50.5t3.5 46l103 530h77l-103 -530q-23 -116 102 -116q19 0 38.5 4.5t43 15.5t41.5 35.5t25 60.5l103 530h77z" />
    <glyph glyph-name="V" unicode="V" horiz-adv-x="533" 
d="M531 713h79l-315 -713h-125l-41 713h74l34 -640h14z" />
    <glyph glyph-name="W" unicode="W" horiz-adv-x="794" 
d="M871 713l-287 -713h-93l-22 550l-237 -550h-93l-10 713h77l2 -593l254 592h74l22 -591l233 592h80z" />
    <glyph glyph-name="X" unicode="X" horiz-adv-x="507" 
d="M446 0h-84l-85 280l-194 -280h-92l253 358l-114 355h82l86 -282l195 282h89l-250 -357z" />
    <glyph glyph-name="Y" unicode="Y" horiz-adv-x="504" 
d="M581 713l-276 -456l-50 -257h-77l50 259l-99 454h77l76 -360l211 360h88z" />
    <glyph glyph-name="Z" unicode="Z" horiz-adv-x="458" 
d="M393 0h-397l13 70l407 567h-283l14 76h368l-13 -67l-407 -571h312z" />
    <glyph glyph-name="bracketleft" unicode="[" horiz-adv-x="316" 
d="M187 -81h-156l164 844h156l-14 -69h-85l-137 -705h85z" />
    <glyph glyph-name="backslash" unicode="\" horiz-adv-x="503" 
d="M374 -54h-73l-109 810h75z" />
    <glyph glyph-name="bracketright" unicode="]" horiz-adv-x="316" 
d="M187 -81h-156l13 70h85l137 705h-85l14 69h156z" />
    <glyph glyph-name="asciicircum" unicode="^" horiz-adv-x="507" 
d="M454 416h-75l-60 175l-127 -175h-85l193 264h66z" />
    <glyph glyph-name="underscore" unicode="_" horiz-adv-x="521" 
d="M506 -157h-528l13 65h528z" />
    <glyph glyph-name="grave" unicode="`" horiz-adv-x="328" 
d="M290 567h-66l-66 163h83z" />
    <glyph glyph-name="a" unicode="a" horiz-adv-x="522" 
d="M491 364l-71 -364h-76l10 50q-52 -59 -151 -59q-72 0 -115 43.5t-26 127.5q14 73 65 111t131 38h146l10 50q11 56 -10.5 77.5t-78.5 21.5q-106 0 -129 -97h-75q19 87 81 129t137 42q77 0 123 -41.5t29 -128.5zM379 179l12 61h-144q-96 0 -110 -78q-11 -55 14 -75.5
t79 -20.5q51 0 95 31t54 82z" />
    <glyph glyph-name="b" unicode="b" horiz-adv-x="535" 
d="M465 180q-17 -88 -76.5 -139t-152.5 -51q-33 0 -64.5 14.5t-43.5 36.5l-8 -41h-75l139 713h75l-45 -231q49 52 128 52q89 0 130.5 -50.5t24.5 -138.5zM390 180l32 165q4 28 4 53.5t-24.5 43.5t-73.5 18q-56 0 -93 -30t-48 -85l-32 -165q-6 -20 -4.5 -40t8 -37t30.5 -27.5
t62 -10.5q55 0 92 30.5t47 84.5z" />
    <glyph glyph-name="c" unicode="c" horiz-adv-x="513" 
d="M345 534q85 0 127.5 -49t31.5 -134h-76q6 48 -13.5 78.5t-84.5 30.5q-57 0 -95 -30.5t-48 -84.5l-32 -165q-3 -27 -2.5 -52.5t26 -44t75.5 -18.5q51 0 87.5 28t51.5 79h76q-23 -85 -82.5 -133.5t-147.5 -48.5q-90 0 -133.5 51.5t-26.5 138.5l32 165q17 87 78.5 138
t155.5 51z" />
    <glyph glyph-name="d" unicode="d" horiz-adv-x="537" 
d="M178 345l-32 -165q-22 -115 95 -115q118 0 140 115l32 165q24 115 -95 115q-116 0 -140 -115zM70 180l32 165q18 89 77 139t153 50q80 0 108 -52l45 231h76l-139 -713h-76l8 41q-19 -23 -53.5 -37t-74.5 -14q-87 0 -129.5 52t-26.5 138z" />
    <glyph glyph-name="e" unicode="e" horiz-adv-x="528" 
d="M504 345l-21 -106h-317l-11 -59q-3 -27 -2.5 -52.5t26 -44t75.5 -18.5q51 0 87.5 28t51.5 79h76q-23 -85 -82.5 -133.5t-147.5 -48.5q-90 0 -133.5 51.5t-26.5 138.5l32 165q17 87 78.5 138t155.5 51q89 0 132.5 -51t26.5 -138zM422 313l6 32q6 20 4 40.5t-9.5 37t-31 27
t-61.5 10.5q-57 0 -95 -30.5t-48 -84.5l-6 -32h241z" />
    <glyph glyph-name="f" unicode="f" horiz-adv-x="332" 
d="M363 450h-124l-87 -450h-75l87 450h-91l15 75h91l8 39q14 72 53.5 110.5t115.5 38.5h47l-14 -74h-56q-23 0 -43 -15t-26 -48l-10 -51h124z" />
    <glyph glyph-name="g" unicode="g" horiz-adv-x="536" 
d="M356 -42l17 83q-45 -51 -126 -51q-89 0 -131.5 51t-25.5 139l32 165q17 88 76.5 138.5t153.5 50.5q34 0 65.5 -13.5t41.5 -35.5l8 41h76l-111 -568q-36 -184 -227 -184q-74 0 -117 41t-38 113h76q-1 -40 21 -59.5t72 -19.5q24 0 42 3.5t38.5 13.5t35 33.5t21.5 58.5z
M400 180l32 165q6 20 4.5 40.5t-8 37t-29.5 27t-61 10.5q-56 0 -93 -30t-47 -85l-32 -165q-4 -27 -4 -52.5t24.5 -44t74.5 -18.5q55 0 92 30.5t47 84.5z" />
    <glyph glyph-name="h" unicode="h" horiz-adv-x="542" 
d="M431 0h-75l67 345q4 21 5.5 32.5t-1 29.5t-11 28t-28.5 17.5t-51 7.5q-54 0 -97 -32t-53 -81l-67 -347h-75l138 713h75l-46 -237q53 58 140 58q89 0 126 -49.5t20 -139.5z" />
    <glyph glyph-name="i" unicode="i" horiz-adv-x="252" 
d="M129 0h-75l102 526h75zM255 612h-92l21 108h92z" />
    <glyph glyph-name="j" unicode="j" horiz-adv-x="243" 
d="M113 -89q-27 -137 -151 -137h-29l14 75h24q55 0 65 57l121 620h76zM257 612h-91l21 108h91z" />
    <glyph glyph-name="k" unicode="k" horiz-adv-x="511" 
d="M441 0h-84l-111 248l-93 -84l-32 -164h-76l139 720h76l-86 -446l279 252h105l-256 -227z" />
    <glyph glyph-name="l" unicode="l" horiz-adv-x="252" 
d="M67 136l113 584h76l-114 -588q-6 -33 4 -45.5t40 -12.5h24l-14 -74h-29q-56 0 -84.5 33.5t-15.5 102.5z" />
    <glyph glyph-name="m" unicode="m" horiz-adv-x="751" 
d="M723 382l-74 -382h-75l72 375q8 40 -3 62.5t-56 22.5q-108 0 -134 -126l-64 -334h-75l72 372q16 88 -57 88q-110 0 -135 -127l-64 -333h-76l102 527h76l-8 -42q49 49 125 49t100 -65q63 65 157 65q50 0 80 -24.5t37 -57.5t0 -70z" />
    <glyph glyph-name="n" unicode="n" horiz-adv-x="542" 
d="M440 0h-75l67 345q4 21 5.5 32.5t-1 29.5t-11 28t-28.5 17.5t-51 7.5q-54 0 -97 -32t-53 -81l-67 -347h-75l102 525h75l-10 -48q51 57 139 57t126 -50t21 -139z" />
    <glyph glyph-name="o" unicode="o" horiz-adv-x="533" 
d="M472 180q-17 -87 -78.5 -138.5t-154.5 -51.5q-90 0 -133.5 51.5t-26.5 138.5l32 165q17 87 78.5 138t155.5 51q89 0 132.5 -51t26.5 -138zM396 180l32 165q6 20 4 40.5t-9.5 37t-31 27t-61.5 10.5q-57 0 -95 -30.5t-48 -84.5l-32 -165q-3 -27 -2.5 -52.5t26 -44
t75.5 -18.5q56 0 94 30.5t48 84.5z" />
    <glyph glyph-name="p" unicode="p" horiz-adv-x="536" 
d="M486 180q-18 -90 -76.5 -140t-153.5 -50q-34 0 -65.5 14.5t-42.5 36.5l-52 -267h-75l146 752h75l-8 -40q31 27 58.5 37.5t68.5 10.5q88 0 130.5 -51.5t26.5 -137.5zM411 180l32 165q22 115 -96 115t-140 -115l-32 -165q-22 -115 95 -115t141 115z" />
    <glyph glyph-name="q" unicode="q" horiz-adv-x="536" 
d="M198 345l-32 -165q-4 -27 -4 -52.5t24.5 -44t74.5 -18.5q55 0 92 30.5t47 84.5l32 165q6 20 4.5 40.5t-8 37t-29.5 27t-61 10.5q-56 0 -93 -30t-47 -85zM90 180l32 165q17 88 76.5 138.5t153.5 50.5q33 0 64 -14.5t43 -35.5l8 42h76l-146 -752h-76l52 267
q-48 -51 -126 -51q-89 0 -131.5 51t-25.5 139z" />
    <glyph glyph-name="r" unicode="r" horiz-adv-x="322" 
d="M353 450h-43q-36 0 -70 -28.5t-46 -87.5l-65 -334h-75l102 525h75l-9 -48q48 48 103 48h42z" />
    <glyph glyph-name="s" unicode="s" horiz-adv-x="492" 
d="M445 156q-31 -164 -228 -164q-86 0 -130.5 48.5t-28.5 131.5h75q-20 -105 99 -105q121 0 138 89q9 46 -46 63q-21 6 -68.5 17.5t-58.5 14.5q-48 12 -73.5 47t-16.5 83q15 78 71.5 115t141.5 37q84 0 128.5 -45t31.5 -125h-76q6 48 -16.5 72t-84.5 24q-106 0 -121 -78
q-4 -21 9 -37t38 -22q119 -30 132 -34q47 -15 70.5 -48.5t13.5 -83.5z" />
    <glyph glyph-name="t" unicode="t" horiz-adv-x="359" 
d="M73 450l15 75h100l36 188h75l-36 -188h115l-15 -75h-115l-61 -318q-7 -32 3 -45t40 -13h62l-14 -74h-66q-56 0 -85 33.5t-15 102.5l61 314h-100z" />
    <glyph glyph-name="u" unicode="u" horiz-adv-x="545" 
d="M439 0h-76l8 41q-48 -50 -128 -50q-89 0 -132 51t-26 138l68 346h76l-68 -346q-6 -20 -4.5 -40t8.5 -36.5t30.5 -27t61.5 -10.5q53 0 91.5 29.5t48.5 79.5l69 351h76z" />
    <glyph glyph-name="v" unicode="v" horiz-adv-x="456" 
d="M209 72h6l214 454h82l-250 -526h-118l-46 526h75z" />
    <glyph glyph-name="w" unicode="w" horiz-adv-x="696" 
d="M731 526l-225 -526h-89l-19 389l-171 -389h-88l-22 526h76l12 -411l181 411h72l21 -412l172 412h80z" />
    <glyph glyph-name="x" unicode="x" horiz-adv-x="466" 
d="M419 0h-84l-84 198l-163 -198h-92l218 265l-117 261h83l85 -203l162 203h92l-219 -266z" />
    <glyph glyph-name="y" unicode="y" horiz-adv-x="450" 
d="M197 0h-44l-45 526h79l35 -454h7l208 454h79l-289 -626q-36 -79 -74 -102.5t-112 -23.5h-36l15 75h48q31 0 50.5 11.5t33.5 42.5z" />
    <glyph glyph-name="z" unicode="z" horiz-adv-x="449" 
d="M382 0h-367l13 68l333 382h-249l14 75h337l-13 -68l-334 -383h280z" />
    <glyph glyph-name="braceleft" unicode="{" horiz-adv-x="314" 
d="M186 -68h-34q-64 0 -86 28.5t-10 91.5l115 593q12 62 45.5 90.5t97.5 28.5h34l-13 -69h-29q-37 0 -48 -11.5t-18 -49.5l-112 -575q-8 -35 -1 -46t44 -11h29z" />
    <glyph glyph-name="bar" unicode="|" horiz-adv-x="231" 
d="M106 -55h-71l158 813h71z" />
    <glyph glyph-name="braceright" unicode="}" horiz-adv-x="318" 
d="M214 51q-12 -63 -45.5 -91.5t-100.5 -28.5h-36l14 70h38q32 0 42.5 9.5t17.5 46.5l112 579q9 39 3 48.5t-46 9.5h-32l13 69h36q65 0 88 -28t11 -91z" />
    <glyph glyph-name="asciitilde" unicode="~" horiz-adv-x="546" 
d="M451 322l43 -40q-53 -43 -75.5 -54.5t-58.5 -11.5q-24 0 -65 22.5t-74 22.5q-30 0 -77 -40l-40 40q51 43 74 55t58 12q25 0 65.5 -23t73.5 -23q29 0 76 40z" />
    <glyph glyph-name="exclamdown" unicode="&#xa1;" horiz-adv-x="262" 
d="M147 361h75l-104 -532h-75zM167 542h102l-20 -102h-102z" />
    <glyph glyph-name="cent" unicode="&#xa2;" horiz-adv-x="513" 
d="M393 172h76q-42 -161 -195 -180l-26 -136h-71l26 136q-74 9 -107 58.5t-17 129.5l32 165q15 79 65.5 128t131.5 59l27 137h71l-27 -137q69 -9 102 -56.5t23 -124.5h-75q5 49 -14 79t-85 30q-57 0 -95.5 -30t-48.5 -85l-32 -165q-10 -50 9 -82.5t91 -32.5q50 0 87 28
t52 79z" />
    <glyph glyph-name="sterling" unicode="&#xa3;" horiz-adv-x="519" 
d="M380 717q82 0 125.5 -53.5t29.5 -137.5h-76q18 116 -95 116q-44 0 -81.5 -25t-49.5 -86l-22 -113h213l-15 -76h-213l-52 -267h302l-14 -75h-379l66 342h-37l15 76h37l22 111q16 85 74.5 136.5t149.5 51.5z" />
    <glyph glyph-name="yen" unicode="&#xa5;" horiz-adv-x="531" 
d="M426 104h-138l-20 -104h-76l20 104h-137l14 72h137q3 13 7 37.5t6 34.5h-136l14 71h111l-84 394h78l74 -358l213 358h84l-238 -394h113l-14 -71h-138l-14 -72h138z" />
    <glyph glyph-name="brokenbar" unicode="&#xa6;" horiz-adv-x="230" 
d="M199 412h-76l62 317h76zM114 -27h-76l62 318h76z" />
    <glyph glyph-name="section" unicode="&#xa7;" horiz-adv-x="557" 
d="M127 381q12 59 49 94q-19 33 -10 79q15 78 72 115.5t142 37.5q87 0 130.5 -44.5t28.5 -123.5h-74q10 46 -13 70t-88 24q-110 0 -126 -79q-4 -21 7 -37t35 -21l140 -32q48 -12 72 -47.5t15 -86.5q-12 -62 -48 -98q16 -29 7 -76q-31 -164 -228 -164q-86 0 -131 45t-30 123
h75q-9 -46 15.5 -69.5t85.5 -23.5q123 0 140 89q10 51 -43 63q-24 5 -72.5 17t-72.5 17q-43 9 -65.5 43.5t-12.5 84.5zM380 290q20 -6 30 -11q18 20 24 51q10 51 -43 63q-27 6 -84 19.5t-81 19.5q-22 -20 -28 -51q-10 -47 41 -58z" />
    <glyph glyph-name="dieresis" unicode="&#xa8;" horiz-adv-x="457" 
d="M430 602h-92l21 109h92zM225 602h-92l21 109h92z" />
    <glyph glyph-name="copyright" unicode="&#xa9;" horiz-adv-x="867" 
d="M557 255q-22 -116 -139 -116q-33 0 -55 13t-28.5 31t-9.5 38t2 34l36 186q22 113 137 113q34 0 56 -13t29 -31t10 -37t-2 -33h-67q6 29 -4 38.5t-34 9.5q-50 0 -59 -49l-36 -183q-6 -29 5 -39.5t35 -10.5q47 0 57 49h67zM820 348q-29 -148 -149 -251t-272 -103
q-147 0 -231 104t-55 250q29 149 149.5 251.5t273.5 102.5q146 0 229 -103.5t55 -250.5zM749 348q24 119 -40 201.5t-186 82.5q-117 0 -217 -83t-123 -201q-23 -119 41.5 -201t187.5 -82q117 0 216 83t121 200z" />
    <glyph glyph-name="ordfeminine" unicode="&#xaa;" horiz-adv-x="418" 
d="M405 584l-47 -240h-66l5 26q-32 -32 -80 -32q-57 0 -86 28.5t-17 88.5q20 104 136 104h84l4 23q6 31 -5 42.5t-44 11.5q-27 0 -48 -16t-27 -50h-66q13 66 56 98.5t96 32.5t84.5 -28.5t20.5 -88.5zM316 466l6 31h-83q-53 0 -60 -42q-7 -30 5 -41t46 -11q29 0 54.5 17.5
t31.5 45.5z" />
    <glyph glyph-name="guillemotleft" unicode="&#xab;" horiz-adv-x="493" 
d="M216 65l-161 199l239 200l-21 -105l-121 -101l82 -101zM410 65l-161 199l239 200l-21 -105l-121 -101l82 -101z" />
    <glyph glyph-name="logicalnot" unicode="&#xac;" horiz-adv-x="564" 
d="M492 168h-76l32 164h-336l15 74h412z" />
    <glyph glyph-name="uni00AD" unicode="&#xad;" horiz-adv-x="583" 
d="M524 247h-424l14 71h424z" />
    <glyph glyph-name="registered" unicode="&#xae;" horiz-adv-x="867" 
d="M608 409q-18 -92 -100 -109l49 -158h-74l-47 154h-24l-30 -154h-65l79 403h125q34 0 56 -12.5t28.5 -30.5t9.5 -37t-2 -33zM543 409l4 21q6 29 -4.5 39.5t-34.5 10.5h-60l-23 -120h61q48 0 57 49zM820 348q-29 -148 -149 -251t-272 -103q-147 0 -231 104t-55 250
q29 149 149.5 251.5t273.5 102.5q146 0 229 -103.5t55 -250.5zM749 348q24 120 -40 202t-186 82q-117 0 -217 -83t-123 -201q-23 -119 41.5 -201t187.5 -82q117 0 216 83t121 200z" />
    <glyph glyph-name="macron" unicode="&#xaf;" horiz-adv-x="465" 
d="M438 586h-305l14 71h305z" />
    <glyph glyph-name="degree" unicode="&#xb0;" horiz-adv-x="342" 
d="M353 589q-10 -53 -51.5 -89t-99.5 -36q-51 0 -80 37t-19 88q10 53 50.5 89t97.5 36q53 0 82.5 -36.5t19.5 -88.5zM292 589q6 29 -7 46.5t-46 17.5q-26 0 -48.5 -18.5t-27.5 -45.5q-6 -28 6.5 -45.5t44.5 -17.5q27 0 50 18.5t28 44.5z" />
    <glyph glyph-name="plusminus" unicode="&#xb1;" horiz-adv-x="567" 
d="M515 247h-171l-24 -121h-72l24 121h-172l14 71h172l31 156h72l-31 -156h171zM467 0h-415l14 71h415z" />
    <glyph glyph-name="twosuperior" unicode="&#xb2;" horiz-adv-x="375" 
d="M365 608q-13 -53 -54 -83q-17 -13 -54 -32.5t-54 -31.5q-25 -17 -30 -39l-2 -11h155l-13 -67h-222l16 81q8 46 68 88q13 9 47.5 27.5t53.5 32.5t24 34q8 44 -36 44q-20 0 -36.5 -16t-21.5 -44h-67q11 57 46.5 91.5t90.5 34.5q48 0 73.5 -33t15.5 -76z" />
    <glyph glyph-name="threesuperior" unicode="&#xb3;" horiz-adv-x="372" 
d="M366 656l-75 -88q60 -21 45 -97l-5 -24q-3 -17 -10 -32.5t-21 -34t-39.5 -30t-59.5 -11.5q-59 0 -77 39.5t-9 87.5h66q-7 -35 2 -47.5t30 -12.5q45 0 53 41l5 23q5 24 -5.5 32t-31.5 8h-35l9 48l73 88h-117l13 66h200z" />
    <glyph glyph-name="acute" unicode="&#xb4;" horiz-adv-x="327" 
d="M325 730l-129 -163h-73l110 163h92z" />
    <glyph glyph-name="mu" unicode="&#xb5;" horiz-adv-x="548" 
d="M102 -185h-75l138 711h75l-67 -346q-6 -20 -4.5 -40t8.5 -36.5t31 -27t62 -10.5q52 0 91 29.5t49 79.5l68 351h75l-102 -526h-75l8 41q-48 -50 -129 -50q-33 0 -65.5 12.5t-44.5 30.5z" />
    <glyph glyph-name="paragraph" unicode="&#xb6;" horiz-adv-x="558" 
d="M443 0h-75l124 635h-76l-124 -635h-75l74 382q-77 2 -115.5 47t-25.5 111q16 85 72 127t143 42h216z" />
    <glyph glyph-name="periodcentered" unicode="&#xb7;" horiz-adv-x="266" 
d="M201 213h-106l21 107h106z" />
    <glyph glyph-name="cedilla" unicode="&#xb8;" horiz-adv-x="306" 
d="M231 -18l-92 -159h-86l105 159h73z" />
    <glyph glyph-name="onesuperior" unicode="&#xb9;" horiz-adv-x="357" 
d="M296 344h-205l13 66h69l45 235l-52 -5l13 65l118 11l-59 -306h71z" />
    <glyph glyph-name="ordmasculine" unicode="&#xba;" horiz-adv-x="420" 
d="M384 466q-12 -61 -53.5 -95.5t-107.5 -34.5q-61 0 -90 35t-17 95l20 105q12 61 52.5 95t105.5 34q61 0 91.5 -35t18.5 -94zM317 466l20 105q2 15 3 29.5t-13.5 24.5t-44.5 10q-32 0 -53.5 -17t-27.5 -47l-20 -105q-2 -16 -3 -30.5t13.5 -24.5t44.5 -10q32 0 53.5 17
t27.5 48z" />
    <glyph glyph-name="guillemotright" unicode="&#xbb;" horiz-adv-x="492" 
d="M293 265l-236 -199l20 105l120 101l-81 100l18 93zM487 265l-236 -199l20 105l120 101l-81 100l18 93z" />
    <glyph glyph-name="onequarter" unicode="&#xbc;" horiz-adv-x="721" 
d="M313 344h-205l13 66h69l46 235l-52 -5l12 65l119 11l-59 -306h70zM647 759l-423 -811h-71l424 811h70zM610 0h-66l19 95h-148l10 53l125 221h66l-117 -208h76l25 126h66z" />
    <glyph glyph-name="onehalf" unicode="&#xbd;" horiz-adv-x="752" 
d="M313 344h-205l13 66h68l46 235l-51 -4l12 64l118 11l-59 -306h71zM692 263q-12 -52 -54 -83q-26 -18 -55 -31q-77 -39 -83 -72l-2 -10h155l-13 -67h-222l16 80q9 52 67 89q6 4 42 22.5t58 36t25 34.5q9 44 -36 44q-20 0 -35.5 -16t-21.5 -44h-67q11 57 47 91.5t90 34.5
q48 0 73.5 -33t15.5 -76zM646 759l-422 -811h-72l424 811h70z" />
    <glyph glyph-name="threequarters" unicode="&#xbe;" horiz-adv-x="731" 
d="M620 0h-66l19 95h-149l10 53l125 221h67l-117 -208h76l25 126h66zM383 656l-75 -88q61 -21 46 -97l-5 -24q-3 -17 -10.5 -33t-21.5 -34t-39.5 -29.5t-59.5 -11.5q-41 0 -64 22t-24 50.5t2 54.5h66q-7 -35 2 -47.5t30 -12.5q45 0 53 41l5 23q4 24 -6.5 32t-31.5 8h-35
l10 48l73 88h-116l13 66h199zM656 759l-422 -811h-72l425 811h69z" />
    <glyph glyph-name="questiondown" unicode="&#xbf;" horiz-adv-x="432" 
d="M261 350h76l-9 -44q-14 -77 -70 -129q-21 -18 -65.5 -48t-65.5 -49q-34 -32 -41 -69q-12 -61 11.5 -92t88.5 -31q19 0 37.5 4.5t42 16t42 37.5t27.5 64h77q-6 -30 -21 -60.5t-41.5 -63t-73 -53t-105.5 -20.5q-89 0 -133.5 54.5t-27.5 142.5q12 65 67 113q19 18 66.5 50.5
t66.5 50.5q32 26 42 79zM281 532h103l-20 -103h-103z" />
    <glyph glyph-name="Agrave" unicode="&#xc0;" horiz-adv-x="550" 
d="M490 0h-75l-13 201h-241l-93 -201h-77l323 713h125zM397 276l-24 366h-13l-166 -366h203zM436 781h-66l-66 163h83z" />
    <glyph glyph-name="Aacute" unicode="&#xc1;" horiz-adv-x="550" 
d="M490 0h-75l-13 201h-241l-93 -201h-77l323 713h125zM397 276l-24 366h-13l-166 -366h203zM544 944l-129 -163h-73l110 163h92z" />
    <glyph glyph-name="Acircumflex" unicode="&#xc2;" horiz-adv-x="550" 
d="M490 0h-75l-13 201h-241l-93 -201h-77l323 713h125zM397 276l-24 366h-13l-166 -366h203zM531 793h-70l-56 73l-84 -73h-81l141 142h64z" />
    <glyph glyph-name="Atilde" unicode="&#xc3;" horiz-adv-x="550" 
d="M490 0h-75l-13 201h-241l-93 -201h-77l323 713h125zM397 276l-24 366h-13l-166 -366h203zM521 883l38 -46q-43 -35 -65 -45.5t-48 -10.5q-21 0 -52.5 21.5t-60.5 21.5q-21 0 -63 -33l-38 45q44 36 65.5 46.5t47.5 10.5q21 0 53.5 -21.5t60.5 -21.5q22 0 62 33z" />
    <glyph glyph-name="Adieresis" unicode="&#xc4;" horiz-adv-x="550" 
d="M490 0h-75l-13 201h-241l-93 -201h-77l323 713h125zM397 276l-24 366h-13l-166 -366h203zM534 793h-92l21 109h92zM329 793h-92l21 109h92z" />
    <glyph glyph-name="Aring" unicode="&#xc5;" horiz-adv-x="550" 
d="M490 0h-75l-13 201h-241l-93 -201h-77l323 713h125zM397 276l-24 366h-13l-166 -366h203zM515 865q-9 -45 -44 -76t-85 -31q-43 0 -68 32t-17 75q9 46 43.5 76.5t83.5 30.5q45 0 70.5 -31t16.5 -76zM461 865q5 23 -5.5 38t-38.5 15q-21 0 -39 -15.5t-23 -37.5
q-9 -52 42 -52q22 0 41 15.5t23 36.5z" />
    <glyph glyph-name="AE" unicode="&#xc6;" horiz-adv-x="789" 
d="M704 0h-385l39 201h-196l-92 -201h-79l323 713h528l-14 -76h-309l-43 -222h285l-15 -76h-285l-52 -264h309zM361 637l-165 -360h177l70 360h-82z" />
    <glyph glyph-name="Ccedilla" unicode="&#xc7;" horiz-adv-x="521" 
d="M468 182q-5 -28 -19 -57t-40.5 -61.5t-73 -52.5t-106.5 -20q-45 0 -78.5 14t-50.5 35.5t-27.5 47.5t-9.5 50.5t3 44.5l67 348q5 28 19 56t40 60t73 52t107 20q45 0 78.5 -13.5t50 -35t27.5 -47t10.5 -50t-2.5 -43.5h-77q22 114 -102 114q-19 0 -38.5 -4.5t-43 -15.5
t-41.5 -35.5t-25 -59.5l-67 -346q-23 -116 103 -116q18 0 37.5 4.5t43 15.5t41 35.5t24.5 59.5h77zM262 -45l-92 -159h-86l105 159h73z" />
    <glyph glyph-name="Egrave" unicode="&#xc8;" horiz-adv-x="515" 
d="M430 0h-385l138 713h385l-14 -76h-309l-43 -222h286l-15 -76h-286l-52 -264h309zM448 781h-66l-66 163h83z" />
    <glyph glyph-name="Eacute" unicode="&#xc9;" horiz-adv-x="515" 
d="M430 0h-385l138 713h385l-14 -76h-309l-43 -222h286l-15 -76h-286l-52 -264h309zM510 944l-129 -163h-73l110 163h92z" />
    <glyph glyph-name="Ecircumflex" unicode="&#xca;" horiz-adv-x="515" 
d="M430 0h-385l138 713h385l-14 -76h-309l-43 -222h286l-15 -76h-286l-52 -264h309zM530 793h-70l-56 73l-84 -73h-81l141 142h64z" />
    <glyph glyph-name="Edieresis" unicode="&#xcb;" horiz-adv-x="515" 
d="M430 0h-385l138 713h385l-14 -76h-309l-43 -222h286l-15 -76h-286l-52 -264h309zM534 793h-92l21 109h92zM329 793h-92l21 109h92z" />
    <glyph glyph-name="Igrave" unicode="&#xcc;" horiz-adv-x="238" 
d="M184 713h77l-138 -713h-77zM270 781h-66l-66 163h83z" />
    <glyph glyph-name="Iacute" unicode="&#xcd;" horiz-adv-x="238" 
d="M184 713h77l-138 -713h-77zM404 944l-129 -163h-73l110 163h92z" />
    <glyph glyph-name="Icircumflex" unicode="&#xce;" horiz-adv-x="237" 
d="M183 713h77l-138 -713h-77zM383 793h-70l-56 73l-84 -73h-81l141 142h64z" />
    <glyph glyph-name="Idieresis" unicode="&#xcf;" horiz-adv-x="237" 
d="M183 713h77l-138 -713h-77zM383 793h-92l21 109h92zM178 793h-92l21 109h92z" />
    <glyph glyph-name="Eth" unicode="&#xd0;" horiz-adv-x="629" 
d="M555 191q-6 -29 -18 -57t-36 -61t-68 -53t-103 -20h-215l64 329h-74l14 71h74l61 314h211q46 0 79 -14t48.5 -35t24.5 -47t7 -50t-4 -43zM402 329h-146l-50 -254h136q44 0 84 25.5t53 91.5l64 330q23 116 -93 116h-134l-46 -238h146z" />
    <glyph glyph-name="Ntilde" unicode="&#xd1;" horiz-adv-x="568" 
d="M453 0h-88l-134 560l-109 -560h-77l138 713h86l136 -568l110 568h76zM531 883l38 -46q-43 -35 -65 -45.5t-48 -10.5q-21 0 -52.5 21.5t-60.5 21.5q-21 0 -63 -33l-38 45q44 36 65.5 46.5t47.5 10.5q21 0 53.5 -21.5t60.5 -21.5q22 0 62 33z" />
    <glyph glyph-name="Ograve" unicode="&#xd2;" 
d="M473 182q-5 -28 -19 -57t-40.5 -61.5t-73 -52.5t-106.5 -20q-45 0 -78.5 14t-50.5 35.5t-27.5 47.5t-9.5 50.5t3 44.5l67 348q5 28 19 56t40 60t73 52t107 20q45 0 78.5 -13.5t50 -35t27.5 -47t10.5 -50t-2.5 -43.5zM397 183l67 346q22 115 -102 115q-19 0 -38.5 -4.5
t-43 -15.5t-41.5 -35.5t-25 -59.5l-67 -346q-23 -116 103 -116q19 0 38 4.5t42.5 15.5t41.5 36t25 60zM447 781h-66l-66 163h83z" />
    <glyph glyph-name="Oacute" unicode="&#xd3;" 
d="M473 182q-5 -28 -19 -57t-40.5 -61.5t-73 -52.5t-106.5 -20q-45 0 -78.5 14t-50.5 35.5t-27.5 47.5t-9.5 50.5t3 44.5l67 348q5 28 19 56t40 60t73 52t107 20q45 0 78.5 -13.5t50 -35t27.5 -47t10.5 -50t-2.5 -43.5zM397 183l67 346q22 115 -102 115q-19 0 -38.5 -4.5
t-43 -15.5t-41.5 -35.5t-25 -59.5l-67 -346q-23 -116 103 -116q19 0 38 4.5t42.5 15.5t41.5 36t25 60zM524 944l-129 -163h-73l110 163h92z" />
    <glyph glyph-name="Ocircumflex" unicode="&#xd4;" 
d="M473 182q-5 -28 -19 -57t-40.5 -61.5t-73 -52.5t-106.5 -20q-45 0 -78.5 14t-50.5 35.5t-27.5 47.5t-9.5 50.5t3 44.5l67 348q5 28 19 56t40 60t73 52t107 20q45 0 78.5 -13.5t50 -35t27.5 -47t10.5 -50t-2.5 -43.5zM397 183l67 346q22 115 -102 115q-19 0 -38.5 -4.5
t-43 -15.5t-41.5 -35.5t-25 -59.5l-67 -346q-23 -116 103 -116q19 0 38 4.5t42.5 15.5t41.5 36t25 60zM533 792h-70l-56 73l-84 -73h-81l141 142h64z" />
    <glyph glyph-name="Otilde" unicode="&#xd5;" 
d="M473 182q-5 -28 -19 -57t-40.5 -61.5t-73 -52.5t-106.5 -20q-45 0 -78.5 14t-50.5 35.5t-27.5 47.5t-9.5 50.5t3 44.5l67 348q5 28 19 56t40 60t73 52t107 20q45 0 78.5 -13.5t50 -35t27.5 -47t10.5 -50t-2.5 -43.5zM397 183l67 346q22 115 -102 115q-19 0 -38.5 -4.5
t-43 -15.5t-41.5 -35.5t-25 -59.5l-67 -346q-23 -116 103 -116q19 0 38 4.5t42.5 15.5t41.5 36t25 60zM527 883l38 -46q-43 -35 -65 -45.5t-48 -10.5q-21 0 -52.5 21.5t-60.5 21.5q-21 0 -63 -33l-38 45q44 36 65.5 46.5t47.5 10.5q21 0 53.5 -21.5t60.5 -21.5q22 0 62 33z
" />
    <glyph glyph-name="Odieresis" unicode="&#xd6;" 
d="M473 182q-5 -28 -19 -57t-40.5 -61.5t-73 -52.5t-106.5 -20q-45 0 -78.5 14t-50.5 35.5t-27.5 47.5t-9.5 50.5t3 44.5l67 348q5 28 19 56t40 60t73 52t107 20q45 0 78.5 -13.5t50 -35t27.5 -47t10.5 -50t-2.5 -43.5zM397 183l67 346q22 115 -102 115q-19 0 -38.5 -4.5
t-43 -15.5t-41.5 -35.5t-25 -59.5l-67 -346q-23 -116 103 -116q19 0 38 4.5t42.5 15.5t41.5 36t25 60zM536 793h-92l21 109h92zM331 793h-92l21 109h92z" />
    <glyph glyph-name="multiply" unicode="&#xd7;" horiz-adv-x="575" 
d="M464 138l-54 -45l-103 127l-156 -131l-45 53l158 132l-102 127l54 46l101 -127l157 131l45 -54l-157 -131z" />
    <glyph glyph-name="Oslash" unicode="&#xd8;" 
d="M473 182q-5 -28 -19 -57t-40.5 -61.5t-73 -52.5t-106.5 -20q-39 0 -73 12l-28 -55h-78l49 93q-23 29 -31.5 70t-2.5 72l68 348q5 28 19 56t39.5 60t72.5 52t107 20q46 0 76 -12l32 62h76l-54 -102q25 -28 33 -66.5t2 -70.5zM146 183q-7 -37 0 -59q45 87 134 256t134 255
q-26 9 -52 9q-19 0 -38.5 -4.5t-43 -15.5t-41.5 -35.5t-25 -59.5zM396 183l68 346q4 30 -1 55q-104 -202 -265 -510q22 -7 52 -7q19 0 38 4.5t42.5 15.5t41 36t24.5 60z" />
    <glyph glyph-name="Ugrave" unicode="&#xd9;" horiz-adv-x="544" 
d="M475 182q-6 -30 -19.5 -59t-39.5 -61t-72.5 -51.5t-106.5 -19.5q-46 0 -80.5 13.5t-51.5 35t-28 47t-9.5 50.5t3.5 46l103 530h77l-103 -530q-23 -116 102 -116q19 0 38.5 4.5t43 15.5t41.5 35.5t25 60.5l103 530h77zM449 781h-66l-66 163h83z" />
    <glyph glyph-name="Uacute" unicode="&#xda;" horiz-adv-x="544" 
d="M475 182q-6 -30 -19.5 -59t-39.5 -61t-72.5 -51.5t-106.5 -19.5q-46 0 -80.5 13.5t-51.5 35t-28 47t-9.5 50.5t3.5 46l103 530h77l-103 -530q-23 -116 102 -116q19 0 38.5 4.5t43 15.5t41.5 35.5t25 60.5l103 530h77zM513 944l-129 -163h-73l110 163h92z" />
    <glyph glyph-name="Ucircumflex" unicode="&#xdb;" horiz-adv-x="544" 
d="M475 182q-6 -30 -19.5 -59t-39.5 -61t-72.5 -51.5t-106.5 -19.5q-46 0 -80.5 13.5t-51.5 35t-28 47t-9.5 50.5t3.5 46l103 530h77l-103 -530q-23 -116 102 -116q19 0 38.5 4.5t43 15.5t41.5 35.5t25 60.5l103 530h77zM538 793h-70l-56 73l-84 -73h-81l141 142h64z" />
    <glyph glyph-name="Udieresis" unicode="&#xdc;" horiz-adv-x="544" 
d="M475 182q-6 -30 -19.5 -59t-39.5 -61t-72.5 -51.5t-106.5 -19.5q-46 0 -80.5 13.5t-51.5 35t-28 47t-9.5 50.5t3.5 46l103 530h77l-103 -530q-23 -116 102 -116q19 0 38.5 4.5t43 15.5t41.5 35.5t25 60.5l103 530h77zM543 793h-92l21 109h92zM338 793h-92l21 109h92z" />
    <glyph glyph-name="Yacute" unicode="&#xdd;" horiz-adv-x="504" 
d="M581 713l-276 -456l-50 -257h-77l50 259l-99 454h77l76 -360l211 360h88zM487 943l-129 -163h-73l110 163h92z" />
    <glyph glyph-name="Thorn" unicode="&#xde;" horiz-adv-x="567" 
d="M183 713h77l-30 -155h153q87 0 129 -54.5t25 -143.5q-18 -93 -77.5 -146.5t-153.5 -53.5h-153l-31 -160h-77zM368 481h-153l-47 -244h153q48 0 88 28t53 95q23 121 -94 121z" />
    <glyph glyph-name="germandbls" unicode="&#xdf;" horiz-adv-x="551" 
d="M214 75h60q26 0 50.5 7.5t51 35t35.5 73.5l9 50q13 66 -13.5 91t-68.5 25h-34l15 75h33q81 0 99 95q22 116 -89 116q-44 0 -85 -25t-54 -91l-102 -527h-76l103 530q5 28 17 56t36.5 60t69.5 52t105 20q45 0 77.5 -14t47.5 -35t24 -47t7 -50.5t-4 -43.5q-18 -97 -84 -129
q42 -25 52 -69.5t2 -85.5l-10 -53q-6 -30 -18 -57.5t-36 -60.5t-68.5 -53t-103.5 -20h-62z" />
    <glyph glyph-name="agrave" unicode="&#xe0;" horiz-adv-x="522" 
d="M491 364l-71 -364h-76l10 50q-52 -59 -151 -59q-72 0 -115 43.5t-26 127.5q14 73 65 111t131 38h146l10 50q11 56 -10.5 77.5t-78.5 21.5q-106 0 -129 -97h-75q19 87 81 129t137 42q77 0 123 -41.5t29 -128.5zM379 179l12 61h-144q-96 0 -110 -78q-11 -55 14 -75.5
t79 -20.5q51 0 95 31t54 82zM421 594h-66l-66 163h83z" />
    <glyph glyph-name="aacute" unicode="&#xe1;" horiz-adv-x="522" 
d="M491 364l-71 -364h-76l10 50q-52 -59 -151 -59q-72 0 -115 43.5t-26 127.5q14 73 65 111t131 38h146l10 50q11 56 -10.5 77.5t-78.5 21.5q-106 0 -129 -97h-75q19 87 81 129t137 42q77 0 123 -41.5t29 -128.5zM379 179l12 61h-144q-96 0 -110 -78q-11 -55 14 -75.5
t79 -20.5q51 0 95 31t54 82zM488 757l-129 -163h-73l110 163h92z" />
    <glyph glyph-name="acircumflex" unicode="&#xe2;" horiz-adv-x="522" 
d="M491 364l-71 -364h-76l10 50q-52 -59 -151 -59q-72 0 -115 43.5t-26 127.5q14 73 65 111t131 38h146l10 50q11 56 -10.5 77.5t-78.5 21.5q-106 0 -129 -97h-75q19 87 81 129t137 42q77 0 123 -41.5t29 -128.5zM379 179l12 61h-144q-96 0 -110 -78q-11 -55 14 -75.5
t79 -20.5q51 0 95 31t54 82zM492 594h-70l-56 73l-84 -73h-81l141 142h64z" />
    <glyph glyph-name="atilde" unicode="&#xe3;" horiz-adv-x="522" 
d="M491 364l-71 -364h-76l10 50q-52 -59 -151 -59q-72 0 -115 43.5t-26 127.5q14 73 65 111t131 38h146l10 50q11 56 -10.5 77.5t-78.5 21.5q-106 0 -129 -97h-75q19 87 81 129t137 42q77 0 123 -41.5t29 -128.5zM379 179l12 61h-144q-96 0 -110 -78q-11 -55 14 -75.5
t79 -20.5q51 0 95 31t54 82zM489 726l38 -46q-43 -35 -65 -45.5t-48 -10.5q-21 0 -52.5 21.5t-60.5 21.5q-21 0 -63 -33l-38 45q44 36 65.5 46.5t47.5 10.5q21 0 53.5 -21.5t60.5 -21.5q22 0 62 33z" />
    <glyph glyph-name="adieresis" unicode="&#xe4;" horiz-adv-x="522" 
d="M491 364l-71 -364h-76l10 50q-52 -59 -151 -59q-72 0 -115 43.5t-26 127.5q14 73 65 111t131 38h146l10 50q11 56 -10.5 77.5t-78.5 21.5q-106 0 -129 -97h-75q19 87 81 129t137 42q77 0 123 -41.5t29 -128.5zM379 179l12 61h-144q-96 0 -110 -78q-11 -55 14 -75.5
t79 -20.5q51 0 95 31t54 82zM498 631h-92l21 109h92zM293 631h-92l21 109h92z" />
    <glyph glyph-name="aring" unicode="&#xe5;" horiz-adv-x="522" 
d="M491 364l-71 -364h-76l10 50q-52 -59 -151 -59q-72 0 -115 43.5t-26 127.5q14 73 65 111t131 38h146l10 50q11 56 -10.5 77.5t-78.5 21.5q-106 0 -129 -97h-75q19 87 81 129t137 42q77 0 123 -41.5t29 -128.5zM379 179l12 61h-144q-96 0 -110 -78q-11 -55 14 -75.5
t79 -20.5q51 0 95 31t54 82zM477 692q-9 -45 -44 -76t-85 -31q-43 0 -68 32t-17 75q9 46 43.5 76.5t83.5 30.5q45 0 70.5 -31t16.5 -76zM423 692q5 23 -5.5 38t-38.5 15q-21 0 -39 -15.5t-23 -37.5q-9 -52 42 -52q22 0 41 15.5t23 36.5z" />
    <glyph glyph-name="ae" unicode="&#xe6;" horiz-adv-x="828" 
d="M799 345l-21 -106h-311l-11 -59q-6 -20 -4.5 -40t8.5 -36.5t30.5 -27t61.5 -10.5q50 0 85.5 27.5t50.5 78.5h76q-22 -85 -80.5 -133t-146.5 -48q-48 0 -89.5 26t-51.5 63q-28 -40 -80 -64.5t-113 -24.5q-73 0 -115.5 43.5t-25.5 127.5q14 73 65.5 111.5t131.5 38.5h147
l9 50q11 55 -11.5 76.5t-79.5 21.5q-44 0 -79 -22.5t-47 -74.5h-76q19 88 81 129.5t136 41.5q45 0 84 -20.5t52 -54.5q59 75 168 75q89 0 131 -51t25 -138zM380 178l12 63h-144q-95 0 -110 -79q-11 -54 11.5 -75t79.5 -21q61 0 102 34.5t49 77.5zM717 312l6 33
q6 20 4.5 40.5t-8.5 37t-30 27t-61 10.5q-54 0 -91.5 -29t-47.5 -80l-7 -39h235z" />
    <glyph glyph-name="ccedilla" unicode="&#xe7;" horiz-adv-x="513" 
d="M345 534q85 0 127.5 -49t31.5 -134h-76q6 48 -13.5 78.5t-84.5 30.5q-57 0 -95 -30.5t-48 -84.5l-32 -165q-3 -27 -2.5 -52.5t26 -44t75.5 -18.5q51 0 87.5 28t51.5 79h76q-23 -85 -82.5 -133.5t-147.5 -48.5q-90 0 -133.5 51.5t-26.5 138.5l32 165q17 87 78.5 138
t155.5 51zM297 -42l-92 -159h-86l105 159h73z" />
    <glyph glyph-name="egrave" unicode="&#xe8;" horiz-adv-x="528" 
d="M504 345l-21 -106h-317l-11 -59q-3 -27 -2.5 -52.5t26 -44t75.5 -18.5q51 0 87.5 28t51.5 79h76q-23 -85 -82.5 -133.5t-147.5 -48.5q-90 0 -133.5 51.5t-26.5 138.5l32 165q17 87 78.5 138t155.5 51q89 0 132.5 -51t26.5 -138zM422 313l6 32q6 20 4 40.5t-9.5 37t-31 27
t-61.5 10.5q-57 0 -95 -30.5t-48 -84.5l-6 -32h241zM406 594h-66l-66 163h83z" />
    <glyph glyph-name="eacute" unicode="&#xe9;" horiz-adv-x="528" 
d="M504 345l-21 -106h-317l-11 -59q-3 -27 -2.5 -52.5t26 -44t75.5 -18.5q51 0 87.5 28t51.5 79h76q-23 -85 -82.5 -133.5t-147.5 -48.5q-90 0 -133.5 51.5t-26.5 138.5l32 165q17 87 78.5 138t155.5 51q89 0 132.5 -51t26.5 -138zM422 313l6 32q6 20 4 40.5t-9.5 37t-31 27
t-61.5 10.5q-57 0 -95 -30.5t-48 -84.5l-6 -32h241zM484 757l-129 -163h-73l110 163h92z" />
    <glyph glyph-name="ecircumflex" unicode="&#xea;" horiz-adv-x="528" 
d="M504 345l-21 -106h-317l-11 -59q-3 -27 -2.5 -52.5t26 -44t75.5 -18.5q51 0 87.5 28t51.5 79h76q-23 -85 -82.5 -133.5t-147.5 -48.5q-90 0 -133.5 51.5t-26.5 138.5l32 165q17 87 78.5 138t155.5 51q89 0 132.5 -51t26.5 -138zM422 313l6 32q6 20 4 40.5t-9.5 37t-31 27
t-61.5 10.5q-57 0 -95 -30.5t-48 -84.5l-6 -32h241zM497 594h-70l-56 73l-84 -73h-81l141 142h64z" />
    <glyph glyph-name="edieresis" unicode="&#xeb;" horiz-adv-x="528" 
d="M504 345l-21 -106h-317l-11 -59q-3 -27 -2.5 -52.5t26 -44t75.5 -18.5q51 0 87.5 28t51.5 79h76q-23 -85 -82.5 -133.5t-147.5 -48.5q-90 0 -133.5 51.5t-26.5 138.5l32 165q17 87 78.5 138t155.5 51q89 0 132.5 -51t26.5 -138zM422 313l6 32q6 20 4 40.5t-9.5 37t-31 27
t-61.5 10.5q-57 0 -95 -30.5t-48 -84.5l-6 -32h241zM504 631h-92l21 109h92zM299 631h-92l21 109h92z" />
    <glyph glyph-name="igrave" unicode="&#xec;" horiz-adv-x="235" 
d="M129 0h-75l102 526h75zM234 594h-66l-66 163h83z" />
    <glyph glyph-name="iacute" unicode="&#xed;" horiz-adv-x="236" 
d="M130 0h-75l102 526h75zM375 757l-129 -163h-73l110 163h92z" />
    <glyph glyph-name="icircumflex" unicode="&#xee;" horiz-adv-x="236" 
d="M129 0h-75l102 526h75zM348 594h-70l-56 73l-84 -73h-81l141 142h64z" />
    <glyph glyph-name="idieresis" unicode="&#xef;" horiz-adv-x="235" 
d="M129 0h-75l102 526h75zM355 631h-92l21 109h92zM150 631h-92l21 109h92z" />
    <glyph glyph-name="eth" unicode="&#xf0;" horiz-adv-x="549" 
d="M637 703l-103 -86q13 -35 4 -85l-69 -357q-5 -27 -18.5 -55t-39 -59t-71 -50.5t-103.5 -19.5q-45 0 -78.5 13.5t-50 34.5t-27.5 46.5t-10 49t3 42.5l16 82q5 27 18.5 55.5t39 60.5t70.5 52t103 20q77 0 120 -45l25 128q3 18 3 32l-91 -78l-39 47l107 90q-27 27 -95 27
l14 72q93 0 140 -50l94 80zM398 180l15 78q22 118 -101 118q-19 0 -39 -4.5t-44 -16t-42 -37t-25 -60.5l-15 -78q-13 -67 20 -92.5t84 -25.5q19 0 38.5 4.5t42.5 16t41 36.5t25 61z" />
    <glyph glyph-name="ntilde" unicode="&#xf1;" horiz-adv-x="542" 
d="M440 0h-75l67 345q4 21 5.5 32.5t-1 29.5t-11 28t-28.5 17.5t-51 7.5q-54 0 -97 -32t-53 -81l-67 -347h-75l102 525h75l-10 -48q51 57 139 57t126 -50t21 -139zM502 725l38 -46q-43 -35 -65 -45.5t-48 -10.5q-21 0 -52.5 21.5t-60.5 21.5q-21 0 -63 -33l-38 45
q44 36 65.5 46.5t47.5 10.5q21 0 53.5 -21.5t60.5 -21.5q22 0 62 33z" />
    <glyph glyph-name="ograve" unicode="&#xf2;" horiz-adv-x="533" 
d="M472 180q-17 -87 -78.5 -138.5t-154.5 -51.5q-90 0 -133.5 51.5t-26.5 138.5l32 165q17 87 78.5 138t155.5 51q89 0 132.5 -51t26.5 -138zM396 180l32 165q6 20 4 40.5t-9.5 37t-31 27t-61.5 10.5q-57 0 -95 -30.5t-48 -84.5l-32 -165q-3 -27 -2.5 -52.5t26 -44
t75.5 -18.5q56 0 94 30.5t48 84.5zM407 594h-66l-66 163h83z" />
    <glyph glyph-name="oacute" unicode="&#xf3;" horiz-adv-x="533" 
d="M472 180q-17 -87 -78.5 -138.5t-154.5 -51.5q-90 0 -133.5 51.5t-26.5 138.5l32 165q17 87 78.5 138t155.5 51q89 0 132.5 -51t26.5 -138zM396 180l32 165q6 20 4 40.5t-9.5 37t-31 27t-61.5 10.5q-57 0 -95 -30.5t-48 -84.5l-32 -165q-3 -27 -2.5 -52.5t26 -44
t75.5 -18.5q56 0 94 30.5t48 84.5zM486 757l-129 -163h-73l110 163h92z" />
    <glyph glyph-name="ocircumflex" unicode="&#xf4;" horiz-adv-x="533" 
d="M472 180q-17 -87 -78.5 -138.5t-154.5 -51.5q-90 0 -133.5 51.5t-26.5 138.5l32 165q17 87 78.5 138t155.5 51q89 0 132.5 -51t26.5 -138zM396 180l32 165q6 20 4 40.5t-9.5 37t-31 27t-61.5 10.5q-57 0 -95 -30.5t-48 -84.5l-32 -165q-3 -27 -2.5 -52.5t26 -44
t75.5 -18.5q56 0 94 30.5t48 84.5zM501 594h-70l-56 73l-84 -73h-81l141 142h64z" />
    <glyph glyph-name="otilde" unicode="&#xf5;" horiz-adv-x="533" 
d="M472 180q-17 -87 -78.5 -138.5t-154.5 -51.5q-90 0 -133.5 51.5t-26.5 138.5l32 165q17 87 78.5 138t155.5 51q89 0 132.5 -51t26.5 -138zM396 180l32 165q6 20 4 40.5t-9.5 37t-31 27t-61.5 10.5q-57 0 -95 -30.5t-48 -84.5l-32 -165q-3 -27 -2.5 -52.5t26 -44
t75.5 -18.5q56 0 94 30.5t48 84.5zM506 726l38 -46q-43 -35 -65 -45.5t-48 -10.5q-21 0 -52.5 21.5t-60.5 21.5q-21 0 -63 -33l-38 45q44 36 65.5 46.5t47.5 10.5q21 0 53.5 -21.5t60.5 -21.5q22 0 62 33z" />
    <glyph glyph-name="odieresis" unicode="&#xf6;" horiz-adv-x="533" 
d="M472 180q-17 -87 -78.5 -138.5t-154.5 -51.5q-90 0 -133.5 51.5t-26.5 138.5l32 165q17 87 78.5 138t155.5 51q89 0 132.5 -51t26.5 -138zM396 180l32 165q6 20 4 40.5t-9.5 37t-31 27t-61.5 10.5q-57 0 -95 -30.5t-48 -84.5l-32 -165q-3 -27 -2.5 -52.5t26 -44
t75.5 -18.5q56 0 94 30.5t48 84.5zM504 631h-92l21 109h92zM299 631h-92l21 109h92z" />
    <glyph glyph-name="divide" unicode="&#xf7;" horiz-adv-x="537" 
d="M298 0h-109l21 110h109zM359 317h-109l22 110h109zM467 179h-376l13 71h376z" />
    <glyph glyph-name="oslash" unicode="&#xf8;" horiz-adv-x="533" 
d="M473 180q-17 -87 -78.5 -138.5t-154.5 -51.5q-28 0 -47 4l-76 -149h-77l91 173q-72 49 -51 162l32 165q18 88 79 138.5t155 50.5q21 0 51 -4q63 120 66 126h76l-81 -155q68 -52 47 -156zM156 180q-12 -63 13 -86q13 24 191 364q-9 2 -28 2q-57 0 -95.5 -30.5t-48.5 -84.5
zM397 180l32 165q12 55 -10 81q-32 -62 -94 -180t-94 -180q8 -1 24 -1q56 0 94 30.5t48 84.5z" />
    <glyph glyph-name="ugrave" unicode="&#xf9;" horiz-adv-x="545" 
d="M439 0h-76l8 41q-48 -50 -128 -50q-89 0 -132 51t-26 138l68 346h76l-68 -346q-6 -20 -4.5 -40t8.5 -36.5t30.5 -27t61.5 -10.5q53 0 91.5 29.5t48.5 79.5l69 351h76zM426 594h-66l-66 163h83z" />
    <glyph glyph-name="uacute" unicode="&#xfa;" horiz-adv-x="545" 
d="M439 0h-76l8 41q-48 -50 -128 -50q-89 0 -132 51t-26 138l68 346h76l-68 -346q-6 -20 -4.5 -40t8.5 -36.5t30.5 -27t61.5 -10.5q53 0 91.5 29.5t48.5 79.5l69 351h76zM477 757l-129 -163h-73l110 163h92z" />
    <glyph glyph-name="ucircumflex" unicode="&#xfb;" horiz-adv-x="545" 
d="M439 0h-76l8 41q-48 -50 -128 -50q-89 0 -132 51t-26 138l68 346h76l-68 -346q-6 -20 -4.5 -40t8.5 -36.5t30.5 -27t61.5 -10.5q53 0 91.5 29.5t48.5 79.5l69 351h76zM505 594h-70l-56 73l-84 -73h-81l141 142h64z" />
    <glyph glyph-name="udieresis" unicode="&#xfc;" horiz-adv-x="545" 
d="M439 0h-76l8 41q-48 -50 -128 -50q-89 0 -132 51t-26 138l68 346h76l-68 -346q-6 -20 -4.5 -40t8.5 -36.5t30.5 -27t61.5 -10.5q53 0 91.5 29.5t48.5 79.5l69 351h76zM514 631h-92l21 109h92zM309 631h-92l21 109h92z" />
    <glyph glyph-name="yacute" unicode="&#xfd;" horiz-adv-x="450" 
d="M197 0h-44l-45 526h79l35 -454h7l208 454h79l-289 -626q-36 -79 -74 -102.5t-112 -23.5h-36l15 75h48q31 0 50.5 11.5t33.5 42.5zM446 756l-129 -163h-73l110 163h92z" />
    <glyph glyph-name="thorn" unicode="&#xfe;" horiz-adv-x="535" 
d="M476 180q-17 -88 -76.5 -139t-152.5 -51q-33 0 -64.5 14.5t-43.5 36.5l-52 -267h-75l181 928h75l-43 -220q49 52 128 52q89 0 130.5 -50.5t24.5 -138.5zM401 180l32 165q4 28 4 53.5t-24.5 43.5t-73.5 18q-56 0 -93 -30t-48 -85l-32 -165q-6 -20 -4.5 -40t8 -37
t30.5 -27.5t62 -10.5q55 0 92 30.5t47 84.5z" />
    <glyph glyph-name="ydieresis" unicode="&#xff;" horiz-adv-x="450" 
d="M197 0h-44l-45 526h79l35 -454h7l208 454h79l-289 -626q-36 -79 -74 -102.5t-112 -23.5h-36l15 75h48q31 0 50.5 11.5t33.5 42.5zM478 631h-92l21 109h92zM273 631h-92l21 109h92z" />
    <glyph glyph-name="Amacron" unicode="&#x100;" horiz-adv-x="550" 
d="M490 0h-75l-13 201h-241l-93 -201h-77l323 713h125zM397 276l-24 366h-13l-166 -366h203zM542 793h-305l14 71h305z" />
    <glyph glyph-name="amacron" unicode="&#x101;" horiz-adv-x="522" 
d="M491 364l-71 -364h-76l10 50q-52 -59 -151 -59q-72 0 -115 43.5t-26 127.5q14 73 65 111t131 38h146l10 50q11 56 -10.5 77.5t-78.5 21.5q-106 0 -129 -97h-75q19 87 81 129t137 42q77 0 123 -41.5t29 -128.5zM379 179l12 61h-144q-96 0 -110 -78q-11 -55 14 -75.5
t79 -20.5q51 0 95 31t54 82zM512 624h-305l14 71h305z" />
    <glyph glyph-name="Abreve" unicode="&#x102;" horiz-adv-x="576" 
d="M516 0h-75l-13 201h-241l-93 -201h-77l323 713h125zM423 276l-24 366h-13l-166 -366h203zM606 923q-23 -75 -70 -108.5t-123 -33.5q-72 0 -109.5 35.5t-30.5 106.5h71q-2 -39 17 -57.5t65 -18.5q84 0 112 76h68z" />
    <glyph glyph-name="abreve" unicode="&#x103;" horiz-adv-x="522" 
d="M491 364l-71 -364h-76l10 50q-52 -59 -151 -59q-72 0 -115 43.5t-26 127.5q14 73 65 111t131 38h146l10 50q11 56 -10.5 77.5t-78.5 21.5q-106 0 -129 -97h-75q19 87 81 129t137 42q77 0 123 -41.5t29 -128.5zM379 179l12 61h-144q-96 0 -110 -78q-11 -55 14 -75.5
t79 -20.5q51 0 95 31t54 82zM544 747q-23 -75 -70 -108.5t-123 -33.5q-72 0 -109.5 35.5t-30.5 106.5h71q-2 -39 17 -57.5t65 -18.5q84 0 112 76h68z" />
    <glyph glyph-name="Aogonek" unicode="&#x104;" horiz-adv-x="594" 
d="M516 0h-75l-13 201h-241l-93 -201h-77l323 713h125zM423 276l-24 366h-13l-166 -366h203zM589 -202h-81l-55 159h68z" />
    <glyph glyph-name="aogonek" unicode="&#x105;" horiz-adv-x="522" 
d="M491 364l-71 -364h-76l10 50q-52 -59 -151 -59q-72 0 -115 43.5t-26 127.5q14 73 65 111t131 38h146l10 50q11 56 -10.5 77.5t-78.5 21.5q-106 0 -129 -97h-75q19 87 81 129t137 42q77 0 123 -41.5t29 -128.5zM379 179l12 61h-144q-96 0 -110 -78q-11 -55 14 -75.5
t79 -20.5q51 0 95 31t54 82zM486 -201h-81l-55 159h68z" />
    <glyph glyph-name="Cacute" unicode="&#x106;" horiz-adv-x="521" 
d="M468 182q-5 -28 -19 -57t-40.5 -61.5t-73 -52.5t-106.5 -20q-45 0 -78.5 14t-50.5 35.5t-27.5 47.5t-9.5 50.5t3 44.5l67 348q5 28 19 56t40 60t73 52t107 20q45 0 78.5 -13.5t50 -35t27.5 -47t10.5 -50t-2.5 -43.5h-77q22 114 -102 114q-19 0 -38.5 -4.5t-43 -15.5
t-41.5 -35.5t-25 -59.5l-67 -346q-23 -116 103 -116q18 0 37.5 4.5t43 15.5t41 35.5t24.5 59.5h77zM528 944l-129 -163h-73l110 163h92z" />
    <glyph glyph-name="cacute" unicode="&#x107;" horiz-adv-x="513" 
d="M345 534q85 0 127.5 -49t31.5 -134h-76q6 48 -13.5 78.5t-84.5 30.5q-57 0 -95 -30.5t-48 -84.5l-32 -165q-3 -27 -2.5 -52.5t26 -44t75.5 -18.5q51 0 87.5 28t51.5 79h76q-23 -85 -82.5 -133.5t-147.5 -48.5q-90 0 -133.5 51.5t-26.5 138.5l32 165q17 87 78.5 138
t155.5 51zM495 757l-129 -163h-73l110 163h92z" />
    <glyph glyph-name="Ccircumflex" unicode="&#x108;" horiz-adv-x="521" 
d="M468 182q-5 -28 -19 -57t-40.5 -61.5t-73 -52.5t-106.5 -20q-45 0 -78.5 14t-50.5 35.5t-27.5 47.5t-9.5 50.5t3 44.5l67 348q5 28 19 56t40 60t73 52t107 20q45 0 78.5 -13.5t50 -35t27.5 -47t10.5 -50t-2.5 -43.5h-77q22 114 -102 114q-19 0 -38.5 -4.5t-43 -15.5
t-41.5 -35.5t-25 -59.5l-67 -346q-23 -116 103 -116q18 0 37.5 4.5t43 15.5t41 35.5t24.5 59.5h77zM534 793h-70l-56 73l-84 -73h-81l141 142h64z" />
    <glyph glyph-name="ccircumflex" unicode="&#x109;" horiz-adv-x="513" 
d="M345 534q85 0 127.5 -49t31.5 -134h-76q6 48 -13.5 78.5t-84.5 30.5q-57 0 -95 -30.5t-48 -84.5l-32 -165q-3 -27 -2.5 -52.5t26 -44t75.5 -18.5q51 0 87.5 28t51.5 79h76q-23 -85 -82.5 -133.5t-147.5 -48.5q-90 0 -133.5 51.5t-26.5 138.5l32 165q17 87 78.5 138
t155.5 51zM495 594h-70l-56 73l-84 -73h-81l141 142h64z" />
    <glyph glyph-name="Cdotaccent" unicode="&#x10a;" horiz-adv-x="521" 
d="M468 182q-5 -28 -19 -57t-40.5 -61.5t-73 -52.5t-106.5 -20q-45 0 -78.5 14t-50.5 35.5t-27.5 47.5t-9.5 50.5t3 44.5l67 348q5 28 19 56t40 60t73 52t107 20q45 0 78.5 -13.5t50 -35t27.5 -47t10.5 -50t-2.5 -43.5h-77q22 114 -102 114q-19 0 -38.5 -4.5t-43 -15.5
t-41.5 -35.5t-25 -59.5l-67 -346q-23 -116 103 -116q18 0 37.5 4.5t43 15.5t41 35.5t24.5 59.5h77zM437 793h-93l17 88h93z" />
    <glyph glyph-name="cdotaccent" unicode="&#x10b;" horiz-adv-x="513" 
d="M345 534q85 0 127.5 -49t31.5 -134h-76q6 48 -13.5 78.5t-84.5 30.5q-57 0 -95 -30.5t-48 -84.5l-32 -165q-3 -27 -2.5 -52.5t26 -44t75.5 -18.5q51 0 87.5 28t51.5 79h76q-23 -85 -82.5 -133.5t-147.5 -48.5q-90 0 -133.5 51.5t-26.5 138.5l32 165q17 87 78.5 138
t155.5 51zM414 631h-93l17 88h93z" />
    <glyph glyph-name="Ccaron" unicode="&#x10c;" horiz-adv-x="521" 
d="M468 182q-5 -28 -19 -57t-40.5 -61.5t-73 -52.5t-106.5 -20q-45 0 -78.5 14t-50.5 35.5t-27.5 47.5t-9.5 50.5t3 44.5l67 348q5 28 19 56t40 60t73 52t107 20q45 0 78.5 -13.5t50 -35t27.5 -47t10.5 -50t-2.5 -43.5h-77q22 114 -102 114q-19 0 -38.5 -4.5t-43 -15.5
t-41.5 -35.5t-25 -59.5l-67 -346q-23 -116 103 -116q18 0 37.5 4.5t43 15.5t41 35.5t24.5 59.5h77zM270 935h72l55 -72l84 72h80l-140 -142h-64z" />
    <glyph glyph-name="ccaron" unicode="&#x10d;" horiz-adv-x="513" 
d="M345 534q85 0 127.5 -49t31.5 -134h-76q6 48 -13.5 78.5t-84.5 30.5q-57 0 -95 -30.5t-48 -84.5l-32 -165q-3 -27 -2.5 -52.5t26 -44t75.5 -18.5q51 0 87.5 28t51.5 79h76q-23 -85 -82.5 -133.5t-147.5 -48.5q-90 0 -133.5 51.5t-26.5 138.5l32 165q17 87 78.5 138
t155.5 51zM241 736h72l55 -72l84 72h80l-140 -142h-64z" />
    <glyph glyph-name="Dcaron" unicode="&#x10e;" horiz-adv-x="553" 
d="M485 191q-6 -29 -18 -57t-36 -61t-68 -53t-103 -20h-215l139 714h211q46 0 79 -14t48.5 -35t24.5 -47t7 -50t-4 -43zM409 192l64 330q23 116 -93 116h-134l-110 -563h136q44 0 84 25.5t53 91.5zM263 935h72l55 -72l84 72h80l-140 -142h-64z" />
    <glyph glyph-name="dcaron" unicode="&#x10f;" horiz-adv-x="581" 
d="M178 345l-32 -165q-22 -115 95 -115q118 0 140 115l32 165q24 115 -95 115q-116 0 -140 -115zM70 180l32 165q18 89 77 139t153 50q80 0 108 -52l45 231h76l-139 -713h-76l8 41q-19 -23 -53.5 -37t-74.5 -14q-87 0 -129.5 52t-26.5 138zM801 713l-129 -163h-73l110 163
h92z" />
    <glyph glyph-name="Dcroat" unicode="&#x110;" horiz-adv-x="551" 
d="M483 191q-6 -29 -18 -57t-36 -61t-68.5 -53t-103.5 -20h-214l63 327h-56l14 71h56l62 316h211q46 0 79 -14t48 -35t24.5 -47t7.5 -50t-4 -43zM407 192l64 330q23 116 -93 116h-135l-47 -240h177l-14 -71h-177l-49 -252h136q44 0 84.5 25.5t53.5 91.5z" />
    <glyph glyph-name="dcroat" unicode="&#x111;" horiz-adv-x="533" 
d="M310 571l13 70h148l12 61h76l-12 -61h73l-13 -70h-73l-111 -571h-76l6 31q-53 -41 -126 -41q-88 0 -130.5 52t-25.5 138l32 165q18 89 77 139t153 50q73 0 110 -42l15 79h-148zM178 345l-32 -165q-22 -115 96 -115t140 115l32 165q22 115 -96 115t-140 -115z" />
    <glyph glyph-name="Emacron" unicode="&#x112;" horiz-adv-x="515" 
d="M430 0h-385l138 713h385l-14 -76h-309l-43 -222h286l-15 -76h-286l-52 -264h309zM542 793h-305l14 71h305z" />
    <glyph glyph-name="emacron" unicode="&#x113;" horiz-adv-x="528" 
d="M504 345l-21 -106h-317l-11 -59q-3 -27 -2.5 -52.5t26 -44t75.5 -18.5q51 0 87.5 28t51.5 79h76q-23 -85 -82.5 -133.5t-147.5 -48.5q-90 0 -133.5 51.5t-26.5 138.5l32 165q17 87 78.5 138t155.5 51q89 0 132.5 -51t26.5 -138zM422 313l6 32q6 20 4 40.5t-9.5 37t-31 27
t-61.5 10.5q-57 0 -95 -30.5t-48 -84.5l-6 -32h241zM514 624h-305l14 71h305z" />
    <glyph glyph-name="Ebreve" unicode="&#x114;" horiz-adv-x="515" 
d="M430 0h-385l138 713h385l-14 -76h-309l-43 -222h286l-15 -76h-286l-52 -264h309zM581 923q-23 -75 -70 -108.5t-123 -33.5q-72 0 -109.5 35.5t-30.5 106.5h71q-2 -39 17 -57.5t65 -18.5q84 0 112 76h68z" />
    <glyph glyph-name="ebreve" unicode="&#x115;" horiz-adv-x="528" 
d="M504 345l-21 -106h-317l-11 -59q-3 -27 -2.5 -52.5t26 -44t75.5 -18.5q51 0 87.5 28t51.5 79h76q-23 -85 -82.5 -133.5t-147.5 -48.5q-90 0 -133.5 51.5t-26.5 138.5l32 165q17 87 78.5 138t155.5 51q89 0 132.5 -51t26.5 -138zM422 313l6 32q6 20 4 40.5t-9.5 37t-31 27
t-61.5 10.5q-57 0 -95 -30.5t-48 -84.5l-6 -32h241zM553 746q-23 -75 -70 -108.5t-123 -33.5q-72 0 -109.5 35.5t-30.5 106.5h71q-2 -39 17 -57.5t65 -18.5q84 0 112 76h68z" />
    <glyph glyph-name="Edotaccent" unicode="&#x116;" horiz-adv-x="515" 
d="M430 0h-385l138 713h385l-14 -76h-309l-43 -222h286l-15 -76h-286l-52 -264h309zM448 793h-93l17 88h93z" />
    <glyph glyph-name="edotaccent" unicode="&#x117;" horiz-adv-x="528" 
d="M504 345l-21 -106h-317l-11 -59q-3 -27 -2.5 -52.5t26 -44t75.5 -18.5q51 0 87.5 28t51.5 79h76q-23 -85 -82.5 -133.5t-147.5 -48.5q-90 0 -133.5 51.5t-26.5 138.5l32 165q17 87 78.5 138t155.5 51q89 0 132.5 -51t26.5 -138zM422 313l6 32q6 20 4 40.5t-9.5 37t-31 27
t-61.5 10.5q-57 0 -95 -30.5t-48 -84.5l-6 -32h241zM414 631h-93l17 88h93z" />
    <glyph glyph-name="Eogonek" unicode="&#x118;" horiz-adv-x="515" 
d="M430 0h-385l138 713h385l-14 -76h-309l-43 -222h286l-15 -76h-286l-52 -264h309zM345 -201h-81l-55 159h68z" />
    <glyph glyph-name="eogonek" unicode="&#x119;" horiz-adv-x="570" 
d="M504 345l-21 -106h-317l-11 -59q-3 -27 -2.5 -52.5t26 -44t75.5 -18.5q51 0 87.5 28t51.5 79h76q-23 -85 -82.5 -133.5t-147.5 -48.5q-90 0 -133.5 51.5t-26.5 138.5l32 165q17 87 78.5 138t155.5 51q89 0 132.5 -51t26.5 -138zM422 313l6 32q6 20 4 40.5t-9.5 37t-31 27
t-61.5 10.5q-57 0 -95 -30.5t-48 -84.5l-6 -32h241zM333 -201h-81l-55 159h68z" />
    <glyph glyph-name="Ecaron" unicode="&#x11a;" horiz-adv-x="515" 
d="M430 0h-385l138 713h385l-14 -76h-309l-43 -222h286l-15 -76h-286l-52 -264h309zM271 935h72l55 -72l84 72h80l-140 -142h-64z" />
    <glyph glyph-name="ecaron" unicode="&#x11b;" horiz-adv-x="528" 
d="M504 345l-21 -106h-317l-11 -59q-3 -27 -2.5 -52.5t26 -44t75.5 -18.5q51 0 87.5 28t51.5 79h76q-23 -85 -82.5 -133.5t-147.5 -48.5q-90 0 -133.5 51.5t-26.5 138.5l32 165q17 87 78.5 138t155.5 51q89 0 132.5 -51t26.5 -138zM422 313l6 32q6 20 4 40.5t-9.5 37t-31 27
t-61.5 10.5q-57 0 -95 -30.5t-48 -84.5l-6 -32h241zM237 736h72l55 -72l84 72h80l-140 -142h-64z" />
    <glyph glyph-name="Gcircumflex" unicode="&#x11c;" 
d="M473 182q-5 -28 -19.5 -57t-41 -61t-73.5 -52.5t-106 -20.5q-55 0 -93 21t-51.5 51t-19.5 63t2 57l67 348q5 28 19 56t40 60t73 52t107 20q45 0 78.5 -13t50.5 -34t28 -46.5t10 -50t-3 -45.5h-77q22 113 -102 113q-19 0 -38.5 -4.5t-43 -15t-41.5 -35t-25 -59.5l-67 -346
q-23 -115 103 -115q19 0 38 4t42.5 15t41.5 36t25 60l26 134h-147l14 76h224zM533 793h-70l-56 73l-84 -73h-81l141 142h64z" />
    <glyph glyph-name="gcircumflex" unicode="&#x11d;" horiz-adv-x="536" 
d="M356 -42l17 83q-45 -51 -126 -51q-89 0 -131.5 51t-25.5 139l32 165q17 88 76.5 138.5t153.5 50.5q34 0 65.5 -13.5t41.5 -35.5l8 41h76l-111 -568q-36 -184 -227 -184q-74 0 -117 41t-38 113h76q-1 -40 21 -59.5t72 -19.5q24 0 42 3.5t38.5 13.5t35 33.5t21.5 58.5z
M400 180l32 165q6 20 4.5 40.5t-8 37t-29.5 27t-61 10.5q-56 0 -93 -30t-47 -85l-32 -165q-4 -27 -4 -52.5t24.5 -44t74.5 -18.5q55 0 92 30.5t47 84.5zM518 594h-70l-56 73l-84 -73h-81l141 142h64z" />
    <glyph glyph-name="Gbreve" unicode="&#x11e;" 
d="M473 182q-5 -28 -19.5 -57t-41 -61t-73.5 -52.5t-106 -20.5q-55 0 -93 21t-51.5 51t-19.5 63t2 57l67 348q5 28 19 56t40 60t73 52t107 20q45 0 78.5 -13t50.5 -34t28 -46.5t10 -50t-3 -45.5h-77q22 113 -102 113q-19 0 -38.5 -4.5t-43 -15t-41.5 -35t-25 -59.5l-67 -346
q-23 -115 103 -115q19 0 38 4t42.5 15t41.5 36t25 60l26 134h-147l14 76h224zM583 923q-23 -75 -70 -108.5t-123 -33.5q-72 0 -109.5 35.5t-30.5 106.5h71q-2 -39 17 -57.5t65 -18.5q84 0 112 76h68z" />
    <glyph glyph-name="gbreve" unicode="&#x11f;" horiz-adv-x="536" 
d="M356 -42l17 83q-45 -51 -126 -51q-89 0 -131.5 51t-25.5 139l32 165q17 88 76.5 138.5t153.5 50.5q34 0 65.5 -13.5t41.5 -35.5l8 41h76l-111 -568q-36 -184 -227 -184q-74 0 -117 41t-38 113h76q-1 -40 21 -59.5t72 -19.5q24 0 42 3.5t38.5 13.5t35 33.5t21.5 58.5z
M400 180l32 165q6 20 4.5 40.5t-8 37t-29.5 27t-61 10.5q-56 0 -93 -30t-47 -85l-32 -165q-4 -27 -4 -52.5t24.5 -44t74.5 -18.5q55 0 92 30.5t47 84.5zM573 747q-23 -75 -70 -108.5t-123 -33.5q-72 0 -109.5 35.5t-30.5 106.5h71q-2 -39 17 -57.5t65 -18.5q84 0 112 76h68z
" />
    <glyph glyph-name="Gdotaccent" unicode="&#x120;" 
d="M473 182q-5 -28 -19.5 -57t-41 -61t-73.5 -52.5t-106 -20.5q-55 0 -93 21t-51.5 51t-19.5 63t2 57l67 348q5 28 19 56t40 60t73 52t107 20q45 0 78.5 -13t50.5 -34t28 -46.5t10 -50t-3 -45.5h-77q22 113 -102 113q-19 0 -38.5 -4.5t-43 -15t-41.5 -35t-25 -59.5l-67 -346
q-23 -115 103 -115q19 0 38 4t42.5 15t41.5 36t25 60l26 134h-147l14 76h224zM441 793h-93l17 88h93z" />
    <glyph glyph-name="gdotaccent" unicode="&#x121;" horiz-adv-x="536" 
d="M356 -42l17 83q-45 -51 -126 -51q-89 0 -131.5 51t-25.5 139l32 165q17 88 76.5 138.5t153.5 50.5q34 0 65.5 -13.5t41.5 -35.5l8 41h76l-111 -568q-36 -184 -227 -184q-74 0 -117 41t-38 113h76q-1 -40 21 -59.5t72 -19.5q24 0 42 3.5t38.5 13.5t35 33.5t21.5 58.5z
M400 180l32 165q6 20 4.5 40.5t-8 37t-29.5 27t-61 10.5q-56 0 -93 -30t-47 -85l-32 -165q-4 -27 -4 -52.5t24.5 -44t74.5 -18.5q55 0 92 30.5t47 84.5zM427 631h-93l17 88h93z" />
    <glyph glyph-name="Gcommaaccent" unicode="&#x122;" 
d="M473 182q-5 -28 -19.5 -57t-41 -61t-73.5 -52.5t-106 -20.5q-55 0 -93 21t-51.5 51t-19.5 63t2 57l67 348q5 28 19 56t40 60t73 52t107 20q45 0 78.5 -13t50.5 -34t28 -46.5t10 -50t-3 -45.5h-77q22 113 -102 113q-19 0 -38.5 -4.5t-43 -15t-41.5 -35t-25 -59.5l-67 -346
q-23 -115 103 -115q19 0 38 4t42.5 15t41.5 36t25 60l26 134h-147l14 76h224zM273 -43l-92 -159h-86l105 159h73z" />
    <glyph glyph-name="gcommaaccent" unicode="&#x123;" horiz-adv-x="536" 
d="M356 -42l17 83q-45 -51 -126 -51q-89 0 -131.5 51t-25.5 139l32 165q17 88 76.5 138.5t153.5 50.5q34 0 65.5 -13.5t41.5 -35.5l8 41h76l-111 -568q-36 -184 -227 -184q-74 0 -117 41t-38 113h76q-1 -40 21 -59.5t72 -19.5q24 0 42 3.5t38.5 13.5t35 33.5t21.5 58.5z
M400 180l32 165q6 20 4.5 40.5t-8 37t-29.5 27t-61 10.5q-56 0 -93 -30t-47 -85l-32 -165q-4 -27 -4 -52.5t24.5 -44t74.5 -18.5q55 0 92 30.5t47 84.5zM509 757l-129 -163h-73l110 163h92z" />
    <glyph glyph-name="Hcircumflex" unicode="&#x124;" horiz-adv-x="577" 
d="M462 0h-77l65 336h-263l-65 -336h-77l138 713h77l-58 -301h263l58 301h77zM555 793h-70l-56 73l-84 -73h-81l141 142h64z" />
    <glyph glyph-name="hcircumflex" unicode="&#x125;" horiz-adv-x="535" 
d="M430 0h-75l67 345q4 21 5.5 32.5t-1 29.5t-11 28t-28.5 17.5t-51 7.5q-54 0 -97 -32t-53 -81l-67 -347h-75l138 713h75l-46 -237q53 58 140 58q89 0 126 -49.5t20 -139.5zM527 793h-70l-56 73l-84 -73h-81l141 142h64z" />
    <glyph glyph-name="Hbar" unicode="&#x126;" horiz-adv-x="577" 
d="M464 0h-76l65 336h-264l-65 -336h-77l111 569h-52l13 72h52l14 72h77l-14 -72h264l14 72h76l-14 -72h49l-13 -72h-49zM204 412h264l31 157h-264z" />
    <glyph glyph-name="hbar" unicode="&#x127;" horiz-adv-x="533" 
d="M383 571h-155l-16 -85q58 48 136 48q89 0 126.5 -50t20.5 -139l-67 -345h-76l67 345q4 27 4.5 52.5t-22 44t-67.5 18.5q-53 0 -96 -32t-53 -81l-68 -347h-76l111 571h-66l14 70h66l12 61h76l-12 -61h155z" />
    <glyph glyph-name="Itilde" unicode="&#x128;" horiz-adv-x="236" 
d="M183 713h77l-138 -713h-77zM362 882l38 -46q-43 -35 -65 -45.5t-48 -10.5q-21 0 -52.5 21.5t-60.5 21.5q-21 0 -63 -33l-38 45q44 36 65.5 46.5t47.5 10.5q21 0 53.5 -21.5t60.5 -21.5q22 0 62 33z" />
    <glyph glyph-name="itilde" unicode="&#x129;" horiz-adv-x="234" 
d="M129 0h-75l102 526h75zM344 716l38 -46q-43 -35 -65 -45.5t-48 -10.5q-21 0 -52.5 21.5t-60.5 21.5q-21 0 -63 -33l-38 45q44 36 65.5 46.5t47.5 10.5q21 0 53.5 -21.5t60.5 -21.5q22 0 62 33z" />
    <glyph glyph-name="uni012A" unicode="&#x12a;" horiz-adv-x="236" 
d="M182 713h77l-138 -713h-77zM381 793h-305l14 71h305z" />
    <glyph glyph-name="imacron" unicode="&#x12b;" horiz-adv-x="235" 
d="M129 0h-75l102 526h75zM364 624h-305l14 71h305z" />
    <glyph glyph-name="Ibreve" unicode="&#x12c;" horiz-adv-x="237" 
d="M183 713h77l-138 -713h-77zM426 922q-23 -75 -70 -108.5t-123 -33.5q-72 0 -109.5 35.5t-30.5 106.5h71q-2 -39 17 -57.5t65 -18.5q84 0 112 76h68z" />
    <glyph glyph-name="uni012D" unicode="&#x12d;" horiz-adv-x="235" 
d="M403 746q-23 -75 -70 -108.5t-123 -33.5q-72 0 -109.5 35.5t-30.5 106.5h71q-2 -39 17 -57.5t65 -18.5q84 0 112 76h68zM129 0h-75l102 526h75z" />
    <glyph glyph-name="Iogonek" unicode="&#x12e;" horiz-adv-x="237" 
d="M183 713h77l-138 -713h-77zM180 -201h-81l-55 159h68z" />
    <glyph glyph-name="iogonek" unicode="&#x12f;" horiz-adv-x="236" 
d="M121 0h-75l102 526h75zM247 612h-92l21 108h92zM182 -202h-81l-55 159h68z" />
    <glyph glyph-name="Idotaccent" unicode="&#x130;" horiz-adv-x="237" 
d="M183 713h77l-138 -713h-77zM283 793h-93l17 88h93z" />
    <glyph glyph-name="dotlessi" unicode="&#x131;" horiz-adv-x="235" 
d="M129 0h-75l102 526h75z" />
    <glyph glyph-name="IJ" unicode="&#x132;" horiz-adv-x="682" 
d="M182 713h77l-138 -713h-77zM607 181q-37 -190 -218 -190q-84 0 -122 51.5t-23 136.5h76q-12 -64 12 -88t72 -24q106 0 126 108l90 462h-213l15 76h289z" />
    <glyph glyph-name="ij" unicode="&#x133;" horiz-adv-x="486" 
d="M128 0h-75l102 526h75zM254 612h-92l21 108h92zM356 -89q-27 -137 -151 -137h-29l14 75h24q55 0 65 57l121 620h76zM500 612h-91l21 108h91z" />
    <glyph glyph-name="Jcircumflex" unicode="&#x134;" horiz-adv-x="458" 
d="M383 181q-37 -190 -218 -190q-84 0 -122 51.5t-23 136.5h76q-12 -64 12 -88t72 -24q106 0 126 108l90 462h-213l15 76h289zM474 793h-70l-56 73l-84 -73h-81l141 142h64z" />
    <glyph glyph-name="jcircumflex" unicode="&#x135;" horiz-adv-x="268" 
d="M142 -79q-13 -70 -54.5 -103.5t-96.5 -33.5h-29l15 75h23q56 0 66 57l119 610h75zM368 594h-70l-56 73l-84 -73h-81l141 142h64z" />
    <glyph glyph-name="Kcommaaccent" unicode="&#x136;" horiz-adv-x="538" 
d="M462 0h-86l-127 328l-81 -91l-46 -237h-77l138 713h77l-65 -339l305 339h95l-290 -324zM531 -201h-81l-55 159h68z" />
    <glyph glyph-name="kcommaaccent" unicode="&#x137;" horiz-adv-x="537" 
d="M441 0h-84l-111 248l-93 -84l-32 -164h-76l139 720h76l-86 -446l279 252h105l-256 -227zM514 -202h-81l-55 159h68z" />
    <glyph glyph-name="Lacute" unicode="&#x139;" horiz-adv-x="479" 
d="M429 0h-384l138 713h76l-124 -638h308zM405 944l-129 -163h-73l110 163h92z" />
    <glyph glyph-name="lacute" unicode="&#x13a;" horiz-adv-x="264" 
d="M72 136l113 584h76l-114 -588q-6 -33 4 -45.5t40 -12.5h24l-14 -74h-29q-56 0 -84.5 33.5t-15.5 102.5zM402 944l-129 -163h-73l110 163h92z" />
    <glyph glyph-name="Lcommaaccent" unicode="&#x13b;" horiz-adv-x="479" 
d="M429 0h-384l138 713h76l-124 -638h308zM276 -43l-92 -159h-86l105 159h73z" />
    <glyph glyph-name="lcommaaccent" unicode="&#x13c;" horiz-adv-x="258" 
d="M67 136l113 584h76l-114 -588q-6 -33 4 -45.5t40 -12.5h24l-14 -74h-29q-56 0 -84.5 33.5t-15.5 102.5zM167 -42l-92 -159h-86l105 159h73z" />
    <glyph glyph-name="Lcaron" unicode="&#x13d;" horiz-adv-x="488" 
d="M429 0h-384l138 713h76l-124 -638h308zM516 713l-129 -163h-73l110 163h92z" />
    <glyph glyph-name="lcaron" unicode="&#x13e;" horiz-adv-x="295" 
d="M67 136l113 584h76l-114 -588q-6 -33 4 -45.5t40 -12.5h24l-14 -74h-29q-56 0 -84.5 33.5t-15.5 102.5zM505 720l-129 -163h-73l110 163h92z" />
    <glyph glyph-name="Ldot" unicode="&#x13f;" horiz-adv-x="479" 
d="M429 0h-384l138 713h76l-124 -638h308zM370 213h-106l21 107h106z" />
    <glyph glyph-name="ldot" unicode="&#x140;" horiz-adv-x="423" 
d="M67 136l113 584h76l-114 -588q-6 -33 4 -45.5t40 -12.5h24l-14 -74h-29q-56 0 -84.5 33.5t-15.5 102.5zM382 213h-106l21 107h106z" />
    <glyph glyph-name="Lslash" unicode="&#x141;" horiz-adv-x="476" 
d="M426 0h-383l48 250h-55l14 72h55l76 391h76l-76 -391h300l-14 -72h-300l-34 -175h307z" />
    <glyph glyph-name="lslash" unicode="&#x142;" horiz-adv-x="238" 
d="M61 136l22 114h-107l14 71h107l74 382h76l-74 -382h112l-14 -71h-112l-23 -118q-7 -32 3.5 -45t40.5 -13h24l-15 -74h-29q-56 0 -84 33.5t-15 102.5z" />
    <glyph glyph-name="Nacute" unicode="&#x143;" horiz-adv-x="568" 
d="M453 0h-88l-134 560l-109 -560h-77l138 713h86l136 -568l110 568h76zM527 944l-129 -163h-73l110 163h92z" />
    <glyph glyph-name="nacute" unicode="&#x144;" horiz-adv-x="541" 
d="M440 0h-75l67 345q4 21 5.5 32.5t-1 29.5t-11 28t-28.5 17.5t-51 7.5q-54 0 -97 -32t-53 -81l-67 -347h-75l102 525h75l-10 -48q51 57 139 57t126 -50t21 -139zM497 757l-129 -163h-73l110 163h92z" />
    <glyph glyph-name="Ncommaaccent" unicode="&#x145;" horiz-adv-x="597" 
d="M453 0h-88l-134 560l-109 -560h-77l138 713h86l136 -568l110 568h76zM517 -202h-81l-55 159h68z" />
    <glyph glyph-name="ncommaaccent" unicode="&#x146;" horiz-adv-x="564" 
d="M440 0h-75l67 345q4 21 5.5 32.5t-1 29.5t-11 28t-28.5 17.5t-51 7.5q-54 0 -97 -32t-53 -81l-67 -347h-75l102 525h75l-10 -48q51 57 139 57t126 -50t21 -139zM496 -202h-81l-55 159h68z" />
    <glyph glyph-name="Ncaron" unicode="&#x147;" horiz-adv-x="568" 
d="M453 0h-88l-134 560l-109 -560h-77l138 713h86l136 -568l110 568h76zM251 935h72l55 -72l84 72h80l-140 -142h-64z" />
    <glyph glyph-name="ncaron" unicode="&#x148;" horiz-adv-x="541" 
d="M440 0h-75l67 345q4 21 5.5 32.5t-1 29.5t-11 28t-28.5 17.5t-51 7.5q-54 0 -97 -32t-53 -81l-67 -347h-75l102 525h75l-10 -48q51 57 139 57t126 -50t21 -139zM204 736h72l55 -72l84 72h80l-140 -142h-64z" />
    <glyph glyph-name="napostrophe" unicode="&#x149;" horiz-adv-x="669" 
d="M570 0h-75l67 345q4 21 5.5 32.5t-1 29.5t-11 28t-28.5 17.5t-51 7.5q-54 0 -97 -32t-53 -81l-67 -347h-75l102 525h75l-10 -48q51 57 139 57t126 -50t21 -139zM347 765l-182 -221h-50l125 221h107z" />
    <glyph glyph-name="Eng" unicode="&#x14a;" horiz-adv-x="568" 
d="M458 -29q-37 -190 -219 -190q-85 0 -123 52t-21 138h76l-1 -2q-12 -64 12.5 -88t72.5 -24q104 0 126 108l6 35h-17l-129 560l-109 -560h-77l139 713h91l131 -568l110 568h76z" />
    <glyph glyph-name="eng" unicode="&#x14b;" horiz-adv-x="536" 
d="M435 -79q-27 -137 -153 -137h-28l15 75h24q54 0 66 57l83 429q4 21 5.5 32.5t-1 29.5t-11 28t-28.5 17.5t-51 7.5q-53 0 -96.5 -32t-53.5 -81l-67 -347h-75l102 525h75l-7 -38q58 47 137 47q88 0 125.5 -50t20.5 -139z" />
    <glyph glyph-name="Omacron" unicode="&#x14c;" 
d="M473 182q-5 -28 -19 -57t-40.5 -61.5t-73 -52.5t-106.5 -20q-45 0 -78.5 14t-50.5 35.5t-27.5 47.5t-9.5 50.5t3 44.5l67 348q5 28 19 56t40 60t73 52t107 20q45 0 78.5 -13.5t50 -35t27.5 -47t10.5 -50t-2.5 -43.5zM397 183l67 346q22 115 -102 115q-19 0 -38.5 -4.5
t-43 -15.5t-41.5 -35.5t-25 -59.5l-67 -346q-23 -116 103 -116q19 0 38 4.5t42.5 15.5t41.5 36t25 60zM539 793h-305l14 71h305z" />
    <glyph glyph-name="omacron" unicode="&#x14d;" horiz-adv-x="533" 
d="M472 180q-17 -87 -78.5 -138.5t-154.5 -51.5q-90 0 -133.5 51.5t-26.5 138.5l32 165q17 87 78.5 138t155.5 51q89 0 132.5 -51t26.5 -138zM396 180l32 165q6 20 4 40.5t-9.5 37t-31 27t-61.5 10.5q-57 0 -95 -30.5t-48 -84.5l-32 -165q-3 -27 -2.5 -52.5t26 -44
t75.5 -18.5q56 0 94 30.5t48 84.5zM504 624h-305l14 71h305z" />
    <glyph glyph-name="Obreve" unicode="&#x14e;" 
d="M473 182q-5 -28 -19 -57t-40.5 -61.5t-73 -52.5t-106.5 -20q-45 0 -78.5 14t-50.5 35.5t-27.5 47.5t-9.5 50.5t3 44.5l67 348q5 28 19 56t40 60t73 52t107 20q45 0 78.5 -13.5t50 -35t27.5 -47t10.5 -50t-2.5 -43.5zM397 183l67 346q22 115 -102 115q-19 0 -38.5 -4.5
t-43 -15.5t-41.5 -35.5t-25 -59.5l-67 -346q-23 -116 103 -116q19 0 38 4.5t42.5 15.5t41.5 36t25 60zM577 923q-23 -75 -70 -108.5t-123 -33.5q-72 0 -109.5 35.5t-30.5 106.5h71q-2 -39 17 -57.5t65 -18.5q84 0 112 76h68z" />
    <glyph glyph-name="obreve" unicode="&#x14f;" horiz-adv-x="533" 
d="M472 180q-17 -87 -78.5 -138.5t-154.5 -51.5q-90 0 -133.5 51.5t-26.5 138.5l32 165q17 87 78.5 138t155.5 51q89 0 132.5 -51t26.5 -138zM396 180l32 165q6 20 4 40.5t-9.5 37t-31 27t-61.5 10.5q-57 0 -95 -30.5t-48 -84.5l-32 -165q-3 -27 -2.5 -52.5t26 -44
t75.5 -18.5q56 0 94 30.5t48 84.5zM553 746q-23 -75 -70 -108.5t-123 -33.5q-72 0 -109.5 35.5t-30.5 106.5h71q-2 -39 17 -57.5t65 -18.5q84 0 112 76h68z" />
    <glyph glyph-name="Ohungarumlaut" unicode="&#x150;" 
d="M473 182q-5 -28 -19 -57t-40.5 -61.5t-73 -52.5t-106.5 -20q-45 0 -78.5 14t-50.5 35.5t-27.5 47.5t-9.5 50.5t3 44.5l67 348q5 28 19 56t40 60t73 52t107 20q45 0 78.5 -13.5t50 -35t27.5 -47t10.5 -50t-2.5 -43.5zM397 183l67 346q22 115 -102 115q-19 0 -38.5 -4.5
t-43 -15.5t-41.5 -35.5t-25 -59.5l-67 -346q-23 -116 103 -116q19 0 38 4.5t42.5 15.5t41.5 36t25 60zM613 943l-148 -162h-80l127 162h101zM456 943l-145 -162h-81l126 162h100z" />
    <glyph glyph-name="ohungarumlaut" unicode="&#x151;" horiz-adv-x="533" 
d="M472 180q-17 -87 -78.5 -138.5t-154.5 -51.5q-90 0 -133.5 51.5t-26.5 138.5l32 165q17 87 78.5 138t155.5 51q89 0 132.5 -51t26.5 -138zM396 180l32 165q6 20 4 40.5t-9.5 37t-31 27t-61.5 10.5q-57 0 -95 -30.5t-48 -84.5l-32 -165q-3 -27 -2.5 -52.5t26 -44
t75.5 -18.5q56 0 94 30.5t48 84.5zM579 747l-148 -162h-80l127 162h101zM422 747l-145 -162h-81l126 162h100z" />
    <glyph glyph-name="OE" unicode="&#x152;" horiz-adv-x="832" 
d="M747 0h-385l5 28q-60 -37 -133 -37q-45 0 -78.5 14t-50 35.5t-27.5 47.5t-10 50.5t3 44.5l67 348q5 27 19 55.5t40.5 60.5t73 52t106.5 20q74 0 118 -37l6 31h385l-15 -76h-309l-43 -222h286l-15 -76h-286l-51 -264h309zM250 67q18 0 37 4t42 14.5t41 33.5t26 56l69 354
q22 115 -103 115q-19 0 -38 -4.5t-42.5 -15.5t-41.5 -35.5t-25 -59.5l-67 -346q-23 -116 102 -116z" />
    <glyph glyph-name="oe" unicode="&#x153;" horiz-adv-x="838" 
d="M477 239l-13 -67q-2 -26 -1 -50t26 -40.5t73 -16.5q50 0 85.5 28t50.5 79h76q-22 -85 -80.5 -133.5t-146.5 -48.5q-109 0 -144 68q-62 -68 -167 -68q-90 0 -132 51t-25 139l32 165q17 88 77 138.5t154 50.5q102 0 142 -68q68 68 169 68q89 0 131 -51t25 -138l-21 -106
h-311zM389 175l35 178q21 107 -97 107q-56 0 -93.5 -30t-47.5 -85l-32 -165q-6 -20 -4.5 -40t8.5 -37t31 -27.5t62 -10.5q54 0 90 29t48 81zM727 312l6 33q6 20 4.5 40.5t-8.5 37t-30 27t-61 10.5q-54 0 -91.5 -29t-47.5 -80l-7 -39h235z" />
    <glyph glyph-name="Racute" unicode="&#x154;" horiz-adv-x="551" 
d="M466 0h-87l-82 301h-117l-58 -301h-77l138 713h211q46 0 79.5 -13.5t49 -35t25 -47t7.5 -49.5t-4 -43l-7 -34q-28 -148 -164 -183zM468 492l5 30q13 68 -16 91.5t-79 23.5h-132l-51 -261h134q27 0 51.5 7t51.5 35t36 74zM505 944l-129 -163h-73l110 163h92z" />
    <glyph glyph-name="racute" unicode="&#x155;" horiz-adv-x="322" 
d="M353 450h-43q-36 0 -70 -28.5t-46 -87.5l-65 -334h-75l102 525h75l-9 -48q48 48 103 48h42zM377 757l-129 -163h-73l110 163h92z" />
    <glyph glyph-name="Rcommaaccent" unicode="&#x156;" horiz-adv-x="551" 
d="M466 0h-87l-82 301h-117l-58 -301h-77l138 713h211q46 0 79.5 -13.5t49 -35t25 -47t7.5 -49.5t-4 -43l-7 -34q-28 -148 -164 -183zM468 492l5 30q13 68 -16 91.5t-79 23.5h-132l-51 -261h134q27 0 51.5 7t51.5 35t36 74zM273 -43l-92 -159h-86l105 159h73z" />
    <glyph glyph-name="rcommaaccent" unicode="&#x157;" horiz-adv-x="335" 
d="M362 450h-43q-36 0 -70 -28.5t-46 -87.5l-65 -334h-75l102 525h75l-9 -48q48 48 103 48h42zM134 -42l-92 -159h-86l105 159h73z" />
    <glyph glyph-name="Rcaron" unicode="&#x158;" horiz-adv-x="551" 
d="M466 0h-87l-82 301h-117l-58 -301h-77l138 713h211q46 0 79.5 -13.5t49 -35t25 -47t7.5 -49.5t-4 -43l-7 -34q-28 -148 -164 -183zM468 492l5 30q13 68 -16 91.5t-79 23.5h-132l-51 -261h134q27 0 51.5 7t51.5 35t36 74zM262 935h72l55 -72l84 72h80l-140 -142h-64z" />
    <glyph glyph-name="rcaron" unicode="&#x159;" horiz-adv-x="346" 
d="M353 450h-43q-36 0 -70 -28.5t-46 -87.5l-65 -334h-75l102 525h75l-9 -48q48 48 103 48h42zM147 734h72l55 -72l84 72h80l-140 -142h-64z" />
    <glyph glyph-name="Sacute" unicode="&#x15a;" horiz-adv-x="523" 
d="M472 182q-16 -84 -85.5 -138t-165.5 -54q-93 0 -139.5 54.5t-30.5 134.5h76q-11 -54 17 -83.5t91 -29.5t107 33t55 85q13 70 -49 111q-25 17 -76 46t-74 43q-39 23 -57 64t-8 92q15 80 77 130t154 50q90 0 136.5 -53t29.5 -135h-77q11 55 -15.5 84t-88.5 29
q-52 0 -91.5 -28.5t-48.5 -78.5q-12 -60 44 -93q94 -51 145 -82q98 -61 74 -181zM517 944l-129 -163h-73l110 163h92z" />
    <glyph glyph-name="sacute" unicode="&#x15b;" horiz-adv-x="492" 
d="M445 156q-31 -164 -228 -164q-86 0 -130.5 48.5t-28.5 131.5h75q-20 -105 99 -105q121 0 138 89q9 46 -46 63q-21 6 -68.5 17.5t-58.5 14.5q-48 12 -73.5 47t-16.5 83q15 78 71.5 115t141.5 37q84 0 128.5 -45t31.5 -125h-76q6 48 -16.5 72t-84.5 24q-106 0 -121 -78
q-4 -21 9 -37t38 -22q119 -30 132 -34q47 -15 70.5 -48.5t13.5 -83.5zM478 757l-129 -163h-73l110 163h92z" />
    <glyph glyph-name="Scircumflex" unicode="&#x15c;" horiz-adv-x="523" 
d="M472 182q-16 -84 -85.5 -138t-165.5 -54q-93 0 -139.5 54.5t-30.5 134.5h76q-11 -54 17 -83.5t91 -29.5t107 33t55 85q13 70 -49 111q-25 17 -76 46t-74 43q-39 23 -57 64t-8 92q15 80 77 130t154 50q90 0 136.5 -53t29.5 -135h-77q11 55 -15.5 84t-88.5 29
q-52 0 -91.5 -28.5t-48.5 -78.5q-12 -60 44 -93q94 -51 145 -82q98 -61 74 -181zM533 793h-70l-56 73l-84 -73h-81l141 142h64z" />
    <glyph glyph-name="scircumflex" unicode="&#x15d;" horiz-adv-x="492" 
d="M445 156q-31 -164 -228 -164q-86 0 -130.5 48.5t-28.5 131.5h75q-20 -105 99 -105q121 0 138 89q9 46 -46 63q-21 6 -68.5 17.5t-58.5 14.5q-48 12 -73.5 47t-16.5 83q15 78 71.5 115t141.5 37q84 0 128.5 -45t31.5 -125h-76q6 48 -16.5 72t-84.5 24q-106 0 -121 -78
q-4 -21 9 -37t38 -22q119 -30 132 -34q47 -15 70.5 -48.5t13.5 -83.5zM478 594h-70l-56 73l-84 -73h-81l141 142h64z" />
    <glyph glyph-name="Scedilla" unicode="&#x15e;" horiz-adv-x="523" 
d="M472 182q-16 -84 -85.5 -138t-165.5 -54q-93 0 -139.5 54.5t-30.5 134.5h76q-11 -54 17 -83.5t91 -29.5t107 33t55 85q13 70 -49 111q-25 17 -76 46t-74 43q-39 23 -57 64t-8 92q15 80 77 130t154 50q90 0 136.5 -53t29.5 -135h-77q11 55 -15.5 84t-88.5 29
q-52 0 -91.5 -28.5t-48.5 -78.5q-12 -60 44 -93q94 -51 145 -82q98 -61 74 -181zM297 -42l-92 -159h-86l105 159h73z" />
    <glyph glyph-name="scedilla" unicode="&#x15f;" horiz-adv-x="492" 
d="M445 156q-31 -164 -228 -164q-86 0 -130.5 48.5t-28.5 131.5h75q-20 -105 99 -105q121 0 138 89q9 46 -46 63q-21 6 -68.5 17.5t-58.5 14.5q-48 12 -73.5 47t-16.5 83q15 78 71.5 115t141.5 37q84 0 128.5 -45t31.5 -125h-76q6 48 -16.5 72t-84.5 24q-106 0 -121 -78
q-4 -21 9 -37t38 -22q119 -30 132 -34q47 -15 70.5 -48.5t13.5 -83.5zM253 -43l-92 -159h-86l105 159h73z" />
    <glyph glyph-name="Scaron" unicode="&#x160;" horiz-adv-x="523" 
d="M472 182q-16 -84 -85.5 -138t-165.5 -54q-93 0 -139.5 54.5t-30.5 134.5h76q-11 -54 17 -83.5t91 -29.5t107 33t55 85q13 70 -49 111q-25 17 -76 46t-74 43q-39 23 -57 64t-8 92q15 80 77 130t154 50q90 0 136.5 -53t29.5 -135h-77q11 55 -15.5 84t-88.5 29
q-52 0 -91.5 -28.5t-48.5 -78.5q-12 -60 44 -93q94 -51 145 -82q98 -61 74 -181zM262 935h72l55 -72l84 72h80l-140 -142h-64z" />
    <glyph glyph-name="scaron" unicode="&#x161;" horiz-adv-x="492" 
d="M445 156q-31 -164 -228 -164q-86 0 -130.5 48.5t-28.5 131.5h75q-20 -105 99 -105q121 0 138 89q9 46 -46 63q-21 6 -68.5 17.5t-58.5 14.5q-48 12 -73.5 47t-16.5 83q15 78 71.5 115t141.5 37q84 0 128.5 -45t31.5 -125h-76q6 48 -16.5 72t-84.5 24q-106 0 -121 -78
q-4 -21 9 -37t38 -22q119 -30 132 -34q47 -15 70.5 -48.5t13.5 -83.5zM210 736h72l55 -72l84 72h80l-140 -142h-64z" />
    <glyph glyph-name="Tcommaaccent" unicode="&#x162;" horiz-adv-x="477" 
d="M540 636h-174l-124 -636h-77l124 636h-174l14 77h425zM236 -43l-92 -159h-86l105 159h73z" />
    <glyph glyph-name="tcommaaccent" unicode="&#x163;" horiz-adv-x="359" 
d="M73 450l15 75h100l36 188h75l-36 -188h115l-15 -75h-115l-61 -318q-7 -32 3 -45t40 -13h62l-14 -74h-66q-56 0 -85 33.5t-15 102.5l61 314h-100zM229 -43l-92 -159h-86l105 159h73z" />
    <glyph glyph-name="Tcaron" unicode="&#x164;" horiz-adv-x="477" 
d="M540 636h-174l-124 -636h-77l124 636h-174l14 77h425zM244 935h72l55 -72l84 72h80l-140 -142h-64z" />
    <glyph glyph-name="tcaron" unicode="&#x165;" horiz-adv-x="374" 
d="M73 450l15 75h100l36 188h75l-36 -188h115l-15 -75h-115l-61 -318q-7 -32 3 -45t40 -13h62l-14 -74h-66q-56 0 -85 33.5t-15 102.5l61 314h-100zM594 713l-129 -163h-73l110 163h92z" />
    <glyph glyph-name="Tbar" unicode="&#x166;" horiz-adv-x="477" 
d="M540 636h-174l-62 -314h114l-14 -72h-114l-48 -250h-77l48 250h-110l14 72h110l62 314h-174l14 77h425z" />
    <glyph glyph-name="tbar" unicode="&#x167;" horiz-adv-x="333" 
d="M55 450l14 75h100l35 177h75l-35 -177h115l-14 -75h-115l-26 -132h120l-14 -71h-120l-22 -115q-7 -32 3.5 -45t41.5 -13h61l-15 -74h-66q-56 0 -84.5 33.5t-14.5 102.5l21 111h-101l14 71h101l26 132h-100z" />
    <glyph glyph-name="Utilde" unicode="&#x168;" horiz-adv-x="544" 
d="M475 182q-6 -30 -19.5 -59t-39.5 -61t-72.5 -51.5t-106.5 -19.5q-46 0 -80.5 13.5t-51.5 35t-28 47t-9.5 50.5t3.5 46l103 530h77l-103 -530q-23 -116 102 -116q19 0 38.5 4.5t43 15.5t41.5 35.5t25 60.5l103 530h77zM535 882l38 -46q-43 -35 -65 -45.5t-48 -10.5
q-21 0 -52.5 21.5t-60.5 21.5q-21 0 -63 -33l-38 45q44 36 65.5 46.5t47.5 10.5q21 0 53.5 -21.5t60.5 -21.5q22 0 62 33z" />
    <glyph glyph-name="utilde" unicode="&#x169;" horiz-adv-x="544" 
d="M438 0h-76l8 41q-48 -50 -128 -50q-89 0 -132 51t-26 138l68 346h76l-68 -346q-6 -20 -4.5 -40t8.5 -36.5t30.5 -27t61.5 -10.5q53 0 91.5 29.5t48.5 79.5l69 351h76zM499 717l38 -46q-43 -35 -65 -45.5t-48 -10.5q-21 0 -52.5 21.5t-60.5 21.5q-21 0 -63 -33l-38 45
q44 36 65.5 46.5t47.5 10.5q21 0 53.5 -21.5t60.5 -21.5q22 0 62 33z" />
    <glyph glyph-name="Umacron" unicode="&#x16a;" horiz-adv-x="544" 
d="M475 182q-6 -30 -19.5 -59t-39.5 -61t-72.5 -51.5t-106.5 -19.5q-46 0 -80.5 13.5t-51.5 35t-28 47t-9.5 50.5t3.5 46l103 530h77l-103 -530q-23 -116 102 -116q19 0 38.5 4.5t43 15.5t41.5 35.5t25 60.5l103 530h77zM551 793h-305l14 71h305z" />
    <glyph glyph-name="umacron" unicode="&#x16b;" horiz-adv-x="544" 
d="M438 0h-76l8 41q-48 -50 -128 -50q-89 0 -132 51t-26 138l68 346h76l-68 -346q-6 -20 -4.5 -40t8.5 -36.5t30.5 -27t61.5 -10.5q53 0 91.5 29.5t48.5 79.5l69 351h76zM519 624h-305l14 71h305z" />
    <glyph glyph-name="Ubreve" unicode="&#x16c;" horiz-adv-x="544" 
d="M475 182q-6 -30 -19.5 -59t-39.5 -61t-72.5 -51.5t-106.5 -19.5q-46 0 -80.5 13.5t-51.5 35t-28 47t-9.5 50.5t3.5 46l103 530h77l-103 -530q-23 -116 102 -116q19 0 38.5 4.5t43 15.5t41.5 35.5t25 60.5l103 530h77zM590 923q-23 -75 -70 -108.5t-123 -33.5
q-72 0 -109.5 35.5t-30.5 106.5h71q-2 -39 17 -57.5t65 -18.5q84 0 112 76h68z" />
    <glyph glyph-name="ubreve" unicode="&#x16d;" horiz-adv-x="544" 
d="M438 0h-76l8 41q-48 -50 -128 -50q-89 0 -132 51t-26 138l68 346h76l-68 -346q-6 -20 -4.5 -40t8.5 -36.5t30.5 -27t61.5 -10.5q53 0 91.5 29.5t48.5 79.5l69 351h76zM549 746q-23 -75 -70 -108.5t-123 -33.5q-72 0 -109.5 35.5t-30.5 106.5h71q-2 -39 17 -57.5t65 -18.5
q84 0 112 76h68z" />
    <glyph glyph-name="Uring" unicode="&#x16e;" horiz-adv-x="544" 
d="M475 182q-6 -30 -19.5 -59t-39.5 -61t-72.5 -51.5t-106.5 -19.5q-46 0 -80.5 13.5t-51.5 35t-28 47t-9.5 50.5t3.5 46l103 530h77l-103 -530q-23 -116 102 -116q19 0 38.5 4.5t43 15.5t41.5 35.5t25 60.5l103 530h77zM517 865q-9 -45 -44 -76t-85 -31q-43 0 -68 32
t-17 75q9 46 43.5 76.5t83.5 30.5q45 0 70.5 -31t16.5 -76zM463 865q5 23 -5.5 38t-38.5 15q-21 0 -39 -15.5t-23 -37.5q-9 -52 42 -52q22 0 41 15.5t23 36.5z" />
    <glyph glyph-name="uring" unicode="&#x16f;" horiz-adv-x="544" 
d="M438 0h-76l8 41q-48 -50 -128 -50q-89 0 -132 51t-26 138l68 346h76l-68 -346q-6 -20 -4.5 -40t8.5 -36.5t30.5 -27t61.5 -10.5q53 0 91.5 29.5t48.5 79.5l69 351h76zM478 691q-9 -45 -44 -76t-85 -31q-43 0 -68 32t-17 75q9 46 43.5 76.5t83.5 30.5q45 0 70.5 -31
t16.5 -76zM424 691q5 23 -5.5 38t-38.5 15q-21 0 -39 -15.5t-23 -37.5q-9 -52 42 -52q22 0 41 15.5t23 36.5z" />
    <glyph glyph-name="Uhungarumlaut" unicode="&#x170;" horiz-adv-x="544" 
d="M475 182q-6 -30 -19.5 -59t-39.5 -61t-72.5 -51.5t-106.5 -19.5q-46 0 -80.5 13.5t-51.5 35t-28 47t-9.5 50.5t3.5 46l103 530h77l-103 -530q-23 -116 102 -116q19 0 38.5 4.5t43 15.5t41.5 35.5t25 60.5l103 530h77zM623 943l-148 -162h-80l127 162h101zM466 943
l-145 -162h-81l126 162h100z" />
    <glyph glyph-name="uhungarumlaut" unicode="&#x171;" horiz-adv-x="544" 
d="M438 0h-76l8 41q-48 -50 -128 -50q-89 0 -132 51t-26 138l68 346h76l-68 -346q-6 -20 -4.5 -40t8.5 -36.5t30.5 -27t61.5 -10.5q53 0 91.5 29.5t48.5 79.5l69 351h76zM584 747l-148 -162h-80l127 162h101zM427 747l-145 -162h-81l126 162h100z" />
    <glyph glyph-name="Uogonek" unicode="&#x172;" horiz-adv-x="549" 
d="M475 182q-6 -30 -19.5 -59t-39.5 -61t-72.5 -51.5t-106.5 -19.5q-46 0 -80.5 13.5t-51.5 35t-28 47t-9.5 50.5t3.5 46l103 530h77l-103 -530q-23 -116 102 -116q19 0 38.5 4.5t43 15.5t41.5 35.5t25 60.5l103 530h77zM327 -202h-81l-55 159h68z" />
    <glyph glyph-name="uogonek" unicode="&#x173;" horiz-adv-x="544" 
d="M438 0h-76l8 41q-48 -50 -128 -50q-89 0 -132 51t-26 138l68 346h76l-68 -346q-6 -20 -4.5 -40t8.5 -36.5t30.5 -27t61.5 -10.5q53 0 91.5 29.5t48.5 79.5l69 351h76zM496 -202h-81l-55 159h68z" />
    <glyph glyph-name="Wcircumflex" unicode="&#x174;" horiz-adv-x="794" 
d="M871 713l-287 -713h-93l-22 550l-237 -550h-93l-10 713h77l2 -593l254 592h74l22 -591l233 592h80zM650 793h-70l-56 73l-84 -73h-81l141 142h64z" />
    <glyph glyph-name="wcircumflex" unicode="&#x175;" horiz-adv-x="696" 
d="M731 526l-225 -526h-89l-19 389l-171 -389h-88l-22 526h76l12 -411l181 411h72l21 -412l172 412h80zM575 594h-70l-56 73l-84 -73h-81l141 142h64z" />
    <glyph glyph-name="Ycircumflex" unicode="&#x176;" horiz-adv-x="504" 
d="M581 713l-276 -456l-50 -257h-77l50 259l-99 454h77l76 -360l211 360h88zM517 793h-70l-56 73l-84 -73h-81l141 142h64z" />
    <glyph glyph-name="ycircumflex" unicode="&#x177;" horiz-adv-x="450" 
d="M197 0h-44l-45 526h79l35 -454h7l208 454h79l-289 -626q-36 -79 -74 -102.5t-112 -23.5h-36l15 75h48q31 0 50.5 11.5t33.5 42.5zM454 594h-70l-56 73l-84 -73h-81l141 142h64z" />
    <glyph glyph-name="Ydieresis" unicode="&#x178;" horiz-adv-x="504" 
d="M581 713l-276 -456l-50 -257h-77l50 259l-99 454h77l76 -360l211 360h88zM512 793h-92l21 109h92zM307 793h-92l21 109h92z" />
    <glyph glyph-name="Zacute" unicode="&#x179;" horiz-adv-x="448" 
d="M388 0h-397l13 70l407 567h-283l14 76h368l-13 -67l-407 -571h312zM466 944l-129 -163h-73l110 163h92z" />
    <glyph glyph-name="zacute" unicode="&#x17a;" horiz-adv-x="449" 
d="M382 0h-367l13 68l333 382h-249l14 75h337l-13 -68l-334 -383h280zM425 757l-129 -163h-73l110 163h92z" />
    <glyph glyph-name="Zdotaccent" unicode="&#x17b;" horiz-adv-x="448" 
d="M388 0h-397l13 70l407 567h-283l14 76h368l-13 -67l-407 -571h312zM389 793h-93l17 88h93z" />
    <glyph glyph-name="zdotaccent" unicode="&#x17c;" horiz-adv-x="449" 
d="M382 0h-367l13 68l333 382h-249l14 75h337l-13 -68l-334 -383h280zM353 631h-93l17 88h93z" />
    <glyph glyph-name="Zcaron" unicode="&#x17d;" horiz-adv-x="448" 
d="M388 0h-397l13 70l407 567h-283l14 76h368l-13 -67l-407 -571h312zM227 935h72l55 -72l84 72h80l-140 -142h-64z" />
    <glyph glyph-name="zcaron" unicode="&#x17e;" horiz-adv-x="449" 
d="M382 0h-367l13 68l333 382h-249l14 75h337l-13 -68l-334 -383h280zM195 736h72l55 -72l84 72h80l-140 -142h-64z" />
    <glyph glyph-name="longs" unicode="&#x17f;" horiz-adv-x="331" 
d="M261 566l-110 -566h-75l88 450h-91l14 75h91l6 29q14 73 54 111t116 38h47l-14 -74h-57q-22 0 -42 -15t-27 -48z" />
    <glyph glyph-name="florin" unicode="&#x192;" horiz-adv-x="330" 
d="M147 -79q-28 -137 -152 -137h-28l14 75h23q55 0 67 57l103 534h-91l15 75h91l6 29q28 149 170 149h47l-15 -74h-56q-23 0 -43 -15t-26 -48l-8 -41h124l-15 -75h-124z" />
    <glyph glyph-name="Scommaaccent" unicode="&#x218;" horiz-adv-x="523" 
d="M472 182q-16 -84 -85.5 -138t-165.5 -54q-93 0 -139.5 54.5t-30.5 134.5h76q-11 -54 17 -83.5t91 -29.5t107 33t55 85q13 70 -49 111q-25 17 -76 46t-74 43q-39 23 -57 64t-8 92q15 80 77 130t154 50q90 0 136.5 -53t29.5 -135h-77q11 55 -15.5 84t-88.5 29
q-52 0 -91.5 -28.5t-48.5 -78.5q-12 -60 44 -93q94 -51 145 -82q98 -61 74 -181zM280 -44l-92 -159h-86l105 159h73z" />
    <glyph glyph-name="scommaaccent" unicode="&#x219;" horiz-adv-x="492" 
d="M445 156q-31 -164 -228 -164q-86 0 -130.5 48.5t-28.5 131.5h75q-20 -105 99 -105q121 0 138 89q9 46 -46 63q-21 6 -68.5 17.5t-58.5 14.5q-48 12 -73.5 47t-16.5 83q15 78 71.5 115t141.5 37q84 0 128.5 -45t31.5 -125h-76q6 48 -16.5 72t-84.5 24q-106 0 -121 -78
q-4 -21 9 -37t38 -22q119 -30 132 -34q47 -15 70.5 -48.5t13.5 -83.5zM268 -44l-92 -159h-86l105 159h73z" />
    <glyph glyph-name="circumflex" unicode="&#x2c6;" horiz-adv-x="451" 
d="M420 577h-70l-56 73l-84 -73h-81l141 142h64z" />
    <glyph glyph-name="caron" unicode="&#x2c7;" horiz-adv-x="451" 
d="M156 720h72l55 -72l84 72h80l-140 -142h-64z" />
    <glyph glyph-name="breve" unicode="&#x2d8;" horiz-adv-x="493" 
d="M489 711q-23 -75 -70 -108.5t-123 -33.5q-72 0 -109.5 35.5t-30.5 106.5h71q-2 -39 17 -57.5t65 -18.5q84 0 112 76h68z" />
    <glyph glyph-name="dotaccent" unicode="&#x2d9;" horiz-adv-x="253" 
d="M227 605h-93l17 88h93z" />
    <glyph glyph-name="ring" unicode="&#x2da;" horiz-adv-x="375" 
d="M359 665q-9 -45 -44 -76t-85 -31q-43 0 -68 32t-17 75q9 46 43.5 76.5t83.5 30.5q45 0 70.5 -31t16.5 -76zM305 665q5 23 -5.5 38t-38.5 15q-21 0 -39 -15.5t-23 -37.5q-9 -52 42 -52q22 0 41 15.5t23 36.5z" />
    <glyph glyph-name="ogonek" unicode="&#x2db;" horiz-adv-x="319" 
d="M221 -177h-81l-55 159h68z" />
    <glyph glyph-name="tilde" unicode="&#x2dc;" horiz-adv-x="487" 
d="M430 682l38 -46q-43 -35 -65 -45.5t-48 -10.5q-21 0 -52.5 21.5t-60.5 21.5q-21 0 -63 -33l-38 45q44 36 65.5 46.5t47.5 10.5q21 0 53.5 -21.5t60.5 -21.5q22 0 62 33z" />
    <glyph glyph-name="hungarumlaut" unicode="&#x2dd;" horiz-adv-x="512" 
d="M510 730l-148 -162h-80l127 162h101zM353 730l-145 -162h-81l126 162h100z" />
    <glyph glyph-name="pi" unicode="&#x3c0;" horiz-adv-x="639" 
d="M439 0h-76l89 460h-136l-89 -460h-76l89 460h-101l14 71h487l-14 -71h-98z" />
    <glyph glyph-name="endash" unicode="&#x2013;" horiz-adv-x="584" 
d="M524 247h-424l14 71h424z" />
    <glyph glyph-name="emdash" unicode="&#x2014;" horiz-adv-x="828" 
d="M768 247h-668l14 71h668z" />
    <glyph glyph-name="quoteleft" unicode="&#x2018;" horiz-adv-x="240" 
d="M304 765l-125 -221h-107l181 221h51z" />
    <glyph glyph-name="quoteright" unicode="&#x2019;" horiz-adv-x="240" 
d="M304 765l-182 -221h-50l125 221h107z" />
    <glyph glyph-name="quotesinglbase" unicode="&#x201a;" horiz-adv-x="242" 
d="M248 106l-186 -226h-55l127 226h114z" />
    <glyph glyph-name="quotedblleft" unicode="&#x201c;" horiz-adv-x="385" 
d="M444 802l-129 -227h-114l188 227h55zM316 802l-129 -227h-113l187 227h55z" />
    <glyph glyph-name="quotedblright" unicode="&#x201d;" horiz-adv-x="385" 
d="M444 802l-187 -227h-56l129 227h114zM316 802l-187 -227h-55l128 227h114z" />
    <glyph glyph-name="quotedblbase" unicode="&#x201e;" horiz-adv-x="385" 
d="M376 106l-186 -226h-56l128 226h114zM248 106l-186 -226h-55l127 226h114z" />
    <glyph glyph-name="dagger" unicode="&#x2020;" horiz-adv-x="449" 
d="M214 -55h-70l101 519h-113l13 70h113l44 224h70l-44 -224h114l-13 -70h-114z" />
    <glyph glyph-name="daggerdbl" unicode="&#x2021;" horiz-adv-x="449" 
d="M214 -55h-70l43 223h-113l14 71h113l44 226h-113l13 70h113l44 223h70l-44 -223h114l-13 -70h-114l-44 -226h114l-14 -71h-114z" />
    <glyph glyph-name="bullet" unicode="&#x2022;" horiz-adv-x="380" 
d="M333 349q-8 -46 -46.5 -78t-84.5 -32t-71.5 32t-17.5 78q9 46 47.5 78.5t84.5 32.5t71.5 -32.5t16.5 -78.5z" />
    <glyph glyph-name="ellipsis" unicode="&#x2026;" horiz-adv-x="667" 
d="M585 0h-95l21 106h95zM375 0h-95l21 106h95zM166 0h-96l21 106h96z" />
    <glyph glyph-name="perthousand" unicode="&#x2030;" horiz-adv-x="1100" 
d="M388 462q-24 -124 -149 -124q-58 0 -85 33.5t-16 90.5l19 96q23 121 148 121q58 0 85.5 -32.5t16.5 -88.5zM317 462l19 96q1 12 2.5 23.5t-10 19.5t-36.5 8q-55 0 -65 -51l-19 -96q-8 -18 0 -36t44 -18q54 0 65 54zM707 114q-11 -59 -48.5 -91.5t-100.5 -32.5
q-58 0 -85 33.5t-16 90.5l19 96q11 57 48.5 89t100.5 32q57 0 84.5 -33t16.5 -88zM636 114l19 96q1 12 2.5 23t-10 19t-36.5 8q-54 0 -64 -50l-19 -96q-1 -13 -2.5 -25t10 -20.5t36.5 -8.5q54 0 64 54zM1007 114q-23 -124 -149 -124q-58 0 -85 33.5t-16 90.5l19 96
q11 57 48.5 89t100.5 32q58 0 85 -33t16 -88zM937 114l19 96q1 12 2.5 23t-10.5 19t-37 8q-54 0 -64 -50l-19 -96q-1 -13 -2 -25t10 -20.5t36 -8.5q55 0 65 54zM694 759l-422 -811h-79l425 811h76z" />
    <glyph glyph-name="guilsinglleft" unicode="&#x2039;" horiz-adv-x="299" 
d="M216 65l-161 199l239 200l-21 -105l-121 -101l82 -101z" />
    <glyph glyph-name="guilsinglright" unicode="&#x203a;" horiz-adv-x="298" 
d="M293 265l-236 -199l20 105l120 101l-81 100l18 93z" />
    <glyph glyph-name="fraction" unicode="&#x2044;" horiz-adv-x="561" 
d="M590 703l-465 -703h-80l467 703h78z" />
    <glyph glyph-name="Euro" unicode="&#x20ac;" horiz-adv-x="549" 
d="M424 719q53 0 88.5 -20.5t47.5 -50.5t17 -63t-2 -59h-76q19 118 -90 118q-44 0 -84 -25t-53 -91l-12 -61h188l-14 -72h-188l-14 -71h188l-14 -72h-188l-13 -68q-23 -117 92 -117q24 0 47.5 7.5t50 35t37.5 72.5h76q-46 -191 -230 -191q-45 0 -77 14t-48 35t-23 48.5
t-6.5 50t4.5 44.5l13 69h-81l14 72h81l14 71h-81l14 72h81l12 64q4 22 11.5 43.5t25 49t41 47.5t63 34t88.5 14z" />
    <glyph glyph-name="trademark" unicode="&#x2122;" horiz-adv-x="697" 
d="M628 316h-65l47 242l-73 -145h-51l-17 144l-47 -241h-65l75 386h86l15 -172l79 172h91zM405 636h-93l-63 -320h-66l63 320h-92l12 66h251z" />
    <glyph glyph-name="Omega" unicode="&#x2126;" horiz-adv-x="539" 
d="M251 0l12 64q47 7 85.5 34t49.5 84l68 348q22 117 -106 117q-19 0 -39 -4.5t-44 -15.5t-42 -36t-25 -61l-68 -348q-21 -105 89 -118l-12 -64h-223l11 65h77q-28 51 -15 117l68 350q5 27 19 55t40 60t72.5 52t105.5 20q45 0 78.5 -13.5t50.5 -35t28 -47t10 -49.5t-3 -43
l-68 -350q-15 -77 -61 -116h77l-12 -65h-223z" />
    <glyph glyph-name="partialdiff" unicode="&#x2202;" horiz-adv-x="536" 
d="M390 180l15 77q22 116 -98 116q-26 0 -52.5 -7t-56 -35t-38.5 -74l-15 -77q-22 -114 102 -114q18 0 37 4.5t41.5 15t40 35t24.5 59.5zM534 532l-69 -357q-5 -27 -19 -55t-39.5 -59t-71 -50.5t-103.5 -19.5q-45 0 -78.5 13.5t-50 34.5t-27 46.5t-9.5 49t2 42.5l16 81
q4 21 12.5 43.5t27 49.5t43 47.5t63.5 34.5t86 14q36 0 69 -16t46 -37l26 136q22 115 -100 115l15 75q45 0 78.5 -13.5t50 -34.5t26.5 -47t9 -50t-3 -43z" />
    <glyph glyph-name="Delta" unicode="&#x2206;" 
d="M483 0h-492l339 713h88zM406 70l-46 550l-260 -550h306z" />
    <glyph glyph-name="product" unicode="&#x220f;" horiz-adv-x="564" 
d="M453 0h-76l123 629h-260l-123 -629h-76l137 703h412z" />
    <glyph glyph-name="summation" unicode="&#x2211;" horiz-adv-x="563" 
d="M582 637h-320l214 -250l-12 -61l-314 -259h321l-13 -67h-423l13 69l358 295l-245 286l11 55h423z" />
    <glyph glyph-name="minus" unicode="&#x2212;" horiz-adv-x="565" 
d="M490 247h-375l14 71h375z" />
    <glyph glyph-name="radical" unicode="&#x221a;" horiz-adv-x="615" 
d="M228 -144h6l397 848h81l-436 -920h-118l-46 526h79z" />
    <glyph glyph-name="infinity" unicode="&#x221e;" horiz-adv-x="854" 
d="M454 181l-13 34l-27 -34q-77 -94 -172 -94q-77 0 -116 54.5t-23 139.5q17 87 74 140t140 53q47 0 83 -27t53 -67q3 -8 7 -16t7 -16l26 32q76 94 172 94q77 0 116.5 -54t23.5 -139q-17 -87 -74.5 -140.5t-140.5 -53.5q-47 0 -82 26.5t-54 67.5zM543 335l-47 -54
q4 -10 13.5 -29t12.5 -26q12 -24 19 -35t22.5 -20.5t38.5 -9.5q50 0 85 34t45 86q11 53 -8.5 86t-75.5 33q-48 0 -105 -65zM306 400q-49 0 -84.5 -34t-45.5 -85q-11 -54 9 -87t75 -33q49 0 104 65l48 55q-4 10 -14 28.5t-13 25.5q-16 35 -31 50t-48 15z" />
    <glyph glyph-name="integral" unicode="&#x222b;" horiz-adv-x="299" 
d="M132 -79q-28 -137 -152 -137h-29l14 75h24q54 0 66 57l124 638q28 149 170 149h47l-15 -74h-56q-23 0 -42.5 -15t-25.5 -48z" />
    <glyph glyph-name="approxequal" unicode="&#x2248;" horiz-adv-x="546" 
d="M469 419l43 -40q-53 -43 -75.5 -54.5t-58.5 -11.5q-24 0 -65 22.5t-74 22.5q-30 0 -77 -40l-40 40q51 43 74 55t58 12q25 0 65.5 -23t73.5 -23q29 0 76 40zM444 282l43 -40q-53 -43 -75.5 -54.5t-58.5 -11.5q-25 0 -65 22.5t-74 22.5q-30 0 -77 -40l-40 40q51 43 74 55
t58 12q25 0 65.5 -23t73.5 -23q29 0 76 40z" />
    <glyph glyph-name="notequal" unicode="&#x2260;" horiz-adv-x="568" 
d="M485 186h-201l-165 -251h-80l167 251h-103l14 71h135l47 70h-169l14 71h202l160 240h78l-160 -240h102l-14 -71h-134l-47 -70h168z" />
    <glyph glyph-name="lessequal" unicode="&#x2264;" horiz-adv-x="489" 
d="M396 115h-99l-212 265l312 261l113 -1l-321 -267zM404 0h-376l14 71h376z" />
    <glyph glyph-name="greaterequal" unicode="&#x2265;" horiz-adv-x="490" 
d="M489 380l-316 -265h-112l322 274l-204 252h99zM397 0h-376l14 71h376z" />
    <glyph glyph-name="lozenge" unicode="&#x25ca;" horiz-adv-x="541" 
d="M104 356l227 358h85l89 -358l-228 -356h-85zM180 351l65 -281l183 290l-64 283z" />
    <glyph glyph-name="fi" unicode="&#xfb01;" horiz-adv-x="585" 
d="M462 0h-75l87 450h-236l-87 -450h-76l87 450h-90l15 75h90l7 39q14 73 54 111t116 38h47l-14 -74h-56q-23 0 -42.5 -15t-26.5 -48l-9 -51h311zM588 612h-91l21 108h91z" />
    <glyph glyph-name="fl" unicode="&#xfb02;" horiz-adv-x="584" 
d="M404 136l61 314h-227l-87 -450h-75l87 450h-91l15 75h91l8 39q14 72 53.5 110.5t115.5 38.5h47l-14 -74h-56q-23 0 -43 -15t-26 -48l-10 -51h227l36 188h75l-112 -581q-7 -33 3.5 -45.5t40.5 -12.5h24l-14 -74h-29q-56 0 -85 33.5t-15 102.5z" />
    </font>
</defs>
</svg>
